<?xml version="1.0" encoding="utf-8"?>
<!-- Generated by IcoMoon.io -->
<svg version="1.1" xmlns="http://www.w3.org/2000/svg" xmlns:xlink="http://www.w3.org/1999/xlink" width="752" height="32" viewBox="0 0 752 32">
<svg id="icon-audio-melody-music-4-svgrepo-com"  viewBox="0 0 32 32">
<path fill="#16ade1" d="M5.025 5.263h9.438v2.094h-9.438v-2.094z"></path>
<path fill="#16ade1" d="M5.025 10.075h9.438v2.094h-9.438v-2.094z"></path>
<path fill="#1b3954" d="M20.637 2.5h-2.375v18.331c-1.031-0.238-2.212-0.244-3.419 0.044-0.844 0.2-1.619 0.519-2.287 0.925-1.169 0.706-2.019 1.675-2.394 2.719-0.225 0.631-0.281 1.281-0.131 1.925 0.012 0.056 0.025 0.113 0.044 0.169 0.65 2.219 3.619 3.413 6.75 2.681 0.688-0.163 1.319-0.4 1.894-0.7 0.975-0.512 1.769-1.2 2.294-1.975 0.444-0.656 0.7-1.375 0.712-2.094 0-0.025 0-0.044 0-0.069v-15.988l2.813 2.813 2.444-2.444-6.344-6.338zM15.256 22.631c-0.644 0.15-1.238 0.387-1.762 0.712-0.8 0.488-1.394 1.137-1.631 1.788-0.044 0.125-0.169 0.206-0.294 0.206-0.037 0-0.069-0.006-0.106-0.019-0.162-0.056-0.244-0.238-0.188-0.4 0.281-0.781 0.975-1.55 1.894-2.106 0.581-0.356 1.238-0.619 1.944-0.781 0.169-0.038 0.338 0.063 0.375 0.231 0.044 0.163-0.063 0.331-0.231 0.369z"></path>
<path fill="#16ade1" d="M5.025 14.887h9.438v2.094h-9.438v-2.094z"></path>
<path fill="#16ade1" d="M12.231 21.262c0.681-0.413 1.425-0.725 2.231-0.938v-0.619h-9.438v2.094h6.438c0.238-0.194 0.494-0.375 0.769-0.538z"></path>
<path fill="#16ade1" d="M5.025 24.512v2.094h4.4c0-0.006-0.006-0.019-0.006-0.025-0.156-0.681-0.131-1.375 0.081-2.069h-4.475z"></path>
</svg>
<svg id="icon-audio-melody-music-22-svgrepo-com"  viewBox="0 0 32 32" >
<path fill="#16ade1" d="M22.844 17.038l-4.375-2.525v3.656c0 0.2-0.031 0.4-0.1 0.6-0.063 0.2-0.163 0.394-0.288 0.581-0.356 0.525-0.919 0.938-1.581 1.169-0.363 0.125-0.738 0.188-1.106 0.188-1.044 0-1.9-0.525-2.181-1.344-0.256-0.738-0.012-1.563 0.656-2.206 0.331-0.319 0.75-0.575 1.213-0.738 0.194-0.069 0.387-0.113 0.581-0.144v-3.394l-2.775-1.606c-0.5-0.287-1.125 0.075-1.125 0.65v11.5c0 0.575 0.625 0.938 1.125 0.65l9.956-5.75c0.5-0.281 0.5-1 0-1.288z"></path>
<path fill="#1b3954" d="M25.481 12.45c0.038-0.225 0.063-0.463 0.063-0.7 0-2.213-1.794-4.006-4.006-4.006-0.906 0-1.738 0.3-2.406 0.806-1.756-1.556-4.069-2.506-6.6-2.506-5.513-0.006-9.969 4.456-9.969 9.956s4.456 9.962 9.963 9.962h9.787c3.938 0 7.125-3.194 7.125-7.125 0-2.8-1.613-5.225-3.956-6.387zM23.156 18.875l-9.956 5.75c-0.213 0.119-0.45 0.188-0.688 0.188-0.756 0-1.375-0.619-1.375-1.375v-11.5c0-0.756 0.619-1.375 1.375-1.375 0.238 0 0.475 0.063 0.688 0.188l2.463 1.425v-2.262l2.119-0.231 2.863-0.306v2.813l-2.169 0.238v1.363l4.688 2.706c0.431 0.25 0.688 0.694 0.688 1.188-0.006 0.5-0.262 0.944-0.694 1.194z"></path>
<path fill="#1b3954" d="M14.306 17.613c-0.469 0.45-0.681 1.038-0.5 1.556 0.281 0.806 1.394 1.15 2.494 0.762 0.556-0.194 1-0.538 1.269-0.931 0.094-0.137 0.163-0.281 0.212-0.425 0.044-0.137 0.069-0.275 0.069-0.413v-6.3l2.169-0.238v-1.563l-3.725 0.4v6.4c-0.319-0.012-0.662 0.038-1 0.15-0.394 0.144-0.731 0.35-0.988 0.6z"></path>
</svg>
<svg id="icon-audio-melody-music-23-svgrepo-com"  viewBox="0 0 32 32" >
<path fill="#1b3954" d="M16 13.050c2.894 0 5.244-2.35 5.244-5.244s-2.35-5.244-5.244-5.244-5.244 2.35-5.244 5.244 2.35 5.244 5.244 5.244zM16.656 5.331h2.125v4.944h-2.125v-4.944zM13.219 5.331h2.125v4.944h-2.125v-4.944z"></path>
<path fill="#1b3954" d="M16 18.95c-2.894 0-5.244 2.35-5.244 5.244s2.35 5.244 5.244 5.244 5.244-2.35 5.244-5.244c0-2.894-2.35-5.244-5.244-5.244zM19.019 25.712c0 0.219-0.069 0.438-0.206 0.637-0.188 0.281-0.494 0.506-0.85 0.631-0.194 0.069-0.4 0.1-0.594 0.1-0.563 0-1.019-0.281-1.175-0.719-0.213-0.613 0.231-1.306 1.006-1.581 0.113-0.038 0.219-0.069 0.331-0.081v-2.069l-1.994 0.219v3.163c0 0.219-0.069 0.438-0.206 0.637-0.194 0.281-0.494 0.506-0.85 0.631-0.194 0.069-0.4 0.1-0.594 0.1-0.563 0-1.019-0.281-1.175-0.719-0.213-0.613 0.231-1.306 1.006-1.581 0.113-0.038 0.219-0.069 0.331-0.081v-3.488l4.969-0.538v4.738z"></path>
<path fill="#16ade1" d="M24.194 10.756c-2.894 0-5.244 2.35-5.244 5.244s2.35 5.244 5.244 5.244 5.244-2.35 5.244-5.244-2.35-5.244-5.244-5.244zM26.663 18.475h-4.944v-4.944h4.944v4.944z"></path>
<path fill="#16ade1" d="M13.050 16c0-2.894-2.35-5.244-5.244-5.244s-5.244 2.35-5.244 5.244 2.35 5.244 5.244 5.244 5.244-2.35 5.244-5.244zM6.063 18.944v-5.881l5.094 2.944-5.094 2.938z"></path>
</svg>
<svg id="icon-audio-melody-music-30-svgrepo-com"  viewBox="0 0 32 32" >
<path fill="#16ade1" d="M24.069 15.894l-5.394-3.113v4.475c0 0.225-0.038 0.456-0.113 0.688-0.069 0.225-0.181 0.45-0.331 0.669-0.413 0.613-1.069 1.094-1.844 1.363-0.425 0.15-0.856 0.225-1.287 0.225-1.2 0-2.188-0.6-2.513-1.531-0.294-0.844-0.006-1.788 0.756-2.525 0.381-0.375 0.875-0.669 1.412-0.856 0.256-0.088 0.519-0.15 0.781-0.188v-4.125l-3.475-2.006c-0.6-0.35-1.356 0.088-1.356 0.781v13.85c0 0.694 0.75 1.131 1.356 0.781l11.994-6.925c0.619-0.344 0.619-1.212 0.012-1.563z"></path>
<path fill="#1b3954" d="M16 2.563c-7.419 0-13.438 6.019-13.438 13.438s6.019 13.438 13.438 13.438 13.438-6.019 13.438-13.438-6.019-13.438-13.438-13.438zM16 27.188c-6.181 0-11.188-5.012-11.188-11.188s5.006-11.188 11.188-11.188 11.188 5.012 11.188 11.188-5.006 11.188-11.188 11.188z"></path>
<path fill="#1b3954" d="M13.781 16.594c-0.563 0.544-0.819 1.244-0.6 1.869 0.338 0.969 1.681 1.381 3.006 0.925 0.669-0.231 1.206-0.644 1.531-1.119 0.113-0.163 0.2-0.337 0.25-0.512 0.056-0.163 0.081-0.331 0.081-0.494v-7.6l0.688-0.075 1.925-0.206v-1.888l-2.619 0.281-1.875 0.206v7.713c-0.381-0.019-0.794 0.044-1.206 0.188-0.463 0.156-0.869 0.406-1.181 0.713z"></path>
</svg>
<svg id="icon-audio-melody-music-49-svgrepo-com"   viewBox="0 0 32 32" >
<path fill="#1b3954" d="M22.238 3.781c-0.675-0.413-1.413-0.744-2.188-0.975-0.869-0.263-1.788-0.4-2.738-0.394-0.725 0-1.431 0.087-2.113 0.25-0.769 0.181-1.506 0.462-2.188 0.819-3.012 1.594-5.063 4.788-5.063 8.425v2.012l-1.35 4.363c-0.106 0.337 0.15 0.681 0.506 0.681h0.844l0.419 3.469c0.113 0.906 0.881 1.594 1.794 1.594h3.881v1.056c2.056-1.919 3.35-4.6 3.513-7.544h-0.669l-0.181-2.512c-0.706-0.55-1.119-1.387-1.119-2.3 0-1.613 1.312-2.925 2.925-2.925s2.919 1.313 2.919 2.925c0 0.912-0.413 1.75-1.119 2.3l-0.181 2.512h-0.7c-0.131 2.681-1.094 5.294-2.744 7.412-0.756 0.975-1.65 1.831-2.644 2.544v1.794h8.837v-4.181c0-2.913 0.794-5.775 2.363-8.225 0.944-1.463 1.488-3.206 1.488-5.075 0.012-3.4-1.794-6.375-4.494-8.025z"></path>
<path fill="#16ade1" d="M16.206 24.556c1.694-2.175 2.631-4.894 2.631-7.65h0.725l0.106-1.5c-0.363 0.156-0.75 0.231-1.144 0.231s-0.788-0.081-1.144-0.231l0.106 1.5h0.725c0 5.444-3.675 10.15-8.931 11.444-1.262 0.313-2.519 0.519-3.731 0.619-0.175 0.012-0.3 0.163-0.287 0.337 0.013 0.163 0.15 0.288 0.313 0.288 0.006 0 0.019 0 0.025 0 1.25-0.1 2.538-0.319 3.831-0.637 2.669-0.656 5.075-2.219 6.775-4.4z"></path>
<path fill="#16ade1" d="M19.719 14.681c0.656-0.406 1.1-1.131 1.1-1.963 0-1.269-1.031-2.3-2.294-2.3-1.269 0-2.3 1.025-2.3 2.3 0 0.831 0.438 1.556 1.1 1.963 0.35 0.213 0.762 0.338 1.2 0.338 0.431 0 0.844-0.125 1.194-0.338zM17.569 12.719c0-0.069 0.006-0.137 0.019-0.206 0.094-0.431 0.475-0.75 0.931-0.75s0.837 0.319 0.931 0.75c0.012 0.069 0.025 0.131 0.025 0.206 0 0.525-0.425 0.956-0.95 0.956-0.531 0-0.956-0.431-0.956-0.956z"></path>
</svg>
<svg id="icon-audio-melody-music-50-svgrepo-com"  viewBox="0 0 32 32" >
<path fill="#1b3954" d="M11.519 16c0 1.962 1.594 3.556 3.556 3.556s3.556-1.594 3.556-3.556c0-1.963-1.594-3.556-3.556-3.556-1.969 0-3.556 1.594-3.556 3.556z"></path>
<path fill="#16ade1" d="M15.075 11.819v-8.338c-6.912 0-12.519 5.606-12.519 12.519h8.338c0-2.306 1.875-4.181 4.181-4.181z"></path>
<path fill="#1b3954" d="M17.825 27.85c-1.381 0-2.506-1.125-2.506-2.512s1.125-2.512 2.506-2.512c0.363 0 0.712 0.075 1.038 0.225l6.544-3.613v-8.869c-0.938-0.063-1.675-0.844-1.675-1.794v-1.813c-2.106-2.019-4.919-3.313-8.031-3.462v8.369c2.006 0.3 3.556 2.037 3.556 4.131 0 2.306-1.875 4.181-4.181 4.181-2.094 0-3.831-1.544-4.131-3.556h-8.375c0.325 6.625 5.8 11.894 12.5 11.894 4.438 0 8.338-2.313 10.563-5.8l-5.325 2.938c-0.15 1.238-1.206 2.194-2.481 2.194zM14.881 27.331c0 0 0 0 0 0-2.719-0.044-5.325-1.069-7.356-2.881-2.013-1.8-3.319-4.25-3.681-6.906-0.025-0.169 0.094-0.331 0.269-0.35 0.175-0.025 0.331 0.094 0.35 0.269 0.706 5.181 5.187 9.156 10.425 9.244 0.175 0 0.313 0.144 0.306 0.319 0 0.169-0.137 0.306-0.313 0.306z"></path>
<path fill="#16ade1" d="M28.275 3.481h-2.744c-0.644 0-1.169 0.525-1.169 1.169v4.119c0 0.644 0.525 1.169 1.169 1.169h0.506v9.863l-7.175 3.956c-0.3-0.194-0.656-0.313-1.038-0.313-1.044 0-1.887 0.844-1.887 1.887 0 1.038 0.844 1.887 1.887 1.887 1.038 0 1.881-0.844 1.881-1.887 0-0.019 0-0.044 0-0.063l8.063-4.45v-10.875h0.506c0.644 0 1.169-0.525 1.169-1.169v-4.119c0-0.65-0.525-1.175-1.169-1.175z"></path>
</svg>
<svg id="icon-device-drone-electronic-svgrepo-com" viewBox="0 0 32 32">
<path fill="#2b79c2" d="M7.394 12.544c0.388 0 0.769-0.044 1.131-0.125-0.213-0.313-0.456-0.613-0.725-0.881l-0.188-0.188c-0.156-0.156-0.35-0.256-0.544-0.281-0.744-0.106-1.413-0.438-1.944-0.969-0.644-0.644-1-1.506-0.994-2.419 0-0.912 0.362-1.769 1.006-2.413 0.638-0.638 1.494-0.981 2.4-0.981 0.869 0 1.7 0.325 2.331 0.919 0.563 0.525 0.919 1.206 1.037 1.969 0.037 0.231 0.131 0.438 0.281 0.588l0.044 0.044c0.325 0.325 0.681 0.606 1.063 0.844 0.081-0.363 0.125-0.737 0.125-1.125 0-2.775-2.25-5.019-5.019-5.019-2.781-0.006-5.025 2.244-5.025 5.013 0 2.775 2.244 5.025 5.019 5.025z"></path>
<path fill="#3b4652" d="M21.394 23.581l0.044 0.044c0.288 0.288 0.469 0.669 0.531 1.075 0.081 0.538 0.337 1.056 0.769 1.462 0.988 0.925 2.556 0.906 3.512-0.050 0.994-0.988 1-2.594 0.006-3.587-0.406-0.406-0.913-0.644-1.444-0.719-0.394-0.056-0.762-0.244-1.044-0.531l-0.194-0.188c-0.369-0.369-0.694-0.781-0.969-1.219-0.675-1.081-1.044-2.337-1.044-3.631v-0.469c0-1.294 0.369-2.55 1.044-3.637 0.275-0.438 0.594-0.844 0.969-1.213l0.144-0.144c0.306-0.306 0.694-0.519 1.125-0.581 0.538-0.081 1.056-0.338 1.462-0.769 0.925-0.988 0.906-2.556-0.050-3.519-0.988-0.994-2.6-1-3.587-0.006-0.394 0.394-0.631 0.881-0.712 1.394-0.069 0.425-0.269 0.825-0.575 1.131-0.425 0.425-0.894 0.787-1.406 1.081-0.262 0.156-0.538 0.294-0.825 0.406-0.825 0.344-1.712 0.525-2.625 0.525h-1.088c-1.219 0-2.406-0.325-3.444-0.931-0.506-0.294-0.981-0.656-1.406-1.081l-0.025-0.050c-0.287-0.287-0.469-0.669-0.531-1.069-0.081-0.537-0.338-1.056-0.769-1.463-0.988-0.931-2.55-0.906-3.513 0.044-0.994 0.987-1 2.594-0.006 3.587 0.406 0.406 0.912 0.644 1.444 0.719 0.394 0.056 0.763 0.244 1.044 0.531l0.194 0.194c0.369 0.369 0.694 0.781 0.969 1.213 0.675 1.081 1.044 2.338 1.044 3.637 0 1.063-0.213 2.1-0.606 3.056-0.144 0.35-0.313 0.688-0.506 1.012-0.338 0.569-0.75 1.1-1.225 1.581l-0.037 0.019c-0.2 0.2-0.463 0.325-0.744 0.35-0.6 0.050-1.188 0.313-1.631 0.788-0.925 0.988-0.906 2.556 0.050 3.519 0.987 0.994 2.6 1 3.587 0.006 0.438-0.438 0.681-0.994 0.731-1.563 0.025-0.288 0.15-0.55 0.35-0.756l0.2-0.2c0.425-0.425 0.894-0.788 1.406-1.081 1.037-0.606 2.225-0.931 3.444-0.931h1.088c1.219 0 2.406 0.325 3.444 0.931 0.512 0.294 0.981 0.656 1.406 1.081zM16 18.188c-1.206 0-2.188-0.981-2.188-2.188s0.981-2.188 2.188-2.188 2.188 0.981 2.188 2.188-0.981 2.188-2.188 2.188z"></path>
<path fill="#2b79c2" d="M20.775 7.8c0.175-0.175 0.288-0.4 0.325-0.65 0.113-0.719 0.444-1.362 0.956-1.875 0.644-0.644 1.5-1 2.406-1 0.913 0 1.775 0.356 2.419 1.006 0.619 0.625 0.969 1.463 0.981 2.35 0.012 0.894-0.313 1.738-0.919 2.381-0.531 0.563-1.212 0.919-1.975 1.037-0.225 0.037-0.456 0.156-0.637 0.338l-0.144 0.144c-0.269 0.269-0.512 0.563-0.725 0.881 0.363 0.081 0.744 0.125 1.131 0.125 2.775 0 5.019-2.25 5.019-5.019 0-2.775-2.25-5.019-5.019-5.019-2.775 0-5.019 2.25-5.019 5.019 0 0.388 0.044 0.763 0.125 1.125 0.394-0.238 0.756-0.519 1.075-0.844z"></path>
<path fill="#2b79c2" d="M11.225 24.2l-0.2 0.2c-0.056 0.056-0.088 0.131-0.1 0.219-0.069 0.794-0.419 1.544-0.988 2.106-0.644 0.644-1.5 1-2.406 1-0.919 0-1.775-0.356-2.419-1.006-0.619-0.631-0.969-1.462-0.981-2.35-0.013-0.894 0.313-1.738 0.919-2.381 0.581-0.613 1.362-0.994 2.2-1.063 0.069-0.006 0.144-0.038 0.194-0.094l0.025-0.025c0.369-0.369 0.7-0.781 0.981-1.225-0.338-0.075-0.694-0.113-1.056-0.113-2.775 0-5.019 2.25-5.019 5.019s2.25 5.019 5.019 5.019c2.775 0 5.019-2.25 5.019-5.019 0-0.387-0.044-0.762-0.125-1.125-0.381 0.231-0.738 0.512-1.063 0.837z"></path>
<path fill="#2b79c2" d="M24.606 19.456c-0.387 0-0.769 0.044-1.131 0.131 0.212 0.313 0.456 0.613 0.725 0.881l0.188 0.188c0.156 0.156 0.35 0.256 0.544 0.281 0.744 0.1 1.413 0.438 1.944 0.969 0.644 0.644 1 1.506 0.994 2.419 0 0.913-0.363 1.769-1.006 2.413-0.637 0.631-1.494 0.981-2.4 0.981-0.438 0-0.863-0.081-1.256-0.238s-0.756-0.387-1.075-0.681c-0.563-0.531-0.919-1.206-1.038-1.969-0.038-0.231-0.131-0.431-0.281-0.587l-0.044-0.044c-0.325-0.325-0.681-0.606-1.063-0.844-0.081 0.363-0.125 0.738-0.125 1.125 0 2.775 2.25 5.019 5.019 5.019 2.775 0 5.019-2.25 5.019-5.019s-2.238-5.025-5.012-5.025z"></path>
</svg>
<svg id="icon-device-earphone-electronic-svgrepo-com"  viewBox="0 0 32 32" >
<path fill="#3b4652" d="M29.762 19.712c-0.613-0.613-1.394-1.063-2.262-1.281v-1.006c0-0.494-0.2-0.944-0.525-1.269 0.006-0.031 0.012-0.063 0.012-0.094v-0.563c0-2.938-1.144-5.706-3.225-7.781-0.4-0.4-0.837-0.775-1.294-1.106-0.081-0.631-0.475-1.212-1.113-1.5-1.681-0.763-3.506-1.156-5.381-1.156-1.869 0-3.694 0.394-5.375 1.156-0.631 0.287-1.025 0.869-1.113 1.494-2.838 2.069-4.525 5.369-4.525 8.894v0.563c0 0.044 0.006 0.087 0.019 0.125-0.306 0.325-0.494 0.762-0.494 1.238v1.006c-0.869 0.219-1.644 0.669-2.263 1.281-0.869 0.887-1.413 2.106-1.413 3.456 0 2.694 2.188 4.881 4.881 4.881h0.6v-7.894h0.875v6.181c1.094-0.363 1.887-1.4 1.887-2.619v-3.45c0-0.306-0.244-0.55-0.55-0.55h-0.394v-2.294c0-0.494-0.2-0.938-0.519-1.262 0.006-0.031 0.013-0.069 0.013-0.1v-0.563c0-2.688 1.287-5.206 3.456-6.781 0.369 0.063 0.762 0.019 1.125-0.144 1.181-0.531 2.475-0.813 3.794-0.813 1.325 0 2.613 0.281 3.8 0.813 0.363 0.162 0.756 0.206 1.125 0.144 0.356 0.256 0.688 0.544 1 0.856 1.581 1.581 2.456 3.688 2.456 5.925v0.563c0 0.044 0.006 0.087 0.019 0.131-0.306 0.325-0.494 0.756-0.494 1.238v2.294h-0.387c-0.3 0-0.55 0.244-0.55 0.55v3.45c0 0.762 0.306 1.456 0.806 1.95 0.3 0.3 0.669 0.531 1.075 0.669v-6.181h0.875v7.887h0.6c2.694 0 4.881-2.188 4.881-4.881 0-1.35-0.544-2.569-1.425-3.456zM7.231 17.425v1.856h-1.856v-1.856c0-0.512 0.419-0.931 0.931-0.931s0.925 0.419 0.925 0.931zM6.725 15.494v0.175c-0.138-0.031-0.275-0.050-0.425-0.050-0.156 0-0.306 0.019-0.45 0.056v-0.181c0-3.088 1.4-5.981 3.787-7.9 0.050 0.106 0.106 0.213 0.175 0.313v0c0.1 0.15 0.219 0.275 0.35 0.387-2.162 1.756-3.438 4.394-3.438 7.2zM24.769 17.425c0-0.512 0.419-0.931 0.931-0.931s0.931 0.419 0.931 0.931v1.856h-1.856v-1.856zM22.525 8.95c-0.231-0.231-0.469-0.444-0.719-0.65 0.131-0.113 0.25-0.238 0.35-0.388v0c0.069-0.1 0.125-0.206 0.175-0.313 0.288 0.231 0.556 0.475 0.813 0.731 1.913 1.912 2.969 4.456 2.969 7.162v0.175c-0.131-0.031-0.275-0.050-0.419-0.050-0.156 0-0.313 0.019-0.456 0.056v-0.188c0-2.463-0.962-4.787-2.712-6.537z"></path>
<path fill="#2b79c2" d="M15.988 11.606c-3.3 0-5.981 2.675-5.981 5.981 0 3.3 2.675 5.981 5.981 5.981s5.981-2.675 5.981-5.981c0-3.306-2.681-5.981-5.981-5.981zM12.581 19.119c0 0.244-0.194 0.438-0.438 0.438s-0.438-0.194-0.438-0.438v-2.375c0-0.244 0.194-0.438 0.438-0.438s0.438 0.194 0.438 0.438v2.375zM15.144 19.119c0 0.244-0.194 0.438-0.438 0.438s-0.438-0.194-0.438-0.438v-4.063c0-0.244 0.194-0.438 0.438-0.438s0.438 0.194 0.438 0.438v4.063zM17.706 20.806c0 0.244-0.194 0.438-0.438 0.438s-0.438-0.194-0.438-0.438v-4.063c0-0.244 0.194-0.438 0.438-0.438s0.438 0.194 0.438 0.438v4.063zM20.269 19.119c0 0.244-0.194 0.438-0.438 0.438s-0.438-0.194-0.438-0.438v-2.375c0-0.244 0.194-0.438 0.438-0.438s0.438 0.194 0.438 0.438v2.375z"></path>
</svg>
<svg id="icon-device-electronic-machine-23-svgrepo-com" viewBox="0 0 32 32">
<path fill="#3b4652" d="M25.669 15.531l-1.494-1.537v-3.463c0-4.981-4.037-9.012-9.012-9.012-5 0-9.019 4.112-9.019 9.106v6.375c0 2.012 0.588 3.981 1.688 5.669v0 7.813h9.231v-6.825l1.688 1.369h2.462c1.431 0 2.587-1.156 2.587-2.587v-0.319l1.288-0.819-1.175-0.831 0.825-0.825-0.55-0.55v-2.431h1.019c0.575-0.006 0.869-0.713 0.462-1.131zM10.838 13.994v14.3c0 0.244-0.194 0.438-0.438 0.438s-0.438-0.194-0.438-0.438v-14.3c-0.594-0.188-1.025-0.744-1.025-1.4 0-0.806 0.656-1.463 1.463-1.463s1.463 0.656 1.463 1.463c0 0.662-0.431 1.213-1.025 1.4zM13.006 28.294c0 0.244-0.194 0.438-0.438 0.438s-0.438-0.194-0.438-0.438v-12.363c0-0.119 0.044-0.225 0.125-0.306l3.2-3.2c-0.306-0.269-0.494-0.662-0.494-1.1 0-0.806 0.656-1.463 1.463-1.463s1.462 0.656 1.462 1.463c0 0.806-0.656 1.463-1.462 1.463-0.031 0-0.063 0-0.094-0.006l-3.331 3.331v12.181zM20.575 9.45v2.869c0 0.119-0.044 0.225-0.125 0.306l-5.044 5.044v10.619c0 0.244-0.194 0.438-0.438 0.438s-0.438-0.194-0.438-0.438v-10.794c0-0.119 0.044-0.225 0.125-0.313l5.044-5.044v-2.688c-0.594-0.188-1.025-0.744-1.025-1.4 0-0.806 0.656-1.463 1.462-1.463s1.462 0.656 1.462 1.463c0 0.656-0.431 1.213-1.025 1.4z"></path>
</svg>
<svg id="icon-music-svgrepo-com-1" viewBox="0 0 32 32" >
<path fill="#47bcfe" opacity="0.6" d="M19.23 11.37c0 4.879-3.955 8.834-8.834 8.834s-8.834-3.955-8.834-8.834c0-4.879 3.955-8.834 8.834-8.834s8.834 3.955 8.834 8.834z"></path>
<path fill="#ccf2ff" opacity="0.7" d="M5.25 4.19c-3.965 2.842-4.876 8.361-2.034 12.326s8.361 4.876 12.326 2.034l-10.293-14.36z"></path>
<path fill="#141b41" d="M10.409 20.867c-2.961 0-5.881-1.377-7.734-3.962-1.478-2.063-2.065-4.577-1.652-7.081s1.776-4.697 3.839-6.175c4.258-3.051 10.205-2.071 13.256 2.187v0c3.052 4.258 2.071 10.205-2.187 13.256-1.673 1.199-3.606 1.775-5.522 1.775zM10.385 3.206c-1.647 0-3.309 0.495-4.747 1.526-1.773 1.271-2.945 3.156-3.3 5.308s0.149 4.314 1.42 6.088c2.624 3.66 7.736 4.504 11.396 1.88s4.504-7.735 1.88-11.396c-1.593-2.222-4.104-3.406-6.649-3.406z"></path>
<path fill="#141b41" d="M14.263 8.932c-0.104 0-0.206-0.048-0.271-0.139-0.688-0.961-1.709-1.595-2.875-1.788s-2.337 0.081-3.297 0.769c-0.15 0.108-0.358 0.073-0.465-0.077s-0.073-0.358 0.077-0.465c1.105-0.792 2.452-1.106 3.794-0.885s2.516 0.952 3.309 2.057c0.107 0.15 0.073 0.358-0.077 0.465-0.059 0.042-0.127 0.063-0.194 0.063z"></path>
<path fill="#141b41" d="M20.693 29.113c-1.055 0-2.096-0.491-2.756-1.411l-5.395-7.527 1.084-0.777 5.395 7.527c0.659 0.919 1.943 1.131 2.862 0.472s1.131-1.943 0.472-2.862l-5.395-7.527 1.084-0.777 5.395 7.527c1.087 1.517 0.738 3.635-0.779 4.723-0.596 0.427-1.285 0.633-1.967 0.633z"></path>
<path fill="#141b41" d="M26.146 30.589c-1.69 0-3.357-0.786-4.415-2.262-0.215-0.299-0.146-0.716 0.153-0.93s0.716-0.146 0.93 0.154c1.314 1.833 3.874 2.256 5.707 0.941s2.255-3.874 0.942-5.707l-4.51-6.292c-1.008-1.407-0.735-3.35 0.622-4.424 1.392-1.102 3.428-0.87 4.537 0.516l1.121 1.401c0.23 0.287 0.183 0.707-0.104 0.937s-0.707 0.184-0.937-0.104l-1.121-1.401c-0.652-0.815-1.85-0.951-2.668-0.303-0.798 0.632-0.959 1.775-0.366 2.602l4.51 6.292c1.742 2.43 1.182 5.825-1.249 7.567-0.955 0.684-2.058 1.013-3.152 1.013z"></path>
<path fill="#141b41" d="M15.637 23.68c-0.105 0-0.209-0.050-0.274-0.143-0.105-0.151-0.068-0.359 0.083-0.464l4.543-3.169c0.151-0.105 0.359-0.068 0.464 0.083s0.068 0.359-0.083 0.464l-4.543 3.169c-0.058 0.040-0.125 0.060-0.19 0.060z"></path>
<path fill="#141b41" d="M8.666 20.333c-0.046 0-0.092-0.009-0.137-0.029-0.168-0.076-0.243-0.273-0.167-0.441l3-6.667c0.076-0.168 0.274-0.242 0.441-0.167s0.243 0.273 0.167 0.441l-3 6.667c-0.056 0.124-0.177 0.197-0.304 0.197z"></path>
<path fill="#141b41" d="M6.774 19.762c-0.046 0-0.092-0.009-0.137-0.029-0.168-0.076-0.243-0.273-0.167-0.441l1.893-4.206c0.076-0.168 0.274-0.242 0.441-0.167s0.243 0.273 0.167 0.441l-1.893 4.206c-0.056 0.124-0.177 0.197-0.304 0.197z"></path>
<path fill="#141b41" d="M22.334 28.333c-0.098 0-0.195-0.043-0.26-0.125l-1.333-1.667c-0.115-0.144-0.092-0.354 0.052-0.469s0.353-0.092 0.468 0.052l1.333 1.667c0.115 0.144 0.092 0.354-0.052 0.469-0.061 0.049-0.135 0.073-0.208 0.073z"></path>
<path fill="#141b41" d="M22.167 10c-0.184 0-0.333-0.149-0.333-0.333s0.149-0.333 0.333-0.333c2.39 0 4.333-1.944 4.333-4.333s-1.944-4.333-4.333-4.333c-0.184 0-0.333-0.149-0.333-0.333s0.149-0.333 0.333-0.333c2.757 0 5 2.243 5 5s-2.243 5-5 5z"></path>
<path fill="#141b41" d="M22.167 7.333c-0.184 0-0.333-0.149-0.333-0.333s0.149-0.333 0.333-0.333c0.919 0 1.667-0.748 1.667-1.667s-0.748-1.667-1.667-1.667c-0.184 0-0.333-0.149-0.333-0.333s0.149-0.333 0.333-0.333c1.287 0 2.333 1.047 2.333 2.333s-1.047 2.333-2.333 2.333z"></path>
<path fill="#141b41" d="M9.667 26.667h-6.667c-0.368 0-0.667-0.299-0.667-0.667s0.298-0.667 0.667-0.667h6.667c0.368 0 0.667 0.299 0.667 0.667s-0.299 0.667-0.667 0.667z"></path>
<path fill="#141b41" d="M19.912 29h-19.246c-0.368 0-0.667-0.299-0.667-0.667s0.298-0.667 0.667-0.667h19.246c0.368 0 0.667 0.299 0.667 0.667s-0.299 0.667-0.667 0.667z"></path>
</svg>
<svg id="icon-music-svgrepo-com-2"  viewBox="0 0 32 32" >
<path fill="#47bcfe" opacity="0.6" d="M13.667 0.667c-7.18 0-13 5.82-13 13s5.82 13 13 13 13-5.82 13-13c0-7.18-5.82-13-13-13zM13.667 17c-1.841 0-3.333-1.492-3.333-3.333s1.492-3.333 3.333-3.333 3.333 1.492 3.333 3.333c0 1.841-1.492 3.333-3.333 3.333z"></path>
<path fill="#ccf2ff" opacity="0.7" d="M13.667 0.667v9.667c1.841 0 3.333 1.492 3.333 3.333s-1.492 3.333-3.333 3.333v9.667c7.18 0 13-5.82 13-13s-5.82-13-13-13z"></path>
<path fill="#141b41" d="M29.667 17.333c-0.184 0-0.333-0.149-0.333-0.333v-3.333c0-0.184 0.149-0.333 0.333-0.333s0.333 0.149 0.333 0.333v3.333c0 0.184-0.149 0.333-0.333 0.333z"></path>
<path fill="#141b41" d="M29.667 19.333c-0.184 0-0.333-0.149-0.333-0.333v-0.667c0-0.184 0.149-0.333 0.333-0.333s0.333 0.149 0.333 0.333v0.667c0 0.184-0.149 0.333-0.333 0.333z"></path>
<path fill="#141b41" d="M17 30h-3.333c-0.184 0-0.333-0.149-0.333-0.333s0.149-0.333 0.333-0.333h3.333c0.184 0 0.333 0.149 0.333 0.333s-0.149 0.333-0.333 0.333z"></path>
<path fill="#141b41" d="M13.667 27.333h-13c-0.368 0-0.667-0.299-0.667-0.667s0.298-0.667 0.667-0.667h13c0.368 0 0.667 0.299 0.667 0.667s-0.299 0.667-0.667 0.667z"></path>
<path fill="#141b41" d="M6.234 25h-4.234c-0.368 0-0.667-0.299-0.667-0.667s0.298-0.667 0.667-0.667h4.234c0.368 0 0.667 0.299 0.667 0.667s-0.298 0.667-0.667 0.667z"></path>
<path fill="#141b41" d="M26.667 1.333h-13c-0.368 0-0.667-0.298-0.667-0.667s0.299-0.667 0.667-0.667h13c0.368 0 0.667 0.298 0.667 0.667s-0.299 0.667-0.667 0.667z"></path>
<path fill="#141b41" d="M25.333 3.667h-4.234c-0.368 0-0.667-0.298-0.667-0.667s0.299-0.667 0.667-0.667h4.234c0.368 0 0.667 0.298 0.667 0.667s-0.299 0.667-0.667 0.667z"></path>
<path fill="#141b41" d="M13.667 20.667c-3.86 0-7-3.14-7-7s3.14-7 7-7 7 3.14 7 7-3.14 7-7 7zM13.667 7.333c-3.492 0-6.333 2.841-6.333 6.333s2.841 6.333 6.333 6.333 6.333-2.841 6.333-6.333-2.841-6.333-6.333-6.333z"></path>
<path fill="#141b41" d="M13.667 23.667c-5.514 0-10-4.486-10-10s4.486-10 10-10 10 4.486 10 10-4.486 10-10 10zM13.667 4.333c-5.146 0-9.333 4.187-9.333 9.333s4.187 9.333 9.333 9.333 9.333-4.187 9.333-9.333-4.187-9.333-9.333-9.333z"></path>
<path fill="#141b41" d="M24 24.666c-0.171 0-0.341-0.065-0.471-0.195l-5.458-5.458c-0.26-0.26-0.26-0.682 0-0.943s0.683-0.26 0.943 0l5.458 5.458c0.26 0.26 0.26 0.682 0 0.943-0.13 0.13-0.301 0.195-0.471 0.195z"></path>
<path fill="#141b41" d="M24.471 23.528l1.334 1.334-0.943 0.943-1.334-1.334 0.943-0.943z"></path>
<path fill="#141b41" d="M31.333 32h-17.667c-0.368 0-0.667-0.299-0.667-0.667v-4.667c0-0.368 0.299-0.667 0.667-0.667s0.667 0.299 0.667 0.667v4h16.333v-16.333h-4c-0.368 0-0.667-0.299-0.667-0.667s0.299-0.667 0.667-0.667h4.667c0.368 0 0.667 0.299 0.667 0.667v17.667c0 0.368-0.299 0.667-0.667 0.667z"></path>
<path fill="#141b41" d="M26.667 32c-0.368 0-0.667-0.299-0.667-0.667v-2.667c0-0.368 0.299-0.667 0.667-0.667s0.667 0.299 0.667 0.667v2.667c0 0.368-0.299 0.667-0.667 0.667z"></path>
<path fill="#141b41" d="M31.333 27.333h-2.667c-0.368 0-0.667-0.299-0.667-0.667s0.299-0.667 0.667-0.667h2.667c0.368 0 0.667 0.299 0.667 0.667s-0.299 0.667-0.667 0.667z"></path>
<path fill="#141b41" d="M13.667 22.333c-0.184 0-0.333-0.149-0.333-0.333v-5c0-0.184 0.149-0.333 0.333-0.333s0.333 0.149 0.333 0.333v5c0 0.184-0.149 0.333-0.333 0.333z"></path>
<path fill="#141b41" d="M13.667 10.667c-0.184 0-0.333-0.149-0.333-0.333v-5c0-0.184 0.149-0.333 0.333-0.333s0.333 0.149 0.333 0.333v5c0 0.184-0.149 0.333-0.333 0.333z"></path>
<path fill="#141b41" d="M10.333 14h-5c-0.184 0-0.333-0.149-0.333-0.333s0.149-0.333 0.333-0.333h5c0.184 0 0.333 0.149 0.333 0.333s-0.149 0.333-0.333 0.333z"></path>
<path fill="#141b41" d="M22 14h-5c-0.184 0-0.333-0.149-0.333-0.333s0.149-0.333 0.333-0.333h5c0.184 0 0.333 0.149 0.333 0.333s-0.149 0.333-0.333 0.333z"></path>
<path fill="#141b41" d="M13.667 27.333c-7.536 0-13.667-6.131-13.667-13.667s6.131-13.667 13.667-13.667 13.667 6.131 13.667 13.667-6.131 13.667-13.667 13.667zM13.667 1.333c-6.801 0-12.333 5.533-12.333 12.333s5.533 12.333 12.333 12.333 12.333-5.533 12.333-12.333-5.533-12.333-12.333-12.333z"></path>
<path fill="#141b41" d="M13.667 17.667c-2.206 0-4-1.794-4-4s1.794-4 4-4 4 1.794 4 4-1.794 4-4 4zM13.667 11c-1.47 0-2.667 1.196-2.667 2.667s1.196 2.667 2.667 2.667 2.667-1.196 2.667-2.667-1.196-2.667-2.667-2.667z"></path>
<path fill="#141b41" d="M26.667 29.333c-1.47 0-2.667-1.196-2.667-2.667s1.196-2.667 2.667-2.667 2.667 1.196 2.667 2.667-1.196 2.667-2.667 2.667zM26.667 25.333c-0.735 0-1.333 0.598-1.333 1.333s0.598 1.333 1.333 1.333 1.333-0.598 1.333-1.333-0.598-1.333-1.333-1.333z"></path>
</svg>
<svg id="icon-music-svgrepo-com-3" viewBox="0 0 32 32">
<path fill="#47bcfe" opacity="0.6" d="M24.82 8.883c-0.505-0.625-1.075-1.195-1.7-1.701-1.946-1.573-4.423-2.515-7.12-2.515-2.699 0-5.177 0.943-7.124 2.518-0.593 0.48-1.136 1.018-1.621 1.606-1.617 1.959-2.588 4.471-2.588 7.209 0 2.672 0.924 5.127 2.471 7.065 0.515 0.646 1.1 1.234 1.742 1.753 1.946 1.573 4.423 2.515 7.12 2.515s5.174-0.942 7.12-2.515c0.625-0.505 1.195-1.075 1.7-1.7 1.572-1.946 2.514-4.422 2.514-7.118s-0.941-5.172-2.513-7.117zM18.594 18.094c-0.149 0.184-0.316 0.351-0.5 0.5-0.572 0.463-1.301 0.74-2.094 0.74s-1.522-0.277-2.094-0.74c-0.189-0.153-0.361-0.326-0.512-0.516-0.455-0.57-0.727-1.292-0.727-2.078 0-0.805 0.286-1.544 0.761-2.12 0.143-0.173 0.303-0.331 0.477-0.472 0.572-0.463 1.301-0.741 2.095-0.741s1.522 0.277 2.094 0.74c0.184 0.149 0.351 0.316 0.5 0.5 0.462 0.572 0.739 1.3 0.739 2.093s-0.277 1.521-0.739 2.094z"></path>
<path fill="#ccf2ff" opacity="0.7" d="M24.82 8.883c-0.253-0.313-0.521-0.611-0.805-0.895l-5.658 5.656c0.075 0.075 0.145 0.155 0.213 0.237 0.008 0.009 0.016 0.017 0.024 0.027 0.116 0.143 0.22 0.296 0.311 0.457 0.273 0.483 0.429 1.042 0.429 1.636 0 0.297-0.039 0.586-0.112 0.86-0.049 0.183-0.113 0.36-0.19 0.529-0.116 0.254-0.264 0.49-0.437 0.705-0.111 0.138-0.237 0.263-0.368 0.382-0.044 0.040-0.086 0.081-0.132 0.118-0.358 0.289-0.776 0.506-1.234 0.628-0.274 0.073-0.563 0.112-0.86 0.112s-0.586-0.039-0.86-0.112c-0.366-0.097-0.707-0.256-1.012-0.463-0.076-0.052-0.15-0.107-0.222-0.165-0.092-0.074-0.179-0.154-0.263-0.237l-5.658 5.657c0.284 0.284 0.582 0.552 0.894 0.805 1.946 1.573 4.423 2.515 7.12 2.515s5.174-0.942 7.12-2.515c0.625-0.505 1.195-1.075 1.7-1.7 1.572-1.946 2.514-4.422 2.514-7.118s-0.941-5.172-2.513-7.117z"></path>
<path fill="#141b41" d="M26.667 31.333h-7c-0.368 0-0.667-0.299-0.667-0.667s0.299-0.667 0.667-0.667h7c0.368 0 0.667 0.299 0.667 0.667s-0.299 0.667-0.667 0.667z"></path>
<path fill="#141b41" d="M12.333 31.333h-7c-0.368 0-0.667-0.299-0.667-0.667s0.298-0.667 0.667-0.667h7c0.368 0 0.667 0.299 0.667 0.667s-0.299 0.667-0.667 0.667z"></path>
<path fill="#141b41" d="M26.667 2h-7c-0.368 0-0.667-0.298-0.667-0.667s0.299-0.667 0.667-0.667h7c0.368 0 0.667 0.298 0.667 0.667s-0.299 0.667-0.667 0.667z"></path>
<path fill="#141b41" d="M12.333 2h-7c-0.368 0-0.667-0.298-0.667-0.667s0.298-0.667 0.667-0.667h7c0.368 0 0.667 0.298 0.667 0.667s-0.299 0.667-0.667 0.667z"></path>
<path fill="#141b41" d="M5.333 10c-2.573 0-4.667-2.093-4.667-4.667s2.093-4.667 4.667-4.667 4.667 2.093 4.667 4.667c0 0.752-0.184 1.5-0.531 2.163-0.171 0.326-0.573 0.452-0.9 0.281-0.326-0.171-0.452-0.574-0.281-0.9 0.251-0.479 0.378-0.998 0.378-1.544 0-1.838-1.495-3.333-3.333-3.333s-3.333 1.495-3.333 3.333 1.495 3.333 3.333 3.333c0.544 0 1.062-0.127 1.541-0.376 0.327-0.17 0.729-0.044 0.899 0.282s0.044 0.729-0.282 0.9c-0.661 0.345-1.408 0.528-2.158 0.528z"></path>
<path fill="#141b41" d="M26.667 10c-0.747 0-1.491-0.181-2.15-0.524-0.326-0.17-0.454-0.572-0.284-0.899s0.572-0.454 0.899-0.284c0.477 0.248 0.993 0.374 1.535 0.374 1.838 0 3.333-1.495 3.333-3.333s-1.495-3.333-3.333-3.333-3.333 1.495-3.333 3.333c0 0.545 0.127 1.065 0.378 1.544 0.171 0.326 0.045 0.729-0.281 0.9-0.327 0.171-0.729 0.045-0.9-0.281-0.347-0.662-0.531-1.41-0.531-2.163 0-2.573 2.093-4.667 4.667-4.667s4.667 2.093 4.667 4.667-2.093 4.667-4.667 4.667z"></path>
<path fill="#141b41" d="M5.333 31.333c-2.573 0-4.667-2.093-4.667-4.667s2.093-4.667 4.667-4.667c0.734 0 1.438 0.166 2.090 0.493 0.329 0.165 0.462 0.566 0.297 0.895s-0.565 0.462-0.895 0.297c-0.466-0.233-0.968-0.352-1.492-0.352-1.838 0-3.333 1.495-3.333 3.333s1.495 3.333 3.333 3.333 3.333-1.495 3.333-3.333c0-0.544-0.127-1.062-0.376-1.54-0.171-0.326-0.044-0.729 0.282-0.899s0.729-0.044 0.899 0.282c0.345 0.661 0.528 1.407 0.528 2.157 0 2.573-2.093 4.667-4.667 4.667z"></path>
<path fill="#141b41" d="M26.667 31.333c-2.573 0-4.667-2.093-4.667-4.667 0-0.751 0.183-1.497 0.528-2.158 0.17-0.326 0.574-0.453 0.899-0.282 0.326 0.17 0.453 0.573 0.282 0.9-0.25 0.478-0.377 0.997-0.377 1.541 0 1.838 1.495 3.333 3.333 3.333s3.333-1.495 3.333-3.333-1.495-3.333-3.333-3.333c-0.543 0-1.061 0.126-1.539 0.376-0.326 0.17-0.73 0.044-0.899-0.283s-0.044-0.729 0.283-0.899c0.661-0.345 1.406-0.527 2.156-0.527 2.573 0 4.667 2.093 4.667 4.667s-2.093 4.667-4.667 4.667z"></path>
<path fill="#141b41" d="M16 28c-2.737 0-5.414-0.946-7.539-2.664-0.679-0.549-1.299-1.173-1.844-1.856-1.712-2.145-2.617-4.731-2.617-7.481 0-2.781 0.973-5.492 2.74-7.633 0.513-0.622 1.091-1.194 1.716-1.7 2.125-1.72 4.804-2.667 7.543-2.667 2.737 0 5.414 0.946 7.539 2.664 0.66 0.533 1.265 1.139 1.799 1.8 1.716 2.124 2.661 4.801 2.661 7.536s-0.945 5.413-2.662 7.537c-0.534 0.66-1.139 1.266-1.799 1.799-2.125 1.718-4.802 2.664-7.539 2.664zM16 5.333c-2.435 0-4.816 0.842-6.705 2.37-0.557 0.45-1.070 0.959-1.527 1.512-1.57 1.903-2.435 4.313-2.435 6.785 0 2.444 0.804 4.743 2.325 6.649 0.485 0.607 1.037 1.163 1.641 1.651 1.888 1.526 4.268 2.367 6.701 2.367s4.813-0.841 6.701-2.367c0.587-0.475 1.126-1.013 1.6-1.601 1.525-1.888 2.366-4.267 2.366-6.699s-0.84-4.811-2.365-6.698c-0.475-0.588-1.014-1.127-1.601-1.601-1.888-1.526-4.268-2.367-6.701-2.367z"></path>
<path fill="#141b41" d="M16 25.333c-2.129 0-4.212-0.736-5.864-2.072-0.528-0.427-1.011-0.913-1.435-1.444-1.331-1.668-2.035-3.68-2.035-5.818 0-2.163 0.757-4.272 2.131-5.937 0.399-0.483 0.848-0.928 1.335-1.322 1.653-1.337 3.736-2.074 5.867-2.074 2.129 0 4.212 0.736 5.864 2.072 0.513 0.415 0.984 0.886 1.4 1.4 1.335 1.652 2.070 3.733 2.070 5.861s-0.735 4.21-2.070 5.862c-0.415 0.514-0.886 0.985-1.399 1.4-1.652 1.336-3.735 2.072-5.864 2.072zM16 7.333c-1.978 0-3.913 0.684-5.448 1.926-0.453 0.367-0.87 0.78-1.24 1.229-1.276 1.546-1.979 3.504-1.979 5.513 0 1.986 0.653 3.854 1.889 5.402 0.394 0.493 0.842 0.945 1.333 1.341 1.534 1.24 3.468 1.924 5.445 1.924s3.91-0.683 5.445-1.924c0.477-0.385 0.914-0.823 1.3-1.3 1.239-1.534 1.922-3.467 1.922-5.443s-0.683-3.909-1.922-5.443c-0.386-0.477-0.823-0.915-1.3-1.301-1.534-1.24-3.468-1.923-5.445-1.923z"></path>
<path fill="#141b41" d="M26.667 7.333c-1.103 0-2-0.897-2-2s0.897-2 2-2 2 0.897 2 2-0.897 2-2 2zM26.667 4c-0.735 0-1.333 0.598-1.333 1.333s0.598 1.333 1.333 1.333 1.333-0.598 1.333-1.333-0.598-1.333-1.333-1.333z"></path>
<path fill="#141b41" d="M5.333 7.333c-1.103 0-2-0.897-2-2s0.897-2 2-2 2 0.897 2 2-0.897 2-2 2zM5.333 4c-0.735 0-1.333 0.598-1.333 1.333s0.598 1.333 1.333 1.333 1.333-0.598 1.333-1.333-0.598-1.333-1.333-1.333z"></path>
<path fill="#141b41" d="M26.667 28.667c-1.103 0-2-0.897-2-2s0.897-2 2-2 2 0.897 2 2-0.897 2-2 2zM26.667 25.333c-0.735 0-1.333 0.598-1.333 1.333s0.598 1.333 1.333 1.333 1.333-0.598 1.333-1.333-0.598-1.333-1.333-1.333z"></path>
<path fill="#141b41" d="M5.333 28.667c-1.103 0-2-0.897-2-2s0.897-2 2-2 2 0.897 2 2-0.897 2-2 2zM5.333 25.333c-0.735 0-1.333 0.598-1.333 1.333s0.598 1.333 1.333 1.333 1.333-0.598 1.333-1.333-0.598-1.333-1.333-1.333z"></path>
<path fill="#141b41" d="M21.333 16.333h-2c-0.184 0-0.333-0.149-0.333-0.333s0.149-0.333 0.333-0.333h2c0.184 0 0.333 0.149 0.333 0.333s-0.149 0.333-0.333 0.333z"></path>
<path fill="#141b41" d="M12.667 16.333h-2c-0.184 0-0.333-0.149-0.333-0.333s0.149-0.333 0.333-0.333h2c0.184 0 0.333 0.149 0.333 0.333s-0.149 0.333-0.333 0.333z"></path>
<path fill="#141b41" d="M16 21.667c-0.184 0-0.333-0.149-0.333-0.333v-2c0-0.184 0.149-0.333 0.333-0.333s0.333 0.149 0.333 0.333v2c0 0.184-0.149 0.333-0.333 0.333z"></path>
<path fill="#141b41" d="M16 13c-0.184 0-0.333-0.149-0.333-0.333v-2c0-0.184 0.149-0.333 0.333-0.333s0.333 0.149 0.333 0.333v2c0 0.184-0.149 0.333-0.333 0.333z"></path>
<path fill="#141b41" d="M16 20c-0.912 0-1.805-0.315-2.513-0.888-0.226-0.183-0.433-0.391-0.615-0.618-0.563-0.705-0.872-1.59-0.872-2.494 0-0.927 0.325-1.83 0.913-2.544 0.171-0.207 0.363-0.397 0.572-0.566 0.709-0.574 1.602-0.889 2.515-0.889s1.805 0.315 2.513 0.888c0.22 0.178 0.422 0.379 0.6 0.6 0.572 0.708 0.887 1.6 0.887 2.512s-0.315 1.804-0.887 2.513c-0.178 0.22-0.38 0.422-0.6 0.6-0.708 0.573-1.601 0.888-2.513 0.888zM16 13.333c-0.617 0-1.197 0.205-1.676 0.592-0.139 0.113-0.268 0.24-0.382 0.379-0.392 0.476-0.608 1.078-0.608 1.696 0 0.611 0.201 1.186 0.581 1.662 0.121 0.152 0.259 0.291 0.41 0.413 0.479 0.387 1.058 0.592 1.675 0.592s1.196-0.205 1.675-0.591c0.147-0.119 0.282-0.254 0.4-0.401 0.387-0.479 0.591-1.058 0.591-1.675s-0.204-1.196-0.591-1.674c-0.119-0.147-0.254-0.282-0.4-0.401-0.479-0.387-1.058-0.592-1.675-0.592z"></path>
<path fill="#141b41" d="M7.875 24.458c-0.085 0-0.171-0.033-0.236-0.098-0.13-0.13-0.13-0.341 0-0.471l3.792-3.792c0.13-0.13 0.341-0.13 0.471 0s0.13 0.341 0 0.471l-3.792 3.792c-0.065 0.065-0.15 0.098-0.236 0.098z"></path>
<path fill="#141b41" d="M20.333 12c-0.085 0-0.171-0.033-0.236-0.098-0.13-0.13-0.13-0.341 0-0.471l3.681-3.681c0.13-0.13 0.341-0.13 0.471 0s0.13 0.341 0 0.471l-3.681 3.681c-0.065 0.065-0.15 0.098-0.236 0.098z"></path>
</svg>
<svg id="icon-music-svgrepo-com-4" viewBox="0 0 32 32">
<path fill="#47bcfe" opacity="0.6" d="M16 8.667c-4.418 0-8 3.582-8 8s3.582 8 8 8 8-3.582 8-8-3.582-8-8-8zM16 19.667c-1.657 0-3-1.343-3-3s1.343-3 3-3 3 1.343 3 3c0 1.657-1.343 3-3 3z"></path>
<path fill="#ccf2ff" opacity="0.7" d="M16 8.667v5c1.657 0 3 1.343 3 3s-1.343 3-3 3v5c4.418 0 8-3.582 8-8s-3.582-8-8-8z"></path>
<path fill="#141b41" d="M1.333 31.667c-0.085 0-0.171-0.033-0.236-0.098-0.13-0.13-0.13-0.341 0-0.471l1.902-1.902v-25.057l-1.902-1.902c-0.13-0.13-0.13-0.341 0-0.471s0.341-0.13 0.471 0l2 2c0.063 0.063 0.098 0.147 0.098 0.236v25.333c0 0.088-0.035 0.173-0.098 0.236l-2 2c-0.065 0.065-0.15 0.098-0.236 0.098z"></path>
<path fill="#141b41" d="M30.667 31.667c-0.085 0-0.171-0.033-0.236-0.098l-2-2c-0.063-0.063-0.098-0.147-0.098-0.236v-25.333c0-0.088 0.035-0.173 0.098-0.236l2-2c0.13-0.13 0.341-0.13 0.471 0s0.13 0.341 0 0.471l-1.902 1.902v25.057l1.902 1.902c0.13 0.13 0.13 0.341 0 0.471-0.065 0.065-0.15 0.098-0.236 0.098z"></path>
<path fill="#141b41" d="M30.667 32c-0.368 0-0.667-0.299-0.667-0.667v-28.667h-28v28.667c0 0.368-0.298 0.667-0.667 0.667s-0.667-0.299-0.667-0.667v-29.333c0-0.368 0.298-0.667 0.667-0.667h29.333c0.368 0 0.667 0.298 0.667 0.667v29.333c0 0.368-0.299 0.667-0.667 0.667z"></path>
<path fill="#141b41" d="M31.333 32h-30.667c-0.368 0-0.667-0.299-0.667-0.667s0.298-0.667 0.667-0.667h30.667c0.368 0 0.667 0.299 0.667 0.667s-0.299 0.667-0.667 0.667z"></path>
<path fill="#141b41" d="M16 20.333c-2.022 0-3.667-1.645-3.667-3.667s1.645-3.667 3.667-3.667 3.667 1.645 3.667 3.667-1.645 3.667-3.667 3.667zM16 14.333c-1.287 0-2.333 1.047-2.333 2.333s1.047 2.333 2.333 2.333c1.286 0 2.333-1.047 2.333-2.333s-1.047-2.333-2.333-2.333z"></path>
<path fill="#141b41" d="M7.319 25.667c-0.085 0-0.171-0.033-0.236-0.098-0.13-0.13-0.13-0.341 0-0.472l3.019-3.016c0.13-0.13 0.341-0.13 0.472 0s0.13 0.341-0 0.472l-3.019 3.016c-0.065 0.065-0.15 0.098-0.236 0.098z"></path>
<path fill="#141b41" d="M21.655 11.342c-0.085 0-0.171-0.033-0.236-0.098-0.13-0.13-0.13-0.341 0-0.472l2.984-2.981c0.13-0.13 0.341-0.13 0.471 0s0.13 0.341 0 0.472l-2.984 2.981c-0.065 0.065-0.15 0.098-0.236 0.098z"></path>
<path fill="#141b41" d="M10.324 11.363c-0.085 0-0.171-0.033-0.236-0.098l-3.004-3.002c-0.13-0.13-0.13-0.341-0-0.472s0.341-0.13 0.472-0l3.004 3.002c0.13 0.13 0.13 0.341 0 0.472-0.065 0.065-0.151 0.098-0.236 0.098z"></path>
<path fill="#141b41" d="M24.639 25.667c-0.085 0-0.171-0.033-0.236-0.098l-2.995-2.993c-0.13-0.13-0.13-0.341 0-0.472s0.341-0.13 0.471-0l2.995 2.993c0.13 0.13 0.13 0.341 0 0.472-0.065 0.065-0.15 0.098-0.236 0.098z"></path>
<path fill="#141b41" d="M16 25.333c-4.779 0-8.667-3.888-8.667-8.667s3.888-8.667 8.667-8.667c4.779 0 8.667 3.888 8.667 8.667s-3.888 8.667-8.667 8.667zM16 9.333c-4.044 0-7.333 3.29-7.333 7.333s3.29 7.333 7.333 7.333 7.333-3.29 7.333-7.333-3.29-7.333-7.333-7.333z"></path>
<path fill="#141b41" d="M21.333 17c-0.184 0-0.333-0.149-0.333-0.333 0-2.757-2.243-5-5-5-0.184 0-0.333-0.149-0.333-0.333s0.149-0.333 0.333-0.333c3.125 0 5.667 2.542 5.667 5.667 0 0.184-0.149 0.333-0.333 0.333z"></path>
<path fill="#141b41" d="M16 22.333c-3.125 0-5.667-2.542-5.667-5.667 0-0.184 0.149-0.333 0.333-0.333s0.333 0.149 0.333 0.333c0 2.757 2.243 5 5 5 0.184 0 0.333 0.149 0.333 0.333s-0.149 0.333-0.333 0.333z"></path>
<path fill="#141b41" d="M16 32c-0.368 0-0.667-0.299-0.667-0.667v-6.667c0-0.368 0.299-0.667 0.667-0.667s0.667 0.299 0.667 0.667v6.667c0 0.368-0.299 0.667-0.667 0.667z"></path>
<path fill="#141b41" d="M16 9.333c-0.368 0-0.667-0.299-0.667-0.667v-6.667c0-0.368 0.299-0.667 0.667-0.667s0.667 0.298 0.667 0.667v6.667c0 0.368-0.299 0.667-0.667 0.667z"></path>
<path fill="#141b41" d="M17.333 29.667h-2.667c-0.184 0-0.333-0.149-0.333-0.333s0.149-0.333 0.333-0.333h2.667c0.184 0 0.333 0.149 0.333 0.333s-0.149 0.333-0.333 0.333z"></path>
<path fill="#141b41" d="M17.333 4.333h-2.667c-0.184 0-0.333-0.149-0.333-0.333s0.149-0.333 0.333-0.333h2.667c0.184 0 0.333 0.149 0.333 0.333s-0.149 0.333-0.333 0.333z"></path>
</svg>
<svg id="icon-music-svgrepo-com-5"  viewBox="0 0 32 32">
<path fill="#47bcfe" opacity="0.6" d="M15.333 1.333c-7.732 0-14 6.268-14 14s6.268 14 14 14 14-6.268 14-14c0-7.732-6.268-14-14-14zM15.333 18.667c-1.841 0-3.333-1.492-3.333-3.333s1.492-3.333 3.333-3.333 3.333 1.492 3.333 3.333c0 1.841-1.492 3.333-3.333 3.333z"></path>
<path fill="#ccf2ff" opacity="0.7" d="M12 15.333c0-1.841 1.492-3.333 3.333-3.333v-10.667c-7.732 0-14 6.268-14 14s6.268 14 14 14v-10.667c-1.841 0-3.333-1.492-3.333-3.333z"></path>
<path fill="#141b41" d="M15.333 30c-8.087 0-14.667-6.579-14.667-14.667s6.579-14.667 14.667-14.667 14.667 6.579 14.667 14.667-6.579 14.667-14.667 14.667zM15.333 2c-7.352 0-13.333 5.981-13.333 13.333s5.981 13.333 13.333 13.333 13.333-5.981 13.333-13.333c0-7.352-5.981-13.333-13.333-13.333z"></path>
<path fill="#141b41" d="M15.333 19.333c-2.206 0-4-1.794-4-4s1.794-4 4-4 4 1.794 4 4c0 2.206-1.794 4-4 4zM15.333 12.667c-1.47 0-2.667 1.196-2.667 2.667s1.196 2.667 2.667 2.667 2.667-1.196 2.667-2.667-1.196-2.667-2.667-2.667z"></path>
<path fill="#141b41" d="M15.333 27c-6.433 0-11.667-5.234-11.667-11.667s5.234-11.667 11.667-11.667 11.667 5.234 11.667 11.667-5.234 11.667-11.667 11.667zM15.333 4.333c-6.065 0-11 4.935-11 11s4.935 11 11 11 11-4.935 11-11-4.935-11-11-11z"></path>
<path fill="#141b41" d="M15.333 26.833c-6.341 0-11.5-5.159-11.5-11.5s5.159-11.5 11.5-11.5 11.5 5.159 11.5 11.5-5.159 11.5-11.5 11.5zM15.333 4.167c-6.157 0-11.167 5.009-11.167 11.167s5.009 11.167 11.167 11.167 11.167-5.009 11.167-11.167c0-6.157-5.009-11.167-11.167-11.167z"></path>
<path fill="#141b41" d="M30.667 31.333c-0.171 0-0.341-0.065-0.471-0.195l-9.391-9.391c-0.26-0.26-0.26-0.682 0-0.943s0.682-0.26 0.943 0l9.391 9.391c0.26 0.26 0.26 0.682 0 0.943-0.13 0.13-0.301 0.195-0.471 0.195z"></path>
<path fill="#141b41" d="M15.333 30h-14c-0.368 0-0.667-0.299-0.667-0.667s0.298-0.667 0.667-0.667h14c0.368 0 0.667 0.299 0.667 0.667s-0.299 0.667-0.667 0.667z"></path>
<path fill="#141b41" d="M30.667 2h-14c-0.368 0-0.667-0.298-0.667-0.667s0.299-0.667 0.667-0.667h14c0.368 0 0.667 0.298 0.667 0.667s-0.299 0.667-0.667 0.667z"></path>
<path fill="#141b41" d="M30.667 31.333h-3.333c-0.368 0-0.667-0.299-0.667-0.667s0.299-0.667 0.667-0.667h3.333c0.368 0 0.667 0.299 0.667 0.667s-0.299 0.667-0.667 0.667z"></path>
<path fill="#141b41" d="M24.667 31.333h-1.667c-0.368 0-0.667-0.299-0.667-0.667s0.299-0.667 0.667-0.667h1.667c0.368 0 0.667 0.299 0.667 0.667s-0.299 0.667-0.667 0.667z"></path>
<path fill="#141b41" d="M20.333 22.333c-1.103 0-2-0.897-2-2s0.897-2 2-2 2 0.897 2 2-0.897 2-2 2zM20.333 19.667c-0.367 0-0.667 0.299-0.667 0.667s0.299 0.667 0.667 0.667 0.667-0.299 0.667-0.667-0.299-0.667-0.667-0.667z"></path>
<path fill="#141b41" d="M15.333 12.333c-0.184 0-0.333-0.149-0.333-0.333v-2.125c0-0.184 0.149-0.333 0.333-0.333s0.333 0.149 0.333 0.333v2.125c0 0.184-0.149 0.333-0.333 0.333z"></path>
<path fill="#141b41" d="M14 10.667c-0.184 0-0.333-0.149-0.333-0.333v-2.125c0-0.184 0.149-0.333 0.333-0.333s0.333 0.149 0.333 0.333v2.125c0 0.184-0.149 0.333-0.333 0.333z"></path>
<path fill="#141b41" d="M14 23c-0.184 0-0.333-0.149-0.333-0.333v-2.333c0-0.184 0.149-0.333 0.333-0.333s0.333 0.149 0.333 0.333v2.333c0 0.184-0.149 0.333-0.333 0.333z"></path>
<path fill="#141b41" d="M15.333 21c-0.184 0-0.333-0.149-0.333-0.333v-2c0-0.184 0.149-0.333 0.333-0.333s0.333 0.149 0.333 0.333v2c0 0.184-0.149 0.333-0.333 0.333z"></path>
<path fill="#141b41" d="M12 15.667h-1.667c-0.184 0-0.333-0.149-0.333-0.333s0.149-0.333 0.333-0.333h1.667c0.184 0 0.333 0.149 0.333 0.333s-0.149 0.333-0.333 0.333z"></path>
<path fill="#141b41" d="M20.333 15.667h-1.667c-0.184 0-0.333-0.149-0.333-0.333s0.149-0.333 0.333-0.333h1.667c0.184 0 0.333 0.149 0.333 0.333s-0.149 0.333-0.333 0.333z"></path>
</svg>
<svg id="icon-music-svgrepo-com-3" viewBox="0 0 32 32">
<path fill="#47bcfe" opacity="0.6" d="M11.333 17.667h-1.5c-3.59 0-6.5 2.91-6.5 6.5s2.91 6.5 6.5 6.5h1.5v-13z"></path>
<path fill="#ccf2ff" opacity="0.7" d="M3.333 24.167c0 3.59 2.91 6.5 6.5 6.5h1.5l-8-6.5z"></path>
<path fill="#47bcfe" opacity="0.6" d="M20.667 17.667h1.5c3.59 0 6.5 2.91 6.5 6.5s-2.91 6.5-6.5 6.5h-1.5v-13z"></path>
<path fill="#ccf2ff" opacity="0.7" d="M28.667 24.167c0 3.59-2.91 6.5-6.5 6.5h-1.5l8-6.5z"></path>
<path fill="#141b41" d="M31.333 25h-2.667c-0.368 0-0.667-0.299-0.667-0.667s0.299-0.667 0.667-0.667h2.667c0.368 0 0.667 0.299 0.667 0.667s-0.299 0.667-0.667 0.667z"></path>
<path fill="#141b41" d="M30.667 25c-0.368 0-0.667-0.299-0.667-0.667v-8.333c0-7.72-6.28-14-14-14s-14 6.28-14 14v8.333c0 0.368-0.298 0.667-0.667 0.667s-0.667-0.299-0.667-0.667v-8.333c0-8.455 6.879-15.333 15.333-15.333s15.333 6.879 15.333 15.333v8.333c0 0.368-0.299 0.667-0.667 0.667z"></path>
<path fill="#141b41" d="M3.333 25h-2.667c-0.368 0-0.667-0.299-0.667-0.667s0.298-0.667 0.667-0.667h2.667c0.368 0 0.667 0.299 0.667 0.667s-0.298 0.667-0.667 0.667z"></path>
<path fill="#141b41" d="M6 24.667h-2.667c-0.184 0-0.333-0.149-0.333-0.333s0.149-0.333 0.333-0.333h2.667c0.184 0 0.333 0.149 0.333 0.333s-0.149 0.333-0.333 0.333z"></path>
<path fill="#141b41" d="M28.667 24.667h-2.667c-0.184 0-0.333-0.149-0.333-0.333s0.149-0.333 0.333-0.333h2.667c0.184 0 0.333 0.149 0.333 0.333s-0.149 0.333-0.333 0.333z"></path>
<path fill="#141b41" d="M30.667 21c-0.368 0-0.667-0.299-0.667-0.667 0-7.72-6.28-14-14-14s-14 6.28-14 14c0 0.368-0.298 0.667-0.667 0.667s-0.667-0.299-0.667-0.667c0-8.455 6.879-15.333 15.333-15.333s15.333 6.879 15.333 15.333c0 0.368-0.299 0.667-0.667 0.667z"></path>
<path fill="#141b41" d="M11.333 31.333h-1.5c-3.952 0-7.167-3.215-7.167-7.167s3.215-7.167 7.167-7.167h1.5c0.368 0 0.667 0.299 0.667 0.667v13c0 0.368-0.299 0.667-0.667 0.667zM9.833 18.333c-3.216 0-5.833 2.617-5.833 5.833s2.617 5.833 5.833 5.833h0.833v-11.667h-0.833z"></path>
<path fill="#141b41" d="M9.333 31c-0.184 0-0.333-0.149-0.333-0.333v-8.333c0-0.184 0.149-0.333 0.333-0.333s0.333 0.149 0.333 0.333v8.333c0 0.184-0.149 0.333-0.333 0.333z"></path>
<path fill="#141b41" d="M22.667 31c-0.184 0-0.333-0.149-0.333-0.333v-8.333c0-0.184 0.149-0.333 0.333-0.333s0.333 0.149 0.333 0.333v8.333c0 0.184-0.149 0.333-0.333 0.333z"></path>
<path fill="#141b41" d="M13.667 31.333h-2.333c-0.368 0-0.667-0.299-0.667-0.667s0.299-0.667 0.667-0.667h1.667v-11.667h-1.667c-0.368 0-0.667-0.299-0.667-0.667s0.299-0.667 0.667-0.667h2.333c0.368 0 0.667 0.299 0.667 0.667v13c0 0.368-0.299 0.667-0.667 0.667z"></path>
<path fill="#141b41" d="M20.667 31.333h-2.333c-0.368 0-0.667-0.299-0.667-0.667v-13c0-0.368 0.299-0.667 0.667-0.667h2.333c0.368 0 0.667 0.299 0.667 0.667s-0.299 0.667-0.667 0.667h-1.667v11.667h1.667c0.368 0 0.667 0.299 0.667 0.667s-0.299 0.667-0.667 0.667z"></path>
<path fill="#141b41" d="M22.167 31.333h-1.5c-0.368 0-0.667-0.299-0.667-0.667v-13c0-0.368 0.299-0.667 0.667-0.667h1.5c3.952 0 7.167 3.215 7.167 7.167s-3.215 7.167-7.167 7.167zM21.333 30h0.833c3.216 0 5.833-2.617 5.833-5.833s-2.617-5.833-5.833-5.833h-0.833v11.667z"></path>
<path fill="#141b41" d="M9.667 31.333h-9c-0.368 0-0.667-0.299-0.667-0.667s0.298-0.667 0.667-0.667h9c0.368 0 0.667 0.299 0.667 0.667s-0.299 0.667-0.667 0.667z"></path>
<path fill="#141b41" d="M31.333 31.333h-9c-0.368 0-0.667-0.299-0.667-0.667s0.299-0.667 0.667-0.667h9c0.368 0 0.667 0.299 0.667 0.667s-0.299 0.667-0.667 0.667z"></path>
<path fill="#141b41" d="M16 6c-0.184 0-0.333-0.149-0.333-0.333v-4.333c0-0.184 0.149-0.333 0.333-0.333s0.333 0.149 0.333 0.333v4.333c0 0.184-0.149 0.333-0.333 0.333z"></path>
<path fill="#141b41" d="M14.333 6.094c-0.184 0-0.333-0.149-0.333-0.333v-4.333c0-0.184 0.149-0.333 0.333-0.333s0.333 0.149 0.333 0.333v4.333c0 0.184-0.149 0.333-0.333 0.333z"></path>
<path fill="#141b41" d="M17.667 6.094c-0.184 0-0.333-0.149-0.333-0.333v-4.333c0-0.184 0.149-0.333 0.333-0.333s0.333 0.149 0.333 0.333v4.333c0 0.184-0.149 0.333-0.333 0.333z"></path>
<path fill="#141b41" d="M13.667 20h-2.333c-0.184 0-0.333-0.149-0.333-0.333s0.149-0.333 0.333-0.333h2.333c0.184 0 0.333 0.149 0.333 0.333s-0.149 0.333-0.333 0.333z"></path>
<path fill="#141b41" d="M13.667 29h-2.333c-0.184 0-0.333-0.149-0.333-0.333s0.149-0.333 0.333-0.333h2.333c0.184 0 0.333 0.149 0.333 0.333s-0.149 0.333-0.333 0.333z"></path>
<path fill="#141b41" d="M20.667 20h-2.333c-0.184 0-0.333-0.149-0.333-0.333s0.149-0.333 0.333-0.333h2.333c0.184 0 0.333 0.149 0.333 0.333s-0.149 0.333-0.333 0.333z"></path>
<path fill="#141b41" d="M20.667 29h-2.333c-0.184 0-0.333-0.149-0.333-0.333s0.149-0.333 0.333-0.333h2.333c0.184 0 0.333 0.149 0.333 0.333s-0.149 0.333-0.333 0.333z"></path>
</svg>
</svg>
