<?xml version="1.0" encoding="utf-8"?>
<!-- Generated by IcoMoon.io -->
<svg version="1.1" xmlns="http://www.w3.org/2000/svg" xmlns:xlink="http://www.w3.org/1999/xlink" width="752" height="80" viewBox="0 0 752 80">
<svg id="icon-airflow-svgrepo-com"  viewBox="0 0 32 32" x="0" y="0">
<path d="M22.4 28.8h9.6l-15.36-12.8c-0.211 4.649 1.836 9.197 5.76 12.8z"></path>
<path d="M3.2 22.4v9.6l12.8-15.36c-0.218-0.010-0.435-0.015-0.653-0.015-4.42 0-8.713 2.035-12.147 5.775z"></path>
<path d="M0 3.2l15.36 12.8c0.211-4.649-1.836-9.197-5.76-12.8h-9.6z"></path>
<path d="M28.8 0l-12.8 15.36c4.649 0.211 9.197-1.836 12.8-5.76v-9.6z"></path>
<path d="M16 16c-1.435 3.719-1.218 7.511 0.64 11.2 1.92 0.96 3.52 1.6 5.76 1.6-3.924-3.602-5.971-8.151-5.76-12.8h-0.64z"></path>
<path d="M4.8 16.64c-0.96 1.92-1.6 3.52-1.6 5.76 3.602-3.924 8.151-5.971 12.8-5.76v-0.64c-1.618-0.624-3.249-0.936-4.88-0.936-2.118 0-4.236 0.526-6.32 1.576z"></path>
<path d="M15.36 16h0.64c1.435-3.719 1.218-7.511-0.64-11.2-1.92-0.96-3.52-1.6-5.76-1.6 3.924 3.602 5.971 8.151 5.76 12.8z"></path>
<path d="M16 15.36v0.64c3.719 1.435 7.511 1.218 11.2-0.64 0.96-1.92 1.6-3.52 1.6-5.76-3.602 3.924-8.151 5.971-12.8 5.76z"></path>
<path d="M8.96 20.8l7.68 6.4c-1.858-3.689-2.075-7.481-0.64-11.2-0.222-0.074-0.482-0.11-0.77-0.11-2.2 0-5.987 2.079-6.27 4.91z"></path>
<path d="M4.8 16.64c3.689-1.858 7.481-2.075 11.2-0.64 0.64-1.92-1.6-6.72-4.8-7.040l-6.4 7.68z"></path>
<path d="M16 16c1.92 0.64 6.72-1.6 7.040-4.8l-7.68-6.4c1.858 3.689 2.075 7.481 0.64 11.2z"></path>
<path d="M16 16c-0.64 1.92 1.6 6.72 4.8 7.040l6.4-7.68c-3.689 1.858-7.481 2.075-11.2 0.64z"></path>
<path d="M16 15.2c0.442 0 0.8 0.358 0.8 0.8s-0.358 0.8-0.8 0.8c-0.442 0-0.8-0.358-0.8-0.8s0.358-0.8 0.8-0.8z"></path>
</svg>
<svg id="icon-alfresco-svgrepo-com" viewBox="0 0 32 32" >
<path fill="#87c040" d="M11.12 20.926l4.037-4.038-6.077 0c-3.36 0-6.083 2.724-6.083 6.083s2.723 6.083 6.083 6.083c0.255 0 0.506-0.018 0.753-0.048-1.328-2.616-0.9-5.894 1.287-8.081z"></path>
<path fill="#87c040" d="M16.042 22.964v-5.71l-4.297 4.298c-2.376 2.376-2.376 6.227 0 8.603s6.227 2.376 8.603 0c0.18-0.18 0.342-0.372 0.495-0.568-2.787-0.912-4.801-3.531-4.801-6.623z"></path>
<path fill="#87c040" d="M20.964 20.925l-4.037-4.037v6.077c0 3.36 2.724 6.083 6.083 6.083s6.083-2.723 6.083-6.083c0-0.255-0.018-0.506-0.048-0.753-2.616 1.328-5.894 0.9-8.081-1.287z"></path>
<path fill="#87c040" d="M30.193 11.697c-0.18-0.18-0.372-0.342-0.567-0.495-0.912 2.787-3.532 4.801-6.623 4.801h-5.71l4.297 4.297c2.376 2.376 6.228 2.376 8.603 0s2.376-6.227 0-8.603z"></path>
<path fill="#ed9a2d" d="M23.003 2.951c-0.255 0-0.506 0.017-0.753 0.048 1.328 2.616 0.9 5.894-1.287 8.081l-4.037 4.037h6.077c3.359 0 6.083-2.724 6.083-6.083s-2.723-6.083-6.083-6.083z"></path>
<path fill="#5698c6" d="M20.338 1.851c-2.376-2.375-6.227-2.375-8.603 0-0.18 0.18-0.342 0.372-0.495 0.568 2.787 0.912 4.801 3.531 4.801 6.623v5.71l4.297-4.297c2.376-2.376 2.376-6.227 0-8.603z"></path>
<path fill="#5698c6" d="M11.124 11.084l0.173 0.181 3.854 3.854h0.004v-6.078c0-3.36-2.724-6.083-6.083-6.083s-6.083 2.723-6.083 6.083c0 0.255 0.017 0.505 0.048 0.751 2.617-1.327 5.9-0.895 8.087 1.292z"></path>
<path fill="#5698c6" d="M2.475 20.752c0.048-0.141 0.099-0.281 0.155-0.418 0.007-0.017 0.013-0.035 0.020-0.052 0.062-0.148 0.13-0.291 0.201-0.433 0.016-0.031 0.032-0.062 0.048-0.094 0.073-0.141 0.151-0.28 0.233-0.415 0.009-0.015 0.018-0.028 0.027-0.042 0.078-0.126 0.161-0.249 0.247-0.369 0.018-0.025 0.035-0.050 0.053-0.075 0.092-0.126 0.189-0.248 0.289-0.367 0.020-0.024 0.041-0.048 0.062-0.072 0.098-0.113 0.199-0.224 0.304-0.331 0.009-0.009 0.018-0.019 0.027-0.029 0.112-0.112 0.228-0.219 0.347-0.324 0.026-0.023 0.052-0.045 0.078-0.068 0.12-0.102 0.242-0.2 0.368-0.294 0.017-0.012 0.034-0.024 0.051-0.035 0.118-0.086 0.239-0.168 0.362-0.246 0.024-0.016 0.048-0.032 0.073-0.047 0.133-0.082 0.269-0.16 0.408-0.233 0.029-0.015 0.059-0.030 0.088-0.045 0.139-0.071 0.279-0.138 0.423-0.2 0.007-0.003 0.014-0.006 0.021-0.009 0.148-0.063 0.3-0.119 0.454-0.172 0.033-0.011 0.066-0.023 0.099-0.034 0.152-0.049 0.306-0.095 0.463-0.135 0.024-0.006 0.048-0.011 0.072-0.016 0.145-0.035 0.292-0.065 0.44-0.091 0.028-0.005 0.055-0.010 0.083-0.015 0.161-0.026 0.324-0.045 0.488-0.060 0.036-0.003 0.071-0.005 0.107-0.008 0.17-0.012 0.341-0.021 0.514-0.021l5.71-0-4.297-4.297c-2.376-2.375-6.228-2.376-8.603 0s-2.376 6.227 0 8.603c0.18 0.18 0.369 0.346 0.564 0.499 0.006-0.019 0.014-0.038 0.021-0.057z"></path>
<path fill="#446ba6" d="M10.507 11.706l3.402 3.402h-4.573l-0.259 0.005c-2.785 0-5.133-1.872-5.855-4.426 2.317-1.299 5.304-0.963 7.275 1.008l0.010 0.010z"></path>
<path fill="#446ba6" d="M15.154 9.040v4.812l-3.234-3.234-0.187-0.18c-1.97-1.969-2.306-4.953-1.011-7.269 2.557 0.72 4.431 3.069 4.431 5.856v0.014z"></path>
<path fill="#446ba6" d="M20.357 10.449l-3.402 3.403v-4.573l-0.005-0.259c0-2.785 1.872-5.133 4.426-5.855 1.299 2.317 0.963 5.304-1.008 7.274l-0.010 0.010z"></path>
<path fill="#fff101" d="M23 15.105h-4.812l3.234-3.234 0.18-0.187c1.969-1.97 4.953-2.306 7.269-1.011-0.72 2.557-3.069 4.431-5.856 4.431h-0.015z"></path>
<path fill="#45ab47" d="M21.578 20.275l-3.402-3.402h4.573l0.259-0.005c2.785 0 5.133 1.872 5.855 4.426-2.317 1.299-5.304 0.963-7.275-1.008l-0.010-0.010z"></path>
<path fill="#45ab47" d="M16.941 22.937v-4.812l3.234 3.234 0.187 0.18c1.969 1.97 2.306 4.953 1.010 7.269-2.557-0.72-4.431-3.069-4.431-5.856v-0.014z"></path>
<path fill="#45ab47" d="M11.77 21.556l3.402-3.403v4.573l0.005 0.259c0 2.785-1.872 5.133-4.426 5.855-1.299-2.317-0.963-5.304 1.008-7.275l0.010-0.010z"></path>
<path fill="#45ab47" d="M9.101 16.898h4.812l-3.234 3.234-0.18 0.187c-1.97 1.97-4.953 2.306-7.269 1.011 0.72-2.557 3.069-4.431 5.856-4.431h0.014z"></path>
</svg>
<svg id="icon-amazon-chime-svgrepo-com" viewBox="0 0 32 32" >
<path fill="#c9ebec" d="M21.045 15.432v-3.603l-1.341 0.674 1.341 2.93z"></path>
<path fill="#c9ebec" d="M24.37 12.931l5.565-5.563-8.89 4.461z"></path>
<path fill="#c9ebec" d="M21.045 16.162l-1.124 3.024 2.551-2.551 1.572 3.13h7.867z"></path>
<path fill="#00868c" d="M21.045 11.829v3.603h10.866l-10.866-3.603z"></path>
<path fill="#00b3bb" d="M21.045 15.432v0.731l10.866 3.603v-4.333z"></path>
<path fill="#c9ebec" d="M16.493 21.034h3.582l-1.102 3.325 5.57 5.571-5.134-10.232z"></path>
<path fill="#00868c" d="M19.924 19.183l7.682 7.683-5.134-10.231z"></path>
<path fill="#00b3bb" d="M19.924 19.183l-0.515 0.515 5.134 10.232 3.063-3.064z"></path>
<path fill="#c9ebec" d="M12.719 19.909l0.003 0.005 2.547 2.547-3.13 1.57v7.867l3.604-10.864z"></path>
<path fill="#00868c" d="M16.493 21.034h-0.020v10.864l3.603-10.864z"></path>
<path fill="#00b3bb" d="M16.473 21.034h-0.729l-3.604 10.864h4.333z"></path>
<path fill="#c9ebec" d="M7.54 18.967l-5.563 5.565 8.888-4.461z"></path>
<path fill="#c9ebec" d="M10.864 16.467v3.604l1.342-0.674-1.342-2.93z"></path>
<path fill="#00868c" d="M12.722 19.913l-7.683 7.682 10.231-5.134z"></path>
<path fill="#00b3bb" d="M12.722 19.913l-0.003-0.005-0.512-0.512-10.231 5.136 3.063 3.063z"></path>
<path fill="#c9ebec" d="M11.99 12.713l-0.003 0.005-2.549 2.547-1.57-3.13h-7.867l10.864 3.603z"></path>
<path fill="#00868c" d="M10.864 20.071v0-3.604h-10.864l10.864 3.604z"></path>
<path fill="#00b3bb" d="M10.864 16.467v0-0.729l-10.864-3.603v4.332z"></path>
<path fill="#c9ebec" d="M15.418 10.866h-3.584l1.104-3.325-5.57-5.571 5.134 10.231z"></path>
<path fill="#00868c" d="M11.987 12.717l-7.683-7.683 5.134 10.231z"></path>
<path fill="#00b3bb" d="M11.987 12.717l0.003-0.005 0.512-0.512-5.134-10.231-3.064 3.064z"></path>
<path fill="#c9ebec" d="M19.192 11.99l-0.005-0.003-2.547-2.547 3.13-1.57v-7.867l-3.603 10.864z"></path>
<path fill="#00868c" d="M15.418 10.866h0.020v-10.864l-3.604 10.864z"></path>
<path fill="#00b3bb" d="M15.438 10.866h0.729l3.603-10.864h-4.332z"></path>
<path fill="#00868c" d="M19.188 11.987l7.683-7.682-10.231 5.134z"></path>
<path fill="#00b3bb" d="M19.188 11.987l0.005 0.003 0.512 0.514 10.231-5.136-3.064-3.063z"></path>
</svg>
<svg id="icon-aurelia-svgrepo-com"  viewBox="0 0 32 32" >
<path fill="#000" d="M20.985 6.234l-2.96 1.976-3.049-4.57 2.96-1.976 3.049 4.57z"></path>
<path fill="#000" d="M23.391 19.962l5.058 7.579-6.025 4.021-5.94-8.901 6.025-4.021 0.882 1.322z"></path>
<path fill="#000" d="M15.803 25.026l1.114 1.669-4.586 3.060-1.996-2.991 4.586-3.060 0.882 1.322z"></path>
<path fill="#000" d="M25.897 16.38l1.286-0.858 1.996 2.991-2.96 1.976-1.114-1.669 1.674-1.117-0.882-1.322zM25.105 18.819l-0.882-1.322 1.674-1.117 0.882 1.322-1.674 1.117z"></path>
<path fill="#000" d="M5.139 16.808l-1.002 0.669-3.050-4.57 4.586-3.060 3.050 4.57-3.584 2.392z"></path>
<path fill="#000" d="M16.311 9.353l-6.025 4.021-5.922-8.874 6.025-4.021 5.922 8.874z"></path>
<path fill="#000" d="M19.699 7.092l-1.674 1.117-3.050-4.57 2.96-1.976 3.050 4.57-1.286 0.858z"></path>
<path fill="#714896" d="M12.219 27.418l-0.882-1.322 3.584-2.392 0.882 1.322-3.584 2.392z"></path>
<path fill="#6f4795" d="M25.105 18.819l-0.882-1.322 1.674-1.117 0.882 1.322-1.674 1.117z"></path>
<path fill="#88519f" d="M5.139 16.808l-0.912-1.367 3.584-2.392 0.912 1.367-3.584 2.392z"></path>
<path fill="#85509e" d="M18.025 8.209l-0.912-1.367 1.674-1.117 0.912 1.367-1.674 1.117z"></path>
<path fill="#8d166a" d="M23.391 19.962l-6.025 4.020-0.882-1.322 6.025-4.021 0.882 1.322z"></path>
<path fill="#a70d6f" d="M15.399 7.986l0.912 1.367-6.025 4.021-0.912-1.367 6.025-4.021z"></path>
<path fill="#9e61ad" d="M3.43 6.894l1.137 1.704-1.704 1.137-1.137-1.704 1.704-1.137z"></path>
<path fill="#8053a3" d="M9.571 27.323l1.137 1.704-1.704 1.137-1.137-1.704 1.704-1.137z"></path>
<path fill="#000" d="M5.088 29.039l-4.989-7.537 26.662-17.833 5.232 7.417-26.905 17.953z"></path>
</svg>
<svg id="icon-browserstack-svgrepo-com"  viewBox="0 0 32 32" >
<path fill="#f5bb60" d="M31.918 16.075c0 8.795-7.13 15.925-15.925 15.925s-15.925-7.13-15.925-15.925c0-8.795 7.13-15.925 15.925-15.925s15.925 7.13 15.925 15.925z"></path>
<path fill="#e86f32" d="M28.706 14.452c0 7.917-6.418 14.336-14.336 14.336s-14.336-6.418-14.336-14.336c0-7.917 6.418-14.336 14.336-14.336s14.336 6.418 14.336 14.336z"></path>
<path fill="#e53d42" d="M28.706 12.552c0 6.868-5.568 12.436-12.436 12.436s-12.436-5.568-12.436-12.436c0-6.868 5.568-12.436 12.436-12.436s12.436 5.568 12.436 12.436z"></path>
<path fill="#bfd141" d="M28.706 13.554c0 6.315-5.119 11.434-11.434 11.434s-11.434-5.119-11.434-11.434c0-6.315 5.119-11.434 11.434-11.434s11.434 5.119 11.434 11.434z"></path>
<path fill="#6db64c" d="M27.048 14.383c0 5.857-4.748 10.605-10.605 10.605s-10.605-4.748-10.605-10.605c0-5.857 4.748-10.605 10.605-10.605s10.605 4.748 10.605 10.605z"></path>
<path fill="#afdbe7" d="M23.662 12.725c0 4.922-3.99 8.912-8.912 8.912s-8.912-3.99-8.912-8.912c0-4.922 3.99-8.912 8.912-8.912s8.912 3.99 8.912 8.912z"></path>
<path fill="#57badf" d="M23.662 11.239c0 4.121-3.341 7.461-7.461 7.461s-7.461-3.341-7.461-7.461c0-4.121 3.341-7.461 7.461-7.461s7.461 3.341 7.461 7.461z"></path>
<path fill="#02b2d6" d="M23.697 12.172c0 3.625-2.938 6.563-6.563 6.563s-6.563-2.938-6.563-6.563c0-3.625 2.938-6.563 6.563-6.563s6.563 2.938 6.563 6.563z"></path>
<path fill="#000" d="M21.762 13.105c0 3.091-2.505 5.596-5.596 5.596s-5.596-2.505-5.596-5.596c0-3.091 2.505-5.596 5.596-5.596s5.596 2.505 5.596 5.596z"></path>
<path fill="#231f20" d="M21.762 13.105c0 3.091-2.505 5.596-5.596 5.596s-5.596-2.505-5.596-5.596c0-3.091 2.505-5.596 5.596-5.596s5.596 2.505 5.596 5.596z"></path>
<path fill="#fff" d="M17.636 12.371c0.555 0.249 1.32-0.252 1.709-1.119s0.255-1.772-0.3-2.021c-0.555-0.249-1.32 0.252-1.709 1.119s-0.255 1.772 0.3 2.021v0z"></path>
</svg>
<svg id="icon-dylan-svgrepo-com" width="32" height="32" viewBox="0 0 32 32" x="240" y="0">
<path d="M9 23h7v7h-7v-7z"></path>
<path d="M2 16h7v7h-7v-7z"></path>
<path d="M16 9h7v7h-7v-7z"></path>
<path d="M23 2h7v7h-7v-7z"></path>
<path d="M2 23h7v7h-7v-7z"></path>
<path d="M9 16h7v7h-7v-7z"></path>
<path d="M23 9h7v7h-7v-7z"></path>
<path d="M16 2h7v7h-7v-7z"></path>
<path d="M16 23h7v7h-7v-7z"></path>
<path d="M23 16h7v7h-7v-7z"></path>
<path d="M2 9h7v7h-7v-7z"></path>
<path d="M9 2h7v7h-7v-7z"></path>
<path d="M23 23h7v7h-7v-7z"></path>
<path d="M16 16h7v7h-7v-7z"></path>
<path d="M9 9h7v7h-7v-7z"></path>
<path d="M2 2h7v7h-7v-7z"></path>
</svg>
<svg id="icon-elastic-svgrepo-com"  viewBox="0 0 32 32" >
<path fill="#fed10a" d="M12.761 13.89l6.644 3.027 6.7-5.874c0.090-0.421 0.141-0.905 0.141-1.402 0-0.026-0-0.052-0-0.077l0 0.004c0-0.002 0-0.004 0-0.006 0-4.133-3.351-7.484-7.484-7.484-2.554 0-4.809 1.279-6.16 3.232l-0.016 0.025-1.12 5.785z"></path>
<path fill="#24bbb1" d="M5.886 20.919c-0.090 0.429-0.141 0.921-0.141 1.426 0 0.026 0 0.052 0 0.078l-0-0.004c0.006 4.145 3.368 7.504 7.514 7.504 2.57 0 4.839-1.29 6.194-3.258l0.016-0.025 1.1-5.759-1.469-2.821-6.67-3.040z"></path>
<path fill="#ef5098" d="M5.848 9.426l4.552 1.074 1-5.169c-0.597-0.458-1.355-0.734-2.177-0.734-1.985 0-3.594 1.609-3.594 3.594 0 0.443 0.080 0.868 0.227 1.26l-0.008-0.025z"></path>
<path fill="#17a8e0" d="M5.45 10.517c-2.020 0.679-3.45 2.555-3.45 4.765 0 2.129 1.326 3.948 3.197 4.676l0.034 0.012 6.388-5.77-1.167-2.5z"></path>
<path fill="#93c83e" d="M20.624 26.639c0.596 0.456 1.351 0.731 2.171 0.731 1.982 0 3.589-1.607 3.589-3.589 0-0.443-0.080-0.867-0.227-1.259l0.008 0.025-4.541-1.065z"></path>
<path fill="#0779a1" d="M21.547 20.29l5 1.167c2.024-0.677 3.457-2.555 3.457-4.768 0-2.13-1.328-3.951-3.202-4.678l-0.034-0.012-6.541 5.733z"></path>
</svg>
<svg id="icon-elm-svgrepo-com"  viewBox="0 0 32 32" >
<path fill="#5fb4cb" d="M16 16.878l-15.122 15.122h30.244z"></path>
<path fill="#eea400" d="M25.292 24.414l6.708 6.709v-13.417z"></path>
<path fill="#596277" d="M15.122 16l-15.122-15.122v30.245z"></path>
<path fill="#5fb4cb" d="M32 14.226v-14.226h-14.226z"></path>
<path fill="#8cd636" d="M24.448 8.429l7.536 7.536-7.57 7.57-7.536-7.536z"></path>
<path fill="#8cd636" d="M0.878 0l6.966 6.966h15.141l-6.966-6.966z"></path>
<path fill="#eea400" d="M16 15.122l6.915-6.915h-13.831z"></path>
</svg>
<svg id="icon-ensime-svgrepo-com" width="32" height="32" viewBox="0 0 32 32" x="384" y="0">
<path fill="#232f3f" d="M15.975 2v0l12.281 6.361v6.411l-12.281-6.411-12.28 6.411v-6.411l12.28-6.361z"></path>
<path fill="#f1626b" d="M15.975 14.772l-12.28-6.361v6.361l12.281 6.411 12.281-6.411v-6.361z"></path>
<path fill="#ef4551" d="M22.116 20.421l-12.305 6.361 6.189 3.218 12.305-6.386z"></path>
<path fill="#f1626b" d="M3.695 17.228l12.281 6.361v6.411l-12.281-6.411z"></path>
</svg>
<svg id="icon-gleam-svgrepo-com"  viewBox="0 0 32 32" >
<path fill="#f36a22" d="M32 9.373v13.255l-0.427 0.042-15.421-6.478-0.152-0.191 16-6.627z"></path>
<path fill="#f3852f" d="M32 22.627l-9.373 9.373-0.143-0.11-6.539-15.451 0.054-0.439 16 6.627z"></path>
<path fill="#f2c32e" d="M16 16l-0.354 0.243-6.329 15.487 0.056 0.27h13.255l-6.627-16z"></path>
<path fill="#cbdc38" d="M0 22.627l0.397-0.308 15.25-6.375 0.353 0.056-6.627 16-9.373-9.373z"></path>
<path fill="#b5d66d" d="M0 9.373l0.397-0.027 15.384 6.309 0.219 0.345-16 6.627v-13.255z"></path>
<path fill="#69c5e5" d="M9.373 0l-9.373 9.373 16 6.627 0.028-0.407-5.966-15.215-0.689-0.378z"></path>
<path fill="#6d9fd5" d="M9.373 0h13.255l-6.627 16-6.627-16z"></path>
</svg>
<svg id="icon-highcharts-svgrepo-com"  viewBox="0 0 32 32" >
<path fill="#78758c" d="M22.325 15.775l-0.225-0.387-7.537-2.463-0.213 0.25-0.325 0.075-6.7 15.65 0.088 0.475 16.137-6.813 0.137-0.275-1.125-6.25-0.238-0.262z"></path>
<path fill="#a3edba" d="M7.412 29.375l6.938-16.2-14.25-4.65 7.313 20.85z"></path>
<path fill="#8087e8" d="M19.637 0.85l-5.287 12.325 7.975 2.6 0.038-0.1-2.675-14.713-0.050-0.113z"></path>
<path fill="#30426b" d="M22.325 15.775l1.225 6.787 0.563-0.012 7.637-3.313 0.337-0.288-0.4-0.337-8.988-3.025-0.375 0.188z"></path>
<path fill="#6699a1" d="M23.55 22.563l1.563 8.675 6.975-12.287-8.538 3.613z"></path>
<path fill="#6699a1" d="M19.637 0.85l2.688 14.925 9.762 3.175-12.45-18.1z"></path>
</svg>
<svg id="icon-ink-svgrepo-com"  viewBox="0 0 32 32" >
<path fill="#000" d="M3.194 3.166l0.14 0.557 5.193 5.221 5.305-5.333 0.043-0.445h-10.682z"></path>
<path fill="#f6b937" d="M8.516 8.48l-0.083 0.324 2.901 12.099 4.941-4.94-7.411-7.439-0.348-0.044z"></path>
<path fill="#ffd500" d="M23.236 8.449l5.053-5.072 0.545-0.156v10.524l-0.432-0.056-5.165-5.24z"></path>
<path fill="#fff67d" d="M17.024 0l11.81 3.221-5.286 5.232-1.113 0.601-10.106 2.58-0.893-0.234-2.919-2.92 8.507-8.48z"></path>
<path fill="#5acda5" d="M23.547 8.453l-0.423 0.202-2.657 2.582 0.060 0.236-0.079 0.344 2.807 11.228 0.238 0.392 0.024 0.281 4.941 4.922 0.367 0.129 3.175-11.847-8.453-8.471z"></path>
<path fill="#000" d="M3.239 18.179v10.609l0.628-0.138 5.165-5.24-5.418-5.119-0.376-0.113z"></path>
<path fill="#afe682" d="M3.239 28.788l5.305-5.377 0.489-0.248 11.537-2.863 2.923 3.139-0.13 0.3-4.674 4.842-0.438 0.18-3.129 3.176-11.883-3.148z"></path>
<path fill="#7dd769" d="M20.527 11.473l-0.42 0.236-4.014 3.944-0.079 0.333 7.479 7.452-2.966-11.965z"></path>
<path fill="#aadc50" d="M23.547 8.453l-7.534 7.534-4.579-4.587 12.112-2.947z"></path>
<path fill="#000" d="M18.261 28.77l5.232-5.332 5.332 5.332h-10.563z"></path>
<path fill="#dc4b1e" d="M0 15.031l8.544 8.38 0.405-0.22 2.597-2.26-0.099-0.404-2.93-12.047-5.323-5.314-3.194 11.865z"></path>
<path fill="#aabe55" d="M8.544 23.411l7.47-7.425 4.549 4.531-12.019 2.893z"></path>
</svg>
<svg id="icon-jsbeautify-svgrepo-com" viewBox="0 0 32 32" >
<path fill="#f1662a" d="M14.5 10.24c-0.265-1.822-1-4.338-1.086-5.538-0.004-0.047-0.006-0.102-0.006-0.157 0-0.949 0.597-1.759 1.436-2.074l0.015-0.005c0.335-0.149 0.725-0.235 1.136-0.235s0.801 0.087 1.154 0.243l-0.018-0.007c0.856 0.319 1.455 1.13 1.455 2.081 0 0.054-0.002 0.107-0.006 0.16l0-0.007c-0.085 1.2-0.82 3.716-1.086 5.538z"></path>
<path fill="#000" d="M17.724 10.273l-0.457-0.067c0.126-0.866 0.353-1.87 0.573-2.841 0.198-0.732 0.377-1.641 0.499-2.568l0.012-0.112c0.003-0.041 0.005-0.088 0.005-0.136 0-0.858-0.542-1.588-1.302-1.869l-0.014-0.004c-0.307-0.136-0.664-0.215-1.040-0.215s-0.734 0.079-1.057 0.221l0.017-0.007c-0.774 0.285-1.316 1.016-1.316 1.874 0 0.048 0.002 0.096 0.005 0.143l-0-0.006c0.134 1.039 0.313 1.948 0.545 2.835l-0.034-0.155c0.22 0.971 0.447 1.975 0.573 2.841l-0.457 0.067c-0.123-0.848-0.349-1.843-0.567-2.806-0.204-0.754-0.386-1.686-0.509-2.637l-0.012-0.112c-0.004-0.055-0.007-0.12-0.007-0.185 0-1.039 0.653-1.926 1.571-2.272l0.017-0.006c0.363-0.162 0.786-0.256 1.232-0.256s0.869 0.094 1.251 0.264l-0.020-0.008c0.935 0.352 1.588 1.238 1.588 2.277 0 0.065-0.003 0.129-0.008 0.193l0.001-0.008c-0.135 1.063-0.317 1.995-0.556 2.905l0.035-0.156c-0.218 0.962-0.443 1.957-0.567 2.806z"></path>
<path fill="#33a9dc" d="M11.824 11.758c-1.141-1.445-3.036-3.258-3.709-4.253-0.238-0.348-0.38-0.777-0.38-1.24 0-0.541 0.194-1.037 0.517-1.422l-0.003 0.003c0.462-0.618 1.158-1.040 1.953-1.135l0.014-0.001c0.114-0.021 0.245-0.033 0.378-0.033 0.871 0 1.624 0.502 1.986 1.233l0.006 0.013c0.526 1.081 1.147 3.628 1.829 5.339z"></path>
<path fill="#000" d="M11.642 11.9c-0.531-0.673-1.224-1.422-1.894-2.147-0.633-0.648-1.231-1.339-1.785-2.066l-0.040-0.054c-0.265-0.383-0.424-0.858-0.424-1.37 0-0.592 0.212-1.135 0.565-1.557l-0.003 0.004c0.501-0.67 1.255-1.127 2.119-1.229l0.014-0.001c0.124-0.022 0.267-0.035 0.412-0.035 0.959 0 1.787 0.556 2.181 1.363l0.006 0.014c0.31 0.705 0.625 1.582 0.884 2.483l0.039 0.158c0.292 0.942 0.595 1.917 0.912 2.713l-0.429 0.171c-0.324-0.813-0.629-1.8-0.924-2.747-0.293-1.035-0.599-1.891-0.955-2.721l0.055 0.145c-0.332-0.666-1.008-1.116-1.789-1.116-0.124 0-0.245 0.011-0.363 0.033l0.012-0.002c-0.74 0.090-1.376 0.476-1.795 1.033l-0.005 0.007c-0.293 0.345-0.471 0.795-0.471 1.287 0 0.415 0.127 0.801 0.345 1.12l-0.004-0.007c0.581 0.76 1.165 1.433 1.786 2.069l-0.004-0.004c0.676 0.731 1.375 1.487 1.917 2.174z"></path>
<path fill="#f1662a" d="M10.263 14.414c-1.711-0.681-4.257-1.3-5.339-1.829-0.743-0.368-1.246-1.121-1.246-1.992 0-0.134 0.012-0.265 0.035-0.392l-0.002 0.013c0.096-0.809 0.518-1.505 1.129-1.962l0.007-0.005c0.381-0.32 0.877-0.514 1.419-0.514 0.463 0 0.893 0.142 1.248 0.385l-0.008-0.005c1 0.673 2.808 2.568 4.253 3.709z"></path>
<path fill="#000" d="M10.178 14.629c-0.8-0.317-1.771-0.62-2.713-0.912-1.059-0.298-1.936-0.613-2.786-0.979l0.145 0.056c-0.821-0.401-1.377-1.23-1.377-2.188 0-0.146 0.013-0.288 0.037-0.426l-0.002 0.015c0.103-0.878 0.56-1.633 1.223-2.128l0.008-0.006c0.418-0.349 0.96-0.562 1.553-0.562 0.512 0 0.987 0.158 1.378 0.429l-0.008-0.005c0.781 0.594 1.472 1.192 2.124 1.829l-0.004-0.004c0.724 0.67 1.474 1.362 2.146 1.894l-0.286 0.359c-0.687-0.542-1.443-1.241-2.174-1.917-0.632-0.618-1.305-1.202-2.012-1.744l-0.053-0.039c-0.312-0.213-0.698-0.34-1.113-0.34-0.492 0-0.942 0.178-1.289 0.474l0.003-0.002c-0.565 0.424-0.951 1.060-1.040 1.787l-0.001 0.013c-0.020 0.105-0.031 0.227-0.031 0.351 0 0.781 0.45 1.458 1.105 1.784l0.012 0.005c0.685 0.301 1.541 0.607 2.419 0.861l0.157 0.039c0.951 0.3 1.934 0.6 2.747 0.924z"></path>
<path fill="#33a9dc" d="M10.239 17.5c-1.822 0.265-4.338 1-5.538 1.086-0.047 0.004-0.102 0.006-0.157 0.006-0.949 0-1.759-0.597-2.074-1.436l-0.005-0.015c-0.149-0.335-0.235-0.725-0.235-1.136s0.087-0.801 0.243-1.154l-0.007 0.018c0.319-0.857 1.13-1.456 2.081-1.456 0.054 0 0.108 0.002 0.161 0.006l-0.007-0c1.2 0.085 3.716 0.82 5.538 1.086z"></path>
<path fill="#000" d="M4.522 18.818c-1.034-0.008-1.914-0.658-2.26-1.571l-0.006-0.017c-0.162-0.363-0.256-0.786-0.256-1.232s0.094-0.869 0.264-1.251l-0.008 0.020c0.351-0.935 1.238-1.588 2.277-1.588 0.065 0 0.13 0.003 0.194 0.008l-0.008-0.001c1.063 0.135 1.995 0.317 2.905 0.556l-0.156-0.035c0.962 0.218 1.957 0.443 2.806 0.567l-0.067 0.457c-0.866-0.126-1.87-0.353-2.841-0.573-0.732-0.198-1.641-0.377-2.567-0.499l-0.112-0.012c-0.041-0.003-0.088-0.005-0.136-0.005-0.858 0-1.589 0.542-1.87 1.302l-0.004 0.014c-0.136 0.307-0.215 0.664-0.215 1.040s0.079 0.734 0.221 1.057l-0.007-0.017c0.285 0.774 1.016 1.316 1.873 1.316 0.048 0 0.096-0.002 0.143-0.005l-0.006 0c1.039-0.134 1.948-0.313 2.834-0.545l-0.154 0.034c0.971-0.22 1.975-0.447 2.841-0.573l0.067 0.457c-0.848 0.123-1.843 0.349-2.805 0.567-0.754 0.204-1.686 0.386-2.637 0.509l-0.112 0.012q-0.1 0.007-0.197 0.007z"></path>
<path fill="#f1662a" d="M11.759 20.176c-1.445 1.141-3.257 3.036-4.253 3.709-0.348 0.238-0.777 0.38-1.24 0.38-0.541 0-1.037-0.194-1.422-0.517l0.003 0.003c-0.618-0.463-1.040-1.158-1.135-1.954l-0.001-0.014c-0.021-0.114-0.033-0.245-0.033-0.378 0-0.871 0.502-1.624 1.233-1.986l0.013-0.006c1.081-0.526 3.628-1.147 5.339-1.829z"></path>
<path fill="#000" d="M6.308 24.5c-0.606-0.015-1.16-0.225-1.606-0.568l0.006 0.005c-0.671-0.501-1.129-1.255-1.231-2.118l-0.001-0.015c-0.022-0.124-0.035-0.266-0.035-0.412 0-0.959 0.556-1.788 1.363-2.182l0.014-0.006c0.705-0.31 1.582-0.625 2.483-0.884l0.158-0.039c0.942-0.292 1.917-0.595 2.713-0.912l0.171 0.429c-0.813 0.324-1.8 0.629-2.747 0.924-1.035 0.293-1.891 0.599-2.721 0.955l0.145-0.055c-0.666 0.332-1.116 1.008-1.116 1.789 0 0.124 0.011 0.245 0.033 0.363l-0.002-0.012c0.090 0.74 0.476 1.376 1.034 1.795l0.007 0.005c0.345 0.293 0.795 0.471 1.287 0.471 0.415 0 0.801-0.127 1.12-0.345l-0.007 0.004c0.76-0.581 1.433-1.165 2.069-1.786l-0.004 0.004c0.731-0.676 1.487-1.375 2.174-1.917l0.286 0.362c-0.673 0.531-1.422 1.224-2.147 1.894-0.648 0.633-1.339 1.231-2.066 1.785l-0.054 0.040c-0.37 0.262-0.829 0.42-1.325 0.425h-0.001z"></path>
<path fill="#33a9dc" d="M14.416 21.737c-0.681 1.711-1.3 4.257-1.829 5.339-0.368 0.743-1.121 1.246-1.992 1.246-0.134 0-0.265-0.012-0.392-0.035l0.013 0.002c-0.81-0.096-1.505-0.518-1.963-1.129l-0.005-0.007c-0.32-0.381-0.514-0.877-0.514-1.419 0-0.463 0.142-0.893 0.385-1.248l-0.005 0.008c0.673-1 2.568-2.808 3.709-4.253z"></path>
<path fill="#000" d="M10.542 28.535q-0.17 0-0.347-0.017c-0.878-0.103-1.632-0.56-2.127-1.223l-0.006-0.008c-0.349-0.418-0.562-0.96-0.562-1.553 0-0.512 0.158-0.987 0.429-1.378l-0.005 0.008c0.594-0.781 1.192-1.472 1.829-2.124l-0.004 0.004c0.67-0.724 1.363-1.474 1.894-2.147l0.362 0.286c-0.542 0.687-1.241 1.443-1.917 2.174-0.617 0.632-1.201 1.305-1.743 2.012l-0.039 0.053c-0.213 0.312-0.34 0.698-0.34 1.113 0 0.492 0.178 0.942 0.474 1.289l-0.002-0.003c0.424 0.565 1.060 0.95 1.787 1.039l0.013 0.001c0.106 0.020 0.227 0.031 0.351 0.031 0.781 0 1.457-0.45 1.783-1.105l0.005-0.012c0.301-0.685 0.607-1.541 0.861-2.419l0.039-0.157c0.3-0.951 0.6-1.934 0.924-2.747l0.429 0.171c-0.317 0.8-0.62 1.771-0.912 2.713-0.298 1.059-0.613 1.936-0.979 2.786l0.056-0.145c-0.386 0.809-1.198 1.359-2.138 1.359-0.040 0-0.080-0.001-0.12-0.003l0.006 0z"></path>
<path fill="#f1662a" d="M17.5 21.76c0.265 1.822 1 4.338 1.086 5.538 0.004 0.047 0.006 0.102 0.006 0.157 0 0.949-0.597 1.759-1.436 2.074l-0.015 0.005c-0.335 0.149-0.725 0.235-1.136 0.235s-0.801-0.087-1.154-0.242l0.018 0.007c-0.856-0.319-1.455-1.13-1.455-2.081 0-0.054 0.002-0.107 0.006-0.16l-0 0.007c0.085-1.2 0.82-3.716 1.086-5.538z"></path>
<path fill="#000" d="M16 30c-0.006 0-0.013 0-0.020 0-0.439 0-0.855-0.094-1.23-0.264l0.019 0.008c-0.935-0.352-1.588-1.238-1.588-2.277 0-0.065 0.003-0.129 0.008-0.193l-0.001 0.008c0.135-1.063 0.317-1.995 0.556-2.905l-0.035 0.156c0.218-0.962 0.443-1.957 0.567-2.806l0.457 0.067c-0.126 0.866-0.353 1.87-0.573 2.841-0.198 0.732-0.377 1.641-0.499 2.567l-0.012 0.113c-0.003 0.041-0.005 0.088-0.005 0.136 0 0.858 0.542 1.588 1.302 1.869l0.014 0.004c0.307 0.136 0.664 0.215 1.041 0.215s0.734-0.079 1.057-0.221l-0.017 0.007c0.774-0.285 1.316-1.016 1.316-1.874 0-0.048-0.002-0.096-0.005-0.143l0 0.006c-0.134-1.039-0.313-1.947-0.545-2.834l0.034 0.155c-0.22-0.971-0.447-1.975-0.573-2.841l0.457-0.067c0.124 0.848 0.349 1.844 0.567 2.806 0.204 0.754 0.386 1.686 0.509 2.637l0.012 0.112c0.004 0.055 0.007 0.12 0.007 0.185 0 1.039-0.653 1.926-1.571 2.272l-0.017 0.006c-0.356 0.161-0.772 0.255-1.209 0.255-0.008 0-0.016-0-0.024-0h0.001z"></path>
<path fill="#33a9dc" d="M20.176 20.241c1.141 1.445 3.036 3.257 3.709 4.253 0.238 0.348 0.38 0.777 0.38 1.24 0 0.541-0.194 1.037-0.517 1.422l0.003-0.003c-0.463 0.618-1.158 1.040-1.954 1.135l-0.014 0.001c-0.114 0.021-0.245 0.033-0.378 0.033-0.871 0-1.624-0.502-1.986-1.233l-0.006-0.013c-0.526-1.081-1.147-3.628-1.829-5.339z"></path>
<path fill="#000" d="M21.458 28.536c-0.034 0.002-0.073 0.003-0.112 0.003-0.941 0-1.754-0.551-2.134-1.347l-0.006-0.014c-0.31-0.705-0.625-1.582-0.884-2.483l-0.039-0.158c-0.292-0.942-0.595-1.916-0.912-2.713l0.429-0.171c0.324 0.813 0.629 1.8 0.924 2.747 0.293 1.035 0.599 1.891 0.955 2.721l-0.055-0.145c0.331 0.666 1.007 1.116 1.789 1.116 0.124 0 0.246-0.011 0.364-0.033l-0.012 0.002c0.74-0.090 1.376-0.476 1.795-1.034l0.005-0.007c0.293-0.345 0.471-0.795 0.471-1.287 0-0.415-0.127-0.801-0.345-1.12l0.004 0.007c-0.581-0.76-1.165-1.434-1.786-2.070l0.004 0.004c-0.676-0.731-1.375-1.487-1.917-2.174l0.362-0.286c0.531 0.673 1.224 1.422 1.893 2.146 0.634 0.648 1.232 1.34 1.786 2.067l0.040 0.054c0.265 0.383 0.424 0.858 0.424 1.37 0 0.592-0.212 1.135-0.565 1.556l0.003-0.004c-0.501 0.671-1.255 1.129-2.118 1.231l-0.015 0.001q-0.178 0.022-0.348 0.022z"></path>
<path fill="#f1662a" d="M21.738 17.585c1.711 0.681 4.257 1.3 5.339 1.829 0.743 0.368 1.246 1.121 1.246 1.992 0 0.134-0.012 0.265-0.035 0.392l0.002-0.013c-0.096 0.81-0.518 1.505-1.129 1.963l-0.007 0.005c-0.381 0.32-0.877 0.514-1.419 0.514-0.463 0-0.893-0.142-1.248-0.385l0.008 0.005c-1-0.673-2.808-2.568-4.253-3.709z"></path>
<path fill="#000" d="M25.693 24.5c-0.498-0.005-0.958-0.163-1.335-0.431l0.007 0.005c-0.78-0.594-1.472-1.192-2.124-1.83l0.004 0.004c-0.724-0.67-1.473-1.362-2.146-1.893l0.285-0.355c0.687 0.542 1.443 1.241 2.174 1.917 0.632 0.617 1.305 1.201 2.012 1.743l0.053 0.039c0.312 0.213 0.698 0.34 1.113 0.34 0.492 0 0.942-0.178 1.289-0.474l-0.003 0.002c0.564-0.424 0.95-1.060 1.039-1.787l0.001-0.013c0.020-0.105 0.031-0.227 0.031-0.351 0-0.781-0.45-1.458-1.105-1.784l-0.012-0.005c-0.685-0.301-1.541-0.607-2.419-0.861l-0.157-0.039c-0.951-0.3-1.934-0.6-2.747-0.924l0.171-0.429c0.8 0.317 1.771 0.62 2.713 0.912 1.059 0.298 1.936 0.613 2.786 0.979l-0.145-0.056c0.821 0.401 1.377 1.23 1.377 2.188 0 0.145-0.013 0.288-0.037 0.426l0.002-0.015c-0.103 0.878-0.56 1.632-1.223 2.127l-0.008 0.006c-0.44 0.336-0.993 0.543-1.595 0.557l-0.003 0z"></path>
<path fill="#33a9dc" d="M21.761 14.506c1.822-0.265 4.338-1 5.538-1.086 0.047-0.004 0.102-0.006 0.157-0.006 0.949 0 1.759 0.597 2.074 1.436l0.005 0.015c0.149 0.335 0.235 0.725 0.235 1.136s-0.087 0.801-0.242 1.154l0.007-0.018c-0.32 0.854-1.13 1.451-2.079 1.451-0.055 0-0.109-0.002-0.163-0.006l0.007 0c-1.2-0.085-3.716-0.82-5.538-1.086z"></path>
<path fill="#000" d="M27.478 18.821c-0.065 0-0.13 0-0.2-0.007-1.063-0.135-1.995-0.317-2.905-0.556l0.156 0.035c-0.962-0.218-1.957-0.443-2.806-0.567l0.067-0.457c0.866 0.126 1.87 0.353 2.841 0.573 0.732 0.198 1.64 0.377 2.566 0.499l0.113 0.012c0.041 0.003 0.089 0.005 0.137 0.005 0.857 0 1.588-0.542 1.869-1.302l0.004-0.014c0.136-0.307 0.215-0.664 0.215-1.041s-0.079-0.734-0.221-1.057l0.007 0.017c-0.285-0.774-1.016-1.316-1.873-1.316-0.048 0-0.096 0.002-0.143 0.005l0.006-0c-1.039 0.134-1.948 0.313-2.835 0.545l0.155-0.034c-0.971 0.22-1.975 0.447-2.841 0.573l-0.067-0.457c0.848-0.123 1.843-0.349 2.806-0.567 0.754-0.204 1.686-0.386 2.637-0.509l0.112-0.012c0.055-0.004 0.12-0.007 0.185-0.007 1.039 0 1.926 0.653 2.272 1.571l0.006 0.017c0.162 0.363 0.256 0.786 0.256 1.231s-0.094 0.869-0.264 1.251l0.008-0.020c-0.352 0.928-1.229 1.578-2.26 1.588h-0.001z"></path>
<path fill="#f1662a" d="M20.243 11.825c1.445-1.14 3.257-3.035 4.257-3.709 0.348-0.238 0.777-0.38 1.24-0.38 0.541 0 1.037 0.194 1.422 0.517l-0.003-0.003c0.618 0.463 1.040 1.158 1.135 1.954l0.001 0.014c0.021 0.114 0.033 0.245 0.033 0.378 0 0.871-0.502 1.624-1.233 1.986l-0.013 0.006c-1.081 0.526-3.628 1.147-5.339 1.829z"></path>
<path fill="#000" d="M21.824 14.631l-0.171-0.429c0.813-0.324 1.8-0.629 2.747-0.924 1.035-0.293 1.891-0.599 2.721-0.955l-0.145 0.055c0.666-0.332 1.116-1.008 1.116-1.789 0-0.124-0.011-0.245-0.033-0.363l0.002 0.012c-0.090-0.74-0.475-1.376-1.033-1.795l-0.007-0.005c-0.345-0.293-0.795-0.471-1.287-0.471-0.415 0-0.801 0.127-1.12 0.345l0.007-0.004c-0.76 0.581-1.433 1.165-2.069 1.786l0.004-0.004c-0.731 0.676-1.487 1.375-2.174 1.917l-0.286-0.362c0.673-0.531 1.422-1.224 2.146-1.894 0.648-0.634 1.34-1.232 2.066-1.786l0.054-0.040c0.383-0.265 0.858-0.424 1.37-0.424 0.592 0 1.135 0.212 1.557 0.565l-0.004-0.003c0.673 0.501 1.133 1.258 1.234 2.124l0.001 0.014c0.022 0.124 0.035 0.267 0.035 0.412 0 0.959-0.556 1.787-1.363 2.181l-0.014 0.006c-0.705 0.31-1.582 0.625-2.483 0.884l-0.158 0.039c-0.937 0.289-1.916 0.591-2.713 0.908z"></path>
<path fill="#33a9dc" d="M17.585 10.263c0.681-1.711 1.3-4.257 1.829-5.339 0.368-0.743 1.121-1.246 1.992-1.246 0.134 0 0.265 0.012 0.392 0.035l-0.013-0.002c0.81 0.096 1.505 0.518 1.963 1.129l0.005 0.007c0.32 0.381 0.514 0.877 0.514 1.419 0 0.463-0.142 0.893-0.385 1.248l0.005-0.008c-0.673 1-2.568 2.808-3.709 4.253z"></path>
<path fill="#000" d="M20.357 11.9l-0.357-0.283c0.542-0.687 1.241-1.443 1.917-2.174 0.617-0.632 1.201-1.305 1.743-2.012l0.039-0.053c0.213-0.312 0.34-0.698 0.34-1.113 0-0.492-0.178-0.942-0.474-1.289l0.002 0.003c-0.424-0.565-1.060-0.951-1.787-1.040l-0.013-0.001c-0.105-0.020-0.227-0.031-0.35-0.031-0.781 0-1.458 0.45-1.784 1.104l-0.005 0.012c-0.301 0.685-0.607 1.541-0.861 2.419l-0.039 0.157c-0.3 0.951-0.6 1.934-0.924 2.747l-0.429-0.171c0.317-0.8 0.62-1.771 0.912-2.713 0.298-1.059 0.613-1.936 0.979-2.786l-0.056 0.145c0.401-0.821 1.23-1.377 2.188-1.377 0.145 0 0.288 0.013 0.426 0.037l-0.015-0.002c0.878 0.103 1.632 0.56 2.127 1.223l0.006 0.008c0.349 0.418 0.562 0.96 0.562 1.553 0 0.512-0.158 0.987-0.429 1.378l0.005-0.008c-0.594 0.78-1.192 1.472-1.83 2.124l0.004-0.004c-0.674 0.729-1.367 1.478-1.898 2.148z"></path>
<path fill="#ffd800" d="M21.9 16c0 3.258-2.642 5.9-5.9 5.9s-5.9-2.642-5.9-5.9c0-3.258 2.642-5.9 5.9-5.9v0c3.258 0 5.9 2.642 5.9 5.9v0z"></path>
<path fill="#020000" d="M16 22.175c-3.41 0-6.175-2.765-6.175-6.175s2.765-6.175 6.175-6.175c3.41 0 6.175 2.765 6.175 6.175v0c-0.004 3.409-2.766 6.171-6.175 6.175h-0zM16 10.375c-3.105 0-5.622 2.517-5.622 5.622s2.517 5.622 5.622 5.622c3.104 0 5.62-2.515 5.622-5.619v-0c-0.003-3.104-2.518-5.619-5.622-5.622h-0z"></path>
</svg>
<svg id="icon-koreio-svgrepo-com" width="32" height="32" viewBox="0 0 32 32" x="624" y="0">
<path fill="#c5e3eb" d="M15.982 0l0.309 0.695v6.895l-0.309 0.437-0.603 0.053-6.034-3.526-0.232-0.54 6.869-4.013z"></path>
<path fill="#c5e3eb" d="M2.244 8.027l0.154 0.489 5.986 3.43 0.729 0.017 0.283-0.463v-7.049l-0.283-0.437-6.869 4.013z"></path>
<path fill="#78abdb" d="M2.244 23.925l0.257-0.502 6.167-3.534 0.444 0.099 0.566-0.154 6.092 3.491 0.21 0.599 0.219 0.386v7.332l-0.219 0.309-13.738-8.026z"></path>
<path fill="#a4c0c5" d="M9.113 4.013l6.869 4.013 0.309 0.694v6.534l-0.309 0.72-0.836-0.076-5.814-3.397-0.219-0.54v-7.949z"></path>
<path fill="#7ba6c1" d="M15.982 15.976l-0.141 0.403-6.046 3.533-0.682 0.077-0.206-0.502v-7.255l0.206-0.27 6.869 4.013z"></path>
<path fill="#98c3e4" d="M2.244 23.925l6.869-3.936v-8.026l-6.869-3.936v15.898z"></path>
<path fill="#4b7c9e" d="M15.982 15.976l0.18 0.502v6.869l-0.18 0.579-6.869-3.936 6.869-4.013z"></path>
<path fill="#f4bc6a" d="M15.982 31.951v-8.027l0.342-0.091 6.167 3.603 0.36 0.502-6.869 4.013z"></path>
<path fill="#b48340" d="M15.982 15.976v7.949l6.869 4.013 0.219-0.579v-6.869l-0.219-0.502-0.399-0.54-6.005-3.509-0.465 0.036z"></path>
<path fill="#8c3d33" d="M22.851 11.963l0.219 0.347v7.1l-0.219 0.579-6.869-4.013 0.316-0.505 5.806-3.392 0.746-0.116z"></path>
<path fill="#c47973" d="M15.982 8.027l0.45-0.116 6.162 3.531 0.256 0.521-6.869 4.013v-7.949z"></path>
<path fill="#f4bc6a" d="M22.851 27.938v-7.949l0.397-0.090 6.15 3.524 0.322 0.502-6.869 4.013z"></path>
<path fill="#bb6651" d="M29.72 8.027h-0.554l-6.076 3.482-0.239 0.455v8.026l6.869 3.936v-15.898z"></path>
<path fill="#e1938a" d="M15.982 0v8.027l6.869 3.936 6.869-3.936-13.738-8.027z"></path>
</svg>
<svg id="icon-kraken-svgrepo-com" width="32" height="32" viewBox="0 0 32 32" x="672" y="0">
<path d="M23.988 2.125l-8 13.85 8 13.85c0.45-0.262 0.825-0.637 1.1-1.125l6.475-11.225c0.55-0.962 0.55-2.063 0-3.025l-6.475-11.225c-0.275-0.462-0.65-0.837-1.1-1.1v0 0z"></path>
<path d="M15.988 15.988l5.175 8.95c0.050-0.063 0.1-0.137 0.137-0.212l4.45-7.7c0.375-0.663 0.375-1.425 0-2.075l-4.45-7.7c-0.050-0.075-0.087-0.138-0.137-0.213l-5.175 8.95z"></path>
<path d="M15.988 15.988l-4.113-7.125 11.875-6.85c0.087 0.038 0.163 0.075 0.238 0.125l-8 13.85z"></path>
<path d="M6.888 28.725c-2.163-3.738-4.325-7.488-6.475-11.225-0.225-0.4-0.362-0.825-0.4-1.25l11.875 6.85-3.9 6.738c-0.438-0.262-0.825-0.637-1.1-1.113v0 0z"></path>
<path d="M11.875 23.113l11.875 6.85c0.087-0.038 0.163-0.075 0.238-0.125l-8-13.85-4.113 7.125z"></path>
<path d="M6.9 3.237l-6.487 11.238c-0.225 0.4-0.362 0.813-0.4 1.238l11.875-6.85-3.9-6.737c-0.438 0.263-0.813 0.625-1.088 1.112v0 0z"></path>
<path d="M11.875 8.85l4.113 7.125-4.113 7.125-11.875-6.85c-0.013-0.175-0.013-0.363 0-0.537l11.875-6.862z"></path>
<path d="M11.875 8.85l11.875-6.85c-0.387-0.175-0.825-0.275-1.275-0.275h-12.963c-0.55 0-1.075 0.137-1.512 0.4l3.875 6.725z"></path>
<path d="M7.987 29.837l3.888-6.725 11.875 6.85c-0.387 0.175-0.825 0.275-1.275 0.275h-12.963c-0.563 0-1.075-0.137-1.525-0.4v0 0z"></path>
</svg>
<svg id="icon-light-pnpm-svgrepo-com" width="32" height="32" viewBox="0 0 32 32" x="720" y="0">
<path fill="#f9ad00" d="M30 10.75h-8.749v-8.75h8.749z"></path>
<path fill="#f9ad00" d="M20.374 10.75h-8.75v-8.75h8.75z"></path>
<path fill="#f9ad00" d="M10.749 10.75h-8.749v-8.75h8.749z"></path>
<path fill="#f9ad00" d="M30 20.375h-8.749v-8.75h8.749z"></path>
<path fill="#4e4e4e" d="M20.374 20.375h-8.75v-8.75h8.75z"></path>
<path fill="#4e4e4e" d="M20.374 30h-8.75v-8.75h8.75z"></path>
<path fill="#4e4e4e" d="M30 30h-8.749v-8.75h8.749z"></path>
<path fill="#4e4e4e" d="M10.749 30h-8.749v-8.75h8.749z"></path>
</svg>
<svg id="icon-litmus-svgrepo-com" width="32" height="32" viewBox="0 0 32 32" x="0" y="48">
<path fill="#6a7a55" d="M0 15.992c0 1.561 0.225 3.069 0.642 4.495l8.828-2.891c-0.111-0.482-0.171-0.983-0.171-1.498 0-0.597 0.081-1.174 0.229-1.724l-8.89-2.86c-0.414 1.421-0.637 2.924-0.637 4.479z"></path>
<path fill="#a09440" d="M11.7 10.993l-5.581-7.584c-2.344 1.843-4.16 4.328-5.185 7.189l8.911 2.867c0.418-0.964 1.057-1.81 1.855-2.472z"></path>
<path fill="#afa148" d="M15.526 9.479v-9.479c-3.204 0.093-6.17 1.128-8.634 2.837l5.591 7.596c0.897-0.547 1.933-0.888 3.044-0.954z"></path>
<path fill="#4c5c59" d="M9.755 18.515l-8.816 2.888c1.040 2.893 2.888 5.4 5.274 7.248l5.441-7.486c-0.835-0.705-1.493-1.614-1.899-2.649z"></path>
<path fill="#48555d" d="M6.992 29.216c2.444 1.668 5.374 2.677 8.535 2.769v-9.269c-1.132-0.068-2.186-0.421-3.094-0.986l-5.441 7.486z"></path>
<path fill="#e3b23b" d="M25.018 2.776c-2.442-1.67-5.371-2.681-8.53-2.776v9.491c1.073 0.090 2.074 0.435 2.941 0.975l5.589-7.69z"></path>
<path fill="#903024" d="M16.489 22.704v9.28c3.184-0.096 6.133-1.122 8.587-2.815l-5.531-7.515c-0.893 0.582-1.935 0.956-3.057 1.050z"></path>
<path fill="#d65841" d="M20.312 21.072l5.54 7.527c2.379-1.861 4.217-4.382 5.241-7.287l-8.956-2.881c-0.386 1.025-1.017 1.93-1.825 2.641z"></path>
<path fill="#e6703e" d="M32 15.992c0-1.58-0.23-3.107-0.657-4.548l-9.006 2.95c0.145 0.544 0.224 1.114 0.224 1.704 0 0.484-0.053 0.956-0.151 1.41l8.975 2.887c0.4-1.399 0.615-2.876 0.615-4.403z"></path>
<path fill="#f4a83a" d="M22.023 13.484l9.019-2.954c-1.041-2.867-2.879-5.352-5.246-7.188l-5.59 7.691c0.782 0.66 1.407 1.498 1.816 2.451z"></path>
</svg>
<svg id="icon-nsi-svgrepo-com" width="32" height="32" viewBox="0 0 32 32" x="48" y="48">
<path fill="#00577b" d="M27.435 16.037l-5.423 5.423 5.423 5.423z"></path>
<path fill="#0079aa" d="M26.884 15.5h-10.836l5.423 5.423z"></path>
<path fill="#0096d3" d="M26.884 14.712l-5.423-5.423-5.423 5.423z"></path>
<path fill="#01b0f0" d="M20.528 9.131h-10.845l5.423 5.423zM27.435 3.325l-5.423 5.423 5.423 5.423z"></path>
<path fill="#27bcf3" d="M20.528 8.356l-5.423-5.423-5.422 5.423z"></path>
<path fill="#4fc9f5" d="M14.172 2.775h-10.845l5.422 5.425z"></path>
<path fill="#79201b" d="M4.568 15.963l5.423-5.423-5.423-5.423z"></path>
<path fill="#a42d26" d="M10.541 11.091l-5.422 5.422h10.845z"></path>
<path fill="#cc382f" d="M5.119 17.288l5.423 5.423 5.423-5.423z"></path>
<path fill="#f0453f" d="M4.568 17.829v10.846l5.423-5.423-1.591-1.587zM22.316 22.865l-5.416-5.418-5.423 5.423z"></path>
<path fill="#f2625d" d="M11.475 23.644l5.425 5.423 5.423-5.423z"></path>
<path fill="#f47f7d" d="M17.84 29.225h10.845l-5.422-5.425z"></path>
<path fill="#464049" d="M29.889 29.337l-1.68-1.68v-25.265c0-0.001 0-0.003 0-0.005 0-0.159-0.1-0.296-0.24-0.349l-0.003-0.001c-0.038-0.023-0.085-0.037-0.135-0.037-0.002 0-0.003 0-0.005 0h0c-0.003-0-0.007-0-0.010-0-0.103 0-0.195 0.043-0.261 0.112l-6.085 6.088-6.086-6.088-0.085-0.075h-0.037c-0.042-0.023-0.093-0.037-0.146-0.037-0.004 0-0.008 0-0.012 0l0.001-0h-12.705c-0.111 0.001-0.213 0.043-0.289 0.112l0-0c-0.069 0.069-0.111 0.164-0.111 0.269 0 0.004 0 0.008 0 0.012v-0.001c-0 0.003-0 0.007-0 0.010 0 0.103 0.043 0.195 0.112 0.26l1.68 1.68v25.274c-0 0.001-0 0.003-0 0.005 0 0.16 0.1 0.296 0.24 0.349l0.003 0.001c0.043 0.018 0.093 0.028 0.145 0.028 0.002 0 0.004 0 0.006-0h-0c0.003 0 0.007 0 0.010 0 0.103 0 0.195-0.043 0.261-0.112l6.085-6.088 6.085 6.085 0.084 0.075h0.037c0.039 0.025 0.086 0.040 0.138 0.040 0.005 0 0.011-0 0.016-0l-0.001 0h12.709c0.214-0.006 0.385-0.18 0.385-0.395 0-0.104-0.040-0.198-0.105-0.268l0 0zM27.435 3.325v10.846l-5.423-5.423 5.423-5.423zM9.991 10.54l-5.423 5.423v-10.846l5.423 5.423zM9.683 9.131h10.845l-5.423 5.423-5.422-5.423zM10.542 11.091l5.423 5.423h-10.846l5.423-5.423zM16.9 17.447l5.423 5.423h-10.848l5.425-5.423zM16.048 15.5h10.845l-5.423 5.423-5.422-5.423zM22.012 21.464l5.423-5.423v10.842l-5.423-5.423zM26.884 14.716h-10.836l5.423-5.423 5.413 5.423zM20.528 8.356h-10.845l5.423-5.423 5.423 5.423zM3.327 2.775h10.845l-5.423 5.425zM4.568 28.675v-10.846l5.419 5.423-5.419 5.423zM5.119 17.288h10.845l-5.423 5.423-5.422-5.423zM16.9 29.067l-5.423-5.423h10.843l-5.42 5.423zM17.843 29.226l5.42-5.426 5.423 5.423z"></path>
</svg>
<svg id="icon-protobuf-svgrepo-com" width="32" height="32" viewBox="0 0 32 32" x="96" y="48">
<path fill="#fff" d="M15.996 3.22l10.97 6.48-0.012 12.6-10.954 6.48-10.962-6.372-0.004-12.78 10.962-6.408z"></path>
<path fill="#171c1e" d="M16 2l-12.013 7.020v14l12.013 6.98 12-7.1 0.013-13.8zM26.954 22.3l-10.954 6.48-10.962-6.372v-12.78l10.962-6.408 10.966 6.48z"></path>
<path fill="#1ea8ff" d="M25.569 13.654l-5.623 3.31-0.003 7.926 5.647-3.325-0.021-7.911z"></path>
<path fill="#50bfff" d="M23.282 12.303l2.287 1.351-5.623 3.31-0.003 7.926-2.616-1.52 0.021-7.495 5.934-3.572z"></path>
<path fill="#97ff27" d="M22.512 10.35l0.002 1.466-6.103 3.682 0.007 8.099-1.42 0.834-0.004-9.575 7.518-4.506z"></path>
<path fill="#c2ff72" d="M20.008 8.871l2.504 1.479-7.518 4.506 0.004 9.575-2.804-1.63-0.005-9.388 7.819-4.542z"></path>
<path fill="#ff274b" d="M19.226 6.606v1.768l-8.016 4.7v10.098l-1.402 0.816 0.027-11.711 9.391-5.671z"></path>
<path fill="#ff5c77" d="M16.16 4.784l-9.63 5.61-0.001 11.677 3.298 1.917 0.008-11.711 9.4-5.671-3.075-1.822z"></path>
</svg>
<svg id="icon-registry-svgrepo-com" width="32" height="32" viewBox="0 0 32 32" x="144" y="48">
<path fill="#1b8c98" d="M23.492 2h6.508v6.508h-6.508z"></path>
<path fill="#1b8c98" d="M11.477 7.363l3.823-5.263 5.265 3.825-3.825 5.265z"></path>
<path fill="#1b8c98" d="M20.477 12.922l6.154-2.122 2.119 6.153-6.15 2.122z"></path>
<path fill="#4ed1f8" d="M2 8.453h6.508v6.508h-6.508z"></path>
<path fill="#4ed1f8" d="M2 16h6.508v6.508h-6.508z"></path>
<path fill="#4ed1f8" d="M9.492 16h6.508v6.508h-6.508z"></path>
<path fill="#4ed1f8" d="M2 23.492h6.508v6.508h-6.508z"></path>
<path fill="#4ed1f8" d="M9.492 23.492h6.508v6.508h-6.508z"></path>
<path fill="#4ed1f8" d="M17.039 23.492h6.508v6.508h-6.508z"></path>
</svg>
<svg id="icon-sbt-svgrepo-com" width="32" height="32" viewBox="0 0 32 32" x="192" y="48">
<path fill="#0e3a51" d="M30 16c0 7.732-6.268 14-14 14s-14-6.268-14-14c0-7.732 6.268-14 14-14s14 6.268 14 14z"></path>
<path fill="#15a9ce" d="M12.64 15.72c0.001 0.897 0.727 1.623 1.624 1.624h15.668c0.042-0.444 0.068-0.89 0.068-1.344-0.005-0.675-0.058-1.333-0.153-1.977l0.009 0.077h-15.592c-0.895 0.001-1.621 0.725-1.624 1.62v0z"></path>
<path fill="#92d13d" d="M17.624 8.795c-0.897 0-1.624 0.727-1.624 1.624s0.727 1.624 1.624 1.624h11.8c-0.372-1.237-0.861-2.314-1.472-3.309l0.035 0.060z"></path>
<path fill="#de3423" d="M29.572 19.379h-18.672c-0.897 0-1.624 0.727-1.624 1.624s0.727 1.624 1.624 1.624v0h17.433c0.509-0.933 0.934-2.015 1.219-3.152l0.020-0.096z"></path>
</svg>
<svg id="icon-tableau-icon-svgrepo-com" width="32" height="32" viewBox="0 0 32 32" x="240" y="48">
<path fill="#7099a6" d="M15.491 1.762v1.455h-2.603v0.946h2.603v2.898h1.017v-2.898h2.668v-0.946h-2.668v-2.904h-1.017z"></path>
<path fill="#eb912c" d="M6.986 5.453v2.112h-3.939v1.325h3.939v4.288h1.461v-4.288h3.998v-1.325h-3.998v-4.223h-1.461z"></path>
<path fill="#59879b" d="M23.494 5.453v2.112h-3.939v1.39h3.939v4.223h1.52v-4.223h3.939v-1.39h-3.939v-4.223h-1.52z"></path>
<path fill="#e8762c" d="M15.113 12.645v2.366h-4.383v1.763h4.383v4.732h1.774v-4.732h4.383v-1.763h-4.383v-4.732h-1.774z"></path>
<path fill="#5b6591" d="M28.001 13.84v1.485h-2.668v1.201h2.668v2.963h1.331v-2.963h2.668v-1.201h-2.668v-2.963h-1.331z"></path>
<path fill="#7099a6" d="M2.603 13.97v1.42h-2.603v1.006h2.603v2.839h1.017v-2.839l2.668-0.095v-0.911h-2.668v-2.839h-1.017z"></path>
<path fill="#c72035" d="M6.986 20.654v2.112h-3.939v1.39h3.939v4.223h1.52v-4.223h3.939v-1.39h-3.939v-4.223h-1.52z"></path>
<path fill="#1f447e" d="M23.494 20.654v2.112h-3.939v1.325h3.939v4.288h1.52v-4.288h3.939v-1.325h-3.939v-4.223h-1.52z"></path>
<path fill="#5b6591" d="M15.367 26.019v1.479h-2.668v1.201h2.668v2.963h1.331v-2.963h2.668v-1.201h-2.668v-2.963h-1.331z"></path>
</svg>
<svg id="icon-taiga-svgrepo-com" width="32" height="32" viewBox="0 0 32 32" x="288" y="48">
<path fill="#a295ae" opacity="0.8" d="M28.036 5.489l-1.495 10.525-10.525-1.495 1.495-10.525 10.525 1.495z"></path>
<path fill="#5d6f6d" opacity="0.8" d="M3.986 26.536l1.495-10.525 10.525 1.495-1.495 10.525-10.525-1.495z"></path>
<path fill="#8cd592" opacity="0.8" d="M5.481 4.008l10.525 1.495-1.495 10.525-10.525-1.495 1.495-10.525z"></path>
<path fill="#665e74" opacity="0.8" d="M26.528 28.033l-10.525-1.495 1.495-10.525 10.525 1.495-1.495 10.525z"></path>
<path fill="#3c3647" opacity="0.8" d="M14.955 31.949l-6.385-8.5 8.5-6.385 6.385 8.5-8.5 6.385z"></path>
<path fill="#837193" opacity="0.8" d="M31.933 17.049l-8.5 6.385-6.385-8.5 8.5-6.385 6.385 8.5z"></path>
<path fill="#a2f4ac" opacity="0.8" d="M17.055 0.069l6.385 8.5-8.5 6.385-6.385-8.5 8.5-6.385z"></path>
<path fill="#7ea685" opacity="0.8" d="M0.058 14.963l8.5-6.385 6.385 8.5-8.5 6.385-6.385-8.5z"></path>
<path fill="#3c3647" d="M15.995 11.968l4.042 4.042-4.042 4.042-4.042-4.042 4.042-4.042z"></path>
</svg>
<svg id="icon-targetprocess-svgrepo-com" width="32" height="32" viewBox="0 0 32 32" x="336" y="48">
<path fill="#1a1a1a" d="M26.213 7.724l-0.002-0.002-4.666 1.698 0.862-4.89-3.812-3.199-4.677 1.702-0.862 4.89-3.804-3.192-4.677 1.702-0.864 4.901 3.804 3.192-4.666 1.698-0.864 4.901 3.812 3.199 4.666-1.698-0.862 4.89 3.812 3.199 4.677-1.702 0.862-4.89 3.804 3.192 4.677-1.702 0.864-4.901-3.804-3.192 4.666-1.698 0.864-4.901-3.811-3.197zM15.151 20.922l4.655-1.694-0.86 4.879-3.795-3.184zM16.858 11.127l-4.655 1.694 0.86-4.878 3.795 3.184zM7.535 14.531l4.655-1.694-0.86 4.879-3.795-3.184zM15.131 20.918l-4.655 1.694 0.86-4.879 3.795 3.184zM11.339 17.723l0.862-4.89 4.666-1.698 3.804 3.192-0.862 4.89-4.666 1.698-3.804-3.192zM20.679 14.333l3.795 3.184-4.655 1.694 0.86-4.879zM16.877 11.13l4.655-1.694-0.86 4.879-3.795-3.184zM13.927 3.041l4.666-1.698 3.804 3.192-0.862 4.89-4.666 1.698-3.804-3.192 0.862-4.89zM3.722 11.332l0.862-4.89 4.666-1.698 3.804 3.192-0.862 4.89-4.666 1.698-3.804-3.192zM5.799 24.315l-3.804-3.192 0.862-4.89 4.666-1.698 3.804 3.192-0.862 4.89-4.666 1.698zM18.081 29.007l-4.666 1.698-3.804-3.192 0.862-4.89 4.666-1.698 3.804 3.192-0.862 4.89zM28.286 20.717l-0.862 4.89-4.666 1.698-3.804-3.191 0.862-4.89 4.666-1.698 3.804 3.192zM29.151 15.815l-4.666 1.698-3.804-3.192 0.862-4.89 4.666-1.698 3.804 3.192-0.862 4.89z"></path>
<path fill="#649791" d="M29.205 11.893l-11.424-9.586c-0.536-0.449-0.605-1.248-0.156-1.783s1.248-0.605 1.783-0.156l11.424 9.586c0.536 0.449 0.605 1.248 0.156 1.783-0.25 0.298-0.609 0.452-0.97 0.452-0.287 0-0.576-0.097-0.813-0.296z"></path>
<path fill="#efc519" d="M13.237 31.977c-0.519 0-1.006-0.322-1.191-0.838-0.236-0.658 0.105-1.383 0.763-1.619l14.191-5.101c0.657-0.237 1.383 0.105 1.619 0.763s-0.105 1.383-0.763 1.619l-14.191 5.101c-0.141 0.051-0.286 0.075-0.428 0.075v0z"></path>
<path fill="#a21c3d" d="M1.992 22.537c-0.072 0-0.145-0.006-0.219-0.019-0.689-0.12-1.15-0.776-1.029-1.465l2.59-14.833c0.12-0.689 0.776-1.149 1.465-1.029s1.15 0.776 1.029 1.465l-2.59 14.833c-0.107 0.615-0.642 1.048-1.245 1.048v0z"></path>
<path fill="#068cba" d="M8.39 10.899c-0.073 0-0.147-0.006-0.221-0.019-0.688-0.121-1.148-0.778-1.027-1.466l0.863-4.896c0.121-0.688 0.777-1.149 1.466-1.027s1.148 0.778 1.027 1.466l-0.863 4.896c-0.108 0.614-0.642 1.046-1.245 1.046v0z"></path>
<path fill="#531210" d="M5.8 25.586c-0.073 0-0.147-0.006-0.221-0.019-0.688-0.122-1.148-0.778-1.027-1.466l0.863-4.895c0.121-0.689 0.778-1.147 1.466-1.027 0.688 0.122 1.148 0.778 1.027 1.466l-0.863 4.895c-0.108 0.614-0.642 1.046-1.245 1.046v0z"></path>
<path fill="#509f4e" d="M17.73 7.499c-0.287 0-0.576-0.097-0.813-0.296l-3.808-3.195c-0.536-0.449-0.605-1.248-0.156-1.783s1.248-0.605 1.783-0.156l3.808 3.195c0.536 0.449 0.605 1.248 0.156 1.783-0.25 0.298-0.609 0.452-0.97 0.452v0z"></path>
<path fill="#106e66" d="M29.155 17.085c-0.287 0-0.576-0.097-0.813-0.296l-3.808-3.195c-0.536-0.449-0.605-1.248-0.156-1.783s1.248-0.605 1.783-0.156l3.808 3.195c0.536 0.449 0.605 1.248 0.156 1.783-0.25 0.299-0.609 0.452-0.97 0.452v0z"></path>
<path fill="#068cba" d="M23.62 23.681c-0.517 0-1.002-0.319-1.189-0.833-0.239-0.657 0.1-1.384 0.756-1.622l4.671-1.7c0.657-0.239 1.384 0.1 1.622 0.756s-0.1 1.384-0.756 1.622l-4.671 1.7c-0.143 0.052-0.289 0.077-0.433 0.077v0z"></path>
<path fill="#92beaf" d="M15.14 22.186c-0.287 0-0.576-0.097-0.813-0.296l-3.808-3.195c-0.535-0.45-0.605-1.248-0.156-1.783s1.248-0.605 1.783-0.156l3.808 3.195c0.536 0.45 0.606 1.248 0.156 1.783-0.25 0.299-0.609 0.452-0.97 0.452v0z"></path>
<path fill="#4b635b" d="M19.814 20.486c-0.073 0-0.147-0.006-0.221-0.019-0.689-0.122-1.148-0.778-1.027-1.466l0.863-4.896c0.122-0.688 0.777-1.149 1.466-1.027s1.148 0.778 1.027 1.466l-0.863 4.896c-0.108 0.614-0.642 1.046-1.245 1.046v0z"></path>
<path fill="#b9bc63" d="M12.196 14.095c-0.517 0-1.003-0.319-1.19-0.833-0.239-0.657 0.1-1.383 0.757-1.622l4.672-1.7c0.656-0.239 1.383 0.1 1.622 0.757s-0.1 1.383-0.757 1.622l-4.671 1.7c-0.143 0.052-0.289 0.077-0.433 0.077v0z"></path>
<path fill="#e38b25" d="M9.607 28.782c-0.517 0-1.003-0.319-1.19-0.833-0.239-0.657 0.1-1.383 0.757-1.622l4.671-1.7c0.657-0.239 1.384 0.1 1.622 0.757s-0.1 1.383-0.757 1.622l-4.671 1.7c-0.143 0.052-0.289 0.077-0.433 0.077v0z"></path>
</svg>
<svg id="icon-terser-icon-svgrepo-com" width="32" height="32" viewBox="0 0 32 32" x="384" y="48">
<path fill="#00b3e3" d="M12.44 13.927l-4.897 2.045-7.48-4.313 4.313-7.346 7.413 4.313 0.651 5.301zM19.656 18.045l0.624 5.272 7.413 4.313 4.246-7.346-7.48-4.313-4.802 2.074z"></path>
<path fill="#ffc843" d="M16.034 19.948l4.246 3.369v8.626h-8.491v-8.626l4.246-3.369zM20.279 8.626v-8.626h-8.491v8.626l4.246 3.413 4.246-3.413z"></path>
<path fill="#ff4338" d="M19.656 14.113l0.624-5.487 7.413-4.313 4.246 7.346-7.48 4.313-4.802-1.859zM7.543 15.971l-7.48 4.313 4.246 7.346 7.48-4.313 1.237-5.282-5.483-2.064z"></path>
<path fill="#002f32" d="M20.279 13.545l4.178 2.426-4.178 2.426-0.822-2.426 0.822-2.426zM11.788 13.545l-4.246 2.426 4.246 2.426 0.944-2.426-0.944-2.426z"></path>
<path fill="#ff350f" d="M16.034 11.052l4.246-2.426v4.919l-2.801-0.492-1.444-2.002zM11.788 18.397v4.919l4.246-2.426-1.487-2.303-2.759-0.19z"></path>
<path fill="#008c3c" d="M20.279 18.397v4.919l-4.246-2.426 1.706-1.868 2.54-0.626zM16.034 11.052l-4.246-2.426v4.919l2.786-0.458 1.46-2.035z"></path>
<path fill="#00250d" d="M16.034 11.052l-4.246 2.493v4.852l4.246 2.493 4.246-2.493v-4.852z"></path>
</svg>
</svg>
