<svg aria-hidden="true" style="position: absolute; width: 0; height: 0; overflow: hidden;" version="1.1" xmlns="http://www.w3.org/2000/svg" xmlns:xlink="http://www.w3.org/1999/xlink">
<defs>
<symbol id="icon-adjust-svgrepo-com" viewBox="0 0 32 32">
<path fill="#01a59c" style="fill: var(--color1, #01a59c)" d="M0 14.933h32v10.4h-32v-10.4z"></path>
<path fill="#f8ad89" style="fill: var(--color2, #f8ad89)" d="M0 11c0-1.65 1.35-3 3-3h2c1.65 0 3 1.35 3 3v1.5h4v-1.5c0-1.65 1.35-3 3-3h2c1.65 0 3 1.35 3 3v1.5h2.031l0.296-2.051c0.236-1.633 1.765-2.776 3.398-2.541l1.979 0.286c1.633 0.236 2.776 1.765 2.541 3.398l-0.131 0.908h1.886v-6.5h-32v5z"></path>
<path fill="#f4d6b0" style="fill: var(--color3, #f4d6b0)" d="M30 25.333h-8v-5.333h8v5.333zM20 20h-8v5.333h8v-5.333zM10 20h-8v5.333h8v-5.333zM2.5 12c0-0.828 0.671-1.5 1.5-1.5s1.5 0.672 1.5 1.5v0.5h2.5v-1.5c0-1.65-1.35-3-3-3h-2c-1.65 0-3 1.35-3 3v1.5h2.5v-0.5zM8 14.933h-2.5v0.5c0 0.828-0.671 1.5-1.5 1.5s-1.5-0.672-1.5-1.5v-0.5h-2.5v3.067h8v-3.067zM14.5 12c0-0.828 0.671-1.5 1.5-1.5s1.5 0.672 1.5 1.5v0.5h2.5v-1.5c0-1.65-1.35-3-3-3h-2c-1.65 0-3 1.35-3 3v1.5h2.5v-0.5zM20 18v-3.067h-2.5v0.5c0 0.828-0.671 1.5-1.5 1.5s-1.5-0.672-1.5-1.5v-0.5h-2.5v3.067h8zM24.5 12c0-0.828 0.671-1.5 1.5-1.5s1.5 0.672 1.5 1.5v0.5h2.614l0.131-0.908c0.236-1.633-0.908-3.162-2.541-3.398l-1.979-0.286c-1.633-0.236-3.162 0.908-3.398 2.541l-0.296 2.051h2.469v-0.5zM29.245 17.953l0.436-3.020h-2.181v0.5c0 0.828-0.671 1.5-1.5 1.5s-1.5-0.672-1.5-1.5v-0.5h-2.902l-0.271 1.877 7.918 1.143z"></path>
<path fill="#e54d2e" style="fill: var(--color4, #e54d2e)" d="M27.5 12v-0.5c0-0.828-0.671-1.5-1.5-1.5s-1.5 0.672-1.5 1.5v0.5h-7v-0.5c0-0.828-0.671-1.5-1.5-1.5s-1.5 0.672-1.5 1.5v0.5h-9v-0.5c0-0.828-0.671-1.5-1.5-1.5s-1.5 0.672-1.5 1.5v0.5h-2.5v3h2.5v0.5c0 0.828 0.671 1.5 1.5 1.5s1.5-0.672 1.5-1.5v-0.5h9v0.5c0 0.828 0.671 1.5 1.5 1.5s1.5-0.672 1.5-1.5v-0.5h7v0.5c0 0.828 0.671 1.5 1.5 1.5s1.5-0.672 1.5-1.5v-0.5h4.5v-3h-4.5z"></path>
<path fill="#f27261" style="fill: var(--color5, #f27261)" d="M32 25v4c0 1.65-1.35 3-3 3h-26c-1.65 0-3-1.35-3-3v-4h32zM29 0h-26c-1.65 0-3 1.35-3 3v3h32v-3c0-1.65-1.35-3-3-3z"></path>
</symbol>
<symbol id="icon-bake-svgrepo-com" viewBox="0 0 32 32">
<path fill="#e54d2e" style="fill: var(--color4, #e54d2e)" d="M29 0h-26c-1.65 0-3 1.35-3 3v26c0 1.65 1.35 3 3 3h26c1.65 0 3-1.35 3-3v-26c0-1.65-1.35-3-3-3z"></path>
<path fill="#f27261" style="fill: var(--color5, #f27261)" d="M32 3v1h-32v-1c0-1.65 1.35-3 3-3h26c1.65 0 3 1.35 3 3zM0 29c0 1.65 1.35 3 3 3h26c1.65 0 3-1.35 3-3v-3h-32v3z"></path>
<path fill="#0c6667" style="fill: var(--color6, #0c6667)" d="M23 23h-14v-11h-3v12c0 1.105 0.895 2 2 2h16c1.105 0 2-0.895 2-2v-12h-3v11z"></path>
<path fill="#f4d6b0" style="fill: var(--color3, #f4d6b0)" d="M9 12h14v11h-14v-11z"></path>
<path fill="#f8ad89" style="fill: var(--color2, #f8ad89)" d="M20.060 6h-8.12c-3.281 0-5.94 2.659-5.94 5.94v0.060h20v-0.060c0-3.281-2.659-5.94-5.94-5.94z"></path>
</symbol>
<symbol id="icon-bookmark-svgrepo-com" viewBox="0 0 32 32">
<path fill="#0c6667" style="fill: var(--color6, #0c6667)" d="M32 29c0 1.65-1.35 3-3 3h-26c-1.65 0-3-1.35-3-3v-26c0-1.65 1.35-3 3-3h26c1.65 0 3 1.35 3 3v26z"></path>
<path fill="#01a59c" style="fill: var(--color1, #01a59c)" d="M4 13.839v18.161h25c1.65 0 3-1.35 3-3v-11h-24c-2.209 0-4-1.952-4-4.161z"></path>
<path fill="#f8ad89" style="fill: var(--color2, #f8ad89)" d="M19 13h13v3h-13v-3zM9.5 13c-0.829 0-1.5 0.671-1.5 1.5s0.671 1.5 1.5 1.5h1.5v-3h-1.5z"></path>
<path fill="#f4d6b0" style="fill: var(--color3, #f4d6b0)" d="M19 16h13v2h-24c-2.209 0-4-1.952-4-4.161v-2c0-2.209 1.791-3.839 4-3.839h3v5h-1.5c-0.829 0-1.5 0.671-1.5 1.5s0.671 1.5 1.5 1.5h9.5zM19 8v5h13v-5h-13zM17.882 8h-5.763l2.881 2 2.882-2z"></path>
<path fill="#e54d2e" style="fill: var(--color4, #e54d2e)" d="M19 7l-4 3-4-3v9h8z"></path>
</symbol>
<symbol id="icon-copy-svgrepo-com" viewBox="0 0 32 32">
<path fill="#0c6667" style="fill: var(--color6, #0c6667)" d="M32 29c0 1.65-1.35 3-3 3h-26c-1.65 0-3-1.35-3-3v-26c0-1.65 1.35-3 3-3h26c1.65 0 3 1.35 3 3v26z"></path>
<path fill="#f4d6b0" style="fill: var(--color3, #f4d6b0)" d="M28.125 9h-16.25c-1.031 0-1.875 0.844-1.875 1.875v16.25c0 1.031 0.844 1.875 1.875 1.875h16.25c1.031 0 1.875-0.844 1.875-1.875v-16.25c0-1.031-0.844-1.875-1.875-1.875zM4 19v-2h6v-2h-6v-2h6v-2h-6v-2h18v-5.125c0-1.031-0.844-1.875-1.875-1.875h-16.25c-1.031 0-1.875 0.844-1.875 1.875v16.25c0 1.031 0.844 1.875 1.875 1.875h6.125v-3h-6zM4 4h16v2h-16v-2z"></path>
<path fill="#f8ad89" style="fill: var(--color2, #f8ad89)" d="M20 11v-2h-8.125c-1.031 0-1.875 0.844-1.875 1.875v16.25c0 1.031 0.844 1.875 1.875 1.875h8.125v-3h-8v-2h8v-2h-8v-2h8v-2h-8v-2h8v-3h-8v-2h8z"></path>
<path fill="#0c6667" style="fill: var(--color6, #0c6667)" d="M20 6h-16v-2h16v2zM12 11v2h16v-2h-16z"></path>
<path fill="#01a59c" style="fill: var(--color1, #01a59c)" d="M10 10.875v0.125h-6v-2h7.875c-1.031 0-1.875 0.844-1.875 1.875zM4 13v2h6v-2h-6zM4 17v2h6v-2h-6zM26 16v2h2v-2h-2zM12 16v2h10v-2h-10zM26 20v2h2v-2h-2zM12 20v2h10v-2h-10zM26 24v2h2v-2h-2zM12 24v2h10v-2h-10z"></path>
</symbol>
<symbol id="icon-crop-svgrepo-com" viewBox="0 0 32 32">
<path fill="#f4d6b0" style="fill: var(--color3, #f4d6b0)" d="M30.2 0h-10.2v8h-12v12h-8v10.228c0 0.978 0.806 1.772 1.8 1.772h10.2v-8h12v-12h8v-10.228c0-0.979-0.806-1.772-1.8-1.772z"></path>
<path fill="#0c6667" style="fill: var(--color6, #0c6667)" d="M8 8v-8h12v8h-12zM24 24h-12v8h12v-8z"></path>
<path fill="#01a59c" style="fill: var(--color1, #01a59c)" d="M8 0v20h-8v-18.228c0-0.979 0.806-1.772 1.8-1.772h6.2zM24 12v20h6.2c0.994 0 1.8-0.794 1.8-1.772v-18.228h-8z"></path>
</symbol>
<symbol id="icon-flow-svgrepo-com" viewBox="0 0 32 32">
<path fill="#0c6667" style="fill: var(--color6, #0c6667)" d="M32 29c0 1.65-1.35 3-3 3h-26c-1.65 0-3-1.35-3-3v-26c0-1.65 1.35-3 3-3h26c1.65 0 3 1.35 3 3v26z"></path>
<path fill="#e54d2e" style="fill: var(--color4, #e54d2e)" d="M9 15c0 2.209-1.791 4-4 4s-4-1.791-4-4c0-2.209 1.791-4 4-4s4 1.791 4 4z"></path>
<path fill="#f4d6b0" style="fill: var(--color3, #f4d6b0)" d="M26 9h-4c-1.105 0-2-0.895-2-2v-4c0-1.105 0.895-2 2-2h4c1.105 0 2 0.895 2 2v4c0 1.105-0.895 2-2 2z"></path>
<path fill="#f27261" style="fill: var(--color5, #f27261)" d="M26 31h-4c-1.105 0-2-0.895-2-2v-4c0-1.105 0.895-2 2-2h4c1.105 0 2 0.895 2 2v4c0 1.105-0.895 2-2 2z"></path>
<path fill="#01a59c" style="fill: var(--color1, #01a59c)" d="M9.070 11.91h6.501c0.828 0 1.5-0.671 1.5-1.499s-0.671-1.5-1.5-1.5h-0.672l3.101-3.102c0.781-0.781 0.781-2.048 0-2.828-0.781-0.781-2.047-0.781-2.828 0l-3.102 3.101v-0.672c0-0.829-0.671-1.5-1.5-1.5s-1.5 0.672-1.5 1.5v6.5z"></path>
<path fill="#01a59c" style="fill: var(--color1, #01a59c)" d="M24 22.628l4.597-4.597c0.586-0.585 0.586-1.535 0-2.121s-1.535-0.586-2.121 0l-0.476 0.476v-4.386c0-1.105-0.896-2-2-2s-2 0.895-2 2v4.386l-0.476-0.475c-0.586-0.586-1.535-0.586-2.121 0s-0.586 1.536 0 2.121l4.597 4.596z"></path>
</symbol>
<symbol id="icon-grow-svgrepo-com" viewBox="0 0 32 32">
<path fill="#f27261" style="fill: var(--color5, #f27261)" d="M18 25h4v3.5c0 0.829-0.671 1.5-1.5 1.5s-1.5-0.671-1.5-1.5v-0.5h-9v2h-5.5c-0.829 0-1.5-0.671-1.5-1.5s0.671-1.5 1.5-1.5h2.5v-2h8v-3h-15v7c0 1.65 1.35 3 3 3h26c1.65 0 3-1.35 3-3v-7h-14v3z"></path>
<path fill="#f4d6b0" style="fill: var(--color3, #f4d6b0)" d="M29 0h-26c-1.65 0-3 1.35-3 3v11h32v-11c0-1.65-1.35-3-3-3z"></path>
<path fill="#01a59c" style="fill: var(--color1, #01a59c)" d="M0 14h15v4h-15v-4z"></path>
<path fill="#01a59c" style="fill: var(--color1, #01a59c)" d="M18 14h14v4h-14v-4z"></path>
<path fill="#0c6667" style="fill: var(--color6, #0c6667)" d="M18 18c0-6.614 0 0.168 0-6.485 0.875 0.506 1.979 0.567 2.932 0.050 1.456-0.791 2.962-5.023 2.962-5.023-1.333-0.318-4.648-0.925-5.894-0.203v-2.85c0-1.984-3-1.986-3 0v5.218c1.261 1.133 1.4 3.186 0 4.446 0 3.174 0-2.027 0 4.847h-15v4h15v-1.5c0-1.984 3-1.986 3 0v1.5h14v-4h-14z"></path>
<path fill="#f8ad89" style="fill: var(--color2, #f8ad89)" d="M18 25v-4.5c0-0.829-0.671-1.5-1.5-1.5s-1.5 0.671-1.5 1.5v4.5h-8v2h-2.5c-0.829 0-1.5 0.671-1.5 1.5s0.671 1.5 1.5 1.5h5.5v-2h9v0.5c0 0.829 0.671 1.5 1.5 1.5s1.5-0.671 1.5-1.5v-3.5h-4z"></path>
<path fill="#01a59c" style="fill: var(--color1, #01a59c)" d="M14.431 8.297c-1.456-0.791-5.826 0.25-5.826 0.25s1.506 4.232 2.962 5.023c1.147 0.623 2.514 0.411 3.432-0.416 1.618-1.457 1.156-3.921-0.568-4.857z"></path>
</symbol>
<symbol id="icon-guide-svgrepo-com" viewBox="0 0 32 32">
<path fill="#01a59c" style="fill: var(--color1, #01a59c)" d="M29 0h-13v32h13c1.65 0 3-1.35 3-3v-26c0-1.65-1.35-3-3-3z"></path>
<path fill="#0c6667" style="fill: var(--color6, #0c6667)" d="M3 0c-1.65 0-3 1.35-3 3v26c0 1.65 1.35 3 3 3h13v-32h-13z"></path>
<path fill="#f4d6b0" style="fill: var(--color3, #f4d6b0)" d="M21.088 31.188c-0.384 0-0.768-0.146-1.061-0.439l-1.414-1.414c-0.586-0.586-0.586-1.535 0-2.121s1.535-0.586 2.121 0l1.414 1.414c0.586 0.586 0.586 1.535 0 2.121-0.293 0.292-0.676 0.439-1.060 0.439zM15.249 25.971h-2c-0.829 0-1.5-0.672-1.5-1.5s0.671-1.5 1.5-1.5h2c0.829 0 1.5 0.672 1.5 1.5s-0.671 1.5-1.5 1.5z"></path>
<path fill="#01a59c" style="fill: var(--color1, #01a59c)" d="M4.908 4.963l2.908 5.037h-5.816l2.908-5.037zM7.434 6h5.816l-2.908-5.037-2.908 5.037z"></path>
<path fill="#0c6667" style="fill: var(--color6, #0c6667)" d="M27.092 12.963l2.908 5.037h-5.816z"></path>
<path fill="#f4d6b0" style="fill: var(--color3, #f4d6b0)" d="M5.997 17.597c0.728 0.395 1.639 0.128 2.035-0.6 0.284-0.52 0.607-1.018 0.961-1.48 0.503-0.657 0.379-1.6-0.279-2.103-0.657-0.505-1.599-0.38-2.103 0.278-0.448 0.585-0.856 1.214-1.213 1.869-0.397 0.728-0.128 1.639 0.599 2.036z"></path>
<path fill="#f4d6b0" style="fill: var(--color3, #f4d6b0)" d="M21.897 6.896c-0.722 0.043-1.415 0.104-2.079 0.185-0.823 0.099-1.41 0.845-1.311 1.668 0.091 0.762 0.739 1.321 1.487 1.321 0 0 1.262-0.131 2.081-0.18 0.827-0.049 1.458-0.759 1.409-1.586-0.049-0.826-0.759-1.467-1.587-1.408z"></path>
<path fill="#f4d6b0" style="fill: var(--color3, #f4d6b0)" d="M13.64 8.569c-0.684 0.268-1.348 0.571-1.972 0.902-0.731 0.389-1.010 1.296-0.622 2.028 0.27 0.508 0.789 0.797 1.327 0.797 0.486 0 1.101-0.441 2.36-0.933 0.771-0.302 1.152-1.172 0.851-1.943-0.303-0.772-1.17-1.149-1.944-0.851z"></path>
<path fill="#f27261" style="fill: var(--color5, #f27261)" d="M8.705 24.5l1.838-1.838c0.609-0.609 0.609-1.596 0-2.205s-1.597-0.609-2.205 0l-1.838 1.838-1.838-1.838c-0.225-0.225-0.506-0.338-0.795-0.397-0.495-0.101-1.026 0.013-1.41 0.397-0.609 0.609-0.609 1.596 0 2.205l1.838 1.838-1.838 1.838c-0.609 0.609-0.609 1.596 0 2.205 0.304 0.305 0.703 0.457 1.102 0.457s0.799-0.152 1.103-0.457l1.838-1.838 1.838 1.838c0.305 0.305 0.704 0.457 1.103 0.457s0.798-0.152 1.103-0.457c0.609-0.609 0.609-1.596 0-2.205l-1.839-1.838z"></path>
<path fill="#f4d6b0" style="fill: var(--color3, #f4d6b0)" d="M21.152 0.854l-0.040 1.999c-0.017 0.828 0.641 1.514 1.469 1.53 0.011 0 0.021 0 0.031 0 0.814 0 1.483-0.652 1.499-1.47l0.040-1.999c0.007-0.342-0.106-0.657-0.295-0.914h-2.416c-0.175 0.239-0.281 0.531-0.288 0.854z"></path>
</symbol>
<symbol id="icon-hide-svgrepo-com" viewBox="0 0 32 32">
<path fill="#01a59c" style="fill: var(--color1, #01a59c)" d="M32 29c0 1.65-1.35 3-3 3h-26c-1.65 0-3-1.35-3-3v-26c0-1.65 1.35-3 3-3h26c1.65 0 3 1.35 3 3v26z"></path>
<path fill="#0c6667" style="fill: var(--color6, #0c6667)" d="M13 3h15v29h-15v-29z"></path>
<path fill="#e54d2e" style="fill: var(--color4, #e54d2e)" d="M5.090 3v12.083c-1.184 0.197-2.090 1.219-2.090 2.459s0.906 2.262 2.090 2.459v11.999h3v-29h-3z"></path>
<path fill="#f4d6b0" style="fill: var(--color3, #f4d6b0)" d="M19 20.5c0 0.828-0.672 1.5-1.5 1.5s-1.5-0.672-1.5-1.5 0.672-1.5 1.5-1.5 1.5 0.672 1.5 1.5zM22.747 19c-0.828 0-1.5 0.672-1.5 1.5s0.672 1.5 1.5 1.5c0.828 0 1.5-0.672 1.5-1.5s-0.672-1.5-1.5-1.5z"></path>
<path fill="#f27261" style="fill: var(--color5, #f27261)" d="M8 3h5v29h-5v-29z"></path>
</symbol>
<symbol id="icon-paint-svgrepo-com" viewBox="0 0 32 32">
<path fill="#01a59c" style="fill: var(--color1, #01a59c)" d="M32 29c0 1.65-1.35 3-3 3h-26c-1.65 0-3-1.35-3-3v-26c0-1.65 1.35-3 3-3h26c1.65 0 3 1.35 3 3v26z"></path>
<path fill="#f4d6b0" style="fill: var(--color3, #f4d6b0)" d="M0 20v4h32v-4h-12z"></path>
<path fill="#f8ad89" style="fill: var(--color2, #f8ad89)" d="M0 29c0 0.548 0.16 1.057 0.419 1.5 0.522-0.891 1.479-1.5 2.581-1.5h17.25c0-1.65 1.294-3 2.875-3s2.875 1.35 2.875 3v0.783c0.006 0.006 0.013 0.010 0.020 0.016 0.101-1.555 1.34-2.799 2.855-2.799 1.581 0 2.875 1.35 2.875 3v0.189c0.159-0.365 0.25-0.767 0.25-1.189v-5h-32v5z"></path>
<path fill="#0c6667" style="fill: var(--color6, #0c6667)" d="M31.75 30.189v-0.189c0-1.65-1.294-3-2.875-3-1.515 0-2.754 1.244-2.855 2.799-0.006-0.006-0.013-0.010-0.020-0.016v-0.783c0-1.65-1.294-3-2.875-3s-2.875 1.35-2.875 3v0h-17.25c-1.102 0-2.059 0.609-2.581 1.5 0.522 0.891 1.479 1.5 2.581 1.5h26c1.228 0 2.287-0.749 2.75-1.811z"></path>
<path fill="#e54d2e" style="fill: var(--color4, #e54d2e)" d="M20 12v-9c0-1.65-1.35-3-3-3h-2c-1.65 0-3 1.35-3 3v9h-9c-1.65 0-3 1.35-3 3v5h20v-8z"></path>
<path fill="#f27261" style="fill: var(--color5, #f27261)" d="M29 12h-9v8h12v-5c0-1.65-1.35-3-3-3z"></path>
</symbol>
<symbol id="icon-paste-svgrepo-com" viewBox="0 0 32 32">
<path fill="#0c6667" style="fill: var(--color6, #0c6667)" d="M32 29c0 1.65-1.35 3-3 3h-26c-1.65 0-3-1.35-3-3v-26c0-1.65 1.35-3 3-3h26c1.65 0 3 1.35 3 3v26z"></path>
<path fill="#f8ad89" style="fill: var(--color2, #f8ad89)" d="M12 11h8v-2h-8.125c-1.031 0-1.875 0.844-1.875 1.875v16.25c0 1.031 0.844 1.875 1.875 1.875h8.125v-3h-8v-2h8v-2h-8v-2h8v-2h-8v-2h8v-3h-8v-2z"></path>
<path fill="#0c6667" style="fill: var(--color6, #0c6667)" d="M12 11h16v2h-16v-2z"></path>
<path fill="#01a59c" style="fill: var(--color1, #01a59c)" d="M26 16h2v2h-2v-2zM12 16v2h10v-2h-10zM26 22h2v-2h-2v2zM12 20v2h10v-2h-10zM26 26h2v-2h-2v2zM12 24v2h10v-2h-10z"></path>
<path fill="#f27261" style="fill: var(--color5, #f27261)" d="M11.875 9h14.125v-4c0-1.65-1.35-3-3-3h-4.195c0.121 0.242 0.195 0.511 0.195 0.8v0.4c0 0.994-0.806 1.8-1.8 1.8h-6.4c-0.994 0-1.8-0.806-1.8-1.8v-0.4c0-0.289 0.074-0.558 0.195-0.8h-4.195c-1.65 0-3 1.35-3 3v22c0 1.65 1.35 3 3 3h18c0.88 0 1.667-0.391 2.217-1h-13.342c-1.031 0-1.875-0.844-1.875-1.875v-16.25c0-1.031 0.844-1.875 1.875-1.875z"></path>
<path fill="#f4d6b0" style="fill: var(--color3, #f4d6b0)" d="M28.125 9h-8.125v2h8v2h-8v3h2v2h-2v2h2v2h-2v2h2v2h-2v3h8.125c1.031 0 1.875-0.844 1.875-1.875v-16.25c0-1.031-0.844-1.875-1.875-1.875zM28 26h-2v-2h2v2zM28 22h-2v-2h2v2zM28 18h-2v-2h2v2zM17.2 5h-6.4c-0.994 0-1.8-0.806-1.8-1.8v-0.4c0-0.994 0.806-1.8 1.8-1.8h6.4c0.994 0 1.8 0.806 1.8 1.8v0.4c0 0.994-0.806 1.8-1.8 1.8z"></path>
</symbol>
<symbol id="icon-plan-svgrepo-com" viewBox="0 0 32 32">
<path fill="#f4d6b0" style="fill: var(--color3, #f4d6b0)" d="M32 29c0 1.65-1.35 3-3 3h-26c-1.65 0-3-1.35-3-3v-26c0-1.65 1.35-3 3-3h26c1.65 0 3 1.35 3 3v26z"></path>
<path fill="#f8ad89" style="fill: var(--color2, #f8ad89)" d="M3 0c-1.65 0-3 1.35-3 3v26c0 1.65 1.35 3 3 3h13v-32h-13z"></path>
<path fill="#01a59c" style="fill: var(--color1, #01a59c)" d="M28 7h-3v-3h3v3zM19 4h-16v3h16v-3zM28 11h-3v3h3v-3zM19 11h-16v3h16v-3zM28 18h-3v3h3v-3zM19 18h-16v3h16v-3zM28 25h-3v3h3v-3zM19 25h-16v3h16v-3z"></path>
</symbol>
<symbol id="icon-print-svgrepo-com" viewBox="0 0 32 32">
<path fill="#01a59c" style="fill: var(--color1, #01a59c)" d="M32 29c0 1.65-1.35 3-3 3h-26c-1.65 0-3-1.35-3-3v-26c0-1.65 1.35-3 3-3h26c1.65 0 3 1.35 3 3v26z"></path>
<path fill="#0c6667" style="fill: var(--color6, #0c6667)" d="M0 16h32v13c0 1.65-1.35 3-3 3h-26c-1.65 0-3-1.35-3-3v-13zM8 10h16v-2h-16v2z"></path>
<path fill="#f4d6b0" style="fill: var(--color3, #f4d6b0)" d="M26 7.8c0-0.994-0.806-1.8-1.8-1.8h-16.4c-0.994 0-1.8 0.806-1.8 1.8v3.2h20v-3.2zM24 10h-16v-2h16v2z"></path>
<path fill="#f8ad89" style="fill: var(--color2, #f8ad89)" d="M6 11v5h20v-5h-20zM19 15h-11v-2h11v2zM22 15v-2h2v2h-2z"></path>
<path fill="#e54d2e" style="fill: var(--color4, #e54d2e)" d="M5 18.614c0 0.891-0.672 1.614-1.5 1.614s-1.5-0.723-1.5-1.614c0-0.891 0.672-1.614 1.5-1.614s1.5 0.723 1.5 1.614z"></path>
<path fill="#01a59c" style="fill: var(--color1, #01a59c)" d="M24 13v2h-2v-2h2zM8 15h11v-2h-11v2zM3.5 21c-0.828 0-1.5 0.672-1.5 1.5s0.672 1.5 1.5 1.5 1.5-0.672 1.5-1.5-0.672-1.5-1.5-1.5z"></path>
</symbol>
<symbol id="icon-schedule-svgrepo-com" viewBox="0 0 32 32">
<path fill="#01a59c" style="fill: var(--color1, #01a59c)" d="M32 29c0 1.65-1.35 3-3 3h-26c-1.65 0-3-1.35-3-3v-26c0-1.65 1.35-3 3-3h26c1.65 0 3 1.35 3 3v26z"></path>
<path fill="#0c6667" style="fill: var(--color6, #0c6667)" d="M3 0c-1.65 0-3 1.35-3 3v26c0 1.65 1.35 3 3 3h13v-32h-13z"></path>
<path fill="#f4d6b0" style="fill: var(--color3, #f4d6b0)" d="M3 26.2c0 0.994 0.806 1.8 1.8 1.8h22.4c0.994 0 1.8-0.806 1.8-1.8v-16.2h-26v16.2zM23 12h3v3h-3v-3zM23 17h3v3h-3v-3zM23 22h3v3h-3v-3zM17 12h3v3h-3v-3zM17 17h3v3h-3v-3zM17 22h3v3h-3v-3zM11 12h3v3h-3v-3zM11 17h3v3h-3v-3zM11 22h3v3h-3v-3zM5 12h3v3h-3v-3zM5 17h3v3h-3v-3zM5 22h3v3h-3v-3z"></path>
<path fill="#f4d6b0" style="fill: var(--color3, #f4d6b0)" d="M29 5.8c0-0.994-0.806-1.8-1.8-1.8h-0.050c0.994 0 1.85 0.806 1.85 1.8z"></path>
<path fill="#f8ad89" style="fill: var(--color2, #f8ad89)" d="M26 15h-3v-3h3v3zM20 12h-3v3h3v-3zM14 12h-3v3h3v-3zM8 12h-3v3h3v-3zM26 17h-3v3h3v-3zM14 17h-3v3h3v-3zM8 17h-3v3h3v-3zM26 22h-3v3h3v-3zM20 22h-3v3h3v-3zM14 22h-3v3h3v-3zM8 22h-3v3h3v-3z"></path>
<path fill="#e54d2e" style="fill: var(--color4, #e54d2e)" d="M20 20h-3v-3h3v3zM27.15 4h-22.35c-0.994 0-1.8 0.806-1.8 1.8v4.2h26v-4.2c0-0.994-0.856-1.8-1.85-1.8z"></path>
</symbol>
<symbol id="icon-search-svgrepo-com" viewBox="0 0 32 32">
<path fill="#e54d2e" style="fill: var(--color4, #e54d2e)" d="M32 29c0 1.65-1.35 3-3 3h-26c-1.65 0-3-1.35-3-3v-26c0-1.65 1.35-3 3-3h26c1.65 0 3 1.35 3 3v26z"></path>
<path fill="#f4d6b0" style="fill: var(--color3, #f4d6b0)" d="M16.634 17.742c-0.853 0.257-1.728 0.345-2.634 0.258l-5.834 5.834 6.365 6.365c0.808 0.808 2.13 0.808 2.938 0l4.076-4.076-4.911-8.381z"></path>
<path fill="#f4d6b0" style="fill: var(--color3, #f4d6b0)" d="M30.198 17.469c0.808-0.808 0.808-2.13 0-2.937l-6.365-6.365-2.381 2.381c0.216 2.233-0.659 4.304-2.21 5.711l4.495 7.67 6.461-6.46z"></path>
<path fill="#0c6667" style="fill: var(--color6, #0c6667)" d="M14.666 4.394c-4.158 0-7.421 3.88-6.722 7.974 0.583 3.418 3.775 5.906 7.231 5.646 3.764-0.283 6.641-3.714 6.277-7.466-0.335-3.454-3.325-6.154-6.786-6.154z"></path>
<path fill="#01a59c" style="fill: var(--color1, #01a59c)" d="M25.447 26.848l-6.205-10.588c-0.184 0.167-0.377 0.325-0.579 0.472-0.001 0.001-0.003 0.002-0.004 0.003-0.608 0.441-1.288 0.786-2.025 1.008l6.225 10.622c0.279 0.477 0.78 0.742 1.295 0.742 0.258 0 0.52-0.066 0.758-0.206 0.715-0.42 0.954-1.339 0.535-2.053z"></path>
<path fill="#f8ad89" style="fill: var(--color2, #f8ad89)" d="M14.666 4.394c-1.552 0-2.978 0.524-4.124 1.397l3.989-3.989c0.808-0.808 2.13-0.808 2.938 0l6.365 6.365-2.381 2.381c-0.336-3.454-3.245-6.154-6.787-6.154zM7.846 11.214c0-1.552 0.524-2.978 1.397-4.124l-7.442 7.442c-0.808 0.808-0.808 2.13 0 2.937l6.365 6.365 5.834-5.834c-3.453-0.335-6.154-3.245-6.154-6.786zM14.666 15.033c2.106 0 3.82-1.714 3.82-3.82s-1.713-3.82-3.82-3.82-3.82 1.713-3.82 3.82 1.714 3.82 3.82 3.82z"></path>
</symbol>
<symbol id="icon-send-svgrepo-com" viewBox="0 0 32 32">
<path fill="#0c6667" style="fill: var(--color6, #0c6667)" d="M32 29c0 1.65-1.35 3-3 3h-26c-1.65 0-3-1.35-3-3v-26c0-1.65 1.35-3 3-3h26c1.65 0 3 1.35 3 3v26z"></path>
<path fill="#f4d6b0" style="fill: var(--color3, #f4d6b0)" d="M32 28h-15c-1.657 0-3-1.343-3-3v-18c0-1.657 1.343-3 3-3h15v24z"></path>
<path fill="#01a59c" style="fill: var(--color1, #01a59c)" d="M20.422 21.5c3.033 0 5.5-2.467 5.5-5.5s-2.467-5.5-5.5-5.5c-0.87 0-1.69 0.208-2.422 0.569v9.861c0.732 0.362 1.552 0.57 2.422 0.57z"></path>
<path fill="#01a59c" style="fill: var(--color1, #01a59c)" d="M28.922 16c0 3.688-2.365 6.826-5.655 8h8.733v-16h-8.734c3.291 1.174 5.656 4.312 5.656 8z"></path>
<path fill="#f27261" style="fill: var(--color5, #f27261)" d="M1.442 21.884c-0.562-0.004-1.033-0.104-1.442-0.25v-3.581c0.079 0.070 0.155 0.138 0.226 0.201 0.524 0.476 0.714 0.626 1.239 0.63 0.515 0.002 0.716-0.143 1.246-0.609 0.615-0.541 1.543-1.356 3.209-1.356 0.014 0 0.027 0 0.041 0 1.692 0.013 2.617 0.852 3.229 1.406 0.523 0.474 0.713 0.625 1.236 0.628 0.829 0.006 1.495 0.683 1.489 1.511-0.006 0.825-0.677 1.489-1.5 1.489-0.004 0-0.007 0-0.011 0-1.692-0.013-2.617-0.851-3.229-1.406-0.523-0.475-0.714-0.625-1.237-0.629-0.506-0.004-0.716 0.143-1.246 0.609-0.622 0.546-1.592 1.337-3.25 1.357zM4.691 12.61c0.53-0.466 0.74-0.605 1.246-0.609 0.523 0.004 0.713 0.154 1.237 0.629 0.612 0.555 1.536 1.393 3.229 1.406 0.004 0 0.007 0 0.011 0 0.823 0 1.494-0.664 1.5-1.489 0.006-0.828-0.66-1.505-1.489-1.511-0.522-0.004-0.713-0.154-1.236-0.628-0.611-0.555-1.536-1.394-3.229-1.407-1.679-0.035-2.629 0.811-3.25 1.356-0.53 0.466-0.731 0.62-1.246 0.609-0.524-0.004-0.715-0.154-1.239-0.629-0.070-0.063-0.146-0.132-0.225-0.201v3.581c0.409 0.145 0.88 0.246 1.441 0.25 1.671-0.005 2.63-0.811 3.25-1.357zM28.688 17.983c-1.058 4.398-5.59 7.274-10.026 6.333-4.681-0.994-7.696-5.88-6.452-10.508 1.27-4.723 6.446-7.453 11.056-5.808 4.036 1.44 6.426 5.81 5.422 9.983zM25.922 16c0-2.844-2.27-5.285-5.108-5.486-3.132-0.222-5.892 2.349-5.892 5.486 0 2.985 2.511 5.5 5.5 5.5 2.994 0 5.5-2.506 5.5-5.5z"></path>
</symbol>
<symbol id="icon-stack-svgrepo-com" viewBox="0 0 32 32">
<path fill="#0c6667" style="fill: var(--color6, #0c6667)" d="M32 29c0 1.65-1.35 3-3 3h-26c-1.65 0-3-1.35-3-3v-26c0-1.65 1.35-3 3-3h26c1.65 0 3 1.35 3 3v26z"></path>
<path fill="#f8ad89" style="fill: var(--color2, #f8ad89)" d="M27 10h-22c-1.105 0-2-0.895-2-2v-4c0-1.105 0.895-2 2-2h22c1.105 0 2 0.895 2 2v4c0 1.105-0.895 2-2 2z"></path>
<path fill="#e54d2e" style="fill: var(--color4, #e54d2e)" d="M27 20h-22c-1.105 0-2-0.895-2-2v-4c0-1.105 0.895-2 2-2h22c1.105 0 2 0.895 2 2v4c0 1.105-0.895 2-2 2z"></path>
<path fill="#f4d6b0" style="fill: var(--color3, #f4d6b0)" d="M27 30h-22c-1.105 0-2-0.895-2-2v-4c0-1.105 0.895-2 2-2h22c1.105 0 2 0.895 2 2v4c0 1.105-0.895 2-2 2z"></path>
</symbol>
<symbol id="icon-succeed-svgrepo-com" viewBox="0 0 32 32">
<path fill="#0c6667" style="fill: var(--color6, #0c6667)" d="M32 29c0 1.65-1.35 3-3 3h-26c-1.65 0-3-1.35-3-3v-26c0-1.65 1.35-3 3-3h26c1.65 0 3 1.35 3 3v26z"></path>
<path fill="#f8ad89" style="fill: var(--color2, #f8ad89)" d="M17.5 13.919v-11.419c0-0.829-0.671-1.5-1.5-1.5s-1.5 0.671-1.5 1.5v11.419c0.463-0.268 0.979-0.413 1.5-0.413s1.037 0.145 1.5 0.413z"></path>
<path fill="#01a59c" style="fill: var(--color1, #01a59c)" d="M6.754 19l-6.754 8.083v1.443c0 1.911 1.35 3.474 3 3.474h26c1.65 0 3-1.563 3-3.474v-1.443l-6.754-8.083h-18.492z"></path>
<path fill="#f4d6b0" style="fill: var(--color3, #f4d6b0)" d="M18.121 11.013c-0.188-0.218-0.401-0.388-0.621-0.535-0.463-0.31-0.979-0.478-1.5-0.478s-1.037 0.168-1.5 0.478c-0.221 0.148-0.433 0.317-0.621 0.535l-7.125 7.987h18.493l-7.126-7.987z"></path>
<path fill="#f27261" style="fill: var(--color5, #f27261)" d="M17.5 8.5l5.037-2.908-5.037-2.908v2.908z"></path>
</symbol>
<symbol id="icon-switch-svgrepo-com" viewBox="0 0 32 32">
<path fill="#01a59c" style="fill: var(--color1, #01a59c)" d="M32 29c0 1.65-1.35 3-3 3h-26c-1.65 0-3-1.35-3-3v-26c0-1.65 1.35-3 3-3h26c1.65 0 3 1.35 3 3v26z"></path>
<path fill="#0c6667" style="fill: var(--color6, #0c6667)" d="M29 0h-13v32h13c1.65 0 3-1.35 3-3v-26c0-1.65-1.35-3-3-3z"></path>
<path fill="#f8ad89" style="fill: var(--color2, #f8ad89)" d="M16 3c-7.168 0-13 5.832-13 13s5.832 13 13 13 13-5.832 13-13-5.832-13-13-13zM16 26c-5.523 0-10-4.477-10-10s4.477-10 10-10c5.523 0 10 4.477 10 10s-4.477 10-10 10z"></path>
<path fill="#f4d6b0" style="fill: var(--color3, #f4d6b0)" d="M16 0c-8.837 0-16 7.163-16 16s7.163 16 16 16 16-7.163 16-16-7.163-16-16-16zM16 29c-7.168 0-13-5.832-13-13s5.832-13 13-13 13 5.832 13 13-5.832 13-13 13zM16 6c-5.523 0-10 4.477-10 10s4.477 10 10 10c5.523 0 10-4.477 10-10s-4.477-10-10-10z"></path>
<path fill="#e54d2e" style="fill: var(--color4, #e54d2e)" d="M28.963 15.274l2.937-1.024c-0.344-3.162-1.302-5.455-3.167-7.91l-2.998 1.065c1.875 2.121 3.061 4.856 3.228 7.869z"></path>
<path fill="#01a59c" style="fill: var(--color1, #01a59c)" d="M20 0.524v3.109c-1.261-0.407-2.603-0.633-4-0.633-1.398 0-2.739 0.232-4 0.643v-3.128c1.279-0.331 2.617-0.515 4-0.515 1.384 0 2.719 0.194 4 0.524zM16 9c-1.631 3.263-1.129 2.259-2.5 5 5.064 0-0.626 0 5 0-1.631-3.263-1.129-2.259-2.5-5z"></path>
</symbol>
<symbol id="icon-tag-svgrepo-com" viewBox="0 0 32 32">
<path fill="#01a59c" style="fill: var(--color1, #01a59c)" d="M32 29c0 1.65-1.35 3-3 3h-26c-1.65 0-3-1.35-3-3v-26c0-1.65 1.35-3 3-3h26c1.65 0 3 1.35 3 3v26z"></path>
<path fill="#0c6667" style="fill: var(--color6, #0c6667)" d="M3 0c-1.65 0-3 1.35-3 3v26c0 1.65 1.35 3 3 3h13v-32h-13z"></path>
<path fill="#0c6667" style="fill: var(--color6, #0c6667)" d="M8.5 16.5c0 0.828-0.672 1.5-1.5 1.5s-1.5-0.672-1.5-1.5c0-0.828 0.672-1.5 1.5-1.5s1.5 0.672 1.5 1.5z"></path>
<path fill="#f4d6b0" style="fill: var(--color3, #f4d6b0)" d="M26 8h-15.441l-6.559 6.559v3.382l6.559 7.059h15.441c1.65 0 3-1.35 3-3v-11c0-1.65-1.35-3-3-3zM8.061 17.311c-0.586 0.586-1.536 0.586-2.121 0s-0.586-1.536 0-2.121c0.586-0.586 1.536-0.586 2.121 0 0.585 0.585 0.585 1.535 0 2.121z"></path>
<path fill="#f8ad89" style="fill: var(--color2, #f8ad89)" d="M13 12h11v3h-11v-3zM13 20h8v-3h-8v3z"></path>
</symbol>
<symbol id="icon-travel-svgrepo-com" viewBox="0 0 32 32">
<path fill="#f4d6b0" style="fill: var(--color3, #f4d6b0)" d="M32 29c0 1.65-1.35 3-3 3h-26c-1.65 0-3-1.35-3-3v-26c0-1.65 1.35-3 3-3h26c1.65 0 3 1.35 3 3v26z"></path>
<path fill="#f8ad89" style="fill: var(--color2, #f8ad89)" d="M3 0c-1.65 0-3 1.35-3 3v26c0 1.65 1.35 3 3 3h13v-32h-13z"></path>
<path fill="#e54d2e" style="fill: var(--color4, #e54d2e)" d="M30.626 27.852c-0.011-0.052-0.021-0.104-0.038-0.154 0.017 0.051 0.027 0.102 0.038 0.154zM28.991 26.388c0.516 0.276 0.809 0.418 0.825 0.426 0.334 0.161 0.575 0.432 0.714 0.746-0.016-0.036-0.026-0.073-0.045-0.109 0 0-0.177-0.327-0.526-0.915-0.426-0.713-1.348-0.945-2.057-0.521-0.206 0.122-0.366 0.289-0.488 0.478 0.451-0.319 1.058-0.383 1.577-0.105zM5.016 2.147c-0.302-0.163-0.606-0.323-0.912-0.48-0.263-0.136-0.547-0.183-0.822-0.158 0.501 0.039 0.971 0.324 1.219 0.804 0.148 0.289 0.3 0.575 0.453 0.858 0.314 0.58 0.201 1.27-0.223 1.728 0.367-0.11 0.695-0.356 0.892-0.72 0.394-0.728 0.121-1.638-0.607-2.032z"></path>
<path fill="#01a59c" style="fill: var(--color1, #01a59c)" d="M29 16c0 7.18-5.82 13-13 13s-13-5.82-13-13c0-7.18 5.82-13 13-13s13 5.82 13 13z"></path>
<path fill="#0c6667" style="fill: var(--color6, #0c6667)" d="M28.744 18.569c-0.849 4.232-3.752 7.72-7.626 9.381h-0.438c0 0.059-0.014 0.115-0.017 0.173-1.45 0.559-3.018 0.877-4.663 0.877-1.493 0-2.922-0.264-4.257-0.728-0.012-0.107-0.032-0.211-0.032-0.322 0-0.177 0.020-0.348 0.052-0.515h-0.155c-1.537 0-2.783-1.246-2.783-2.783s1.246-2.784 2.783-2.784h3.402c0.112 0 0.218 0.020 0.327 0.033 0.355-1.166 1.142-2.13 2.186-2.716-0.155-0.346-0.245-0.727-0.245-1.131 0-1.537 1.246-2.784 2.783-2.784h3.402c1.537 0 2.784 1.246 2.784 2.784 0 0.177-0.020 0.348-0.052 0.515h2.549zM4.423 10.106c0.428 0.277 0.936 0.441 1.484 0.441h0.153c-0.031 0.165-0.051 0.334-0.051 0.508 0 1.514 1.228 2.742 2.742 2.742h3.352c1.514 0 2.742-1.228 2.742-2.742s-1.228-2.742-2.742-2.742h-0.153c0.030-0.165 0.050-0.333 0.050-0.507 0-1.514-1.228-2.742-2.742-2.742h-0.268c-1.936 1.243-3.516 2.982-4.567 5.042z"></path>
<path fill="#f27261" style="fill: var(--color5, #f27261)" d="M29.165 29.666c-0.218 0-0.438-0.047-0.647-0.147 0 0-0.338-0.162-0.944-0.487-0.729-0.391-1.005-1.3-0.613-2.030s1.301-1.005 2.031-0.613c0.516 0.276 0.809 0.418 0.825 0.426 0.746 0.359 1.060 1.254 0.702 2-0.259 0.538-0.795 0.851-1.354 0.851zM24.838 25.713c0.458-0.69 0.27-1.621-0.421-2.079-0.473-0.313-0.967-0.65-1.48-1.008-0.683-0.476-1.615-0.31-2.090 0.369s-0.31 1.614 0.369 2.089c0.534 0.374 1.050 0.724 1.542 1.050 0.255 0.169 0.543 0.25 0.828 0.25 0.486 0 0.964-0.236 1.252-0.671zM18.871 21.491c0.527-0.639 0.437-1.584-0.203-2.112-0.449-0.371-0.905-0.756-1.363-1.155-0.625-0.545-1.574-0.479-2.116 0.146-0.544 0.625-0.479 1.572 0.146 2.116 0.479 0.417 0.955 0.819 1.426 1.207 0.279 0.23 0.617 0.343 0.953 0.343 0.432 0.001 0.86-0.185 1.157-0.545zM13.382 16.664c0.595-0.576 0.61-1.526 0.033-2.121-0.408-0.422-0.816-0.856-1.223-1.3-0.559-0.612-1.509-0.653-2.119-0.095-0.611 0.559-0.654 1.508-0.096 2.119 0.426 0.466 0.854 0.92 1.283 1.363 0.294 0.304 0.686 0.457 1.077 0.457 0.377-0.001 0.753-0.141 1.045-0.423zM8.487 11.235c0.663-0.497 0.798-1.437 0.302-2.1-0.353-0.47-0.699-0.95-1.040-1.439-0.474-0.68-1.408-0.846-2.088-0.375-0.681 0.474-0.848 1.409-0.375 2.089 0.36 0.519 0.729 1.026 1.101 1.524 0.295 0.394 0.746 0.601 1.202 0.601 0.312 0 0.628-0.097 0.898-0.3zM4.349 5.205c0.729-0.394 1-1.304 0.605-2.033-0.153-0.283-0.305-0.57-0.453-0.858-0.38-0.737-1.283-1.026-2.021-0.647-0.736 0.378-1.026 1.283-0.647 2.020 0.158 0.307 0.319 0.611 0.482 0.913 0.271 0.501 0.787 0.787 1.32 0.787 0.242-0.001 0.486-0.059 0.714-0.182z"></path>
</symbol>
<symbol id="icon-type-svgrepo-com" viewBox="0 0 32 32">
<path fill="#f27261" style="fill: var(--color5, #f27261)" d="M32 29c0 1.65-1.35 3-3 3h-26c-1.65 0-3-1.35-3-3v-26c0-1.65 1.35-3 3-3h26c1.65 0 3 1.35 3 3v26z"></path>
<path fill="#f8ad89" style="fill: var(--color2, #f8ad89)" d="M4 16v-4h24v4h-6v-2h-16v2h-2zM28 6h-24v4h24v-4z"></path>
<path fill="#0c6667" style="fill: var(--color6, #0c6667)" d="M29 12h-1v4h-24v-4h-1c-1.65 0-3 1.35-3 3v14c0 1.65 1.35 3 3 3h26c1.65 0 3-1.35 3-3v-14c0-1.65-1.35-3-3-3zM27 20c0.55 0 1 0.45 1 1s-0.45 1-1 1-1-0.45-1-1 0.45-1 1-1zM23 20c0.55 0 1 0.45 1 1s-0.45 1-1 1-1-0.45-1-1 0.45-1 1-1zM21 24c0.55 0 1 0.45 1 1s-0.45 1-1 1-1-0.45-1-1 0.45-1 1-1zM19 20c0.55 0 1 0.45 1 1s-0.45 1-1 1-1-0.45-1-1 0.45-1 1-1zM17 24c0.55 0 1 0.45 1 1s-0.45 1-1 1-1-0.45-1-1 0.45-1 1-1zM15 20c0.55 0 1 0.45 1 1s-0.45 1-1 1-1-0.45-1-1 0.45-1 1-1zM13 24c0.55 0 1 0.45 1 1s-0.45 1-1 1-1-0.45-1-1 0.45-1 1-1zM11 20c0.55 0 1 0.45 1 1s-0.45 1-1 1-1-0.45-1-1 0.45-1 1-1zM9 24c0.55 0 1 0.45 1 1s-0.45 1-1 1-1-0.45-1-1 0.45-1 1-1zM7 20c0.55 0 1 0.45 1 1s-0.45 1-1 1-1-0.45-1-1 0.45-1 1-1zM3 20c0.55 0 1 0.45 1 1s-0.45 1-1 1-1-0.45-1-1 0.45-1 1-1zM3 30c-0.55 0-1-0.45-1-1s0.45-1 1-1 1 0.45 1 1-0.45 1-1 1zM5 26c-0.55 0-1-0.45-1-1s0.45-1 1-1 1 0.45 1 1-0.45 1-1 1zM23 30h-16c-0.55 0-1-0.45-1-1s0.45-1 1-1h16c0.55 0 1 0.45 1 1s-0.45 1-1 1zM25 26c-0.55 0-1-0.45-1-1s0.45-1 1-1 1 0.45 1 1-0.45 1-1 1zM27 30c-0.55 0-1-0.45-1-1s0.45-1 1-1 1 0.45 1 1-0.45 1-1 1zM29 26c-0.55 0-1-0.45-1-1s0.45-1 1-1 1 0.45 1 1-0.45 1-1 1zM28 12h-24v-2h24v2z"></path>
<path fill="#01a59c" style="fill: var(--color1, #01a59c)" d="M6 14h16v2h-16v-2z"></path>
<path fill="#f4d6b0" style="fill: var(--color3, #f4d6b0)" d="M2 21c0-0.55 0.45-1 1-1s1 0.45 1 1-0.45 1-1 1-1-0.45-1-1zM7 22c0.55 0 1-0.45 1-1s-0.45-1-1-1-1 0.45-1 1 0.45 1 1 1zM11 22c0.55 0 1-0.45 1-1s-0.45-1-1-1-1 0.45-1 1 0.45 1 1 1zM15 22c0.55 0 1-0.45 1-1s-0.45-1-1-1-1 0.45-1 1 0.45 1 1 1zM19 22c0.55 0 1-0.45 1-1s-0.45-1-1-1-1 0.45-1 1 0.45 1 1 1zM23 22c0.55 0 1-0.45 1-1s-0.45-1-1-1-1 0.45-1 1 0.45 1 1 1zM27 22c0.55 0 1-0.45 1-1s-0.45-1-1-1-1 0.45-1 1 0.45 1 1 1zM5 24c-0.55 0-1 0.45-1 1s0.45 1 1 1 1-0.45 1-1-0.45-1-1-1zM9 26c0.55 0 1-0.45 1-1s-0.45-1-1-1-1 0.45-1 1 0.45 1 1 1zM13 26c0.55 0 1-0.45 1-1s-0.45-1-1-1-1 0.45-1 1 0.45 1 1 1zM17 26c0.55 0 1-0.45 1-1s-0.45-1-1-1-1 0.45-1 1 0.45 1 1 1zM21 26c0.55 0 1-0.45 1-1s-0.45-1-1-1-1 0.45-1 1 0.45 1 1 1zM25 24c-0.55 0-1 0.45-1 1s0.45 1 1 1 1-0.45 1-1-0.45-1-1-1zM29 24c-0.55 0-1 0.45-1 1s0.45 1 1 1 1-0.45 1-1-0.45-1-1-1zM3 28c-0.55 0-1 0.45-1 1s0.45 1 1 1 1-0.45 1-1-0.45-1-1-1zM23 28h-16c-0.55 0-1 0.45-1 1s0.45 1 1 1h16c0.55 0 1-0.45 1-1s-0.45-1-1-1zM27 28c-0.55 0-1 0.45-1 1s0.45 1 1 1 1-0.45 1-1-0.45-1-1-1zM28 5c0-1.65-1.35-3-3-3h-18c-1.65 0-3 1.35-3 3v1h24v-1z"></path>
</symbol>
</defs>
</svg>
