<svg aria-hidden="true" style="position: absolute; width: 0; height: 0; overflow: hidden;" version="1.1" xmlns="http://www.w3.org/2000/svg" xmlns:xlink="http://www.w3.org/1999/xlink">
<defs>
<symbol id="icon-bake-svgrepo-com-1" viewBox="0 0 32 32">
<path fill="#ffc5bb" style="fill: var(--color1, #ffc5bb)" d="M4 6.707v-1.414l1.293-1.293h1.414l-2.707 2.707zM10.293 27h1.414l14-14h-1.414l-14 14zM6.293 27h1.414l14-14h-1.414l-14 14zM14.293 27h1.414l11.293-11.293v-1.414l-12.707 12.707zM18.293 27h1.414l7.293-7.293v-1.414l-8.707 8.707zM22.293 27h1.414l3.293-3.293v-1.414l-4.707 4.707zM27 26.293l-0.707 0.707h0.707v-0.707zM13.707 13h-1.414l-7.293 7.293v1.414l8.707-8.707zM10.707 4h-1.414l-3 3h1.414l3-3zM9.707 13h-1.414l-3.293 3.293v1.414l4.707-4.707zM17.707 13h-1.414l-11.293 11.293v1.414l12.707-12.707zM5.707 13h-0.707v0.707l0.707-0.707zM14.707 4h-1.414l-3 3h1.414l3-3zM14.293 7h1.414l1.293-1.293v-1.414l-2.707 2.707z"></path>
<path fill="rgba(105, 99, 99, 0.2)" style="fill: var(--color2, rgba(105, 99, 99, 0.2))" d="M27 27h-22v-14h22v14zM5 12c-0.552 0-1 0.448-1 1v14c0 0.552 0.448 1 1 1h22c0.552 0 1-0.448 1-1v-14c0-0.552-0.448-1-1-1h-22zM30 1h-28c-0.552 0-1 0.448-1 1v28c0 0.552 0.448 1 1 1h28c0.552 0 1-0.448 1-1v-28c0-0.552-0.448-1-1-1zM2 2h28v7h-28v-7zM30 30h-28v-20h28v20zM17 7h-13v-3h13v3zM3.5 3c-0.276 0-0.5 0.224-0.5 0.5v4c0 0.276 0.224 0.5 0.5 0.5h14c0.276 0 0.5-0.224 0.5-0.5v-4c0-0.276-0.224-0.5-0.5-0.5h-14zM26.5 3c-1.368 0-2.5 1.122-2.5 2.5s1.122 2.5 2.5 2.5c1.379 0 2.5-1.122 2.5-2.5s-1.132-2.5-2.5-2.5zM26.5 7c-0.828 0-1.5-0.672-1.5-1.5s0.675-1.5 1.5-1.5 1.5 0.691 1.5 1.5c0 0.809-0.672 1.5-1.5 1.5z"></path>
</symbol>
<symbol id="icon-browse-svgrepo-com" viewBox="0 0 32 32">
<path fill="#ffc5bb" style="fill: var(--color1, #ffc5bb)" d="M28.876 6h1.414l-3 3h-1.414l3-3zM6.29 6h-1.414l-3 3h1.414l3-3zM1 7.29l1.29-1.29h-1.29v1.29zM31 7.876l-1.124 1.124h1.124v-1.124zM10.29 6h-1.414l-3 3h1.414l3-3zM22.29 6h-1.414l-3 3h1.414l3-3zM26.29 6h-1.414l-3 3h1.414l3-3zM18.29 6h-1.414l-3 3h1.414l3-3zM14.29 6h-1.414l-3 3h1.414l3-3z"></path>
<path fill="#265aa5" style="fill: var(--color2, #265aa5)" d="M31 5h-30c-0.552 0-1 0.448-1 1v21c0 0.552 0.448 1 1 1h30c0.552 0 1-0.448 1-1v-21c0-0.552-0.448-1-1-1zM31 6v3h-30v-3h30zM31 27h-30v-17h30v17zM26.483 19h-20.966c-0.286 0-0.517-0.224-0.517-0.5s0.231-0.5 0.517-0.5h20.967c0.285 0 0.516 0.224 0.516 0.5s-0.231 0.5-0.517 0.5zM26.483 16h-20.966c-0.286 0-0.517-0.224-0.517-0.5s0.231-0.5 0.517-0.5h20.967c0.285 0 0.516 0.224 0.516 0.5s-0.231 0.5-0.517 0.5zM26.483 22h-20.966c-0.286 0-0.517-0.224-0.517-0.5s0.231-0.5 0.517-0.5h20.967c0.285 0 0.516 0.224 0.516 0.5s-0.231 0.5-0.517 0.5zM5.5 8h-2c-0.276 0-0.5-0.224-0.5-0.5s0.224-0.5 0.5-0.5h2c0.276 0 0.5 0.224 0.5 0.5s-0.224 0.5-0.5 0.5z"></path>
</symbol>
<symbol id="icon-certify-svgrepo-com" viewBox="0 0 32 32">
<path fill="#ffc5bb" style="fill: var(--color1, #ffc5bb)" d="M21.641 23.144l5.498-5.498c0.006 0.117 0.019 0.228 0.058 0.322 0.080 0.193 0.276 0.368 0.492 0.542l-5.177 5.177c-0.174-0.215-0.348-0.411-0.542-0.492-0.095-0.037-0.211-0.045-0.329-0.051zM19.803 21.031c0.147 0.355 0.001 0.913-0.011 1.376l6.619-6.619c-0.312 0.008-0.67 0.080-0.977 0.080-0.149 0-0.287-0.017-0.404-0.065-0.010-0.004-0.020-0.014-0.031-0.019l-5.214 5.216c0.005 0.011 0.014 0.021 0.018 0.031zM19.803 17.969c-0.22 0.531-1.303 0.921-1.303 1.531 0 0.057 0.011 0.117 0.028 0.171l5.143-5.143c-0.053-0.018-0.114-0.028-0.171-0.028-0.61 0-1 1.083-1.531 1.303-0.116 0.048-0.254 0.065-0.403 0.065-0.19 0-0.397-0.024-0.602-0.046l-1.144 1.144c0.039 0.365 0.092 0.74-0.017 1.003zM26.467 23.211c0.23 0 0.433-0.040 0.569-0.175 0.288-0.288 0.146-0.876 0.107-1.394l-1.505 1.505c0.275 0.020 0.567 0.064 0.829 0.064zM24.769 28.016l0.786 0.628 0.445-0.445v-1.414l-1.231 1.231zM21 24.177v1.022l0.799-0.799c-0.072-0.091-0.161-0.203-0.225-0.268 0 0 0 0-0.001 0-0.003 0-0.006 0-0.009 0-0.128 0-0.267 0.018-0.406 0.033l-0.158 0.012zM25.841 24.165c-0.139-0.016-0.278-0.033-0.406-0.033-0.003 0-0.006 0-0.009 0-0.070 0.072-0.175 0.205-0.25 0.299-0.337 0.426-0.846 1.069-1.676 1.069-0.069 0-0.132-0.011-0.196-0.019l-2.304 2.304v1.215l0.995-0.796 4.005-4.005v-0.022c-0.052-0.005-0.111-0.006-0.159-0.012z"></path>
<path fill="#265aa5" style="fill: var(--color2, #265aa5)" d="M23.5 10h-20c-0.276 0-0.5-0.224-0.5-0.5s0.224-0.5 0.5-0.5h20c0.276 0 0.5 0.224 0.5 0.5s-0.224 0.5-0.5 0.5zM14 12.5c0-0.276-0.224-0.5-0.5-0.5h-10c-0.276 0-0.5 0.224-0.5 0.5s0.224 0.5 0.5 0.5h10c0.276 0 0.5-0.224 0.5-0.5zM14 15.5c0-0.276-0.224-0.5-0.5-0.5h-10c-0.276 0-0.5 0.224-0.5 0.5s0.224 0.5 0.5 0.5h10c0.276 0 0.5-0.224 0.5-0.5zM14 23.5c0-0.276-0.224-0.5-0.5-0.5h-10c-0.276 0-0.5 0.224-0.5 0.5s0.224 0.5 0.5 0.5h10c0.276 0 0.5-0.224 0.5-0.5zM32 7v19c0 0.552-0.448 1-1 1h-4v2c0 0.384-0.22 0.735-0.567 0.901-0.138 0.067-0.286 0.099-0.433 0.099-0.223 0-0.444-0.075-0.625-0.219l-1.875-1.5-1.875 1.5c-0.181 0.144-0.402 0.219-0.625 0.219-0.147 0-0.295-0.032-0.433-0.099-0.347-0.166-0.567-0.517-0.567-0.901v-2h-19c-0.552 0-1-0.448-1-1v-19c0-0.552 0.448-1 1-1h30c0.552 0 1 0.448 1 1zM26 24.177c-0.052-0.005-0.111-0.006-0.159-0.012-0.139-0.016-0.278-0.033-0.406-0.033-0.003 0-0.006 0-0.009 0-0.070 0.072-0.175 0.205-0.25 0.299-0.337 0.426-0.846 1.069-1.676 1.069s-1.339-0.643-1.675-1.069c-0.074-0.094-0.179-0.227-0.25-0.299 0 0 0 0 0 0-0.003 0-0.006 0-0.009 0-0.128 0-0.267 0.018-0.406 0.033-0.049 0.005-0.108 0.006-0.159 0.012v4.823l2.5-2 2.5 2v-4.823zM27.035 23.036c0.414-0.414-0.067-1.455 0.161-2.005 0.221-0.531 1.304-0.921 1.304-1.531s-1.083-1-1.303-1.531c-0.228-0.55 0.253-1.59-0.161-2.004-0.136-0.136-0.338-0.175-0.569-0.175-0.325 0-0.706 0.079-1.032 0.079-0.149 0-0.287-0.017-0.404-0.065-0.531-0.221-0.921-1.304-1.531-1.304s-1 1.083-1.531 1.303c-0.116 0.048-0.254 0.065-0.403 0.065-0.326 0-0.707-0.079-1.032-0.079-0.23 0-0.433 0.040-0.569 0.175-0.414 0.414 0.067 1.455-0.161 2.005-0.221 0.531-1.304 0.921-1.304 1.531s1.083 1 1.303 1.531c0.228 0.55-0.253 1.59 0.161 2.004 0.136 0.136 0.338 0.175 0.569 0.175 0.325 0 0.706-0.079 1.032-0.079 0.149 0 0.287 0.017 0.404 0.065 0.531 0.221 0.921 1.304 1.531 1.304s1-1.083 1.531-1.303c0.116-0.048 0.254-0.065 0.403-0.065 0.326 0 0.707 0.079 1.032 0.079 0.231 0 0.434-0.040 0.569-0.175zM31 7h-30v19h19v-1.858c-0.292-0.072-0.544-0.201-0.743-0.4-0.571-0.571-0.485-1.34-0.423-1.902 0.015-0.137 0.038-0.336 0.044-0.406-0.069-0.070-0.21-0.182-0.309-0.26-0.426-0.335-1.069-0.844-1.069-1.674s0.643-1.339 1.069-1.676c0.094-0.075 0.227-0.18 0.299-0.25 0.001-0.106-0.020-0.287-0.034-0.415-0.063-0.562-0.149-1.331 0.423-1.902 0.311-0.311 0.74-0.468 1.276-0.468 0.218 0 0.435 0.024 0.626 0.046 0.139 0.016 0.278 0.033 0.406 0.033 0.003 0 0.006 0 0.010 0 0.070-0.072 0.175-0.205 0.25-0.299 0.336-0.426 0.845-1.069 1.675-1.069s1.339 0.643 1.675 1.069c0.074 0.094 0.179 0.227 0.25 0.299 0 0 0 0 0 0 0.003 0 0.006 0 0.009 0 0.128 0 0.267-0.018 0.406-0.033 0.191-0.021 0.408-0.046 0.626-0.046 0.536 0 0.965 0.158 1.276 0.468 0.571 0.571 0.485 1.341 0.423 1.902-0.015 0.137-0.038 0.336-0.043 0.405 0.069 0.070 0.21 0.182 0.309 0.26 0.426 0.337 1.069 0.846 1.069 1.676s-0.643 1.339-1.069 1.675c-0.094 0.075-0.227 0.18-0.299 0.25-0.001 0.106 0.020 0.287 0.034 0.415 0.063 0.562 0.149 1.331-0.423 1.902-0.198 0.198-0.45 0.327-0.743 0.399v1.859h4v-19z"></path>
</symbol>
<symbol id="icon-chat-svgrepo-com" viewBox="0 0 32 32">
<path fill="#ffc5bb" style="fill: var(--color1, #ffc5bb)" d="M13.193 3l-12.193 12.193v-1.414l10.779-10.779h1.414zM7.779 3l-6.779 6.779v1.414l8.193-8.193h-1.414zM3.779 3l-2.779 2.779v1.414l4.193-4.193h-1.414zM6 13c0-0.098-0.001-0.156 0.025-0.246l-5.025 5.025v1.414l5-5v-1.193zM18 13v1.193l11.193-11.193h-1.414l-9.801 9.801c0.012 0.062 0.022 0.134 0.022 0.199zM7 17c-0.333 0-0.635-0.182-0.812-0.404l-5.188 5.183v1.414l6.193-6.193h-0.193zM16.193 12l9-9h-1.414l-9 9h1.414zM7 12h1.193l9-9h-1.414l-9.034 9.034c0.090-0.027 0.157-0.034 0.255-0.034zM11 13v0.193l10.193-10.193h-1.414l-9.187 9.187c0.251 0.181 0.408 0.48 0.408 0.813zM25 15.193l5-5v-1.414l-5 5v1.414zM15.093 29.1l14.907-14.907v-1.414l-15.617 15.617 0.71 0.704zM23.193 25l6.807-6.807v-1.414l-8.221 8.221h1.414zM27.193 25l2.807-2.807v-1.414l-4.221 4.221h1.414zM13 13.779l-2 2v0.221c0 0.552-0.448 1-1 1h-0.221l-8 8h1.414l9.807-9.807v-1.414zM22.779 12h1.221c0.057 0 0.125 0.005 0.179 0.014l5.821-5.821v-1.414l-7.221 7.221zM14 17c-0.065 0-0.137-0.010-0.199-0.022l-8.022 8.022h1.414l8-8h-1.193zM21.779 17l-9.405 9.405 0.71 0.704 10.109-10.109h-1.414zM20 16v-1.221l-10.221 10.221h1.177l0.119 0.118 8.936-8.936c-0.009-0.054-0.011-0.125-0.011-0.182z"></path>
<path fill="#265aa5" style="fill: var(--color2, #265aa5)" d="M30 25h-9.956l-4.544 4.503-4.544-4.503h-9.956v-22h29v22zM1 2c-0.552 0-1 0.448-1 1v22c0 0.552 0.448 1 1 1h9.544l4.252 4.213c0.195 0.193 0.449 0.29 0.704 0.29s0.509-0.097 0.704-0.29l4.252-4.213h9.544c0.552 0 1-0.448 1-1v-22c0-0.552-0.448-1-1-1h-29zM17 12h-3c-0.552 0-1 0.448-1 1v3c0 0.552 0.448 1 1 1h3c0.552 0 1-0.448 1-1v-3c0-0.552-0.448-1-1-1zM17 16h-3v-3h3v3zM24 12h-3c-0.552 0-1 0.448-1 1v3c0 0.552 0.448 1 1 1h3c0.552 0 1-0.448 1-1v-3c0-0.552-0.448-1-1-1zM24 16h-3v-3h3v3zM10 12h-3c-0.552 0-1 0.448-1 1v3c0 0.552 0.448 1 1 1h3c0.552 0 1-0.448 1-1v-3c0-0.552-0.448-1-1-1zM10 16h-3v-3h3v3z"></path>
</symbol>
<symbol id="icon-code-svgrepo-com" viewBox="0 0 32 32">
<path fill="#ffc5bb" style="fill: var(--color1, #ffc5bb)" d="M9.411 22l-1 1h-1.415l1-1h1.415zM3.996 22l-1 1h1.414l1-1h-1.414zM2.002 7.995l-1 1v1.414l1-1v-1.414zM2 20.902v-0.904l-1.002 1v1.414l1.070-1.070c-0.059-0.127-0.068-0.291-0.068-0.44zM2 5.024c0-0.553 0.471-1.024 1.024-1.024h0.381l1-1h-1.414l-1.991 1.988v1.414l1-1v-0.378zM2 11.996l-1 1v1.414l1-1v-1.414zM7.411 4l1-1h-1.415l-1 1h1.415zM27.411 4l1-1h-1.414l-1 1h1.414zM19.411 4l1-1h-1.414l-1 1h1.414zM23.411 4l1-1h-1.414l-1 1h1.414zM11.411 4l1-1h-1.414l-1 1h1.414zM15.411 4l1-1h-1.414l-1 1h1.414zM2 15.996l-1 1v1.414l1-1v-1.414zM29.997 17.413l1-1v-1.414l-1 1v1.414zM23.996 22l-1 1h1.414l1-1h-1.414zM30 13.411l1-1v-1.414l-1 1v1.414zM30 9.411l1-1v-1.415l-1 1v1.415zM29.704 4.292c0.153 0.176 0.296 0.445 0.296 0.696v0.422l1-1v-1.414l-1.296 1.296zM17.411 22h-1.414l-1 1h1.414l1-1zM14 25.419l1.411-1.419h-1.411v1.419zM11.996 22l-1 1h1.414l1-1h-1.414zM19.996 22l-1 1h1.414l1-1h-1.414zM18.008 29v-1.012l-1.012 1.012h1.012zM14.002 29.012l0.399-0.003 3.601-3.601v-1.414l-4 4v1.018zM29 22h-1.004l-1 1h1.414l1.285-1.285c-0.179 0.175-0.424 0.285-0.695 0.285zM30 19.997v1.003c0 0.271-0.11 0.516-0.285 0.696l1.294-1.294v-1.414l-1.009 1.009z"></path>
<path fill="#265aa5" style="fill: var(--color2, #265aa5)" d="M31 2h-30c-0.552 0-1 0.448-1 1v20c0 0.552 0.448 1 1 1h12v5h-3.5c-0.276 0-0.5 0.224-0.5 0.5s0.224 0.5 0.5 0.5h13c0.276 0 0.5-0.224 0.5-0.5s-0.224-0.5-0.5-0.5h-3.5v-5h12c0.552 0 1-0.448 1-1v-20c0-0.552-0.448-1-1-1zM18 29h-4v-5h4v5zM31 23h-30v-20h30v20zM10.5 8h-5c-0.276 0-0.5-0.224-0.5-0.5s0.224-0.5 0.5-0.5h5c0.276 0 0.5 0.224 0.5 0.5s-0.224 0.5-0.5 0.5zM14.5 12h-6c-0.276 0-0.5-0.224-0.5-0.5s0.224-0.5 0.5-0.5h6c0.276 0 0.5 0.224 0.5 0.5s-0.224 0.5-0.5 0.5zM10.5 15h-5c-0.276 0-0.5-0.224-0.5-0.5s0.224-0.5 0.5-0.5h5c0.276 0 0.5 0.224 0.5 0.5s-0.224 0.5-0.5 0.5zM17.5 17h-12c-0.276 0-0.5-0.224-0.5-0.5s0.224-0.5 0.5-0.5h12c0.276 0 0.5 0.224 0.5 0.5s-0.224 0.5-0.5 0.5zM20.5 10h-12c-0.276 0-0.5-0.224-0.5-0.5s0.224-0.5 0.5-0.5h12c0.276 0 0.5 0.224 0.5 0.5s-0.224 0.5-0.5 0.5zM29 5v16h-26v-16h26zM29 4h-26c-0.552 0-1 0.448-1 1v16c0 0.552 0.448 1 1 1h26c0.552 0 1-0.448 1-1v-16c0-0.552-0.448-1-1-1v0z"></path>
</symbol>
<symbol id="icon-contact-svgrepo-com" viewBox="0 0 32 32">
<path fill="#ffc5bb" style="fill: var(--color1, #ffc5bb)" d="M8.414 1l-3.414 3.414v-1.414l2-2h1.414zM12.414 1h-1.414l-6 6h1.414l6-6zM7 18h-1l-1 1v1.414l2.707-2.707c-0.181 0.181-0.431 0.293-0.707 0.293zM10.218 22.377l1.901-2.387c0.013-0.016 0.026-0.031 0.039-0.047 0.383-0.425 0.904-0.71 1.468-0.803l0.775-0.128 0.386-0.386 0.054-0.267c-0.223-0.194-0.384-0.431-0.521-0.679l-6.32 6.32c0 0.552-0.448 1-1 1l-2 2v1.414l5.070-5.070c-0.12-0.326-0.071-0.692 0.148-0.967zM8 9.414l8.414-8.414h-1.414l-7 7v1.414zM17.057 8c0.132 0 0.25 0.003 0.35 0.007l7.007-7.007h-1.414l-7.101 7.101c0.334-0.065 0.714-0.101 1.158-0.101zM8 16v1c0 0.276-0.112 0.526-0.293 0.707l5.283-5.283c0.011-0.047 0.011-0.096 0.025-0.141-0.171-0.18-0.277-0.423-0.277-0.691 0-0.142 0.029-0.274 0.072-0.402l-4.81 4.81zM12 24l-7 7h1.414l7-7h-1.414zM7.874 21.54l5.735-5.735c-0.226-0.24-0.376-0.575-0.481-0.933l-6.128 6.128c0.384 0 0.706 0.223 0.874 0.54zM7 14c0.122 0 0.236 0.029 0.345 0.070l13.069-13.070h-1.414l-13 13h1zM5 11v1.414l1.414-1.414h-1.414zM24.075 21.339l3.925-3.925v-1.414l-4.512 4.512 0.587 0.827zM21.793 15.621l6.207-6.207v-1.414l-5.663 5.663c-0.039 0.633-0.173 1.428-0.544 1.958zM21.64 19.141c0.17 0.028 0.334 0.079 0.493 0.14l5.867-5.867v-1.414l-7.030 7.030 0.67 0.111zM27 1l-7.213 7.213c0.209 0.069 0.401 0.149 0.558 0.254 0.144 0.096 0.262 0.17 0.369 0.233l7.286-7.286v-0.414h-1zM21.902 10.379c0.207 0.195 0.374 0.411 0.486 0.647l5.612-5.612v-1.414l-5.953 5.953c-0.018 0.147-0.069 0.293-0.145 0.426zM20 24l-7 7h1.414l7-7h-1.414zM26.414 31l1.586-1.586v-1.414l-3 3h1.414zM16 24l-7 7h1.414l7-7h-1.414zM24.885 23.466c-0.173 0.329-0.514 0.534-0.885 0.534l-7 7h1.414l9.586-9.586v-1.414l-3.007 3.007c-0.001 0.157-0.032 0.315-0.108 0.459zM22.414 31l5.586-5.586v-1.414l-7 7h1.414z"></path>
<path fill="#265aa5" style="fill: var(--color2, #265aa5)" d="M18.209 9c0.503 0 1.209 0.049 1.58 0.298 0.882 0.591 1.21 0.637 1.21 0.637s-0.431 0.555-0.579 0.555c-0.005 0 1.107 0.669 1.107 1.103h-0.77c0 0 0.572 0.722 0.594 1.296 0.020 0.517-0.032 2.36-0.693 2.36-0.070 0-0.147-0.021-0.231-0.066 0 0 0.198 2.273-1.122 2.677l0.396 1.976 1.776 0.293c0.342 0.056 0.656 0.228 0.888 0.485l1.635 2.386h-13l1.901-2.387c0.232-0.258 0.545-0.429 0.888-0.485l1.776-0.293 0.396-1.976c-1.32-0.404-1.122-2.677-1.122-2.677-0.084 0.045-0.161 0.066-0.231 0.066-0.661 0-0.713-1.843-0.693-2.36 0.022-0.574 0.594-1.296 0.594-1.296h-0.77c0-0.433 1.113-1.103 1.107-1.103-0.149 0-0.579-0.555-0.579-0.555s0.328-0.047 1.21-0.637c0.371-0.248 1.077-0.297 1.58-0.297h1.152zM18.209 8c-0.255 0-0.464 0.011-0.576 0.019-0.112-0.008-0.322-0.019-0.576-0.019-0.968 0-1.667 0.153-2.136 0.467-0.472 0.316-0.736 0.438-0.835 0.478-0.364 0.007-0.626 0.214-0.793 0.546-0.143 0.284-0.085 0.612 0.072 0.889-0.361 0.341-0.625 0.736-0.625 1.213 0 0.268 0.105 0.511 0.277 0.691-0.055 0.183-0.093 0.375-0.1 0.567-0.019 0.505-0.026 2.21 0.703 2.968 0.071 0.073 0.147 0.138 0.229 0.194 0.061 0.734 0.284 1.728 0.994 2.349l-0.12 0.601-1.094 0.18c-0.564 0.093-1.086 0.378-1.468 0.803-0.014 0.015-1.94 2.434-1.94 2.434-0.239 0.3-0.285 0.711-0.118 1.057s0.513 0.563 0.897 0.563h13c0.371 0 0.712-0.205 0.885-0.534 0.173-0.328 0.15-0.725-0.059-1.031 0 0-1.687-2.459-1.717-2.492-0.383-0.425-0.904-0.71-1.468-0.803l-1.094-0.18-0.12-0.601c0.71-0.62 0.933-1.615 0.994-2.349 0.081-0.056 0.158-0.12 0.229-0.194 0.729-0.757 0.722-2.463 0.703-2.968-0.007-0.192-0.045-0.384-0.1-0.567 0.171-0.18 0.277-0.423 0.277-0.691 0-0.476-0.264-0.871-0.625-1.213 0.157-0.277 0.215-0.604 0.072-0.888-0.167-0.332-0.429-0.539-0.793-0.546-0.099-0.040-0.364-0.163-0.835-0.478-0.473-0.312-1.171-0.465-2.14-0.465v0zM28 0h-23c-0.552 0-1 0.448-1 1v6h-2c-0.552 0-1 0.448-1 1v2c0 0.552 0.448 1 1 1h2v3h-2c-0.552 0-1 0.448-1 1v2c0 0.552 0.448 1 1 1h2v3h-2c-0.552 0-1 0.448-1 1v2c0 0.552 0.448 1 1 1h2v6c0 0.552 0.448 1 1 1h23c0.552 0 1-0.448 1-1v-30c0-0.552-0.448-1-1-1zM2 8h5v2h-5v-2zM2 15h5v2h-5v-2zM2 24v-2h5v2h-5zM28 31h-23v-6h2c0.552 0 1-0.448 1-1v-2c0-0.552-0.448-1-1-1h-2v-3h2c0.552 0 1-0.448 1-1v-2c0-0.552-0.448-1-1-1h-2v-3h2c0.552 0 1-0.448 1-1v-2c0-0.552-0.448-1-1-1h-2v-6h23v30z"></path>
</symbol>
<symbol id="icon-descend-svgrepo-com" viewBox="0 0 32 32">
<path fill="#ffc5bb" style="fill: var(--color1, #ffc5bb)" d="M5 5.707v-1.414l1.293-1.293h1.414l-2.707 2.707zM8 6.707v-1.414l-3 3v1.414l3-3zM4.981 28.312l0.67 0.744 4.056-4.056h-1.414l-3.312 3.312zM8 18.707v-1.414l-3 3v1.414l3-3zM8 22.707v-1.414l-3 3v0.707h-0.707l-1.207 1.207 0.67 0.744 4.244-4.244zM8 14.707v-1.414l-3 3v1.414l3-3zM8 10.707v-1.414l-3 3v1.414l3-3z"></path>
<path fill="#265aa5" style="fill: var(--color2, #265aa5)" d="M30 6h-18v-3h18v3zM12 2c-0.552 0-1 0.448-1 1v3c0 0.552 0.448 1 1 1h18c0.552 0 1-0.448 1-1v-3c0-0.552-0.448-1-1-1h-18zM26 10v3h-14v-3h14zM12 9c-0.552 0-1 0.448-1 1v3c0 0.552 0.448 1 1 1h14c0.552 0 1-0.448 1-1v-3c0-0.552-0.448-1-1-1h-14zM22 17v3h-10v-3h10zM12 16c-0.552 0-1 0.448-1 1v3c0 0.552 0.448 1 1 1h10c0.552 0 1-0.448 1-1v-3c0-0.552-0.448-1-1-1h-10zM8 25h3l-4.5 5-4.5-5h3v-22h3v22zM5 2c-0.552 0-1 0.448-1 1v21h-2c-0.395 0-0.753 0.232-0.914 0.593s-0.094 0.782 0.17 1.076l4.5 5c0.19 0.211 0.461 0.331 0.744 0.331s0.554-0.12 0.743-0.331l4.471-4.968c0.178-0.18 0.288-0.428 0.288-0.701 0-0.552-0.445-1-0.997-1h-2.005v-21c0-0.552-0.448-1-1-1h-3z"></path>
</symbol>
<symbol id="icon-duplicate-svgrepo-com" viewBox="0 0 32 32">
<path fill="#ffc5bb" style="fill: var(--color1, #ffc5bb)" d="M2 19.664v-1.414l6-6v1.414l-6 6zM19.25 9h1.414l1.336-1.336v-1.414l-2.75 2.75zM23.25 21h1.414l0.336-0.336v-1.414l-1.75 1.75zM2 6.25v1.414l4.664-4.664h-1.414l-3.25 3.25zM10.664 3h-1.414l-7.25 7.25v1.414l8.664-8.664zM8.13 9.534c0.093-0.172 0.232-0.311 0.404-0.404l6.13-6.13h-1.414l-11.25 11.25v1.414l6.13-6.13zM12.664 9l6-6h-1.414l-6 6h1.414zM18.25 26h1.414l0.336-0.336v-1.414l-1.75 1.75zM2 3.664l0.664-0.664h-0.664v0.664zM8 17.664v-1.414l-6 6v0.75h0.664l5.336-5.336zM5.25 23h1.414l1.336-1.336v-1.414l-2.75 2.75zM19.664 14h-1.414l-0.25 0.25v1.414l1.664-1.664zM15.25 9h1.414l5.336-5.336v-0.664h-0.75l-6 6zM13.25 19l-0.25 0.25v1.414l1.664-1.664h-1.414zM21.25 19l-3.25 3.25v1.414l2-2v-0.164c0-0.276 0.224-0.5 0.5-0.5h0.164l2-2h-1.414zM20 16.25l-2 2v0.25c0 0.276-0.224 0.5-0.5 0.5h-0.25l-2 2h1.414l3.336-3.336v-1.414z"></path>
<path fill="#265aa5" style="fill: var(--color2, #265aa5)" d="M21 13.5c0-0.276-0.224-0.5-0.5-0.5h-3c-0.276 0-0.5 0.224-0.5 0.5v4.5h-4.5c-0.276 0-0.5 0.224-0.5 0.5v3c0 0.276 0.224 0.5 0.5 0.5h4.5v4.5c0 0.276 0.224 0.5 0.5 0.5h3c0.276 0 0.5-0.224 0.5-0.5v-4.5h4.5c0.276 0 0.5-0.224 0.5-0.5v-3c0-0.276-0.224-0.5-0.5-0.5h-4.5v-4.5zM25 19v2h-4.5c-0.276 0-0.5 0.224-0.5 0.5v4.5h-2v-4.5c0-0.276-0.224-0.5-0.5-0.5h-4.5v-2h4.5c0.276 0 0.5-0.224 0.5-0.5v-4.5h2v4.5c0 0.276 0.224 0.5 0.5 0.5h4.5z"></path>
<path fill="#265aa5" style="fill: var(--color2, #265aa5)" d="M29 9h-6v-6c0-0.552-0.448-1-1-1h-20c-0.552 0-1 0.448-1 1v20c0 0.552 0.448 1 1 1h6v6c0 0.552 0.448 1 1 1h20c0.552 0 1-0.448 1-1v-20c0-0.552-0.448-1-1-1zM2 23v-20h20v6h-13c-0.552 0-1 0.448-1 1v13h-6zM29 30h-20v-20h20v20z"></path>
</symbol>
<symbol id="icon-present-svgrepo-com" viewBox="0 0 32 32">
<path fill="#ffc5bb" style="fill: var(--color1, #ffc5bb)" d="M27 11.393v1.414l-5.193 5.193h-1.414l6.607-6.607zM24.393 18h1.414l1.193-1.193v-1.414l-2.607 2.607zM24.807 7h-1.414l-5.393 5.393v1.414l6.807-6.807zM20.807 7h-1.414l-1.393 1.393v1.414l2.807-2.807zM18 16.393v1.414l9-9v-1.414l-9 9z"></path>
<path fill="#265aa5" style="fill: var(--color2, #265aa5)" d="M27 18h-9v-11h9v11zM18 6c-0.552 0-1 0.448-1 1v11c0 0.552 0.448 1 1 1h9c0.552 0 1-0.448 1-1v-11c0-0.552-0.448-1-1-1h-9zM30 3h-29c-0.552 0-1 0.448-1 1v17c0 0.552 0.448 1 1 1h14v6h-4.5c-0.276 0-0.5 0.224-0.5 0.5s0.224 0.5 0.5 0.5h10c0.276 0 0.5-0.224 0.5-0.5s-0.224-0.5-0.5-0.5h-4.5v-6h14c0.552 0 1-0.448 1-1v-17c0-0.552-0.448-1-1-1zM30 21h-29v-17h29v17zM13 7.5c0-0.276-0.231-0.5-0.517-0.5h-8.966c-0.286 0-0.517 0.224-0.517 0.5s0.231 0.5 0.517 0.5h8.967c0.285 0 0.516-0.224 0.516-0.5zM10 9.5c0-0.276-0.231-0.5-0.517-0.5h-5.966c-0.286 0-0.517 0.224-0.517 0.5s0.231 0.5 0.517 0.5h5.967c0.285 0 0.516-0.224 0.516-0.5zM13 11.5c0-0.276-0.231-0.5-0.517-0.5h-8.966c-0.286 0-0.517 0.224-0.517 0.5s0.231 0.5 0.517 0.5h8.967c0.285 0 0.516-0.224 0.516-0.5zM10 18.5c0-0.276-0.231-0.5-0.517-0.5h-5.966c-0.286 0-0.517 0.224-0.517 0.5s0.231 0.5 0.517 0.5h5.967c0.285 0 0.516-0.224 0.516-0.5z"></path>
</symbol>
<symbol id="icon-publish-svgrepo-com" viewBox="0 0 32 32">
<path fill="#ffc5bb" style="fill: var(--color1, #ffc5bb)" d="M27 11.938v1.414l-3.648 3.648h-1.414l5.062-5.062zM19.352 17l7.648-7.648v-1.352h-0.062l-9 9h1.414zM27 15.938l-1.062 1.062h1.062v-1.062zM15 9.352l1.352-1.352h-1.352v1.352zM20.352 8h-1.414l-3.938 3.938v1.414l5.352-5.352zM22.938 8l-7.938 7.938v1.062h0.352l9-9h-1.414zM2.045 13h-1.045v0.369l2 2v-1.414l-0.955-0.955zM1 19.955v1.414l2 2v-1.414l-2-2zM1 23.955v1.414l2 2v-1.414l-2-2zM1 15.955v1.414l2 2v-1.414l-2-2z"></path>
<path fill="#265aa5" style="fill: var(--color2, #265aa5)" d="M30 4h-26c-0.552 0-1 0.448-1 1v7h-2c-0.552 0-1 0.448-1 1v13c0 1.654 1.346 3 3 3h27c0.552 0 1-0.448 1-1v-23c0-0.552-0.448-1-1-1zM3 28c-1.105 0-2-0.895-2-2v-13h2v15zM30 28h-26v-23h26v23zM11.5 15h-5c-0.276 0-0.5-0.224-0.5-0.5s0.224-0.5 0.5-0.5h5c0.276 0 0.5 0.224 0.5 0.5s-0.224 0.5-0.5 0.5zM11.5 12h-5c-0.276 0-0.5-0.224-0.5-0.5s0.224-0.5 0.5-0.5h5c0.276 0 0.5 0.224 0.5 0.5s-0.224 0.5-0.5 0.5zM11.5 9h-5c-0.276 0-0.5-0.224-0.5-0.5s0.224-0.5 0.5-0.5h5c0.276 0 0.5 0.224 0.5 0.5s-0.224 0.5-0.5 0.5zM27.5 21h-21c-0.276 0-0.5-0.224-0.5-0.5s0.224-0.5 0.5-0.5h21c0.276 0 0.5 0.224 0.5 0.5s-0.224 0.5-0.5 0.5zM11.5 18h-5c-0.276 0-0.5-0.224-0.5-0.5s0.224-0.5 0.5-0.5h5c0.276 0 0.5 0.224 0.5 0.5s-0.224 0.5-0.5 0.5zM27.5 24h-21c-0.276 0-0.5-0.224-0.5-0.5s0.224-0.5 0.5-0.5h21c0.276 0 0.5 0.224 0.5 0.5s-0.224 0.5-0.5 0.5zM27 7h-12c-0.552 0-1 0.448-1 1v9c0 0.552 0.448 1 1 1h12c0.552 0 1-0.448 1-1v-9c0-0.552-0.448-1-1-1zM27 17h-12v-9h12v9z"></path>
</symbol>
<symbol id="icon-read-svgrepo-com" viewBox="0 0 32 32">
<path fill="#ffc5bb" style="fill: var(--color1, #ffc5bb)" d="M21.793 5h1.414l-1 1h-1.414l1-1zM16.793 6h1.414l1-1h-1.414l-1 1zM4.793 6h1.414l1-1h-1.414l-1 1zM8.793 6h1.414l1-1h-1.414l-1 1zM24.793 6h1.414l1-1h-1.414l-1 1zM2 10.207v-1.414l-1 1v1.414l1-1zM16.793 26l-0.793 0.793v0.207h1.207l1-1h-1.414zM27.793 27h1.414l0.793-0.793v-1.414l-2.207 2.207zM29 7v0.207l1-1v-1.207h-0.207l-1.21 1.21c0.247 0.182 0.417 0.46 0.417 0.79zM3.207 5h-1.414l-0.793 0.793v1.414l2.207-2.207zM2 25v-0.207l-1 1v1.207h0.207l1.21-1.21c-0.247-0.182-0.417-0.46-0.417-0.79zM14.207 6l0.793-0.793v-0.207h-1.207l-1 1h1.414zM2 14.207v-1.414l-1 1v1.414l1-1zM29 21.793v1.414l1-1v-1.414l-1 1zM2 18.207v-1.414l-1 1v1.414l1-1zM29 17.793v1.414l1-1v-1.414l-1 1zM29 9.793v1.414l1-1v-1.414l-1 1zM29 13.793v1.414l1-1v-1.414l-1 1zM26.207 26h-1.414l-1 1h1.414l1-1zM2 22.207v-1.414l-1 1v1.414l1-1zM22.207 26h-1.414l-1 1h1.414l1-1zM6.207 26h-1.414l-1 1h1.414l1-1zM10.207 26h-1.414l-1 1h1.414l1-1zM14.207 26h-1.414l-1 1h1.414l1-1z"></path>
<path fill="#265aa5" style="fill: var(--color2, #265aa5)" d="M12.467 11h-6.934c-0.294 0-0.533-0.224-0.533-0.5s0.239-0.5 0.533-0.5h6.933c0.295 0 0.534 0.224 0.534 0.5s-0.239 0.5-0.533 0.5zM13 13.5c0-0.276-0.239-0.5-0.533-0.5h-6.934c-0.294 0-0.533 0.224-0.533 0.5s0.239 0.5 0.533 0.5h6.933c0.295 0 0.534-0.224 0.534-0.5zM13 16.5c0-0.276-0.239-0.5-0.533-0.5h-6.934c-0.294 0-0.533 0.224-0.533 0.5s0.239 0.5 0.533 0.5h6.933c0.295 0 0.534-0.224 0.534-0.5zM13 19.5c0-0.276-0.239-0.5-0.533-0.5h-6.934c-0.294 0-0.533 0.224-0.533 0.5s0.239 0.5 0.533 0.5h6.933c0.295 0 0.534-0.224 0.534-0.5zM26 10.5c0-0.276-0.239-0.5-0.533-0.5h-6.933c-0.295 0-0.534 0.224-0.534 0.5s0.239 0.5 0.533 0.5h6.933c0.295 0 0.534-0.224 0.534-0.5zM26 13.5c0-0.276-0.239-0.5-0.533-0.5h-6.933c-0.295 0-0.534 0.224-0.534 0.5s0.239 0.5 0.533 0.5h6.933c0.295 0 0.534-0.224 0.534-0.5zM26 16.5c0-0.276-0.239-0.5-0.533-0.5h-6.933c-0.295 0-0.534 0.224-0.534 0.5s0.239 0.5 0.533 0.5h6.933c0.295 0 0.534-0.224 0.534-0.5zM26 19.5c0-0.276-0.239-0.5-0.533-0.5h-6.933c-0.295 0-0.534 0.224-0.534 0.5s0.239 0.5 0.533 0.5h6.933c0.295 0 0.534-0.224 0.534-0.5zM31 5v22c0 0.552-0.448 1-1 1h-29c-0.552 0-1-0.448-1-1v-22c0-0.552 0.448-1 1-1h29c0.552 0 1 0.448 1 1zM16 25h12v-18h-12v18zM15 27v-1h-12c-0.552 0-1-0.448-1-1v-18c0-0.552 0.448-1 1-1h12v-1h-14v22h14zM15 7h-12v18h12v-18zM30 5h-14v1h12c0.552 0 1 0.448 1 1v18c0 0.552-0.448 1-1 1h-12v1h14v-22z"></path>
</symbol>
<symbol id="icon-report-svgrepo-com" viewBox="0 0 32 32">
<path fill="#ffc5bb" style="fill: var(--color1, #ffc5bb)" d="M14 28.749l-2.251 2.251h-1.414l3.665-3.665v1.414zM25 20.335v1.414l5-5v-1.414l-5 5zM25 16.335v1.414l3.749-3.749h-1.414l-2.335 2.335zM25 28.335v1.414l5-5v-1.414l-5 5zM26.335 31h1.414l2.251-2.251v-1.414l-3.665 3.665zM9 28.335v1.414l5-5v-1.414l-5 5zM25 24.335v1.414l5-5v-1.414l-5 5zM14 12.749v-1.414l-5 5v1.414l5-5zM14 8.749v-1.414l-5 5v1.414l5-5zM14 16.749v-1.414l-5 5v1.414l5-5zM9 24.335v1.414l5-5v-1.414l-5 5zM12.749 2h-1.414l-2.335 2.335v1.414l3.749-3.749zM14 4.749v-1.414l-5 5v1.414l5-5z"></path>
<path fill="#265aa5" style="fill: var(--color2, #265aa5)" d="M6 13h-5c-0.552 0-1 0.448-1 1v17c0 0.552 0.448 1 1 1h5c0.552 0 1-0.448 1-1v-17c0-0.552-0.448-1-1-1zM6 31h-5v-17h5v17zM14 1h-5c-0.552 0-1 0.448-1 1v29c0 0.552 0.448 1 1 1h5c0.552 0 1-0.448 1-1v-29c0-0.552-0.448-1-1-1zM14 31h-5v-29h5v29zM22 6h-5c-0.552 0-1 0.448-1 1v24c0 0.552 0.448 1 1 1h5c0.552 0 1-0.448 1-1v-24c0-0.552-0.448-1-1-1zM22 31h-5v-24h5v24zM30 13h-5c-0.552 0-1 0.448-1 1v17c0 0.552 0.448 1 1 1h5c0.552 0 1-0.448 1-1v-17c0-0.552-0.448-1-1-1zM30 31h-5v-17h5v17z"></path>
</symbol>
<symbol id="icon-research-svgrepo-com" viewBox="0 0 32 32">
<path fill="#ffc5bb" style="fill: var(--color1, #ffc5bb)" d="M13 24.84l1-1v1.414l-1 1v-1.414zM12 22c0.342 0 0.645 0.176 0.825 0.429l1.175-1.175v-1.414l-2.16 2.16h0.16zM10 29c-0.318 0-0.599-0.147-0.782-0.378l-1.218 1.218v0.16h1.254l1-1h-0.254zM13.254 30l0.746-0.746v-1.414l-2.16 2.16h1.414zM9 24.84l-1 1v1.414l1-1v-1.414zM29.471 25.783l0.872-0.872-0.197-1.217-0.872 0.872 0.197 1.217zM28.505 21.654c0.215 0.155 0.36 0.389 0.402 0.651l0.006 0.036 0.872-0.872-0.197-1.217-1.28 1.291c0.073 0.031 0.131 0.064 0.197 0.111zM10.84 11l-2.84 2.84v1.414l4.254-4.254h-1.414zM9.84 8l-1.84 1.84v1.414l3.254-3.254h-1.414zM26.726 12.528l1.384-1.384-0.137-0.844-0.516 0.084-2.418 2.418 1.687-0.274zM28.471 13.37l-5.23 5.23 0.197 1.217 5.23-5.23-0.197-1.217zM25.229 24.612l-0.872 0.872 0.197 1.217 0.872-0.872-0.197-1.217zM29.029 16.811l-5.23 5.23 0.197 1.217 5.23-5.23-0.197-1.217zM26.161 28.532c-0.172-0.124-0.297-0.292-0.363-0.491l-0.883 0.883 0.177 1.091 0.175-0.028 1.286-1.286c-0.142-0.027-0.272-0.082-0.392-0.169zM30.704 27.137l-2.35 2.35 1.688-0.274 0.859-0.859-0.197-1.217zM24.011 13.982c-0.050 0.008-0.105 0.008-0.154 0.001l-1.175 1.175 0.197 1.217 2.637-2.637-1.505 0.244zM11.84 10h0.66c0.204 0 0.378 0.123 0.456 0.298l1.044-1.044v-1.254h-0.16l-2 2zM8 19.254l6-6v-1.414l-6 6v1.414zM8 23.254l6-6v-1.414l-6 6v1.414zM22.682 11.158l-0.558 0.558 0.197 1.217 2.049-2.049-1.688 0.274z"></path>
<path fill="#265aa5" style="fill: var(--color2, #265aa5)" d="M13 10.5c0 0.276-0.224 0.5-0.5 0.5h-3c-0.276 0-0.5-0.224-0.5-0.5s0.224-0.5 0.5-0.5h3c0.276 0 0.5 0.224 0.5 0.5zM16.5 4h3c0.276 0 0.5-0.224 0.5-0.5s-0.224-0.5-0.5-0.5h-3c-0.276 0-0.5 0.224-0.5 0.5s0.224 0.5 0.5 0.5zM5.5 7h-3c-0.276 0-0.5 0.224-0.5 0.5s0.224 0.5 0.5 0.5h3c0.276 0 0.5-0.224 0.5-0.5s-0.224-0.5-0.5-0.5zM13 23v5c0 0.552-0.448 1-1 1h-2c-0.552 0-1-0.448-1-1v-5c0-0.552 0.448-1 1-1h2c0.552 0 1 0.448 1 1zM12 23h-2v5h2v-5zM32.002 28.895c0.088 0.545-0.282 1.059-0.827 1.147 0 0-6.029 0.974-6.083 0.974-0.209 0-0.413-0.065-0.585-0.189-0.215-0.155-0.36-0.389-0.402-0.651l-2.105-12.978v12.802c0 0.552-0.448 1-1 1h-6c-0.186 0-0.351-0.065-0.5-0.153-0.149 0.088-0.314 0.153-0.5 0.153h-6c-0.186 0-0.351-0.065-0.5-0.153-0.149 0.088-0.314 0.153-0.5 0.153h-6c-0.552 0-1-0.448-1-1v-25c0-0.552 0.448-1 1-1h6c0.552 0 1 0.448 1 1v2h6v-5c0-0.552 0.448-1 1-1h6c0.552 0 1 0.448 1 1v8.256c0 0 5.921-0.956 5.974-0.956 0.482 0 0.906 0.349 0.986 0.84l3.042 18.755zM7 30v-25h-6v25h6zM14 30v-22h-6v22h6zM21 2h-6v28h6v-28zM31.015 29.055l-3.042-18.755-5.923 0.961 3.042 18.755 5.923-0.961zM27.386 12.928c-0.044-0.273-0.301-0.458-0.574-0.414l-2.961 0.48c-0.273 0.044-0.458 0.301-0.414 0.574s0.301 0.458 0.574 0.413l2.961-0.48c0.273-0.044 0.458-0.3 0.414-0.573zM27.92 21.465c0.209 0 0.413 0.065 0.585 0.189 0.215 0.155 0.36 0.389 0.402 0.651l0.801 4.935c0.088 0.545-0.282 1.059-0.827 1.147 0 0-2.081 0.333-2.134 0.333-0.209 0-0.413-0.065-0.585-0.189-0.215-0.155-0.36-0.389-0.402-0.651l-0.801-4.935c-0.088-0.545 0.282-1.059 0.827-1.147-0.001 0.001 2.080-0.333 2.134-0.333zM27.92 22.465l-1.974 0.32 0.801 4.935 1.974-0.32-0.801-4.935zM6 23v5c0 0.552-0.448 1-1 1h-2c-0.552 0-1-0.448-1-1v-5c0-0.552 0.448-1 1-1h2c0.552 0 1 0.448 1 1zM5 23h-2v5h2v-5zM16 28v-5c0-0.552 0.448-1 1-1h2c0.552 0 1 0.448 1 1v5c0 0.552-0.448 1-1 1h-2c-0.552 0-1-0.448-1-1zM17 28h2v-5h-2v5z"></path>
</symbol>
<symbol id="icon-solve-svgrepo-com" viewBox="0 0 32 32">
<path fill="#ffc5bb" style="fill: var(--color1, #ffc5bb)" d="M3.713 31h-1.414l12.701-12.701v1.414l-11.287 11.287zM15.555 25.744c0.146 0.040 0.306 0.085 0.445 0.116 0.275 0.062 0.511 0.103 0.729 0.124l2.255-2.255c-0.049-0.373-0.202-0.707-0.428-0.986l-3.001 3.001zM16.694 22.019c-0.207 0.022-0.44 0.064-0.694 0.121-0.32 0.072-0.661 0.167-1 0.287v-0.129l-8.701 8.702h1.414l8.981-8.981zM6.266 20.447c-0.274-0.194-0.511-0.435-0.706-0.708l-4.56 4.56v1.414l5.266-5.266zM13.713 17h-1.414l-1.317 1.317c-0.155 1.386-1.279 2.51-2.665 2.665l-7.317 7.317v1.414l12.713-12.713zM12.448 10.265l3.005-3.005c-0.149-0.042-0.311-0.088-0.453-0.12-0.27-0.061-0.502-0.103-0.718-0.124l-2.263 2.264c0.051 0.372 0.203 0.707 0.429 0.985zM5.014 17.699c0.018-0.214 0.051-0.448 0.101-0.699h-0.816l-3.299 3.299v1.414l4.014-4.014zM1.713 17h-0.713v0.713l0.713-0.713zM16 2v0.713l0.713-0.713h-0.713zM15 30.299l-0.701 0.701h0.701v-0.701zM14.318 10.981c0.204-0.023 0.434-0.065 0.682-0.121 0.32-0.072 0.661-0.167 1-0.287v0.14l8.713-8.713h-1.414l-8.981 8.981zM17.299 16h1.414l1.3-1.3c0.151-1.396 1.293-2.538 2.689-2.689l7.298-7.298v-1.414l-12.701 12.701zM15 27.713v-1.414l-4.701 4.701h1.414l3.287-3.287zM16 5.299v1.414l4.713-4.713h-1.414l-3.299 3.299zM16 13.299v1.414l12.713-12.713h-1.414l-11.299 11.299zM24.741 12.558c0.273 0.195 0.51 0.435 0.705 0.709l4.554-4.554v-1.414l-5.259 5.259zM29.299 16h0.701v-0.701l-0.701 0.701zM25.988 15.311c-0.018 0.211-0.054 0.443-0.102 0.689h0.828l3.286-3.287v-1.414l-4.012 4.012z"></path>
<path fill="#265aa5" style="fill: var(--color2, #265aa5)" d="M30 1h-29c-0.552 0-1 0.448-1 1v29c0 0.552 0.448 1 1 1h29c0.552 0 1-0.448 1-1v-29c0-0.552-0.448-1-1-1zM30 16h-4.115c0.074-0.375 0.115-0.72 0.115-1 0-1.654-1.346-3-3-3s-3 1.346-3 3c0 0.28 0.041 0.625 0.115 1h-4.115v-5.427c-0.339 0.12-1 0.287-1 0.287-0.389 0.088-0.744 0.14-1 0.14-1.105 0-2-0.895-2-2s0.895-2 2-2c0.256 0 0.611 0.052 1 0.14 0 0 0.661 0.167 1 0.287v-5.427h14v14zM1 2h14v4.115c-0.375-0.074-0.72-0.115-1-0.115-1.654 0-3 1.346-3 3s1.346 3 3 3c0.28 0 0.625-0.041 1-0.115v4.115h-5.427c0.12 0.339 0.287 1 0.287 1 0.088 0.389 0.14 0.744 0.14 1 0 1.105-0.895 2-2 2s-2-0.895-2-2c0-0.256 0.052-0.611 0.14-1 0 0 0.167-0.661 0.287-1h-5.427v-14zM1 17h4.115c-0.074 0.375-0.115 0.72-0.115 1 0 1.654 1.346 3 3 3s3-1.346 3-3c0-0.28-0.041-0.625-0.115-1h4.115v5.427c0.339-0.12 1-0.287 1-0.287 0.389-0.088 0.744-0.14 1-0.14 1.105 0 2 0.895 2 2s-0.895 2-2 2c-0.256 0-0.611-0.052-1-0.14 0 0-0.661-0.167-1-0.287v5.427h-14v-14zM30 31h-14v-4.115c0.375 0.074 0.72 0.115 1 0.115 1.654 0 3-1.346 3-3s-1.346-3-3-3c-0.28 0-0.625 0.041-1 0.115v-4.115h5.427c-0.12-0.339-0.287-1-0.287-1-0.088-0.389-0.14-0.744-0.14-1 0-1.105 0.895-2 2-2s2 0.895 2 2c0 0.256-0.052 0.611-0.14 1 0 0-0.167 0.661-0.287 1h5.427v14z"></path>
</symbol>
<symbol id="icon-vote-svgrepo-com" viewBox="0 0 32 32">
<path fill="#ffc5bb" style="fill: var(--color1, #ffc5bb)" d="M2 29.158v-1.414l6.744-6.744h1.414l-8.158 8.158zM19.157 24l3-3h-1.414l-3 3h1.414zM28.157 15h-1.414l-5 5h1.414l5-5zM13.743 24h1.414l3-3h-1.414l-3 3zM31 18.743l-1.257 1.257h1.257v-1.257zM1 18.158l3.158-3.158h-1.414l-1.744 1.744v1.414zM6.158 21h-1.414l-2.744 2.744v1.414l4.158-4.158zM15.157 20l5-5h-1.414l-5 5h1.414zM8.158 15h-1.414l-5 5h1.414l5-5zM30 23.743l-7.257 7.257h1.414l5.843-5.843v-1.414zM7.158 20l5-5h-1.414l-5 5h1.414zM17.743 20h1.414l5-5h-1.414l-5 5zM31 15h-0.257l-5 5h1.414l3.843-3.843v-1.157zM30 27.743l-3.257 3.257h1.414l1.843-1.843v-1.414zM22 27.743v0.257c0 0.552-0.448 1-1 1h-0.257l-2 2h1.414l9.843-9.843v-0.157h-1.257l-6.743 6.743zM10.387 28.771c-0.23-0.184-0.387-0.454-0.387-0.771v-0.257l-3.257 3.257h1.414l2.23-2.229zM10 25.157v-0.157c0-0.552 0.448-1 1-1h0.157l3-3h-1.414l-10 10h1.414l5.843-5.843zM11.158 20l5-5h-1.414l-5 5h1.414zM14.157 29h-1.414l-2 2h1.414l2-2zM26.157 21h-1.414l-3.19 3.19c0.264 0.18 0.447 0.467 0.447 0.81v0.157l4.157-4.157zM18.157 29h-1.414l-2 2h1.414l2-2z"></path>
<path fill="#265aa5" style="fill: var(--color2, #265aa5)" d="M13.722 11c-0.12 0-0.24-0.043-0.334-0.128l-2.222-2c-0.205-0.185-0.222-0.501-0.037-0.706s0.501-0.222 0.706-0.037l1.912 1.721 7.448-5.746c0.219-0.168 0.533-0.128 0.701 0.091 0.168 0.218 0.128 0.532-0.091 0.701l-7.778 6c-0.089 0.069-0.197 0.104-0.305 0.104z"></path>
<path fill="#265aa5" style="fill: var(--color2, #265aa5)" d="M31 14h-7v-12c0-0.552-0.448-1-1-1h-14c-0.552 0-1 0.448-1 1v12h-7c-0.552 0-1 0.448-1 1v5c0 0.552 0.448 1 1 1v10c0 0.552 0.448 1 1 1h28c0.552 0 1-0.448 1-1v-10c0.552 0 1-0.448 1-1v-5c0-0.552-0.448-1-1-1zM9 2h14v12h-14v-12zM30 31h-28v-10h28v10zM31 20h-30v-5h30v5z"></path>
<path fill="#265aa5" style="fill: var(--color2, #265aa5)" d="M11 29h10c0.552 0 1-0.448 1-1v-3c0-0.552-0.448-1-1-1h-10c-0.552 0-1 0.448-1 1v3c0 0.552 0.448 1 1 1zM11 25h10v3h-10v-3z"></path>
</symbol>
</defs>
</svg>
