<?xml version="1.0" encoding="utf-8"?>
<!-- Generated by IcoMoon.io -->
<svg version="1.1" xmlns="http://www.w3.org/2000/svg" xmlns:xlink="http://www.w3.org/1999/xlink" width="752" height="32" viewBox="0 0 752 32">
<svg id="icon-coach" viewBox="0 0 32 32" x="0" y="0">
<path fill="#ededed" d="M28.175 23.025c-0.131 0.238-0.381 0.363-0.631 0.363-0.125 0-0.25-0.031-0.363-0.1l-10.45-6.037v12.069c0 0.4-0.325 0.731-0.731 0.731-0.4 0-0.731-0.325-0.731-0.731v-12.056l-10.45 6.031c-0.112 0.063-0.237 0.1-0.362 0.1-0.25 0-0.5-0.131-0.631-0.363-0.2-0.35-0.081-0.794 0.269-0.994l10.45-6.037-10.45-6.037c-0.35-0.2-0.469-0.644-0.269-0.994s0.65-0.469 0.994-0.269l10.45 6.037v-12.069c0-0.4 0.325-0.731 0.731-0.731 0.4 0 0.731 0.325 0.731 0.731v12.069l10.45-6.037c0.35-0.2 0.794-0.081 0.994 0.269s0.081 0.794-0.269 0.994l-10.456 6.037 10.456 6.038c0.35 0.194 0.469 0.644 0.269 0.988z"></path>
<path fill="#fff" d="M23.8 16c0 4.306-3.494 7.8-7.8 7.8s-7.8-3.494-7.8-7.8c0-4.306 3.494-7.8 7.8-7.8s7.8 3.494 7.8 7.8z"></path>
<path fill="#ededed" d="M23.8 16c0 4.306-3.488 7.8-7.8 7.8-2.713 0-5.1-1.387-6.494-3.488 1.238 0.825 2.713 1.3 4.313 1.3 4.306 0 7.8-3.488 7.8-7.794 0-1.594-0.481-3.081-1.3-4.319 2.094 1.4 3.481 3.787 3.481 6.5z"></path>
<path fill="#bd90be" d="M20.919 19.8v2.25c-1.344 1.094-3.056 1.75-4.925 1.75-1.863 0-3.575-0.656-4.919-1.75v-2.25c0-1.738 1.406-3.15 3.144-3.15h3.55c1.744 0.006 3.15 1.413 3.15 3.15z"></path>
<path fill="#d3b5d3" d="M20.919 19.8v1.212c0-1.738-1.406-3.144-3.144-3.144h-3.55c-1.738 0-3.144 1.413-3.144 3.144v-1.212c0-1.738 1.406-3.15 3.144-3.15h3.55c1.738 0.006 3.144 1.413 3.144 3.15z"></path>
<path fill="#fee8b3" d="M18.225 12.981v2.156c0 1.137-0.925 2.063-2.063 2.063s-2.063-0.925-2.063-2.063v-2.156h4.125z"></path>
<path fill="#fff4d9" d="M14.1 12.981h4.125v0.831h-4.125v-0.831z"></path>
<path fill="#516468" d="M19.669 10.694l-1.444 2.287h-4.125v-1.319c0-0.531 0.438-0.969 0.969-0.969h4.6z"></path>
<path fill="#7c8b8d" d="M19.669 10.694l-0.594 0.944h-4.006c-0.531 0-0.969 0.438-0.969 0.969v-0.944c0-0.531 0.438-0.969 0.969-0.969h4.6z"></path>
<path fill="#fb8a8a" d="M18.425 2.669c0 1.337-1.087 2.425-2.425 2.425-1.344 0-2.425-1.088-2.425-2.425 0-1.344 1.088-2.425 2.425-2.425s2.425 1.087 2.425 2.425z"></path>
<path fill="#fb8a8a" d="M18.425 29.331c0 1.337-1.087 2.425-2.425 2.425-1.344 0-2.425-1.087-2.425-2.425 0-1.344 1.088-2.425 2.425-2.425 1.337-0.006 2.425 1.081 2.425 2.425z"></path>
<path fill="#fddd8d" d="M5.669 7.231c1.163 0.669 1.556 2.156 0.888 3.319s-2.156 1.556-3.319 0.887c-1.163-0.669-1.556-2.156-0.887-3.319 0.675-1.156 2.156-1.556 3.319-0.888z"></path>
<path fill="#fddd8d" d="M28.756 20.563c1.163 0.669 1.556 2.156 0.887 3.319s-2.156 1.556-3.319 0.887c-1.163-0.669-1.556-2.156-0.887-3.319 0.675-1.156 2.156-1.556 3.319-0.887z"></path>
<path fill="#7bde9e" d="M3.244 20.563c1.163-0.669 2.644-0.269 3.319 0.887 0.669 1.163 0.269 2.644-0.888 3.319-1.169 0.669-2.65 0.269-3.319-0.894-0.675-1.156-0.275-2.644 0.887-3.313z"></path>
<path fill="#7bde9e" d="M26.331 7.231c1.163-0.669 2.644-0.269 3.319 0.888 0.669 1.162 0.269 2.644-0.887 3.319-1.163 0.669-2.644 0.275-3.319-0.887s-0.275-2.644 0.887-3.319z"></path>
<path fill="#f96363" d="M18.425 2.669c0 1.337-1.087 2.425-2.425 2.425-1.025 0-1.894-0.631-2.25-1.519 0.281 0.112 0.588 0.175 0.906 0.175 1.338 0 2.425-1.087 2.425-2.425 0-0.319-0.063-0.631-0.175-0.906 0.887 0.356 1.519 1.231 1.519 2.25z"></path>
<path fill="#f96363" d="M18.425 29.331c0 1.337-1.087 2.425-2.425 2.425-1.025 0-1.894-0.631-2.25-1.525 0.281 0.113 0.588 0.175 0.906 0.175 1.338 0 2.425-1.087 2.425-2.425 0-0.319-0.063-0.625-0.175-0.906 0.894 0.363 1.519 1.231 1.519 2.256z"></path>
<path fill="#fdd267" d="M6.556 10.55c-0.669 1.162-2.156 1.556-3.319 0.887-0.487-0.281-0.844-0.706-1.038-1.194 1.106 0.444 2.394 0.019 3.006-1.037 0.388-0.675 0.419-1.45 0.15-2.119 0.106 0.044 0.206 0.088 0.306 0.15 1.169 0.669 1.563 2.15 0.894 3.313z"></path>
<path fill="#fdd267" d="M29.644 23.875c-0.669 1.163-2.156 1.556-3.319 0.887-0.488-0.281-0.844-0.712-1.038-1.194 1.1 0.444 2.394 0.025 3.006-1.038 0.387-0.669 0.419-1.45 0.15-2.119 0.106 0.044 0.206 0.094 0.306 0.15 1.169 0.669 1.563 2.156 0.894 3.313z"></path>
<path fill="#50d27e" d="M5.669 24.769c-1.163 0.669-2.644 0.269-3.313-0.894-0.056-0.1-0.106-0.2-0.15-0.306 0.669 0.269 1.444 0.238 2.119-0.15 1.063-0.613 1.481-1.906 1.038-3.006 0.487 0.194 0.912 0.544 1.194 1.038 0.669 1.163 0.275 2.644-0.888 3.319z"></path>
<path fill="#50d27e" d="M28.756 11.438c-1.163 0.675-2.644 0.275-3.319-0.887-0.056-0.1-0.106-0.2-0.15-0.306 0.669 0.269 1.45 0.238 2.119-0.15 1.056-0.613 1.481-1.906 1.038-3.006 0.488 0.194 0.913 0.55 1.194 1.037 0.675 1.156 0.281 2.644-0.881 3.313z"></path>
<path fill="#333" d="M28.881 20.35c-0.981-0.563-2.163-0.444-3.006 0.231l-2.475-1.431c0.413-0.969 0.644-2.031 0.644-3.15s-0.231-2.188-0.644-3.156l2.481-1.431c0.837 0.669 2.025 0.794 3.006 0.231 1.281-0.738 1.712-2.369 0.975-3.65-0.738-1.275-2.369-1.713-3.65-0.975-0.975 0.563-1.469 1.644-1.306 2.719l-2.481 1.431c-1.281-1.706-3.231-2.881-5.45-3.15v-2.862c0.994-0.388 1.7-1.356 1.7-2.487-0.006-1.469-1.206-2.669-2.675-2.669s-2.669 1.2-2.669 2.669c0 1.131 0.706 2.094 1.7 2.487v2.862c-2.225 0.269-4.169 1.444-5.456 3.15l-2.481-1.431c0.162-1.056-0.325-2.15-1.3-2.713-1.281-0.737-2.906-0.3-3.65 0.975-0.738 1.275-0.3 2.912 0.975 3.65 0.981 0.569 2.169 0.438 3.006-0.231l2.475 1.431c-0.412 0.969-0.644 2.031-0.644 3.15s0.231 2.181 0.644 3.15l-2.475 1.431c-0.831-0.669-2.025-0.794-3-0.231-1.275 0.738-1.712 2.375-0.975 3.65 0.731 1.269 2.369 1.712 3.65 0.975 0.975-0.563 1.462-1.656 1.3-2.712l2.481-1.431c1.281 1.706 3.231 2.881 5.45 3.15v2.869c-0.994 0.387-1.7 1.356-1.7 2.488 0 1.475 1.2 2.669 2.669 2.669s2.669-1.2 2.669-2.669c0-1.131-0.706-2.094-1.7-2.488v-2.863c2.225-0.269 4.169-1.444 5.456-3.15l2.481 1.431c-0.163 1.056 0.325 2.15 1.3 2.712 1.275 0.738 2.906 0.3 3.65-0.975 0.738-1.281 0.3-2.919-0.975-3.656zM26.45 7.444c1.050-0.606 2.387-0.237 2.981 0.8 0.606 1.044 0.244 2.381-0.8 2.981s-2.381 0.25-2.981-0.8c-0.6-1.044-0.25-2.375 0.8-2.981zM25.025 10.225c0.056 0.15 0.119 0.3 0.206 0.444 0.081 0.144 0.175 0.275 0.281 0.4l-2.325 1.338c-0.144-0.294-0.306-0.569-0.488-0.838l2.325-1.344zM13.813 2.669c0-1.206 0.981-2.188 2.188-2.188s2.188 0.981 2.188 2.188-0.981 2.188-2.188 2.188-2.188-0.981-2.188-2.188zM16 5.344c0.169 0 0.325-0.019 0.488-0.044v2.681c-0.163-0.006-0.325-0.013-0.488-0.013s-0.325 0.006-0.488 0.013v-2.688c0.156 0.031 0.319 0.050 0.488 0.050zM3.362 11.225c-1.044-0.606-1.406-1.938-0.8-2.981 0.6-1.044 1.938-1.406 2.981-0.8 1.044 0.6 1.4 1.944 0.8 2.981-0.6 1.050-1.938 1.406-2.981 0.8zM6.487 11.069c0.106-0.125 0.2-0.256 0.281-0.4s0.15-0.294 0.2-0.444l2.325 1.338c-0.175 0.269-0.338 0.55-0.488 0.838l-2.319-1.331zM5.55 24.556c-1.050 0.606-2.381 0.244-2.981-0.8s-0.244-2.381 0.8-2.981c1.044-0.6 2.381-0.25 2.981 0.8 0.6 1.038 0.244 2.381-0.8 2.981zM6.969 21.775c-0.056-0.15-0.119-0.3-0.2-0.444s-0.181-0.275-0.281-0.394l2.319-1.344c0.144 0.294 0.306 0.569 0.488 0.837l-2.325 1.344zM18.181 29.331c0 1.206-0.981 2.188-2.188 2.188s-2.188-0.981-2.188-2.188 0.981-2.188 2.188-2.188 2.188 0.981 2.188 2.188zM16 26.656c-0.169 0-0.331 0.019-0.488 0.044v-2.681c0.162 0.012 0.325 0.012 0.488 0.012s0.325-0.006 0.488-0.012v2.681c-0.163-0.025-0.325-0.044-0.488-0.044zM20.675 21.925c-0.569 0.45-1.206 0.825-1.894 1.1v-3.337c0-0.137-0.106-0.244-0.244-0.244-0.131 0-0.244 0.106-0.244 0.244v3.512c-0.725 0.231-1.5 0.356-2.3 0.356s-1.575-0.125-2.294-0.356v-3.512c0-0.137-0.106-0.244-0.244-0.244-0.131 0-0.244 0.106-0.244 0.244v3.337c-0.688-0.275-1.325-0.644-1.894-1.094v-2.125c0-1.6 1.3-2.906 2.9-2.906h0.456c0.4 0.337 0.919 0.544 1.487 0.544s1.087-0.206 1.488-0.544h0.125c1.6 0 2.906 1.306 2.906 2.906v2.119zM17.981 13.225v1.912c0 1-0.819 1.819-1.819 1.819s-1.819-0.819-1.819-1.819v-1.912h3.638zM14.344 12.738v-1.075c0-0.4 0.325-0.725 0.725-0.725h4.156l-1.137 1.8h-3.744zM21.163 21.506v-1.706c0-1.769-1.363-3.225-3.087-3.375 0.25-0.369 0.394-0.813 0.394-1.287v-2.088l1.406-2.231c0.050-0.075 0.050-0.169 0.006-0.244s-0.125-0.125-0.212-0.125h-4.6c-0.669 0-1.213 0.544-1.213 1.213v3.475c0 0.469 0.144 0.906 0.387 1.275h-0.019c-1.869 0-3.381 1.525-3.381 3.394v1.706c-1.469-1.381-2.394-3.337-2.394-5.506 0-4.169 3.387-7.556 7.556-7.556s7.55 3.381 7.55 7.55c0 2.175-0.925 4.131-2.394 5.506zM22.706 20.431c0.175-0.269 0.337-0.55 0.488-0.837l2.325 1.337c-0.106 0.125-0.2 0.256-0.281 0.394-0.081 0.144-0.15 0.294-0.2 0.444l-2.331-1.337zM29.438 23.756c-0.606 1.044-1.938 1.406-2.981 0.8s-1.406-1.938-0.8-2.981c0.606-1.044 1.938-1.406 2.981-0.8 1.044 0.6 1.4 1.938 0.8 2.981z"></path>
</svg>
<svg id="icon-ec2"  viewBox="0 0 32 32" x="0" y="0">
<path fill="#d3d8d9" d="M14.875 22.262h2.244v9.488h-2.244v-9.488z"></path>
<path fill="#d3d8d9" d="M29.025 31.75h-2.244l-4.419-9.488h2.25z"></path>
<path fill="#d3d8d9" d="M9.637 22.262l-4.419 9.488h-2.244l4.412-9.488z"></path>
<path fill="#ededed" d="M14.875 22.262h2.244v1.606h-2.244v-1.606z"></path>
<path fill="#ededed" d="M25.356 23.869h-2.244l-0.75-1.606h2.25z"></path>
<path fill="#a8b1b3" d="M29.025 31.75h-2.244l-0.75-1.606h2.244z"></path>
<path fill="#a8b1b3" d="M2.975 31.75h2.244l0.75-1.606h-2.244z"></path>
<path fill="#ededed" d="M9.637 22.262l-0.75 1.606h-2.244l0.744-1.606z"></path>
<path fill="#a8b1b3" d="M14.875 30.144h2.244v1.606h-2.244v-1.606z"></path>
<path fill="#fff" d="M3.244 3.038h25.512v16.431h-25.512v-16.431z"></path>
<path fill="#fb8a8a" d="M30.387 0.738v1.819c0 0.269-0.219 0.487-0.488 0.487h-27.8c-0.269 0-0.488-0.219-0.488-0.487v-1.819c0-0.269 0.219-0.487 0.488-0.487h27.806c0.269 0 0.481 0.219 0.481 0.487z"></path>
<path fill="#fcb1b1" d="M30.387 0.738v0.887c0-0.269-0.219-0.488-0.488-0.488h-27.8c-0.269 0-0.488 0.219-0.488 0.488v-0.887c0-0.269 0.219-0.487 0.488-0.487h27.806c0.269 0 0.481 0.219 0.481 0.487z"></path>
<path fill="#f96363" d="M30.387 1.663v0.887c0 0.269-0.219 0.487-0.488 0.487h-27.8c-0.269 0-0.488-0.219-0.488-0.487v-0.887c0 0.269 0.219 0.488 0.488 0.488h27.806c0.269 0 0.481-0.219 0.481-0.488z"></path>
<path fill="#fb8a8a" d="M30.387 19.962v1.819c0 0.269-0.219 0.488-0.488 0.488h-27.8c-0.269 0-0.488-0.219-0.488-0.488v-1.819c0-0.269 0.219-0.488 0.488-0.488h27.806c0.269 0 0.481 0.212 0.481 0.488z"></path>
<path fill="#fcb1b1" d="M30.387 19.962v0.887c0-0.269-0.219-0.488-0.488-0.488h-27.8c-0.269 0-0.488 0.219-0.488 0.488v-0.887c0-0.269 0.219-0.488 0.488-0.488h27.806c0.269 0 0.481 0.212 0.481 0.488z"></path>
<path fill="#f96363" d="M30.387 20.887v0.887c0 0.269-0.219 0.488-0.488 0.488h-27.8c-0.269 0-0.488-0.219-0.488-0.488v-0.887c0 0.269 0.219 0.488 0.488 0.488h27.806c0.269 0 0.481-0.219 0.481-0.488z"></path>
<path fill="#7ad1f9" d="M10.844 16.131c0 0.65-0.525 1.175-1.175 1.175s-1.181-0.525-1.181-1.175c0-0.65 0.525-1.175 1.181-1.175 0.65-0.006 1.175 0.525 1.175 1.175z"></path>
<path fill="#fddd8d" d="M23.813 16.131c0 0.65-0.525 1.175-1.175 1.175s-1.181-0.525-1.181-1.175c0-0.65 0.525-1.175 1.181-1.175 0.65-0.006 1.175 0.525 1.175 1.175z"></path>
<path fill="#7bde9e" d="M14.875 8.119c0 0.65-0.525 1.175-1.175 1.175s-1.181-0.525-1.181-1.175c0-0.65 0.525-1.175 1.181-1.175 0.65-0.006 1.175 0.525 1.175 1.175z"></path>
<path fill="#4cc3f7" d="M10.85 16.125c0 0.65-0.525 1.175-1.175 1.175-0.506 0-0.938-0.319-1.106-0.762 0.125 0.050 0.269 0.075 0.412 0.075 0.65 0 1.175-0.525 1.175-1.175 0-0.144-0.025-0.287-0.075-0.412 0.444 0.162 0.769 0.6 0.769 1.1z"></path>
<path fill="#fdd267" d="M23.813 16.125c0 0.65-0.525 1.175-1.175 1.175-0.506 0-0.938-0.319-1.106-0.762 0.131 0.050 0.269 0.075 0.413 0.075 0.65 0 1.175-0.525 1.175-1.175 0-0.144-0.025-0.287-0.075-0.412 0.456 0.169 0.769 0.6 0.769 1.1z"></path>
<path fill="#50d27e" d="M14.875 8.119c0 0.65-0.525 1.175-1.175 1.175-0.506 0-0.938-0.319-1.106-0.762 0.125 0.050 0.269 0.075 0.412 0.075 0.65 0 1.175-0.525 1.175-1.175 0-0.144-0.025-0.287-0.075-0.412 0.456 0.162 0.769 0.594 0.769 1.1z"></path>
<path fill="#333" d="M29.9 3.288c0.406 0 0.738-0.331 0.738-0.738v-1.813c0-0.406-0.331-0.738-0.738-0.738h-27.8c-0.406 0-0.738 0.331-0.738 0.738v1.819c0 0.406 0.331 0.738 0.738 0.738h0.894v15.931h-0.894c-0.406 0-0.738 0.331-0.738 0.738v1.819c0 0.406 0.331 0.738 0.738 0.738h4.9l-4.25 9.125c-0.038 0.075-0.031 0.169 0.013 0.238 0.050 0.069 0.125 0.113 0.212 0.113h2.244c0.1 0 0.188-0.056 0.225-0.144l4.35-9.344h4.831v9.244c0 0.137 0.113 0.25 0.25 0.25h2.244c0.137 0 0.25-0.113 0.25-0.25v-9.238h4.838l4.35 9.344c0.038 0.087 0.131 0.144 0.225 0.144h2.244c0.087 0 0.163-0.044 0.212-0.113 0.044-0.075 0.050-0.163 0.012-0.238l-4.25-9.131h4.9c0.406 0 0.738-0.331 0.738-0.738v-1.819c0-0.406-0.331-0.738-0.738-0.738h-0.894v-15.938h0.894zM1.863 2.556v-1.819c0-0.131 0.106-0.237 0.238-0.237h27.806c0.131 0 0.238 0.106 0.238 0.237v1.819c0 0.131-0.106 0.237-0.238 0.237h-27.806c-0.131-0.006-0.238-0.106-0.238-0.237zM5.063 31.5h-1.694l4.181-8.988h1.694l-4.181 8.988zM16.869 31.5h-1.744v-8.988h1.744v8.988zM28.631 31.5h-1.694l-4.181-8.988h1.694l4.181 8.988zM30.137 19.962v1.819c0 0.131-0.106 0.238-0.238 0.238h-27.8c-0.131 0-0.238-0.106-0.238-0.238v-1.819c0-0.131 0.106-0.238 0.238-0.238h27.806c0.125 0 0.231 0.106 0.231 0.238zM28.506 19.225h-25.012v-15.938h25.012v15.938z"></path>
<path fill="#333" d="M8.313 7.475c0.1 0.1 0.256 0.1 0.356 0l0.7-0.7 0.7 0.7c0.1 0.1 0.256 0.1 0.356 0s0.1-0.256 0-0.356l-0.7-0.7 0.7-0.7c0.1-0.1 0.1-0.256 0-0.356s-0.256-0.1-0.356 0l-0.7 0.7-0.7-0.688c-0.1-0.1-0.256-0.1-0.356 0s-0.1 0.256 0 0.356l0.7 0.7-0.7 0.694c-0.1 0.094-0.1 0.256 0 0.35z"></path>
<path fill="#333" d="M21.587 12.5c0.1 0.1 0.256 0.1 0.356 0l0.7-0.7 0.7 0.7c0.1 0.1 0.256 0.1 0.356 0s0.1-0.256 0-0.356l-0.7-0.7 0.688-0.694c0.1-0.1 0.1-0.256 0-0.356s-0.256-0.1-0.356 0l-0.7 0.7-0.694-0.7c-0.1-0.1-0.256-0.1-0.356 0s-0.1 0.256 0 0.356l0.7 0.7-0.7 0.7c-0.094 0.094-0.094 0.25 0.006 0.35z"></path>
<path fill="#333" d="M17.206 15.075c-0.1-0.1-0.256-0.1-0.356 0l-0.7 0.7-0.7-0.7c-0.1-0.1-0.256-0.1-0.356 0s-0.1 0.256 0 0.356l0.7 0.7-0.7 0.7c-0.1 0.1-0.1 0.256 0 0.356s0.256 0.1 0.356 0l0.7-0.7 0.7 0.7c0.1 0.1 0.256 0.1 0.356 0s0.1-0.256 0-0.356l-0.7-0.7 0.7-0.7c0.094-0.1 0.094-0.256 0-0.356z"></path>
<path fill="#333" d="M9.419 12.9v1.825c-0.669 0.119-1.181 0.7-1.181 1.406 0 0.788 0.644 1.425 1.431 1.425s1.425-0.637 1.425-1.425c0-0.7-0.512-1.287-1.175-1.406v-1.825c0-0.769 0.625-1.4 1.4-1.4h4c1.050 0 1.9-0.85 1.9-1.9v-1.181c0-0.775 0.631-1.4 1.4-1.4h4.294l-1.137 1.137c-0.1 0.1-0.1 0.256 0 0.356s0.256 0.1 0.356 0l1.563-1.563c0.050-0.050 0.075-0.112 0.075-0.175 0-0.069-0.025-0.131-0.075-0.175l-1.563-1.563c-0.1-0.1-0.256-0.1-0.356 0s-0.1 0.256 0 0.356l1.137 1.138h-4.294c-1.050 0-1.9 0.85-1.9 1.9v1.181c0 0.769-0.625 1.4-1.4 1.4h-4c-1.050-0.012-1.9 0.838-1.9 1.887zM10.594 16.131c0 0.512-0.419 0.925-0.925 0.925-0.512 0-0.931-0.419-0.931-0.925 0-0.512 0.419-0.925 0.931-0.925 0.512-0.006 0.925 0.412 0.925 0.925z"></path>
<path fill="#333" d="M22.637 14.7c-0.788 0-1.431 0.637-1.431 1.425s0.644 1.425 1.431 1.425c0.788 0 1.425-0.637 1.425-1.425 0-0.781-0.637-1.425-1.425-1.425zM22.637 17.056c-0.512 0-0.931-0.419-0.931-0.925 0-0.512 0.419-0.925 0.931-0.925s0.925 0.419 0.925 0.925c0 0.506-0.413 0.925-0.925 0.925z"></path>
<path fill="#333" d="M13.7 9.544c0.787 0 1.425-0.637 1.425-1.425s-0.637-1.431-1.425-1.431c-0.787 0-1.431 0.638-1.431 1.425s0.644 1.431 1.431 1.431zM13.7 7.188c0.512 0 0.925 0.419 0.925 0.925 0 0.512-0.419 0.925-0.925 0.925-0.512 0-0.931-0.419-0.931-0.925s0.419-0.925 0.931-0.925z"></path>
</svg>
<svg id="icon-ecoach"  viewBox="0 0 32 32" x="0" y="0">
<path fill="#fb8a8a" d="M31.75 14.019v3.962c0 0.369-0.3 0.669-0.669 0.669h-2.488c-1.044 4.981-4.969 8.906-9.95 9.95v2.488c0 0.369-0.3 0.669-0.669 0.669h-3.963c-0.369 0-0.669-0.3-0.669-0.669v-2.488c-4.981-1.044-8.906-4.969-9.95-9.95h-2.475c-0.369 0-0.669-0.3-0.669-0.669v-3.963c0-0.369 0.3-0.669 0.669-0.669h2.487c1.044-4.987 4.963-8.906 9.95-9.95v-2.481c0-0.369 0.3-0.669 0.669-0.669h3.963c0.369 0 0.669 0.3 0.669 0.669v2.481c4.981 1.044 8.906 4.963 9.95 9.95h2.488c0.356 0 0.656 0.3 0.656 0.669z"></path>
<path fill="#fcb1b1" d="M20.762 5.775c0 8.275-6.713 14.988-14.988 14.988-0.6 0-1.188-0.038-1.775-0.106-0.25-0.644-0.45-1.313-0.6-2.006h-2.481c-0.369 0-0.669-0.3-0.669-0.669v-3.963c0-0.369 0.3-0.669 0.669-0.669h2.487c1.037-4.987 4.963-8.906 9.944-9.95v-2.481c0-0.369 0.3-0.669 0.669-0.669h3.962c0.369 0 0.669 0.3 0.669 0.669v2.481c0.694 0.144 1.363 0.344 2.006 0.6 0.069 0.581 0.106 1.175 0.106 1.775z"></path>
<path fill="#f96363" d="M31.75 14.019v3.962c0 0.369-0.3 0.669-0.669 0.669h-2.488c-1.044 4.981-4.969 8.906-9.95 9.95v2.488c0 0.369-0.3 0.669-0.669 0.669h-3.963c-0.369 0-0.669-0.3-0.669-0.669v-2.488c-2.494-0.525-4.725-1.762-6.456-3.5 0.644 0.075 1.3 0.119 1.962 0.119 9.038 0 16.356-7.319 16.356-16.35 0-0.669-0.038-1.325-0.119-1.969 1.738 1.738 2.981 3.963 3.5 6.456h2.488c0.375-0.006 0.675 0.294 0.675 0.662z"></path>
<path fill="#fff" d="M26.119 16c0 5.587-4.531 10.119-10.119 10.119s-10.119-4.531-10.119-10.119c0-5.594 4.531-10.119 10.119-10.119s10.119 4.531 10.119 10.119z"></path>
<path fill="#ededed" d="M26.119 16c0 5.594-4.531 10.119-10.125 10.119-3.519 0-6.619-1.8-8.425-4.525 1.6 1.075 3.525 1.688 5.594 1.688 5.594 0 10.119-4.531 10.119-10.119 0-2.069-0.619-3.994-1.688-5.6 2.731 1.819 4.525 4.919 4.525 8.438z"></path>
<path fill="#bd90be" d="M22.381 20.931v2.919c-1.744 1.419-3.962 2.269-6.387 2.269-2.419 0-4.644-0.85-6.381-2.269v-2.919c0-2.256 1.825-4.087 4.081-4.087h4.613c2.256 0.006 4.075 1.831 4.075 4.087z"></path>
<path fill="#d3b5d3" d="M22.381 20.931v1.569c0-2.256-1.825-4.081-4.081-4.081h-4.613c-2.256 0-4.081 1.831-4.081 4.081v-1.569c0-2.256 1.825-4.087 4.081-4.087h4.613c2.256 0.006 4.081 1.831 4.081 4.087z"></path>
<path fill="#fee8b3" d="M18.887 12.081v2.8c0 1.475-1.2 2.675-2.675 2.675s-2.675-1.2-2.675-2.675v-2.8h5.35z"></path>
<path fill="#fff4d9" d="M13.537 12.081h5.35v1.081h-5.35v-1.081z"></path>
<path fill="#516468" d="M20.756 9.119l-1.875 2.969h-5.35v-1.713c0-0.694 0.569-1.256 1.256-1.256h5.969z"></path>
<path fill="#7c8b8d" d="M20.756 9.119l-0.769 1.225h-5.194c-0.694 0-1.256 0.569-1.256 1.256v-1.225c0-0.694 0.569-1.256 1.256-1.256h5.963z"></path>
<path fill="#333" d="M31.081 13.1h-2.288c-1.113-4.938-4.963-8.794-9.9-9.9v-2.281c0-0.506-0.413-0.919-0.919-0.919h-3.963c-0.506 0-0.919 0.412-0.919 0.919v2.281c-4.925 1.112-8.781 4.963-9.894 9.9h-2.281c-0.506 0-0.919 0.412-0.919 0.919v3.963c0 0.506 0.412 0.919 0.919 0.919h2.281c1.112 4.938 4.969 8.794 9.9 9.9v2.288c0 0.506 0.412 0.919 0.919 0.919h3.962c0.506 0 0.919-0.413 0.919-0.919v-2.288c4.938-1.113 8.794-4.969 9.9-9.9h2.288c0.506 0 0.919-0.413 0.919-0.919v-3.963c-0.006-0.506-0.419-0.919-0.925-0.919zM31.5 17.981c0 0.231-0.188 0.419-0.419 0.419h-2.488c-0.119 0-0.219 0.081-0.244 0.2-1.025 4.9-4.85 8.725-9.756 9.75-0.119 0.025-0.2 0.125-0.2 0.244v2.488c0 0.231-0.188 0.419-0.419 0.419h-3.963c-0.231 0-0.419-0.188-0.419-0.419v-2.488c0-0.119-0.081-0.219-0.2-0.244-4.894-1.025-8.725-4.85-9.75-9.756-0.025-0.119-0.125-0.2-0.244-0.2h-2.481c-0.231 0-0.419-0.188-0.419-0.419v-3.963c0-0.231 0.188-0.419 0.419-0.419h2.487c0.119 0 0.219-0.081 0.244-0.2 1.025-4.894 4.85-8.725 9.75-9.75 0.119-0.025 0.2-0.125 0.2-0.244v-2.481c0-0.231 0.188-0.419 0.419-0.419h3.962c0.231 0 0.419 0.188 0.419 0.419v2.481c0 0.119 0.081 0.219 0.2 0.244 4.9 1.025 8.731 4.856 9.756 9.756 0.025 0.119 0.125 0.2 0.244 0.2h2.488c0.231 0 0.419 0.188 0.419 0.419v3.962z"></path>
<path fill="#333" d="M16 5.631c-5.719 0-10.369 4.65-10.369 10.369s4.65 10.369 10.369 10.369c5.719 0 10.369-4.65 10.369-10.369s-4.656-10.369-10.369-10.369zM12.956 25.387v-4.6c0-0.137-0.113-0.25-0.25-0.25s-0.25 0.113-0.25 0.25v4.425c-0.938-0.363-1.813-0.869-2.588-1.481v-2.788c0-2.113 1.713-3.837 3.825-3.837h0.619c0.512 0.438 1.175 0.706 1.9 0.706s1.387-0.269 1.9-0.706h0.188c2.113 0 3.831 1.719 3.831 3.837v2.788c-0.775 0.619-1.65 1.119-2.587 1.488v-4.425c0-0.137-0.113-0.25-0.25-0.25s-0.25 0.113-0.25 0.25v4.6c-0.962 0.313-1.988 0.481-3.050 0.481-1.056-0.006-2.081-0.175-3.037-0.488zM18.637 12.331v2.55c0 1.337-1.087 2.425-2.425 2.425s-2.425-1.087-2.425-2.425v-2.55h4.85zM13.787 11.831v-1.463c0-0.556 0.45-1.006 1.006-1.006h5.512l-1.556 2.469h-4.963zM22.631 23.3v-2.363c0-2.3-1.806-4.188-4.075-4.325 0.363-0.488 0.575-1.081 0.575-1.731v-2.725l1.837-2.906c0.050-0.075 0.050-0.175 0.006-0.25-0.044-0.081-0.125-0.131-0.219-0.131h-5.969c-0.831 0-1.506 0.675-1.506 1.506v4.513c0 0.644 0.213 1.238 0.563 1.719h-0.156c-2.388 0-4.325 1.944-4.325 4.337v2.369c-1.987-1.806-3.237-4.413-3.237-7.3 0-5.444 4.425-9.869 9.869-9.869s9.869 4.425 9.869 9.869c0.006 2.875-1.244 5.481-3.231 7.287z"></path>
</svg>
<svg id="icon-psiholog"  viewBox="0 0 32 32" x="0" y="0">
<path fill="#d3d8d9" d="M27.694 12.631v2.681c0 0.469-0.387 0.856-0.863 0.856h-1.563c-0.3 1.544-0.906 2.981-1.756 4.238 0 0 0 0 0 0l1.106 1.106c0.337 0.337 0.337 0.881 0 1.212l-1.887 1.9c-0.337 0.337-0.881 0.331-1.219 0l-1.106-1.106c-1.256 0.85-2.694 1.456-4.238 1.756v1.569c0 0.469-0.381 0.856-0.863 0.856h-2.675c-0.469 0-0.856-0.381-0.856-0.856v-1.569c-1.544-0.294-2.981-0.906-4.237-1.756 0 0 0 0-0.006 0l-1.106 1.106c-0.338 0.337-0.881 0.337-1.213 0l-1.894-1.894c-0.331-0.331-0.337-0.881 0-1.212l1.106-1.106c-0.844-1.256-1.456-2.694-1.75-4.238h-1.569c-0.475-0.006-0.856-0.394-0.856-0.863v-2.681c0-0.469 0.381-0.856 0.856-0.856h1.569c0.3-1.544 0.906-2.981 1.756-4.237l-1.106-1.106c-0.337-0.338-0.337-0.881 0-1.213l1.894-1.894c0.338-0.337 0.881-0.337 1.219 0l1.106 1.112c0 0 0 0 0 0 1.256-0.85 2.694-1.456 4.237-1.756v-1.575c0-0.475 0.381-0.856 0.856-0.856h2.675c0.475 0 0.856 0.381 0.856 0.856v1.569c1.544 0.294 2.975 0.906 4.231 1.756l1.106-1.106c0.337-0.337 0.881-0.337 1.212 0l1.894 1.888c0.337 0.338 0.337 0.881 0 1.219l-1.113 1.106c0.006 0 0.006 0 0.006 0 0.85 1.263 1.456 2.694 1.75 4.237h1.569c0.488 0 0.869 0.387 0.869 0.856z"></path>
<path fill="#ededed" d="M17.95 5.925c0 6.594-5.344 11.944-11.944 11.944-1.031 0-2.031-0.131-2.987-0.375-0.138-0.431-0.256-0.875-0.337-1.325h-1.575c-0.475 0-0.856-0.387-0.856-0.856v-2.681c0-0.469 0.381-0.856 0.863-0.856h1.569c0.3-1.55 0.906-2.981 1.756-4.237l-1.106-1.106c-0.337-0.338-0.337-0.875 0-1.213l1.894-1.894c0.338-0.337 0.875-0.337 1.213 0l1.106 1.112c0 0 0 0 0 0 1.256-0.85 2.694-1.456 4.237-1.75v-1.581c0-0.475 0.381-0.856 0.856-0.856h2.675c0.475 0 0.856 0.387 0.856 0.856v1.569c0.488 0.094 0.962 0.219 1.431 0.369 0.231 0.925 0.35 1.887 0.35 2.881z"></path>
<path fill="#a8b1b3" d="M27.7 12.631v2.681c0 0.469-0.387 0.85-0.863 0.85h-1.563c-0.3 1.544-0.906 2.981-1.756 4.238 0 0 0 0 0 0l1.113 1.106c0.337 0.337 0.337 0.875 0 1.212l-1.9 1.906c-0.337 0.337-0.881 0.331-1.219 0l-1.106-1.106c-1.256 0.85-2.694 1.462-4.238 1.756v1.569c0 0.469-0.387 0.856-0.863 0.856h-2.675c-0.469 0-0.856-0.381-0.856-0.856v-1.569c-1.363-0.262-2.644-0.769-3.787-1.469 8.225-1.056 14.75-7.531 15.869-15.731 0.675 1.125 1.156 2.375 1.413 3.7h1.569c0.475 0 0.863 0.387 0.863 0.856z"></path>
<path fill="#7bde9e" d="M13.975 5.225c4.831 0 8.75 3.919 8.75 8.75s-3.919 8.75-8.75 8.75c-4.831 0-8.75-3.919-8.75-8.75 0-4.838 3.912-8.75 8.75-8.75z"></path>
<path fill="#50d27e" d="M22.725 13.975c0 4.831-3.919 8.75-8.75 8.75-2.769 0-5.238-1.288-6.838-3.294 1.494 1.194 3.394 1.906 5.456 1.906 4.831 0 8.75-3.919 8.75-8.75 0-2.063-0.712-3.963-1.913-5.463 2.006 1.606 3.294 4.075 3.294 6.85z"></path>
<path fill="#a7e9bf" d="M20.813 8.512c-1.494-1.194-3.387-1.906-5.45-1.906-4.838 0-8.75 3.919-8.75 8.75 0 2.063 0.713 3.962 1.912 5.456-2.006-1.6-3.294-4.075-3.294-6.838 0-4.838 3.919-8.75 8.75-8.75 2.762 0 5.225 1.281 6.831 3.287z"></path>
<path fill="#fff" d="M13.975 7.519c3.563 0 6.45 2.888 6.45 6.456 0 3.563-2.887 6.45-6.45 6.45s-6.456-2.887-6.456-6.45c0-3.569 2.888-6.456 6.456-6.456z"></path>
<path fill="#ededed" d="M20.425 13.975c0 3.563-2.887 6.45-6.45 6.45-2.262 0-4.25-1.163-5.4-2.919 1.012 0.669 2.231 1.056 3.537 1.056 3.563 0 6.45-2.887 6.45-6.45 0-1.306-0.387-2.525-1.056-3.537 1.762 1.15 2.919 3.138 2.919 5.4z"></path>
<path fill="#333" d="M13.975 20.675c-3.694 0-6.706-3.006-6.706-6.7s3.006-6.706 6.706-6.706c3.706 0 6.7 3 6.7 6.706 0 3.694-3.006 6.7-6.7 6.7zM13.975 7.769c-3.419 0-6.206 2.781-6.206 6.206 0 3.419 2.781 6.2 6.206 6.2 3.419 0 6.2-2.781 6.2-6.2 0-1.656-0.644-3.213-1.819-4.387s-2.725-1.819-4.381-1.819z"></path>
<path fill="#fff" d="M22.744 20.7c-0.019 0.012-0.031 0.025-0.050 0.044l-1.95 1.95c-0.019 0.019-0.031 0.038-0.044 0.050l-1.65-1.65c0.788-0.563 1.481-1.256 2.050-2.044l1.644 1.65z"></path>
<path fill="#fbb381" d="M31.531 29.269l-2.262 2.262c-0.3 0.294-0.775 0.294-1.075 0l-7.45-7.456c-0.381-0.387-0.381-1 0-1.381l1.95-1.95c0.381-0.381 1-0.381 1.381 0l7.456 7.456c0.294 0.294 0.294 0.769 0 1.069z"></path>
<path fill="#fa9957" d="M31.531 29.269l-2.262 2.262c-0.3 0.294-0.775 0.294-1.075 0l-1.4-1.406c0.294 0.294 0.775 0.294 1.075 0l2.262-2.262c0.294-0.3 0.294-0.775 0-1.069l1.406 1.406c0.288 0.294 0.288 0.769-0.006 1.069z"></path>
<path fill="#fcccab" d="M25.481 22.15c-0.381-0.381-1-0.381-1.381 0l-1.95 1.95c-0.381 0.375-0.381 0.994-0.006 1.375l-1.4-1.4c-0.381-0.387-0.381-1 0-1.381l1.95-1.95c0.381-0.381 1-0.381 1.381 0l1.406 1.406z"></path>
<path fill="#333" d="M31.706 28.019l-7.456-7.45c-0.113-0.113-0.238-0.194-0.375-0.25 0.762-1.194 1.306-2.5 1.6-3.894h1.363c0.613 0 1.113-0.494 1.113-1.106v-2.681c0-0.613-0.5-1.113-1.113-1.113h-1.363c-0.3-1.412-0.85-2.744-1.637-3.956l0.962-0.963c0.438-0.438 0.431-1.138 0-1.575l-1.894-1.881c-0.425-0.431-1.131-0.438-1.569 0l-0.962 0.962c-1.219-0.794-2.544-1.344-3.95-1.638v-1.369c-0.006-0.606-0.5-1.106-1.113-1.106h-2.675c-0.613 0-1.106 0.5-1.106 1.106v1.369c-1.412 0.294-2.744 0.85-3.956 1.638l-0.963-0.962c-0.431-0.431-1.138-0.431-1.569 0l-1.9 1.887c-0.444 0.45-0.425 1.15 0 1.569l0.962 0.963c-0.788 1.213-1.337 2.537-1.638 3.956h-1.363c-0.613 0-1.106 0.5-1.106 1.106v2.681c0 0.613 0.494 1.106 1.106 1.112h1.369c0.294 1.406 0.844 2.738 1.638 3.956l-0.962 0.962c-0.438 0.425-0.438 1.131-0.006 1.569l1.894 1.894c0.425 0.431 1.131 0.425 1.563 0l0.963-0.962c1.225 0.794 2.55 1.344 3.962 1.644v1.363c0 0.6 0.481 1.106 1.1 1.106 0 0 0 0 0.006 0h2.675c0.613 0 1.113-0.5 1.113-1.106v-1.363c1.387-0.294 2.688-0.831 3.887-1.6 0.063 0.137 0.15 0.269 0.256 0.381l7.45 7.45c0.381 0.388 1.025 0.4 1.425 0l2.262-2.262c0 0 0 0 0 0 0.4-0.406 0.4-1.044 0.006-1.438zM20.212 23.344c-1.25 0.837-2.625 1.4-4.087 1.681-0.119 0.025-0.2 0.125-0.2 0.25v1.569c0 0.331-0.275 0.606-0.613 0.606h-2.675c0 0 0 0-0.006 0-0.325 0-0.6-0.262-0.6-0.606v-1.569c0-0.119-0.088-0.225-0.206-0.25-1.556-0.294-2.912-0.894-4.175-1.731-0.1-0.050-0.213-0.031-0.287 0.044l-1.112 1.106c-0.237 0.238-0.625 0.238-0.862 0.006l-1.888-1.9c-0.237-0.238-0.237-0.625 0-0.863l1.106-1.106c0.088-0.087 0.1-0.219 0.031-0.313-0.85-1.269-1.425-2.663-1.712-4.144-0.025-0.119-0.125-0.2-0.244-0.2h-1.575c-0.338 0-0.606-0.275-0.606-0.613v-2.681c0-0.338 0.275-0.606 0.606-0.606h1.569c0 0 0 0 0 0 0.119 0 0.225-0.088 0.244-0.2 0.288-1.488 0.863-2.888 1.712-4.144 0.069-0.1 0.056-0.231-0.031-0.319l-1.1-1.112c-0.244-0.237-0.237-0.625 0-0.856l1.887-1.894c0.237-0.237 0.625-0.237 0.862 0l1.106 1.112c0.081 0.081 0.213 0.1 0.325 0.025 1.262-0.85 2.656-1.425 4.138-1.712 0.119-0.025 0.206-0.125 0.206-0.244v-1.575c0-0.331 0.269-0.606 0.606-0.606h2.681c0.338 0 0.613 0.275 0.613 0.606v1.569c0 0.119 0.088 0.225 0.2 0.244 1.488 0.288 2.875 0.863 4.144 1.712 0.1 0.069 0.231 0.056 0.313-0.031l1.113-1.1c0.231-0.231 0.613-0.244 0.856 0l1.894 1.887c0.238 0.237 0.244 0.625 0 0.862l-1.113 1.106c-0.075 0.075-0.094 0.181-0.050 0.275 0.012 0.025 0.025 0.050 0.038 0.069 0.844 1.256 1.413 2.644 1.7 4.125 0.025 0.119 0.125 0.2 0.25 0.2h1.569c0.337 0 0.613 0.275 0.613 0.613v2.675c0 0.331-0.275 0.606-0.613 0.606h-1.563c-0.119 0-0.225 0.087-0.244 0.2-0.288 1.469-0.85 2.85-1.681 4.088-0.2 0.006-0.394 0.063-0.569 0.163l-1.356-1.356c0.981-1.438 1.55-3.175 1.55-5.044 0-4.963-4.038-9-9-9s-9 4.037-9 9c0 4.962 4.037 9 9 9 1.869 0 3.606-0.575 5.044-1.55l1.356 1.356c-0.1 0.169-0.156 0.363-0.163 0.569zM13.975 22.469c-4.688 0-8.5-3.813-8.5-8.5s3.813-8.5 8.5-8.5c4.688 0 8.5 3.813 8.5 8.5 0 4.694-3.813 8.5-8.5 8.5zM19.438 21.125c0.637-0.488 1.206-1.050 1.694-1.694l1.262 1.262-1.694 1.694-1.262-1.262zM31.35 29.094l-2.262 2.262c-0.2 0.2-0.519 0.2-0.719 0l-7.444-7.456c-0.281-0.275-0.294-0.738 0-1.031l1.95-1.95c0.288-0.281 0.738-0.288 1.025 0l7.45 7.456c0.2 0.194 0.2 0.519 0 0.719z"></path>
</svg>
<svg id="icon-training"  viewBox="0 0 32 32" x="0" y="0">
<path fill="#d3d8d9" d="M20 19.238h1.906v8.050h-1.906v-8.050z"></path>
<path fill="#d3d8d9" d="M30.35 27.288h-1.9l-3.75-8.050h1.906z"></path>
<path fill="#d3d8d9" d="M17.206 19.238l-3.744 8.050h-1.906l3.75-8.050z"></path>
<path fill="#ededed" d="M20 19.238h1.906v1.363h-1.906v-1.363z"></path>
<path fill="#ededed" d="M27.238 20.6h-1.9l-0.637-1.363h1.906z"></path>
<path fill="#a8b1b3" d="M30.35 27.288h-1.906l-0.631-1.363h1.906z"></path>
<path fill="#a8b1b3" d="M11.556 27.288h1.906l0.637-1.363h-1.906z"></path>
<path fill="#ededed" d="M17.206 19.238l-0.631 1.363h-1.906l0.637-1.363z"></path>
<path fill="#a8b1b3" d="M20 25.925h1.906v1.363h-1.906v-1.363z"></path>
<path fill="#fff" d="M11.162 4.481h19.581v12.613h-19.581v-12.613z"></path>
<path fill="#fb8a8a" d="M32 2.712v1.394c0 0.206-0.169 0.375-0.375 0.375h-21.344c-0.206 0-0.375-0.169-0.375-0.375v-1.394c0-0.206 0.169-0.375 0.375-0.375h21.344c0.206 0 0.375 0.169 0.375 0.375z"></path>
<path fill="#fcb1b1" d="M32 2.712v0.681c0-0.206-0.169-0.375-0.375-0.375h-21.344c-0.206 0-0.375 0.169-0.375 0.375v-0.681c0-0.206 0.169-0.375 0.375-0.375h21.344c0.206 0 0.375 0.169 0.375 0.375z"></path>
<path fill="#f96363" d="M32 3.425v0.681c0 0.206-0.169 0.375-0.375 0.375h-21.344c-0.206 0-0.375-0.169-0.375-0.375v-0.681c0 0.206 0.169 0.375 0.375 0.375h21.344c0.206 0 0.375-0.169 0.375-0.375z"></path>
<path fill="#fb8a8a" d="M32 17.469v1.394c0 0.206-0.169 0.375-0.375 0.375h-21.344c-0.206 0-0.375-0.169-0.375-0.375v-1.394c0-0.206 0.169-0.375 0.375-0.375h21.344c0.206 0 0.375 0.169 0.375 0.375z"></path>
<path fill="#fcb1b1" d="M32 17.469v0.681c0-0.206-0.169-0.375-0.375-0.375h-21.344c-0.206 0-0.375 0.169-0.375 0.375v-0.681c0-0.206 0.169-0.375 0.375-0.375h21.344c0.206 0 0.375 0.169 0.375 0.375z"></path>
<path fill="#f96363" d="M32 18.181v0.681c0 0.206-0.169 0.375-0.375 0.375h-21.344c-0.206 0-0.375-0.169-0.375-0.375v-0.681c0 0.206 0.169 0.375 0.375 0.375h21.344c0.206-0.006 0.375-0.169 0.375-0.375z"></path>
<path fill="#bd90be" d="M0 15.069v5.1c0 0.887 0.719 1.606 1.606 1.606h6.769v-7.419h5.625c0.369 0 0.706-0.15 0.95-0.394s0.394-0.581 0.394-0.95c0-0.744-0.6-1.344-1.344-1.344h-10.6c-1.881 0-3.4 1.525-3.4 3.4z"></path>
<path fill="#d3b5d3" d="M0 15.069v1.306c0-1.875 1.519-3.4 3.4-3.4h10.6c0.506 0 0.944 0.281 1.169 0.694 0.113-0.194 0.175-0.419 0.175-0.656 0-0.744-0.6-1.344-1.344-1.344h-10.6c-1.875 0-3.4 1.525-3.4 3.4z"></path>
<path fill="#a76ba8" d="M0 18.856v1.313c0 0.887 0.719 1.606 1.606 1.606h0.656v-1.313h-0.656c-0.887 0-1.606-0.719-1.606-1.606z"></path>
<path fill="#ededed" d="M2.263 21.6v6.594c0 0.813 0.656 1.469 1.469 1.469h3.175c0.813 0 1.469-0.656 1.469-1.469v-6.594h-6.112z"></path>
<path fill="#d3d8d9" d="M2.263 26.85v1.337c0 0.813 0.656 1.469 1.469 1.469h3.175c0.813 0 1.469-0.656 1.469-1.469v-1.344c0 0.813-0.656 1.469-1.469 1.469h-3.175c-0.813 0.006-1.469-0.65-1.469-1.462z"></path>
<path fill="#fff" d="M3.038 11.688l2.281 4.694 2.281-4.694z"></path>
<path fill="#fee8b3" d="M2.919 5.956v4.075c0 1.231 1 2.231 2.231 2.231s2.231-1 2.231-2.231v-4.075h-4.463z"></path>
<path fill="#fff4d9" d="M2.919 5.956h4.456v2.694h-4.456v-2.694z"></path>
<path fill="#516468" d="M9.225 4.938l-1.85 2.763h-4.456v-1.719c0-0.575 0.469-1.044 1.044-1.044h5.263z"></path>
<path fill="#7c8b8d" d="M9.225 4.938l-0.588 0.875h-4.675c-0.575 0-1.044 0.475-1.044 1.050v-0.881c0-0.575 0.469-1.044 1.044-1.044h5.263z"></path>
<path fill="#7ad1f9" d="M26.488 5.956h2.375v9.662h-2.375v-9.662z"></path>
<path fill="#7bde9e" d="M21.856 7.862h2.375v7.756h-2.375v-7.756z"></path>
<path fill="#fddd8d" d="M17.231 9.769h2.375v5.85h-2.375v-5.85z"></path>
<path fill="#a6e1fb" d="M26.488 5.956h2.375v1.194h-2.375v-1.194z"></path>
<path fill="#50d27e" d="M21.856 14.425h2.375v1.194h-2.375v-1.194z"></path>
<path fill="#fdd267" d="M17.231 14.425h2.375v1.194h-2.375v-1.194z"></path>
<path fill="#4cc3f7" d="M26.488 14.425h2.375v1.194h-2.375v-1.194z"></path>
<path fill="#a7e9bf" d="M21.856 7.862h2.375v1.194h-2.375v-1.194z"></path>
<path fill="#fee8b3" d="M17.231 9.769h2.375v1.194h-2.375v-1.194z"></path>
<path fill="#333" d="M28.863 15.875h-2.375c-0.137 0-0.256-0.113-0.256-0.256v-9.662c0-0.138 0.113-0.256 0.256-0.256h2.375c0.137 0 0.256 0.112 0.256 0.256v9.662c0 0.144-0.119 0.256-0.256 0.256zM26.744 15.369h1.869v-9.162h-1.869v9.162z"></path>
<path fill="#333" d="M24.231 15.875h-2.375c-0.137 0-0.256-0.113-0.256-0.256v-7.756c0-0.138 0.113-0.256 0.256-0.256h2.375c0.137 0 0.256 0.112 0.256 0.256v7.756c0 0.144-0.113 0.256-0.256 0.256zM22.113 15.369h1.869v-7.25h-1.869v7.25z"></path>
<path fill="#333" d="M19.6 15.875h-2.375c-0.137 0-0.256-0.113-0.256-0.256v-5.85c0-0.137 0.113-0.256 0.256-0.256h2.375c0.137 0 0.256 0.113 0.256 0.256v5.85c0 0.144-0.113 0.256-0.256 0.256zM17.481 15.369h1.863v-5.344h-1.863v5.344z"></path>
<path fill="#333" d="M31.381 4.912c0.344 0 0.619-0.275 0.619-0.619v-1.375c0-0.344-0.275-0.619-0.619-0.619h-21.006c-0.338 0-0.619 0.275-0.619 0.619v1.375c0 0.338 0.275 0.619 0.619 0.619h0.613v6.575h-3.65c0.263-0.387 0.419-0.863 0.419-1.363v-2.219l1.781-2.656c0.050-0.075 0.056-0.175 0.012-0.256s-0.131-0.131-0.219-0.131h-5.181c-0.688 0-1.244 0.544-1.275 1.225 0 0.013-0.006 0.019-0.006 0.031v4.006c0 0.512 0.163 0.988 0.431 1.381-1.844 0.15-3.3 1.694-3.3 3.581v5.019c0 1.012 0.825 1.831 1.831 1.831h0.4v6.063c0 0.938 0.762 1.694 1.694 1.694h3.125c0.931 0 1.694-0.762 1.694-1.694v-12.3c0-0.006 0-0.006 0-0.012v-1.056h2.244v2.194h-0.613c-0.338 0-0.619 0.275-0.619 0.619v1.375c0 0.337 0.275 0.613 0.619 0.613h4.55l-3.525 7.569c-0.037 0.075-0.031 0.169 0.019 0.238 0.044 0.075 0.125 0.119 0.213 0.119h1.875c0.1 0 0.188-0.056 0.225-0.144l3.619-7.775h2.337v7.675c0 0.137 0.113 0.25 0.25 0.25h1.875c0.137 0 0.25-0.113 0.25-0.25v-7.675h2.337l3.625 7.781c0.038 0.087 0.125 0.144 0.225 0.144h1.875c0.087 0 0.163-0.044 0.212-0.119 0.044-0.069 0.050-0.163 0.012-0.238l-3.519-7.569h4.55c0.344 0 0.619-0.275 0.619-0.613v-1.375c0-0.337-0.275-0.619-0.619-0.619h-0.613v-11.919h0.613zM3.369 6.138c0-0.431 0.35-0.781 0.781-0.781h4.713l-1.487 2.225h-4.006v-1.444zM3.369 8.081h3.887v2.044c0 1.075-0.875 1.944-1.944 1.944-1.075 0-1.944-0.875-1.944-1.944v-2.044zM7.331 12l-1.844 3.8-1.85-3.8h0.119c0.425 0.35 0.963 0.563 1.556 0.563s1.131-0.213 1.556-0.563h0.463zM1.831 21.431c-0.731 0-1.331-0.594-1.331-1.331v-5.019c0-1.537 1.125-2.813 2.594-3.050l2.144 4.4v5h-2.513v-5.731c0-0.137-0.112-0.25-0.25-0.25s-0.25 0.113-0.25 0.25v5.731h-0.394zM2.725 28v-6.069h2.506v7.262h-1.313c-0.656 0.006-1.194-0.531-1.194-1.194zM7.050 29.2h-1.313v-7.269h2.506v6.069c0 0.663-0.537 1.2-1.194 1.2zM8.494 14.137c-0.137 0-0.25 0.113-0.25 0.25v7.050h-2.506v-5.006l2.156-4.438h6.137c0.594 0 1.075 0.481 1.075 1.075 0 0.588-0.475 1.075-1.075 1.075h-5.537zM14.031 11.488h-2.544v-6.575h18.781v11.912h-18.781v-2.194h2.544c0.875 0 1.575-0.713 1.575-1.575s-0.706-1.569-1.575-1.569zM13.344 26.863h-1.325l3.456-7.425h1.325l-3.456 7.425zM21.563 26.863h-1.375v-7.425h1.375v7.425zM29.738 26.863h-1.325l-3.456-7.425h1.325l3.456 7.425zM31.381 17.325c0.069 0 0.119 0.050 0.119 0.119v1.375c0 0.063-0.050 0.113-0.119 0.113h-21.006c-0.063 0-0.119-0.050-0.119-0.113v-1.375c0-0.063 0.050-0.119 0.119-0.119h21.006zM10.375 4.412c-0.063 0-0.119-0.050-0.119-0.119v-1.375c0-0.069 0.050-0.119 0.119-0.119h21.006c0.069 0 0.119 0.050 0.119 0.119v1.375c0 0.063-0.050 0.119-0.119 0.119h-21.006z"></path>
</svg>
</svg>
