<?xml version="1.0" encoding="utf-8"?>
<!-- Generated by IcoMoon.io -->
<svg version="1.1" xmlns="http://www.w3.org/2000/svg" xmlns:xlink="http://www.w3.org/1999/xlink" width="752" height="32" viewBox="0 0 752 32">
<svg id="icon-find-my-navigation-location-svgrepo-com"  viewBox="0 0 32 32" x="0" y="0">
<path fill="#fff" d="M5.333 0h21.333c2.946 0 5.333 2.388 5.333 5.333v21.333c0 2.946-2.388 5.333-5.333 5.333h-21.333c-2.946 0-5.333-2.388-5.333-5.333v-21.333c0-2.946 2.388-5.333 5.333-5.333z"></path>
<path fill="#c1f7fd" d="M27.733 16c0 6.48-5.253 11.733-11.733 11.733s-11.733-5.253-11.733-11.733c0-6.48 5.253-11.733 11.733-11.733s11.733 5.253 11.733 11.733z"></path>
<path fill="#7bcdd1" d="M16 28.533c-6.922 0-12.533-5.611-12.533-12.533s5.611-12.533 12.533-12.533c6.922 0 12.533 5.611 12.533 12.533v0c-0.008 6.919-5.615 12.525-12.533 12.533h-0.001zM16 5.067c-6.038 0-10.933 4.895-10.933 10.933s4.895 10.933 10.933 10.933c6.038 0 10.933-4.895 10.933-10.933v0c-0.007-6.036-4.898-10.926-10.933-10.933h-0.001z"></path>
<path fill="#bbd9c8" d="M4.267 16.8c-0.442 0-0.8-0.358-0.8-0.8v0c0.008-6.919 5.615-12.525 12.533-12.533h0.001c0.442 0 0.8 0.358 0.8 0.8s-0.358 0.8-0.8 0.8v0c-6.035 0.007-10.926 4.898-10.933 10.933v0.001c0 0.442-0.358 0.8-0.8 0.8v0z"></path>
<path fill="#7bcdd1" d="M16 24.267c-4.566 0-8.267-3.701-8.267-8.267s3.701-8.267 8.267-8.267c4.566 0 8.267 3.701 8.267 8.267v0c-0.005 4.563-3.703 8.261-8.266 8.267h-0zM16 9.333c-3.682 0-6.667 2.985-6.667 6.667s2.985 6.667 6.667 6.667c3.682 0 6.667-2.985 6.667-6.667v0c-0.004-3.68-2.986-6.662-6.666-6.667h-0z"></path>
<path fill="#bec6f4" d="M16 16l6.298-9.898c-1.782-1.151-3.96-1.836-6.298-1.836s-4.516 0.684-6.344 1.864l0.046-0.028z"></path>
<path fill="#8d9cf4" d="M16 16.8c-0.283-0.001-0.531-0.148-0.673-0.37l-0.002-0.003-6.298-9.894c-0.078-0.122-0.125-0.27-0.125-0.429 0-0.282 0.146-0.53 0.367-0.673l0.003-0.002c1.904-1.23 4.231-1.962 6.729-1.962s4.824 0.731 6.778 1.991l-0.049-0.030c0.224 0.144 0.37 0.392 0.37 0.675 0 0.159-0.047 0.308-0.127 0.433l0.002-0.003-6.298 9.897c-0.144 0.224-0.393 0.371-0.675 0.371-0 0-0 0-0 0v0zM10.821 6.372l5.179 8.138 5.179-8.138c-1.498-0.822-3.282-1.306-5.179-1.306s-3.681 0.484-5.236 1.334l0.057-0.029z"></path>
<path fill="#8d9cf4" d="M19.2 16c0 1.767-1.433 3.2-3.2 3.2s-3.2-1.433-3.2-3.2c0-1.767 1.433-3.2 3.2-3.2s3.2 1.433 3.2 3.2z"></path>
<path fill="#f1f3f4" d="M16 20c-2.209 0-4-1.791-4-4s1.791-4 4-4c2.209 0 4 1.791 4 4v0c-0.002 2.208-1.792 3.998-4 4h-0zM16 13.6c-1.325 0-2.4 1.075-2.4 2.4s1.075 2.4 2.4 2.4c1.325 0 2.4-1.075 2.4-2.4v0c-0.002-1.325-1.075-2.399-2.4-2.4h-0z"></path>
</svg>
<svg id="icon-photos-gallery-images-media-svgrepo-com"  viewBox="0 0 32 32" x="0" y="0">
<path fill="#fff" d="M5.333 0h21.333c2.946 0 5.333 2.388 5.333 5.333v21.333c0 2.946-2.388 5.333-5.333 5.333h-21.333c-2.946 0-5.333-2.388-5.333-5.333v-21.333c0-2.946 2.388-5.333 5.333-5.333z"></path>
<path fill="#ffe1a0" d="M12.8 11.733v-3.459l-0.571-0.571c-0.579-0.579-1.379-0.937-2.263-0.937s-1.684 0.358-2.263 0.937v0c-0.579 0.579-0.937 1.379-0.937 2.263s0.358 1.684 0.937 2.263l3.017 3.017c0.579 0.579 1.379 0.937 2.263 0.937s1.684-0.358 2.263-0.937v0c0.1-0.106 0.194-0.22 0.28-0.34l0.007-0.010c-1.553-0.236-2.73-1.562-2.732-3.162v-0z"></path>
<path fill="#f29580" d="M12.983 16.981c-0.002 0-0.004 0-0.006 0-1.102 0-2.099-0.447-2.821-1.17l-3.017-3.017c-0.691-0.718-1.116-1.695-1.116-2.772 0-2.209 1.791-4 4-4 1.076 0 2.053 0.425 2.772 1.117l-0.001-0.001 0.572 0.571c0.145 0.145 0.234 0.345 0.234 0.565 0 0 0 0 0 0v-0 3.459c0.006 1.198 0.886 2.189 2.035 2.369l0.014 0.002c0.389 0.059 0.684 0.391 0.684 0.792 0 0.181-0.060 0.349-0.162 0.483l0.001-0.002c-0.116 0.161-0.234 0.303-0.361 0.436l0.001-0.001c-0.722 0.723-1.72 1.17-2.822 1.17-0.002 0-0.005 0-0.007 0h0zM9.966 7.567c-1.325 0-2.399 1.075-2.399 2.4 0 0.662 0.268 1.262 0.702 1.696l3.017 3.017c0.435 0.434 1.036 0.702 1.699 0.702 0.356 0 0.694-0.077 0.999-0.216l-0.015 0.006c-1.181-0.71-1.961-1.983-1.968-3.437v-3.129l-0.337-0.337c-0.433-0.434-1.031-0.702-1.693-0.702-0.001 0-0.003 0-0.004 0h0z"></path>
<path fill="#c1f7fd" d="M24.297 19.771l-3.017-3.017c-0.579-0.579-1.379-0.937-2.263-0.937s-1.684 0.358-2.263 0.937v0c-0.1 0.106-0.194 0.22-0.28 0.34l-0.007 0.010c1.553 0.236 2.73 1.561 2.732 3.162v3.459l0.571 0.571c0.577 0.568 1.37 0.919 2.244 0.919 1.767 0 3.2-1.433 3.2-3.2 0-0.875-0.351-1.667-0.919-2.245l0 0z"></path>
<path fill="#7bcdd1" d="M22.034 26.034c-0.002 0-0.005 0-0.007 0-1.102 0-2.099-0.449-2.819-1.173l-0.572-0.571c-0.145-0.145-0.234-0.345-0.234-0.566 0-0 0-0 0-0v0-3.457c-0.006-1.198-0.886-2.189-2.035-2.369l-0.014-0.002c-0.389-0.059-0.684-0.391-0.684-0.792 0-0.181 0.060-0.349 0.162-0.483l-0.001 0.002c0.116-0.161 0.234-0.303 0.361-0.436l-0.001 0.001c0.724-0.723 1.724-1.17 2.829-1.17s2.104 0.447 2.829 1.17l3.017 3.017c0.723 0.724 1.17 1.723 1.17 2.827 0 2.208-1.789 3.998-3.996 4h-0zM20 23.394l0.337 0.337c0.434 0.435 1.035 0.704 1.698 0.704 1.326 0 2.401-1.075 2.401-2.401 0-0.663-0.268-1.262-0.702-1.697l-3.017-3.017c-0.435-0.434-1.035-0.702-1.698-0.702-0.356 0-0.695 0.078-0.999 0.217l0.015-0.006c1.18 0.711 1.959 1.983 1.966 3.437v0.001z"></path>
<path fill="#f2bdd6" d="M15.246 16.754v0c-0.106-0.1-0.22-0.194-0.34-0.28l-0.010-0.007c-0.236 1.553-1.561 2.73-3.162 2.732h-3.459l-0.571 0.571c-0.568 0.577-0.919 1.37-0.919 2.244 0 1.767 1.433 3.2 3.2 3.2 0.874 0 1.667-0.351 2.245-0.919l3.017-3.016c0.579-0.579 0.937-1.379 0.937-2.263s-0.358-1.684-0.937-2.263v0z"></path>
<path fill="#bf95bc" d="M9.966 26.034c-2.208-0.002-3.996-1.792-3.996-4 0-1.104 0.447-2.103 1.17-2.827l0.571-0.572c0.145-0.145 0.345-0.234 0.566-0.234 0 0 0 0 0 0h3.457c1.198-0.006 2.189-0.886 2.368-2.035l0.002-0.014c0.059-0.389 0.391-0.683 0.791-0.683 0.181 0 0.349 0.060 0.483 0.162l-0.002-0.001c0.162 0.115 0.303 0.233 0.436 0.36l-0.001-0.001c0.723 0.724 1.17 1.724 1.17 2.828s-0.447 2.104-1.17 2.828l-3.017 3.017c-0.72 0.724-1.716 1.172-2.818 1.172-0.003 0-0.007 0-0.010 0h0.001zM8.606 20l-0.337 0.337c-0.435 0.434-0.704 1.035-0.704 1.698 0 1.326 1.075 2.401 2.401 2.401 0.663 0 1.263-0.268 1.697-0.703l3.017-3.017c0.434-0.435 0.702-1.035 0.702-1.698 0-0.356-0.078-0.695-0.217-0.999l0.006 0.015c-0.711 1.18-1.983 1.959-3.437 1.966h-0.001z"></path>
<path fill="#f1f3f4" d="M20.267 12.8h3.459l0.571-0.571c0.579-0.579 0.937-1.379 0.937-2.263s-0.358-1.684-0.937-2.263v0c-0.579-0.579-1.379-0.937-2.263-0.937s-1.684 0.358-2.263 0.937l-3.017 3.017c-0.579 0.579-0.937 1.379-0.937 2.263s0.358 1.684 0.937 2.263v0c0.106 0.1 0.22 0.194 0.341 0.279l0.010 0.007c0.236-1.553 1.561-2.73 3.162-2.732h0z"></path>
<path fill="#f2bf80" d="M17.105 16.332c-0.181 0-0.348-0.060-0.482-0.161l0.002 0.001c-0.162-0.115-0.303-0.233-0.436-0.36l0.001 0.001c-0.723-0.725-1.17-1.725-1.17-2.829s0.447-2.104 1.17-2.829l3.017-3.017c0.73-0.762 1.755-1.235 2.89-1.235 2.209 0 4 1.791 4 4 0 1.136-0.473 2.161-1.233 2.889l-0.001 0.001-0.571 0.572c-0.145 0.145-0.345 0.234-0.566 0.234-0 0-0 0-0 0h-3.459c-1.198 0.006-2.189 0.886-2.368 2.035l-0.002 0.014c-0.059 0.389-0.391 0.684-0.791 0.684-0 0-0 0-0.001 0h0zM22.034 7.567c-0.002 0-0.004 0-0.006 0-0.66 0-1.258 0.267-1.691 0.7l-3.017 3.017c-0.434 0.435-0.702 1.035-0.702 1.698 0 0.356 0.078 0.695 0.217 0.999l-0.006-0.015c0.711-1.18 1.983-1.959 3.437-1.966h3.128l0.337-0.337c0.434-0.434 0.702-1.034 0.702-1.696 0-1.325-1.074-2.4-2.399-2.4h-0z"></path>
<path fill="#eff28d" d="M16.754 10.72l2.446-2.445v-0.808c0-1.767-1.433-3.2-3.2-3.2s-3.2 1.433-3.2 3.2v0 4.267c-0 0.007-0 0.014-0 0.022 0 1.755 1.423 3.178 3.178 3.178 0.173 0 0.343-0.014 0.508-0.040l-0.018 0.002c-0.402-0.528-0.644-1.197-0.644-1.923 0-0.879 0.356-1.675 0.931-2.253l-0 0z"></path>
<path fill="#f2bf80" d="M16 15.733c-2.208-0.002-3.998-1.792-4-4v-4.267c0-2.209 1.791-4 4-4s4 1.791 4 4v0 0.808c-0 0.221-0.090 0.421-0.234 0.565l-2.446 2.446c-0.428 0.434-0.693 1.030-0.693 1.688 0 0.543 0.18 1.044 0.484 1.447l-0.004-0.006c0.1 0.132 0.16 0.299 0.16 0.48 0 0.401-0.295 0.733-0.68 0.791l-0.004 0.001c-0.174 0.028-0.376 0.045-0.582 0.046h-0.001zM16 5.067c-1.325 0.002-2.399 1.075-2.4 2.4v4.267c0.001 1.023 0.641 1.896 1.541 2.242l0.016 0.006c-0.082-0.303-0.129-0.65-0.129-1.008 0-1.099 0.443-2.095 1.16-2.818l2.211-2.211v-0.477c-0.002-1.325-1.075-2.398-2.4-2.4h-0z"></path>
<path fill="#bec6f4" d="M16 17.067c-0.166 0.001-0.328 0.015-0.486 0.040l0.018-0.002c0.402 0.528 0.644 1.197 0.644 1.923 0 0.879-0.356 1.675-0.931 2.252l-2.446 2.446v0.808c0 1.767 1.433 3.2 3.2 3.2s3.2-1.433 3.2-3.2v0-4.267c0-1.767-1.433-3.2-3.2-3.2v0z"></path>
<path fill="#8d9cf4" d="M16 28.533c-2.208-0.002-3.998-1.792-4-4v-0.808c0-0.221 0.089-0.421 0.234-0.565l2.446-2.446c0.428-0.434 0.693-1.030 0.693-1.689 0-0.543-0.18-1.044-0.484-1.447l0.004 0.006c-0.1-0.132-0.16-0.299-0.16-0.48 0-0.401 0.295-0.733 0.68-0.791l0.004-0.001c0.182-0.029 0.392-0.046 0.605-0.046 2.197 0 3.978 1.781 3.978 3.978 0 0.008-0 0.016-0 0.024v-0.001 4.267c-0.002 2.208-1.792 3.998-4 4h-0zM13.6 24.057v0.477c0 1.325 1.075 2.4 2.4 2.4s2.4-1.075 2.4-2.4v0-4.267c-0.001-1.023-0.641-1.896-1.541-2.242l-0.016-0.006c0.082 0.302 0.129 0.65 0.129 1.008 0 1.099-0.443 2.095-1.16 2.818l0-0z"></path>
<path fill="#ffafc5" d="M10.72 15.246l-2.445-2.446h-0.808c-1.767 0-3.2 1.433-3.2 3.2s1.433 3.2 3.2 3.2v0h4.267c0.006 0 0.014 0 0.021 0 1.756 0 3.179-1.423 3.179-3.179 0-0.173-0.014-0.342-0.040-0.508l0.002 0.018c-0.528 0.402-1.197 0.645-1.923 0.645-0.879 0-1.675-0.356-2.252-0.931l0 0z"></path>
<path fill="#f28080" d="M11.733 20h-4.267c-2.209 0-4-1.791-4-4s1.791-4 4-4v0h0.808c0.221 0 0.421 0.089 0.565 0.234l2.446 2.446c0.434 0.428 1.030 0.693 1.688 0.693 0.543 0 1.044-0.18 1.447-0.484l-0.006 0.004c0.132-0.1 0.299-0.16 0.48-0.16 0.401 0 0.733 0.295 0.791 0.68l0.001 0.004c0.028 0.175 0.045 0.376 0.046 0.582v0.001c-0.002 2.208-1.792 3.998-4 4h-0zM7.467 13.6c-1.325 0-2.4 1.075-2.4 2.4s1.075 2.4 2.4 2.4v0h4.267c1.023-0.001 1.896-0.641 2.242-1.541l0.006-0.016c-0.303 0.082-0.65 0.129-1.008 0.129-1.099 0-2.095-0.443-2.818-1.16l-2.211-2.211z"></path>
<path fill="#c1f7fd" d="M24.533 12.8h-4.267c-0.007-0-0.014-0-0.022-0-1.755 0-3.178 1.423-3.178 3.178 0 0.173 0.014 0.343 0.040 0.508l-0.002-0.018c0.528-0.402 1.197-0.644 1.923-0.644 0.879 0 1.675 0.356 2.252 0.931l2.446 2.446h0.808c1.767 0 3.2-1.433 3.2-3.2s-1.433-3.2-3.2-3.2v0z"></path>
<path fill="#bbd9c8" d="M24.533 20h-0.808c-0.221-0-0.421-0.090-0.565-0.234l-2.446-2.446c-0.433-0.429-1.030-0.694-1.688-0.694-0.543 0-1.044 0.181-1.447 0.485l0.006-0.004c-0.132 0.1-0.3 0.161-0.481 0.161-0.401 0-0.733-0.295-0.791-0.68l-0.001-0.004c-0.029-0.174-0.045-0.376-0.046-0.582v-0.001c0.002-2.208 1.792-3.998 4-4h4.267c2.209 0 4 1.791 4 4s-1.791 4-4 4v0zM24.057 18.4h0.477c1.325 0 2.4-1.075 2.4-2.4s-1.075-2.4-2.4-2.4v0h-4.267c-1.023 0.001-1.896 0.641-2.242 1.541l-0.006 0.016c0.302-0.082 0.649-0.129 1.007-0.129 1.099 0 2.095 0.443 2.819 1.16l-0-0z"></path>
<path fill="#f2c4bb" d="M12.8 12.533c-0.442 0-0.8-0.358-0.8-0.8v0-4.267c0.002-2.208 1.792-3.998 4-4h0c0.442 0 0.8 0.358 0.8 0.8s-0.358 0.8-0.8 0.8v0c-1.325 0.002-2.399 1.075-2.4 2.4v4.267c0 0.442-0.358 0.8-0.8 0.8v0z"></path>
</svg>
<svg id="icon-document-file-paper-svgrepo-com"  viewBox="0 0 32 32" x="0" y="0">
<path fill="#eeedf2" d="M29.137 16.119c0 7.442-6.033 13.475-13.475 13.475s-13.475-6.033-13.475-13.475c0-7.442 6.033-13.475 13.475-13.475s13.475 6.033 13.475 13.475z"></path>
<path fill="none" stroke="#fff" stroke-linejoin="miter" stroke-linecap="round" stroke-miterlimit="10" stroke-width="0.4375" d="M16.631 4.369l-0.113-0.569"></path>
<path fill="none" stroke="#fff" stroke-linejoin="miter" stroke-linecap="round" stroke-miterlimit="10" stroke-width="0.4375" d="M17.506 3.981l-0.244 0.563"></path>
<path fill="none" stroke="#fff" stroke-linejoin="miter" stroke-linecap="round" stroke-miterlimit="10" stroke-width="0.4375" d="M18.294 4.506l-0.444 0.319"></path>
<path fill="#d3d5e7" d="M20.7 22.438l-12.269 3.325c-0.356 0.094-0.719-0.113-0.819-0.469l-4.237-15.662c-0.094-0.356 0.112-0.719 0.469-0.819l12.269-3.325c0.356-0.094 0.719 0.112 0.819 0.469l4.238 15.669c0.094 0.35-0.113 0.719-0.469 0.813z"></path>
<path fill="#dbe7fe" stroke="#1e247e" stroke-linejoin="miter" stroke-linecap="round" stroke-miterlimit="10" stroke-width="0.375" d="M20.344 23.15l-12.269 3.325c-0.356 0.094-0.719-0.113-0.819-0.469l-4.244-15.662c-0.094-0.356 0.112-0.719 0.469-0.819l12.269-3.325c0.356-0.094 0.719 0.112 0.819 0.469l4.244 15.669c0.094 0.35-0.113 0.719-0.469 0.813z"></path>
<path fill="#f1f6ff" d="M14.431 18.081c0.056 0.219-0.069 0.438-0.287 0.494l-5.813 1.575c-0.213 0.056-0.438-0.069-0.494-0.281l-0.156-0.587c-0.069-0.262 0.081-0.531 0.35-0.606l5.731-1.55c0.219-0.056 0.444 0.069 0.5 0.288l0.169 0.669z"></path>
<path fill="#f1f6ff" d="M13.688 15.563c0.056 0.219-0.069 0.438-0.287 0.494l-5.813 1.575c-0.213 0.056-0.438-0.069-0.494-0.281l-0.156-0.587c-0.069-0.262 0.081-0.531 0.35-0.606l5.731-1.55c0.219-0.056 0.444 0.069 0.5 0.287l0.169 0.669z"></path>
<path fill="#f1f6ff" d="M12.975 13.081c0.056 0.219-0.069 0.438-0.287 0.494l-5.813 1.575c-0.213 0.056-0.438-0.069-0.494-0.281l-0.156-0.588c-0.069-0.262 0.081-0.531 0.35-0.606l5.731-1.55c0.219-0.056 0.444 0.069 0.5 0.287l0.169 0.669z"></path>
<path fill="#f1f6ff" d="M12.287 10.563c0.056 0.219-0.069 0.438-0.287 0.494l-5.813 1.575c-0.213 0.056-0.438-0.069-0.494-0.281l-0.156-0.588c-0.069-0.262 0.081-0.531 0.35-0.606l5.731-1.55c0.219-0.056 0.444 0.069 0.5 0.287l0.169 0.669z"></path>
<path fill="#d3d5e7" d="M21.031 27.581l-11.069-6.25c-0.319-0.181-0.431-0.587-0.25-0.906l7.981-14.125c0.181-0.319 0.587-0.431 0.906-0.25l11.069 6.25c0.319 0.181 0.431 0.588 0.25 0.906l-7.981 14.119c-0.181 0.325-0.587 0.438-0.906 0.256z"></path>
<path fill="#69aef8" stroke="#1e247e" stroke-linejoin="miter" stroke-linecap="round" stroke-miterlimit="10" stroke-width="0.375" d="M20.156 27.806l-11.069-6.25c-0.319-0.181-0.431-0.587-0.25-0.906l7.981-14.125c0.181-0.319 0.587-0.431 0.906-0.25l11.069 6.25c0.319 0.181 0.431 0.588 0.25 0.906l-7.981 14.125c-0.181 0.319-0.587 0.431-0.906 0.25z"></path>
<path fill="#fff" d="M9.613 13.15l0.838 0.669-1.769 2.206-0.838-0.669c-0.606-0.488-0.706-1.375-0.219-1.988 0.244-0.306 0.588-0.481 0.95-0.519 0.356-0.044 0.731 0.056 1.037 0.3z"></path>
<path fill="#f0c330" d="M10.463 13.831l9.356 7.5c0.006 0.006 0.012 0.019 0.006 0.031l-1.744 2.175c-0.006 0.006-0.019 0.012-0.031 0l-9.356-7.5c-0.006-0.006-0.012-0.019-0.006-0.031l1.744-2.175c0.012-0.006 0.025-0.006 0.031 0z"></path>
<path fill="#79caa1" d="M8.456 15.84l1.767-2.204 0.683 0.547-1.767 2.204-0.683-0.547z"></path>
<path fill="#fff" d="M19.844 21.363l0.706 1.456-0.881 1.1-1.575-0.369c-0.012 0-0.012-0.012-0.006-0.019l1.738-2.169c0.006-0.012 0.019-0.006 0.019 0z"></path>
<path fill="#e09287" d="M20.55 22.819l0.625 1.3c0.038 0.075-0.031 0.15-0.106 0.137l-1.406-0.331 0.887-1.106z"></path>
<path fill="#da867d" d="M24.15 17.988l-1.875 2.425c-0.025 0.038-0.075 0.044-0.113 0.012l-11.537-8.912c-0.037-0.025-0.044-0.075-0.012-0.113l1.875-2.425c0.025-0.037 0.075-0.044 0.113-0.012l11.537 8.912c0.031 0.025 0.038 0.075 0.012 0.113z"></path>
</svg>
<svg id="icon-adventurer-discover-explorer-svgrepo-com"  viewBox="0 0 32 32" x="0" y="0">
<path fill="#eeedf2" d="M29.475 16.169c0 7.442-6.033 13.475-13.475 13.475s-13.475-6.033-13.475-13.475c0-7.442 6.033-13.475 13.475-13.475s13.475 6.033 13.475 13.475z"></path>
<path fill="#d3d5e7" d="M17.844 25.556v1.906c0 0.363-0.294 0.656-0.656 0.656h-1.819c-0.363 0-0.656-0.294-0.656-0.656v-1.906h3.131z"></path>
<path fill="#d3d5e7" d="M24.587 15.55c0 3.337-1.962 6.213-4.8 7.537v0c-0.744 0.35-1.544 0.587-2.387 0.7-0.356 0.050-0.719 0.075-1.081 0.075-0.012 0-0.025 0-0.038 0s-0.025 0-0.038 0c-0.369 0-0.731-0.025-1.088-0.075-0.844-0.113-1.644-0.35-2.388-0.7-2.838-1.325-4.8-4.2-4.8-7.537 0-3.244 1.856-6.056 4.569-7.425 0.806-0.406 1.688-0.688 2.613-0.813 0.356-0.050 0.719-0.075 1.094-0.075 0.012 0 0.025 0 0.038 0s0.025 0 0.038 0c0.369 0 0.731 0.025 1.087 0.075 0.931 0.125 1.813 0.406 2.619 0.813v0c2.706 1.375 4.563 4.181 4.563 7.425z"></path>
<path fill="none" stroke="#d3d5e7" stroke-linejoin="miter" stroke-linecap="round" stroke-miterlimit="10" stroke-width="0.375" d="M14.994 25.931l-2.569-3.375"></path>
<path fill="#efc230" stroke="#d3d5e7" stroke-linejoin="miter" stroke-linecap="round" stroke-miterlimit="10" stroke-width="0.375" d="M16.275 23.775v1.781"></path>
<path fill="none" stroke="#d3d5e7" stroke-linejoin="miter" stroke-linecap="round" stroke-miterlimit="10" stroke-width="0.375" d="M17.556 25.931l2.569-3.375"></path>
<path fill="#fff" stroke="#1e247e" stroke-linejoin="miter" stroke-linecap="butt" stroke-miterlimit="10" stroke-width="0.375" d="M16.913 27.8h-1.819c-0.363 0-0.656-0.294-0.656-0.656v-1.906h3.131v1.906c0 0.363-0.294 0.656-0.656 0.656z"></path>
<path fill="none" stroke="#1e247e" stroke-linejoin="miter" stroke-linecap="round" stroke-miterlimit="10" stroke-width="0.375" d="M14.431 25.238l-1.944-2.556"></path>
<path fill="#efc230" stroke="#1e247e" stroke-linejoin="miter" stroke-linecap="round" stroke-miterlimit="10" stroke-width="0.375" d="M16 23.456v1.781"></path>
<path fill="none" stroke="#1e247e" stroke-linejoin="miter" stroke-linecap="round" stroke-miterlimit="10" stroke-width="0.375" d="M17.569 25.238l1.944-2.556"></path>
<path fill="#da867d" stroke="#1e247e" stroke-linejoin="miter" stroke-linecap="butt" stroke-miterlimit="10" stroke-width="0.375" d="M16 23.456c-0.381 0-0.756-0.025-1.119-0.075-0.844-0.113-1.644-0.356-2.388-0.7-2.838-1.325-4.8-4.2-4.8-7.537 0-3.244 1.856-6.056 4.569-7.425 0.806-0.406 1.688-0.688 2.613-0.813 0.369-0.050 0.744-0.075 1.131-0.075-1.6 0-2.894 3.725-2.894 8.313s1.287 8.313 2.887 8.313z"></path>
<path fill="#69aef8" stroke="#1e247e" stroke-linejoin="miter" stroke-linecap="butt" stroke-miterlimit="10" stroke-width="0.375" d="M18.894 15.144c0 4.591-1.296 8.313-2.894 8.313s-2.894-3.722-2.894-8.313c0-4.591 1.296-8.313 2.894-8.313s2.894 3.722 2.894 8.313z"></path>
<path fill="#f0c330" stroke="#1e247e" stroke-linejoin="miter" stroke-linecap="butt" stroke-miterlimit="10" stroke-width="0.375" d="M24.313 15.144c0 3.337-1.962 6.213-4.8 7.537v0c-0.744 0.35-1.544 0.587-2.387 0.7-0.369 0.050-0.744 0.075-1.119 0.075 1.6 0 2.894-3.725 2.894-8.313s-1.294-8.313-2.894-8.313c0.381 0 0.756 0.025 1.131 0.075 0.931 0.125 1.813 0.406 2.613 0.813v0c2.706 1.375 4.563 4.181 4.563 7.425z"></path>
<path fill="none" stroke="#fff" stroke-linejoin="miter" stroke-linecap="round" stroke-miterlimit="10" stroke-width="0.4375" d="M21.775 6.438l-0.494 0.225"></path>
<path fill="none" stroke="#fff" stroke-linejoin="miter" stroke-linecap="round" stroke-miterlimit="10" stroke-width="0.4375" d="M21.113 5.769l-0.35 0.5"></path>
<path fill="none" stroke="#fff" stroke-linejoin="miter" stroke-linecap="round" stroke-miterlimit="10" stroke-width="0.4375" d="M20.175 5.975l0.012-0.581"></path>
<path fill="#fff" d="M12.675 19.931c0 0.825-0.669 1.494-1.494 1.494h-6.1c-0.65 0-1.181-0.531-1.181-1.181 0-0.038 0-0.081 0.006-0.119 0-0.025 0.006-0.056 0.013-0.081 0.081-0.475 0.444-0.856 0.912-0.956 0.081-0.019 0.169-0.025 0.25-0.025 0.006 0 0.006 0 0.013 0-0.006-0.063-0.013-0.131-0.013-0.2 0-0.106 0.013-0.212 0.031-0.319 0.15-0.75 0.806-1.319 1.6-1.319 0.106 0 0.206 0.012 0.306 0.031 0.225-0.694 0.769-1.25 1.45-1.494 0.213-0.075 0.444-0.125 0.681-0.137 0.037 0 0.075 0 0.119 0 0.006 0 0.012 0 0.019 0 1.3 0.006 2.35 1.063 2.35 2.362 0 0.175-0.019 0.344-0.056 0.506 0.631 0.175 1.094 0.75 1.094 1.438z"></path>
<path fill="#fff" d="M11.625 17.956c0 0.675-0.281 1.288-0.738 1.719"></path>
<path fill="#fff" d="M14.031 10.963c0 0.825-0.669 1.494-1.494 1.494h-6.1c-0.65 0-1.181-0.531-1.181-1.181 0-0.037 0-0.081 0.006-0.119 0-0.025 0.006-0.056 0.013-0.081 0.081-0.475 0.444-0.856 0.912-0.956 0.081-0.019 0.169-0.025 0.25-0.025 0.006 0 0.006 0 0.013 0-0.006-0.063-0.013-0.131-0.013-0.2 0-0.106 0.013-0.213 0.031-0.319 0.15-0.75 0.806-1.319 1.6-1.319 0.106 0 0.206 0.012 0.306 0.031 0.225-0.694 0.769-1.25 1.45-1.494 0.213-0.075 0.444-0.125 0.681-0.138 0.037 0 0.075 0 0.119 0 0.006 0 0.012 0 0.019 0 1.3 0.006 2.35 1.063 2.35 2.362 0 0.175-0.019 0.344-0.056 0.506 0.631 0.175 1.094 0.75 1.094 1.438z"></path>
<path fill="#fff" d="M12.981 8.988c0 0.675-0.281 1.287-0.738 1.719"></path>
<path fill="#fff" d="M28.55 18.875c0 0.825-0.669 1.494-1.494 1.494h-6.1c-0.65 0-1.181-0.531-1.181-1.181 0-0.038 0-0.081 0.006-0.119 0-0.025 0.006-0.056 0.012-0.081 0.081-0.475 0.444-0.856 0.913-0.956 0.081-0.019 0.169-0.025 0.25-0.025 0.006 0 0.006 0 0.012 0-0.006-0.063-0.012-0.131-0.012-0.2 0-0.106 0.012-0.212 0.031-0.319 0.15-0.75 0.806-1.319 1.6-1.319 0.106 0 0.206 0.012 0.306 0.031 0.225-0.694 0.769-1.25 1.45-1.494 0.212-0.075 0.444-0.125 0.681-0.137 0.038 0 0.075 0 0.119 0 0.006 0 0.012 0 0.019 0 1.3 0.006 2.35 1.063 2.35 2.362 0 0.175-0.019 0.344-0.056 0.506 0.625 0.175 1.094 0.75 1.094 1.438z"></path>
<path fill="#fff" d="M27.5 16.9c0 0.675-0.281 1.288-0.738 1.719"></path>
</svg>
<svg id="icon-eye-find-view-svgrepo-com"  viewBox="0 0 32 32" x="0" y="0">
<path fill="#eeedf2" d="M29.475 16.231c0 7.442-6.033 13.475-13.475 13.475s-13.475-6.033-13.475-13.475c0-7.442 6.033-13.475 13.475-13.475s13.475 6.033 13.475 13.475z"></path>
<path fill="#d3d5e7" d="M26.081 16.194c0.012 0.019 0.012 0.050 0 0.069-2.256 3.769-5.938 6.225-10.094 6.225-4.137 0-7.781-2.394-10.044-6.137v0c-0.044-0.075-0.044-0.175 0-0.244 2.262-3.719 5.919-6.137 10.044-6.137s7.738 2.325 10 6.044l0.094 0.181z"></path>
<path fill="none" stroke="#fff" stroke-linejoin="miter" stroke-linecap="round" stroke-miterlimit="10" stroke-width="0.4375" d="M13.194 8.988l-0.456-0.369"></path>
<path fill="none" stroke="#fff" stroke-linejoin="miter" stroke-linecap="round" stroke-miterlimit="10" stroke-width="0.4375" d="M13.606 8.119l0.181 0.588"></path>
<path fill="none" stroke="#fff" stroke-linejoin="miter" stroke-linecap="round" stroke-miterlimit="10" stroke-width="0.4375" d="M14.537 8l-0.125 0.531"></path>
<path fill="#fff" stroke="#1e247e" stroke-linejoin="round" stroke-linecap="round" stroke-miterlimit="10" stroke-width="0.375" d="M24.825 16.206c0.012 0.012 0.012 0.038 0 0.050-1.975 2.769-5.2 4.569-8.838 4.569-3.625 0-6.813-1.756-8.794-4.5v0c-0.037-0.056-0.037-0.125 0-0.181 1.981-2.731 5.181-4.5 8.794-4.5s6.775 1.706 8.756 4.431l0.081 0.131z"></path>
<path fill="#69aef8" stroke="#1e247e" stroke-linejoin="round" stroke-linecap="round" stroke-miterlimit="10" stroke-width="0.375" d="M20.594 16.231c0 2.537-2.057 4.594-4.594 4.594s-4.594-2.057-4.594-4.594c0-2.537 2.057-4.594 4.594-4.594s4.594 2.057 4.594 4.594z"></path>
<path fill="#1e247e" stroke="#1e247e" stroke-linejoin="round" stroke-linecap="round" stroke-miterlimit="10" stroke-width="0.375" d="M17.688 16.231c0 0.932-0.756 1.688-1.688 1.688s-1.688-0.756-1.688-1.688c0-0.932 0.756-1.688 1.688-1.688s1.688 0.756 1.688 1.688z"></path>
<path fill="#fff" d="M18.288 14.544c0 0.632-0.512 1.144-1.144 1.144s-1.144-0.512-1.144-1.144c0-0.632 0.512-1.144 1.144-1.144s1.144 0.512 1.144 1.144z"></path>
<path fill="none" stroke="#1e247e" stroke-linejoin="miter" stroke-linecap="round" stroke-miterlimit="10" stroke-width="0.375" d="M25 23.019c0 1.025-0.831 1.856-1.856 1.856"></path>
<path fill="none" stroke="#1e247e" stroke-linejoin="miter" stroke-linecap="round" stroke-miterlimit="10" stroke-width="0.375" d="M23.144 7.588c1.025 0 1.856 0.831 1.856 1.856"></path>
<path fill="none" stroke="#1e247e" stroke-linejoin="miter" stroke-linecap="round" stroke-miterlimit="10" stroke-width="0.375" d="M8.8 24.875c-1.025 0-1.856-0.831-1.856-1.856"></path>
<path fill="none" stroke="#1e247e" stroke-linejoin="miter" stroke-linecap="round" stroke-miterlimit="10" stroke-width="0.375" d="M6.944 9.438c0-1.025 0.831-1.856 1.856-1.856"></path>
</svg>
<svg id="icon-podcasts-apps-network-audio-svgrepo-com" width="32" height="32" viewBox="0 0 32 32" x="240" y="0">
<path fill="#fff" d="M5.333 0h21.333c2.946 0 5.333 2.388 5.333 5.333v21.333c0 2.946-2.388 5.333-5.333 5.333h-21.333c-2.946 0-5.333-2.388-5.333-5.333v-21.333c0-2.946 2.388-5.333 5.333-5.333z"></path>
<path fill="#f1f3f4" d="M19.2 16c0 1.767-1.433 3.2-3.2 3.2s-3.2-1.433-3.2-3.2c0-1.767 1.433-3.2 3.2-3.2s3.2 1.433 3.2 3.2z"></path>
<path fill="#bf95bc" d="M16 20c-2.209 0-4-1.791-4-4s1.791-4 4-4c2.209 0 4 1.791 4 4v0c-0.002 2.208-1.792 3.998-4 4h-0zM16 13.6c-1.325 0-2.4 1.075-2.4 2.4s1.075 2.4 2.4 2.4c1.325 0 2.4-1.075 2.4-2.4v0c-0.002-1.325-1.075-2.399-2.4-2.4h-0z"></path>
<path fill="#e0acf6" d="M21.67 27.077c-0 0-0.001 0-0.001 0-0.442 0-0.8-0.358-0.8-0.8 0-0.3 0.165-0.561 0.409-0.698l0.004-0.002c3.394-1.9 5.651-5.473 5.651-9.573 0-6.038-4.895-10.933-10.933-10.933s-10.933 4.895-10.933 10.933c0 4.1 2.257 7.673 5.596 9.544l0.055 0.028c0.252 0.138 0.42 0.401 0.42 0.704 0 0.442-0.358 0.8-0.8 0.8-0.145 0-0.281-0.039-0.399-0.106l0.004 0.002c-3.89-2.178-6.477-6.273-6.477-10.973 0-6.922 5.611-12.533 12.533-12.533s12.533 5.611 12.533 12.533c0 4.7-2.587 8.795-6.414 10.94l-0.063 0.033c-0.111 0.063-0.245 0.1-0.387 0.1h-0z"></path>
<path fill="#e0acf6" d="M19.761 23.248c-0.001 0-0.003 0-0.004 0-0.442 0-0.8-0.358-0.8-0.8 0-0.295 0.16-0.553 0.397-0.691l0.004-0.002c1.993-1.177 3.309-3.315 3.309-5.76 0-3.682-2.985-6.667-6.667-6.667s-6.667 2.985-6.667 6.667c0 2.445 1.316 4.582 3.278 5.743l0.031 0.017c0.24 0.141 0.399 0.398 0.399 0.693 0 0.442-0.358 0.8-0.8 0.8-0.148 0-0.286-0.040-0.405-0.11l0.004 0.002c-2.472-1.46-4.105-4.11-4.105-7.142 0-4.566 3.701-8.267 8.267-8.267s8.267 3.701 8.267 8.267c0 3.032-1.632 5.683-4.066 7.121l-0.038 0.021c-0.115 0.068-0.254 0.108-0.402 0.108-0.001 0-0.001 0-0.002 0h0z"></path>
<path fill="#f1f3f4" d="M12.8 27.733h6.4l-3.2-6.4-3.2 6.4z"></path>
<path fill="#bf95bc" d="M19.2 28.533h-6.4c-0 0-0 0-0 0-0.442 0-0.8-0.358-0.8-0.8 0-0.13 0.031-0.254 0.087-0.362l-0.002 0.005 3.2-6.4c0.134-0.265 0.404-0.443 0.716-0.443s0.582 0.178 0.714 0.438l0.002 0.005 3.2 6.4c0.053 0.104 0.084 0.227 0.084 0.358 0 0.442-0.358 0.8-0.8 0.8-0 0-0 0-0 0v0zM14.094 26.933h3.811l-1.906-3.811z"></path>
<path fill="#ffafc5" d="M27.733 16.8c-0.442 0-0.8-0.358-0.8-0.8v0c0-6.038-4.895-10.933-10.933-10.933s-10.933 4.895-10.933 10.933v0c0 0.442-0.358 0.8-0.8 0.8s-0.8-0.358-0.8-0.8v0c0-6.922 5.611-12.533 12.533-12.533s12.533 5.611 12.533 12.533v0c0 0.442-0.358 0.8-0.8 0.8v0z"></path>
<path fill="#ffafc5" d="M23.467 16.8c-0.442 0-0.8-0.358-0.8-0.8v0c0-3.682-2.985-6.667-6.667-6.667s-6.667 2.985-6.667 6.667v0c0 0.442-0.358 0.8-0.8 0.8s-0.8-0.358-0.8-0.8v0c0-4.566 3.701-8.267 8.267-8.267s8.267 3.701 8.267 8.267v0c0 0.442-0.358 0.8-0.8 0.8v0z"></path>
</svg>
<svg id="icon-slack-work-chat-apps-svgrepo-com" width="32" height="32" viewBox="0 0 32 32" x="288" y="0">
<path fill="#fff" d="M5.333 0h21.333c2.946 0 5.333 2.388 5.333 5.333v21.333c0 2.946-2.388 5.333-5.333 5.333h-21.333c-2.946 0-5.333-2.388-5.333-5.333v-21.333c0-2.946 2.388-5.333 5.333-5.333z"></path>
<path fill="#bec6f4" d="M6.4 10.667h6.4c1.178 0 2.133 0.955 2.133 2.133s-0.955 2.133-2.133 2.133h-6.4c-1.178 0-2.133-0.955-2.133-2.133s0.955-2.133 2.133-2.133z"></path>
<path fill="#8d9cf4" d="M12.8 15.733h-6.4c-1.62 0-2.933-1.313-2.933-2.933s1.313-2.933 2.933-2.933v0h6.4c1.62 0 2.933 1.313 2.933 2.933s-1.313 2.933-2.933 2.933v0zM6.4 11.467c-0.736 0-1.333 0.597-1.333 1.333s0.597 1.333 1.333 1.333v0h6.4c0.736 0 1.333-0.597 1.333-1.333s-0.597-1.333-1.333-1.333v0z"></path>
<path fill="#bec6f4" d="M12.8 4.267v0c1.178 0 2.133 0.955 2.133 2.133v0 2.133h-2.133c-1.178 0-2.133-0.955-2.133-2.133v0 0c0-1.178 0.955-2.133 2.133-2.133v0z"></path>
<path fill="#8d9cf4" d="M14.933 9.333h-2.133c-1.62 0-2.933-1.313-2.933-2.933s1.313-2.933 2.933-2.933c1.62 0 2.933 1.313 2.933 2.933v0 2.133c0 0.442-0.358 0.8-0.8 0.8v0zM12.8 5.067c-0.736 0-1.333 0.597-1.333 1.333s0.597 1.333 1.333 1.333v0h1.333v-1.333c0-0.736-0.597-1.333-1.333-1.333v0z"></path>
<path fill="#c1f7fd" d="M21.333 6.4v6.4c0 1.178-0.955 2.133-2.133 2.133s-2.133-0.955-2.133-2.133v-6.4c0-1.178 0.955-2.133 2.133-2.133s2.133 0.955 2.133 2.133z"></path>
<path fill="#7bcdd1" d="M19.2 15.733c-1.619-0.002-2.931-1.314-2.933-2.933v-6.4c0-1.62 1.313-2.933 2.933-2.933s2.933 1.313 2.933 2.933v0 6.4c-0.002 1.619-1.314 2.931-2.933 2.933h-0zM19.2 5.067c-0.736 0-1.333 0.597-1.333 1.333v0 6.4c0 0.736 0.597 1.333 1.333 1.333s1.333-0.597 1.333-1.333v0-6.4c0-0.736-0.597-1.333-1.333-1.333v0z"></path>
<path fill="#c1f7fd" d="M27.733 12.8v0c0 1.178-0.955 2.133-2.133 2.133v0h-2.133v-2.133c0-1.178 0.955-2.133 2.133-2.133v0 0c1.178 0 2.133 0.955 2.133 2.133v0z"></path>
<path fill="#7bcdd1" d="M25.6 15.733h-2.133c-0.442 0-0.8-0.358-0.8-0.8v0-2.133c0-1.62 1.313-2.933 2.933-2.933s2.933 1.313 2.933 2.933c0 1.62-1.313 2.933-2.933 2.933v0zM24.267 14.133h1.333c0.736 0 1.333-0.597 1.333-1.333s-0.597-1.333-1.333-1.333c-0.736 0-1.333 0.597-1.333 1.333v0z"></path>
<path fill="#eff28d" d="M25.6 21.333h-6.4c-1.178 0-2.133-0.955-2.133-2.133s0.955-2.133 2.133-2.133h6.4c1.178 0 2.133 0.955 2.133 2.133s-0.955 2.133-2.133 2.133z"></path>
<path fill="#f2bf80" d="M25.6 22.133h-6.4c-1.62 0-2.933-1.313-2.933-2.933s1.313-2.933 2.933-2.933v0h6.4c1.62 0 2.933 1.313 2.933 2.933s-1.313 2.933-2.933 2.933v0zM19.2 17.867c-0.736 0-1.333 0.597-1.333 1.333s0.597 1.333 1.333 1.333v0h6.4c0.736 0 1.333-0.597 1.333-1.333s-0.597-1.333-1.333-1.333v0z"></path>
<path fill="#eff28d" d="M19.2 27.733v0c-1.178 0-2.133-0.955-2.133-2.133v0-2.133h2.133c1.178 0 2.133 0.955 2.133 2.133v0 0c0 1.178-0.955 2.133-2.133 2.133v0z"></path>
<path fill="#f2bf80" d="M19.2 28.533c-1.619-0.002-2.931-1.314-2.933-2.933v-2.134c0-0.442 0.358-0.8 0.8-0.8v0h2.133c1.62 0 2.933 1.313 2.933 2.933s-1.313 2.933-2.933 2.933v0zM17.867 24.267v1.333c0 0.736 0.597 1.333 1.333 1.333s1.333-0.597 1.333-1.333c0-0.736-0.597-1.333-1.333-1.333v0z"></path>
<path fill="#ffafc5" d="M10.667 25.6v-6.4c0-1.178 0.955-2.133 2.133-2.133s2.133 0.955 2.133 2.133v6.4c0 1.178-0.955 2.133-2.133 2.133s-2.133-0.955-2.133-2.133z"></path>
<path fill="#f28080" d="M12.8 28.533c-1.619-0.002-2.931-1.314-2.933-2.933v-6.4c0-1.62 1.313-2.933 2.933-2.933s2.933 1.313 2.933 2.933v0 6.4c-0.002 1.619-1.314 2.931-2.933 2.933h-0zM12.8 17.867c-0.736 0-1.333 0.597-1.333 1.333v0 6.4c0 0.736 0.597 1.333 1.333 1.333s1.333-0.597 1.333-1.333v0-6.4c0-0.736-0.597-1.333-1.333-1.333v0z"></path>
<path fill="#ffafc5" d="M4.267 19.2v0c0-1.178 0.955-2.133 2.133-2.133v0h2.133v2.133c0 1.178-0.955 2.133-2.133 2.133v0 0c-1.178 0-2.133-0.955-2.133-2.133v0z"></path>
<path fill="#f28080" d="M6.4 22.133c-1.62 0-2.933-1.313-2.933-2.933s1.313-2.933 2.933-2.933v0h2.133c0.442 0 0.8 0.358 0.8 0.8v0 2.133c-0.002 1.619-1.314 2.931-2.933 2.933h-0zM6.4 17.867c-0.736 0-1.333 0.597-1.333 1.333s0.597 1.333 1.333 1.333c0.736 0 1.333-0.597 1.333-1.333v0-1.333z"></path>
<path fill="#e0acf6" d="M4.267 13.6c-0.442 0-0.8-0.358-0.8-0.8v0c0.002-1.619 1.314-2.931 2.933-2.933h6.4c0.442 0 0.8 0.358 0.8 0.8s-0.358 0.8-0.8 0.8v0h-6.4c-0.736 0-1.333 0.597-1.333 1.333v0c0 0.442-0.358 0.8-0.8 0.8v0z"></path>
<path fill="#bbd9c8" d="M17.067 13.6c-0.442 0-0.8-0.358-0.8-0.8v0-6.4c0.002-1.619 1.314-2.931 2.933-2.933h0c0.442 0 0.8 0.358 0.8 0.8s-0.358 0.8-0.8 0.8v0c-0.736 0-1.333 0.597-1.333 1.333v0 6.4c0 0.442-0.358 0.8-0.8 0.8v0z"></path>
</svg>
</svg>
