<svg aria-hidden="true" style="position: absolute; width: 0; height: 0; overflow: hidden;" version="1.1" xmlns="http://www.w3.org/2000/svg" xmlns:xlink="http://www.w3.org/1999/xlink">
<defs>
<symbol id="icon-contacts-svgrepo-com" viewBox="0 0 32 32">
<path fill="#c75c5c" style="fill: var(--color1, #c75c5c)" d="M32 16c0 8.837-7.163 16-16 16s-16-7.163-16-16c0-8.837 7.163-16 16-16s16 7.163 16 16z"></path>
<path fill="#231f20" style="fill: var(--color2, #231f20)" opacity="0.2" d="M24.5 13c-0.55 0-1-0.45-1-1v-1.5c0-0.55 0.45-1 1-1v0c0.55 0 1 0.45 1 1v1.5c0 0.55-0.45 1-1 1v0z"></path>
<path fill="#231f20" style="fill: var(--color2, #231f20)" opacity="0.2" d="M24.5 17.5c-0.55 0-1-0.45-1-1v-1.5c0-0.55 0.45-1 1-1v0c0.55 0 1 0.45 1 1v1.5c0 0.55-0.45 1-1 1v0z"></path>
<path fill="#231f20" style="fill: var(--color2, #231f20)" opacity="0.2" d="M24.5 22c-0.55 0-1-0.45-1-1v-1.5c0-0.55 0.45-1 1-1v0c0.55 0 1 0.45 1 1v1.5c0 0.55-0.45 1-1 1v0z"></path>
<path fill="#77b3d4" style="fill: var(--color3, #77b3d4)" d="M24.5 12c-0.55 0-1-0.45-1-1v-1.5c0-0.55 0.45-1 1-1v0c0.55 0 1 0.45 1 1v1.5c0 0.55-0.45 1-1 1v0z"></path>
<path fill="#fff" style="fill: var(--color4, #fff)" d="M24.5 16.5c-0.55 0-1-0.45-1-1v-1.5c0-0.55 0.45-1 1-1v0c0.55 0 1 0.45 1 1v1.5c0 0.55-0.45 1-1 1v0z"></path>
<path fill="#76c2af" style="fill: var(--color5, #76c2af)" d="M24.5 21c-0.55 0-1-0.45-1-1v-1.5c0-0.55 0.45-1 1-1v0c0.55 0 1 0.45 1 1v1.5c0 0.55-0.45 1-1 1v0z"></path>
<path fill="#231f20" style="fill: var(--color2, #231f20)" opacity="0.2" d="M24.5 25c0 1.1-0.9 2-2 2h-12c-1.1 0-2-0.9-2-2v-16c0-1.1 0.9-2 2-2h12c1.1 0 2 0.9 2 2v16z"></path>
<path fill="#e0995e" style="fill: var(--color6, #e0995e)" d="M24 24c0 1.1-0.9 2-2 2h-12c-1.1 0-2-0.9-2-2v-16c0-1.1 0.9-2 2-2h12c1.1 0 2 0.9 2 2v16z"></path>
<path fill="#4f5d73" style="fill: var(--color7, #4f5d73)" d="M11 6h1.5v20h-1.5v-20z"></path>
<path fill="#231f20" style="fill: var(--color2, #231f20)" opacity="0.2" d="M10 11c0 0.55-0.45 1-1 1h-1.5c-0.55 0-1-0.45-1-1v0c0-0.55 0.45-1 1-1h1.5c0.55 0 1 0.45 1 1v0z"></path>
<path fill="#231f20" style="fill: var(--color2, #231f20)" opacity="0.2" d="M10 15c0 0.55-0.45 1-1 1h-1.5c-0.55 0-1-0.45-1-1v0c0-0.55 0.45-1 1-1h1.5c0.55 0 1 0.45 1 1v0z"></path>
<path fill="#231f20" style="fill: var(--color2, #231f20)" opacity="0.2" d="M10 19c0 0.55-0.45 1-1 1h-1.5c-0.55 0-1-0.45-1-1v0c0-0.55 0.45-1 1-1h1.5c0.55 0 1 0.45 1 1v0z"></path>
<path fill="#231f20" style="fill: var(--color2, #231f20)" opacity="0.2" d="M10 23c0 0.55-0.45 1-1 1h-1.5c-0.55 0-1-0.45-1-1v0c0-0.55 0.45-1 1-1h1.5c0.55 0 1 0.45 1 1v0z"></path>
<path fill="#e0e0d1" style="fill: var(--color8, #e0e0d1)" d="M10 10c0 0.55-0.45 1-1 1h-1.5c-0.55 0-1-0.45-1-1v0c0-0.55 0.45-1 1-1h1.5c0.55 0 1 0.45 1 1v0z"></path>
<path fill="#e0e0d1" style="fill: var(--color8, #e0e0d1)" d="M10 14c0 0.55-0.45 1-1 1h-1.5c-0.55 0-1-0.45-1-1v0c0-0.55 0.45-1 1-1h1.5c0.55 0 1 0.45 1 1v0z"></path>
<path fill="#e0e0d1" style="fill: var(--color8, #e0e0d1)" d="M10 18c0 0.55-0.45 1-1 1h-1.5c-0.55 0-1-0.45-1-1v0c0-0.55 0.45-1 1-1h1.5c0.55 0 1 0.45 1 1v0z"></path>
<path fill="#e0e0d1" style="fill: var(--color8, #e0e0d1)" d="M10 22c0 0.55-0.45 1-1 1h-1.5c-0.55 0-1-0.45-1-1v0c0-0.55 0.45-1 1-1h1.5c0.55 0 1 0.45 1 1v0z"></path>
<path fill="#f5cf87" style="fill: var(--color9, #f5cf87)" d="M20 13.5c0 1.105-0.895 2-2 2s-2-0.895-2-2c0-1.105 0.895-2 2-2s2 0.895 2 2z"></path>
<path fill="#f5cf87" style="fill: var(--color9, #f5cf87)" d="M21 19.65c0 1.5-1.35 1.35-3 1.35s-3 0.15-3-1.35c0-1.5 1.35-3.65 3-3.65s3 2.1 3 3.65z"></path>
</symbol>
<symbol id="icon-news-svgrepo-com" viewBox="0 0 32 32">
<path fill="#c75c5c" style="fill: var(--color1, #c75c5c)" d="M32 16c0 8.837-7.163 16-16 16s-16-7.163-16-16c0-8.837 7.163-16 16-16s16 7.163 16 16z"></path>
<path fill="#231f20" style="fill: var(--color2, #231f20)" opacity="0.2" d="M26 25c0 1.1-0.9 2-2 2h-16c-1.1 0-2-0.9-2-2v-14c0-1.1 0.9-2 2-2h16c1.1 0 2 0.9 2 2v14z"></path>
<path fill="#e0e0d1" style="fill: var(--color8, #e0e0d1)" d="M26 24c0 1.1-0.9 2-2 2h-16c-1.1 0-2-0.9-2-2v-14c0-1.1 0.9-2 2-2h16c1.1 0 2 0.9 2 2v14z"></path>
<path fill="#231f20" style="fill: var(--color2, #231f20)" opacity="0.2" d="M26 23c0 1.1-0.9 2-2 2h-16c-1.1 0-2-0.9-2-2v-14c0-1.1 0.9-2 2-2h16c1.1 0 2 0.9 2 2v14z"></path>
<path fill="#e0e0d1" style="fill: var(--color8, #e0e0d1)" d="M26 22c0 1.1-0.9 2-2 2h-16c-1.1 0-2-0.9-2-2v-14c0-1.1 0.9-2 2-2h16c1.1 0 2 0.9 2 2v14z"></path>
<path fill="#4f5d73" style="fill: var(--color7, #4f5d73)" d="M8 12h6v6h-6v-6z"></path>
<path fill="#4f5d73" style="fill: var(--color7, #4f5d73)" d="M18 13.5h6v0.5h-6v-0.5z"></path>
<path fill="#4f5d73" style="fill: var(--color7, #4f5d73)" d="M18 12.5h6v0.5h-6v-0.5z"></path>
<path fill="#4f5d73" style="fill: var(--color7, #4f5d73)" d="M16 12h1.5v2h-1.5v-2z"></path>
<path fill="#4f5d73" style="fill: var(--color7, #4f5d73)" d="M16 15h8v0.5h-8v-0.5z"></path>
<path fill="#4f5d73" style="fill: var(--color7, #4f5d73)" d="M16 16h8v0.5h-8v-0.5z"></path>
<path fill="#4f5d73" style="fill: var(--color7, #4f5d73)" d="M16 17h8v0.5h-8v-0.5z"></path>
<path fill="#4f5d73" style="fill: var(--color7, #4f5d73)" d="M16 18h8v0.5h-8v-0.5z"></path>
<path fill="#4f5d73" style="fill: var(--color7, #4f5d73)" d="M17.95 19.5h6.050v0.5h-6.050v-0.5z"></path>
<path fill="#4f5d73" style="fill: var(--color7, #4f5d73)" d="M8 19.5h6v0.5h-6v-0.5z"></path>
<path fill="#4f5d73" style="fill: var(--color7, #4f5d73)" d="M8 20.5h6v0.5h-6v-0.5z"></path>
<path fill="#4f5d73" style="fill: var(--color7, #4f5d73)" d="M8 21.5h6v0.5h-6v-0.5z"></path>
<path fill="#4f5d73" style="fill: var(--color7, #4f5d73)" d="M8 22.5h6v0.5h-6v-0.5z"></path>
<path fill="#4f5d73" style="fill: var(--color7, #4f5d73)" d="M16 20.5h8v0.5h-8v-0.5z"></path>
<path fill="#4f5d73" style="fill: var(--color7, #4f5d73)" d="M16 21.5h8v0.5h-8v-0.5z"></path>
<path fill="#4f5d73" style="fill: var(--color7, #4f5d73)" d="M16 22.5h8v0.5h-8v-0.5z"></path>
<path fill="#e0e0d1" style="fill: var(--color8, #e0e0d1)" d="M13 14c0 0.552-0.448 1-1 1s-1-0.448-1-1c0-0.552 0.448-1 1-1s1 0.448 1 1z"></path>
<path fill="#4f5d73" style="fill: var(--color7, #4f5d73)" d="M8 8h16v2h-16v-2z"></path>
<path fill="#e0e0d1" style="fill: var(--color8, #e0e0d1)" d="M13.5 17.5v-1.2l-0.4-0.4c-0.25-0.25-0.65-0.25-0.9 0l-0.4 0.4-0.95-0.95c-0.5-0.5-1.3-0.5-1.75 0l-0.6 0.6v1.55h5z"></path>
</symbol>
<symbol id="icon-news-svgrepo-com2" viewBox="0 0 32 32">
<path fill="#77b3d4" style="fill: var(--color3, #77b3d4)" d="M32 16c0 8.837-7.163 16-16 16s-16-7.163-16-16c0-8.837 7.163-16 16-16s16 7.163 16 16z"></path>
<path fill="#231f20" style="fill: var(--color2, #231f20)" opacity="0.2" d="M24 25c0 1.1-0.9 2-2 2h-12c-1.1 0-2-0.9-2-2v-16c0-1.1 0.9-2 2-2h12c1.1 0 2 0.9 2 2v16z"></path>
<path fill="#4f5d73" style="fill: var(--color7, #4f5d73)" d="M24 24c0 1.1-0.9 2-2 2h-12c-1.1 0-2-0.9-2-2v-16c0-1.1 0.9-2 2-2h12c1.1 0 2 0.9 2 2v16z"></path>
<path fill="#231f20" style="fill: var(--color2, #231f20)" opacity="0.2" d="M17.5 7v3.9c0 0.15 0.1 0.25 0.2 0.3 0.050 0 0.1 0 0.15 0 0.1 0 0.15-0.050 0.25-0.1l1.45-1.4 1.45 1.4c0.050 0.050 0.15 0.1 0.25 0.1 0.050 0 0.1 0 0.15 0 0.1-0.050 0.2-0.15 0.2-0.3v-3.9h-4.1z"></path>
<path fill="#c75c5c" style="fill: var(--color1, #c75c5c)" d="M17.5 6v3.9c0 0.15 0.1 0.25 0.2 0.3 0.050 0 0.1 0 0.15 0 0.1 0 0.15-0.050 0.25-0.1l1.45-1.4 1.45 1.4c0.050 0.050 0.15 0.1 0.25 0.1 0.050 0 0.1 0 0.15 0 0.1-0.050 0.2-0.15 0.2-0.3v-3.9h-4.1z"></path>
<path fill="#e0e0d1" style="fill: var(--color8, #e0e0d1)" d="M10 6h1.5v20h-1.5v-20z"></path>
</symbol>
<symbol id="icon-bookshelf-svgrepo-com" viewBox="0 0 32 32">
<path fill="#77b3d4" style="fill: var(--color3, #77b3d4)" d="M31.9 16c0 8.837-7.163 16-16 16s-16-7.163-16-16c0-8.837 7.163-16 16-16s16 7.163 16 16z"></path>
<path fill="#231f20" style="fill: var(--color2, #231f20)" opacity="0.2" d="M26 24c0 0.55-0.45 1-1 1h-18c-0.55 0-1-0.45-1-1v0c0-0.55 0.45-1 1-1h18c0.55 0 1 0.45 1 1v0z"></path>
<path fill="#e0995e" style="fill: var(--color6, #e0995e)" d="M26 23c0 0.55-0.45 1-1 1h-18c-0.55 0-1-0.45-1-1v0c0-0.55 0.45-1 1-1h18c0.55 0 1 0.45 1 1v0z"></path>
<path fill="#c75c5c" style="fill: var(--color1, #c75c5c)" d="M11.5 10h-2c-0.85 0-1.5 0.65-1.5 1.5v10.5h5v-10.5c0-0.85-0.65-1.5-1.5-1.5z"></path>
<path fill="#e0e0d1" style="fill: var(--color8, #e0e0d1)" d="M22.5 8h-2c-0.85 0-1.5 0.65-1.5 1.5v12.5h5v-12.5c0-0.85-0.65-1.5-1.5-1.5z"></path>
<path fill="#e0995e" style="fill: var(--color6, #e0995e)" d="M8 12h5v1.5h-5v-1.5z"></path>
<path fill="#e0995e" style="fill: var(--color6, #e0995e)" d="M8 18.5h5v1.5h-5v-1.5z"></path>
<path fill="#fff" style="fill: var(--color4, #fff)" d="M19 18.5h5v1.5h-5v-1.5z"></path>
<path fill="#fff" style="fill: var(--color4, #fff)" d="M19 10h5v1.5h-5v-1.5z"></path>
<path fill="#231f20" style="fill: var(--color2, #231f20)" opacity="0.2" d="M20 20v-11.9c-0.6 0.2-1 0.75-1 1.4v12.5h1v-2z"></path>
<path fill="#231f20" style="fill: var(--color2, #231f20)" opacity="0.2" d="M13 20v-8.5c0-0.65-0.4-1.2-1-1.4v11.9h1v-2z"></path>
<path fill="#4f5d73" style="fill: var(--color7, #4f5d73)" d="M17.5 6h-3c-0.85 0-1.5 0.65-1.5 1.5v14.5h6v-14.5c0-0.85-0.65-1.5-1.5-1.5z"></path>
<path fill="#76c2af" style="fill: var(--color5, #76c2af)" d="M13 8h6v1.5h-6v-1.5z"></path>
<path fill="#76c2af" style="fill: var(--color5, #76c2af)" d="M13 18.5h6v1.5h-6v-1.5z"></path>
</symbol>
<symbol id="icon-browser-svgrepo-com" viewBox="0 0 32 32">
<path fill="#77b3d4" style="fill: var(--color3, #77b3d4)" d="M32 16c0 8.837-7.163 16-16 16s-16-7.163-16-16c0-8.837 7.163-16 16-16s16 7.163 16 16z"></path>
<path fill="#231f20" style="fill: var(--color2, #231f20)" opacity="0.2" d="M26 24c0 1.1-0.9 2-2 2h-16c-1.1 0-2-0.9-2-2v-15c0-1.1 0.9-2 2-2h16c1.1 0 2 0.9 2 2v15z"></path>
<path fill="#fff" style="fill: var(--color4, #fff)" d="M6 10.75v12.25c0 1.1 0.9 2 2 2h16c1.1 0 2-0.9 2-2v-12.25h-20z"></path>
<path fill="#231f20" style="fill: var(--color2, #231f20)" opacity="0.2" d="M26 9c0-1.1-0.9-2-2-2h-16c-1.1 0-2 0.9-2 2v3h20v-3z"></path>
<path fill="#e0e0d1" style="fill: var(--color8, #e0e0d1)" d="M26 8c0-1.1-0.9-2-2-2h-16c-1.1 0-2 0.9-2 2v3h20v-3z"></path>
<path fill="#e0995e" style="fill: var(--color6, #e0995e)" d="M12.5 8.5c0 0.552-0.448 1-1 1s-1-0.448-1-1c0-0.552 0.448-1 1-1s1 0.448 1 1z"></path>
<path fill="#76c2af" style="fill: var(--color5, #76c2af)" d="M15.5 8.5c0 0.552-0.448 1-1 1s-1-0.448-1-1c0-0.552 0.448-1 1-1s1 0.448 1 1z"></path>
<path fill="#c75c5c" style="fill: var(--color1, #c75c5c)" d="M9.5 8.5c0 0.552-0.448 1-1 1s-1-0.448-1-1c0-0.552 0.448-1 1-1s1 0.448 1 1z"></path>
<path fill="#4f5d73" style="fill: var(--color7, #4f5d73)" d="M8 14h6v9h-6v-9z"></path>
<path fill="#e0e0d1" style="fill: var(--color8, #e0e0d1)" d="M16 14h8v1h-8v-1z"></path>
<path fill="#e0e0d1" style="fill: var(--color8, #e0e0d1)" d="M16 16h8v1h-8v-1z"></path>
<path fill="#e0e0d1" style="fill: var(--color8, #e0e0d1)" d="M16 18h8v1h-8v-1z"></path>
<path fill="#e0e0d1" style="fill: var(--color8, #e0e0d1)" d="M16 20h8v1h-8v-1z"></path>
<path fill="#e0e0d1" style="fill: var(--color8, #e0e0d1)" d="M16 22h8v1h-8v-1z"></path>
</symbol>
<symbol id="icon-check-svgrepo-com" viewBox="0 0 32 32">
<path fill="#76c2af" style="fill: var(--color5, #76c2af)" d="M32 16c0 8.837-7.163 16-16 16s-16-7.163-16-16c0-8.837 7.163-16 16-16s16 7.163 16 16z"></path>
<path fill="#231f20" style="fill: var(--color2, #231f20)" opacity="0.2" d="M23 22.5c0 1.1-0.9 2-2 2h-10c-1.1 0-2-0.9-2-2v-10c0-1.1 0.9-2 2-2h10c1.1 0 2 0.9 2 2v10z"></path>
<path fill="#fff" style="fill: var(--color4, #fff)" d="M11 22.5c-0.55 0-1-0.45-1-1v-10c0-0.55 0.45-1 1-1h10c0.55 0 1 0.45 1 1v10c0 0.55-0.45 1-1 1h-10z"></path>
<path fill="#4f5d73" style="fill: var(--color7, #4f5d73)" d="M21 11.5v10h-10v-10h10zM21 9.5h-10c-1.1 0-2 0.9-2 2v10c0 1.1 0.9 2 2 2h10c1.1 0 2-0.9 2-2v-10c0-1.1-0.9-2-2-2v0z"></path>
<path fill="#231f20" style="fill: var(--color2, #231f20)" opacity="0.2" d="M16.25 20.5c-0.3 0-0.6-0.15-0.8-0.4l-3.050-4c-0.35-0.45-0.25-1.050 0.2-1.4s1.050-0.25 1.4 0.2l2.1 2.75c1.15-2.1 3.65-5.9 7.65-8.45 0.45-0.3 1.1-0.15 1.4 0.3s0.15 1.1-0.3 1.4c-5.1 3.3-7.6 9-7.65 9.050-0.15 0.35-0.45 0.55-0.8 0.6-0.1-0.050-0.15-0.050-0.15-0.050z"></path>
<path fill="#c75c5c" style="fill: var(--color1, #c75c5c)" d="M16.25 19.5c-0.3 0-0.6-0.15-0.8-0.4l-3.050-4c-0.35-0.45-0.25-1.050 0.2-1.4s1.050-0.25 1.4 0.2l2.1 2.75c1.15-2.1 3.65-5.9 7.65-8.45 0.45-0.3 1.1-0.15 1.4 0.3s0.15 1.1-0.3 1.4c-5.1 3.3-7.6 9-7.65 9.050-0.15 0.35-0.45 0.55-0.8 0.6-0.1-0.050-0.15-0.050-0.15-0.050z"></path>
</symbol>
<symbol id="icon-clipboard-svgrepo-com" viewBox="0 0 32 32">
<path fill="#77b3d4" style="fill: var(--color3, #77b3d4)" d="M32 16c0 8.837-7.163 16-16 16s-16-7.163-16-16c0-8.837 7.163-16 16-16s16 7.163 16 16z"></path>
<path fill="#231f20" style="fill: var(--color2, #231f20)" opacity="0.2" d="M24 7h-16c-1.1 0-2 0.9-2 2v16c0 1.1 0.9 2 2 2h16c1.1 0 2-0.9 2-2v-16c0-1.1-0.9-2-2-2z"></path>
<path fill="#e0995e" style="fill: var(--color6, #e0995e)" d="M24 6h-16c-1.1 0-2 0.9-2 2v16c0 1.1 0.9 2 2 2h16c1.1 0 2-0.9 2-2v-16c0-1.1-0.9-2-2-2z"></path>
<path fill="#231f20" style="fill: var(--color2, #231f20)" opacity="0.2" d="M8 9h16v16h-16v-16z"></path>
<path fill="#fff" style="fill: var(--color4, #fff)" d="M8 8h16v16h-16v-16z"></path>
<path fill="#e0e0d1" style="fill: var(--color8, #e0e0d1)" d="M11 12h10v1h-10v-1z"></path>
<path fill="#e0e0d1" style="fill: var(--color8, #e0e0d1)" d="M11 14h10v1h-10v-1z"></path>
<path fill="#e0e0d1" style="fill: var(--color8, #e0e0d1)" d="M11 16h10v1h-10v-1z"></path>
<path fill="#e0e0d1" style="fill: var(--color8, #e0e0d1)" d="M11 18h10v1h-10v-1z"></path>
<path fill="#e0e0d1" style="fill: var(--color8, #e0e0d1)" d="M11 20h10v1h-10v-1z"></path>
<path fill="#231f20" style="fill: var(--color2, #231f20)" opacity="0.2" d="M18.5 6h-6.5v2.5c0 0.85 0.65 1.5 1.5 1.5h5c0.85 0 1.5-0.65 1.5-1.5v-2.5h-1.5z"></path>
<path fill="#4f5d73" style="fill: var(--color7, #4f5d73)" d="M18.5 5h-6.5v2.5c0 0.85 0.65 1.5 1.5 1.5h5c0.85 0 1.5-0.65 1.5-1.5v-2.5h-1.5z"></path>
</symbol>
<symbol id="icon-document-svgrepo-com" viewBox="0 0 32 32">
<path fill="#e0995e" style="fill: var(--color6, #e0995e)" d="M32 16c0 8.837-7.163 16-16 16s-16-7.163-16-16c0-8.837 7.163-16 16-16s16 7.163 16 16z"></path>
<path fill="#231f20" style="fill: var(--color2, #231f20)" opacity="0.2" d="M18 11.5v-4.5h-8.5c-0.85 0-1.5 0.65-1.5 1.5v17c0 0.85 0.65 1.5 1.5 1.5h13c0.85 0 1.5-0.65 1.5-1.5v-12.5h-4.5c-0.85 0-1.5-0.65-1.5-1.5z"></path>
<path fill="#e0e0d1" style="fill: var(--color8, #e0e0d1)" d="M18 10.5v-4.5h-8.5c-0.85 0-1.5 0.65-1.5 1.5v17c0 0.85 0.65 1.5 1.5 1.5h13c0.85 0 1.5-0.65 1.5-1.5v-12.5h-4.5c-0.85 0-1.5-0.65-1.5-1.5z"></path>
<path fill="#231f20" style="fill: var(--color2, #231f20)" opacity="0.2" d="M18.5 11.65l5.5 4.85v-4.5z"></path>
<path fill="#fff" style="fill: var(--color4, #fff)" d="M18 6v4.5c0 0.85 0.65 1.5 1.5 1.5h4.5l-6-6z"></path>
<path fill="#231f20" style="fill: var(--color2, #231f20)" opacity="0.2" d="M11 11h4.8v1h-4.8v-1z"></path>
<path fill="#231f20" style="fill: var(--color2, #231f20)" opacity="0.2" d="M11 16h10v1h-10v-1z"></path>
<path fill="#231f20" style="fill: var(--color2, #231f20)" opacity="0.2" d="M11 13.5h10v1h-10v-1z"></path>
<path fill="#231f20" style="fill: var(--color2, #231f20)" opacity="0.2" d="M11 18.5h10v1h-10v-1z"></path>
<path fill="#231f20" style="fill: var(--color2, #231f20)" opacity="0.2" d="M11 21h10v1h-10v-1z"></path>
</symbol>
<symbol id="icon-easel-svgrepo-com" viewBox="0 0 32 32">
<path fill="#4f5d73" style="fill: var(--color7, #4f5d73)" d="M32 16c0 8.837-7.163 16-16 16s-16-7.163-16-16c0-8.837 7.163-16 16-16s16 7.163 16 16z"></path>
<path fill="#231f20" style="fill: var(--color2, #231f20)" opacity="0.2" d="M9.5 27.75c-0.050 0-0.1 0-0.15 0-0.4-0.1-0.65-0.5-0.55-0.9l4.5-20c0.1-0.4 0.5-0.65 0.9-0.55s0.65 0.5 0.55 0.9l-4.5 20c-0.1 0.3-0.4 0.55-0.75 0.55z"></path>
<path fill="#231f20" style="fill: var(--color2, #231f20)" opacity="0.2" d="M22.5 27.75c-0.35 0-0.65-0.25-0.75-0.6l-4-20c-0.1-0.4 0.2-0.8 0.6-0.9s0.8 0.2 0.9 0.6l4 20c0.1 0.4-0.2 0.8-0.6 0.9-0.050 0-0.1 0-0.15 0z"></path>
<path fill="#231f20" style="fill: var(--color2, #231f20)" opacity="0.2" d="M16 27.75c-0.4 0-0.75-0.35-0.75-0.75v-8.3c0-0.4 0.35-0.75 0.75-0.75s0.75 0.35 0.75 0.75v8.3c0 0.4-0.35 0.75-0.75 0.75z"></path>
<path fill="#f5cf87" style="fill: var(--color9, #f5cf87); stroke: var(--color6, #e0995e)" stroke="#e0995e" stroke-linejoin="round" stroke-linecap="round" stroke-miterlimit="10" stroke-width="1.5" d="M14 6l-4.5 20"></path>
<path fill="#f5cf87" style="fill: var(--color9, #f5cf87); stroke: var(--color6, #e0995e)" stroke="#e0995e" stroke-linejoin="round" stroke-linecap="round" stroke-miterlimit="10" stroke-width="1.5" d="M18.5 6l4 20"></path>
<path fill="none" stroke="#e0995e" style="stroke: var(--color6, #e0995e)" stroke-linejoin="round" stroke-linecap="round" stroke-miterlimit="10" stroke-width="1.5" d="M16 17.7v8.3"></path>
<path fill="#231f20" style="fill: var(--color2, #231f20)" opacity="0.2" d="M24.5 20.1c0 0.5-0.5 0.9-1.050 0.9h-14.9c-0.55 0-1.050-0.4-1.050-0.9v-9.2c0-0.5 0.5-0.9 1.050-0.9h14.9c0.6 0 1.050 0.4 1.050 0.9v9.2z"></path>
<path fill="#fff" style="fill: var(--color4, #fff)" d="M24.5 19.1c0 0.5-0.5 0.9-1.050 0.9h-14.9c-0.55 0-1.050-0.4-1.050-0.9v-9.2c0-0.5 0.5-0.9 1.050-0.9h14.9c0.6 0 1.050 0.4 1.050 0.9v9.2z"></path>
<path fill="#231f20" style="fill: var(--color2, #231f20)" opacity="0.2" d="M20.5 10.75h-9c-0.4 0-0.75-0.35-0.75-0.75s0.35-0.75 0.75-0.75h9c0.4 0 0.75 0.35 0.75 0.75s-0.35 0.75-0.75 0.75z"></path>
<path fill="#231f20" style="fill: var(--color2, #231f20)" opacity="0.2" d="M20.5 21.75h-9c-0.4 0-0.75-0.35-0.75-0.75s0.35-0.75 0.75-0.75h9c0.4 0 0.75 0.35 0.75 0.75s-0.35 0.75-0.75 0.75z"></path>
<path fill="none" stroke="#f5cf87" style="stroke: var(--color9, #f5cf87)" stroke-linejoin="round" stroke-linecap="round" stroke-miterlimit="10" stroke-width="1.5" d="M11.5 9.25h9"></path>
<path fill="none" stroke="#f5cf87" style="stroke: var(--color9, #f5cf87)" stroke-linejoin="round" stroke-linecap="round" stroke-miterlimit="10" stroke-width="1.5" d="M11.5 20.25h9"></path>
<path fill="none" stroke="#c75c5c" style="stroke: var(--color1, #c75c5c)" stroke-linejoin="miter" stroke-linecap="round" stroke-miterlimit="10" stroke-width="1.5" d="M9.75 18c0 0 5.5-9 5.5-5s0 5 1 4 3.5-4 6-4.5"></path>
</symbol>
<symbol id="icon-folder-svgrepo-com" viewBox="0 0 32 32">
<path fill="#e0995e" style="fill: var(--color6, #e0995e)" d="M32 16c0 8.837-7.163 16-16 16s-16-7.163-16-16c0-8.837 7.163-16 16-16s16 7.163 16 16z"></path>
<path fill="#231f20" style="fill: var(--color2, #231f20)" opacity="0.2" d="M16 11.45h-8.75c-0.7 0-1.25 0.55-1.25 1.2v11.1c0 0.7 0.55 1.25 1.25 1.25h17.5c0.7 0 1.25-0.55 1.25-1.25v-12.3h-10z"></path>
<path fill="#fff" style="fill: var(--color4, #fff)" d="M16 10.45h-8.75c-0.7 0-1.25 0.55-1.25 1.2v11.1c0 0.7 0.55 1.25 1.25 1.25h17.5c0.7 0 1.25-0.55 1.25-1.25v-12.3h-10z"></path>
<path fill="#e0e0d1" style="fill: var(--color8, #e0e0d1)" d="M26 9.25c0-0.7-0.55-1.25-1.25-1.25h-6.25c-0.7 0-1.25 0.55-1.25 1.25 0 0-0.15 1.15-1.25 1.25h10v-1.25z"></path>
</symbol>
<symbol id="icon-frames-svgrepo-com" viewBox="0 0 32 32">
<path fill="#4f5d73" style="fill: var(--color7, #4f5d73)" d="M32 16c0 8.837-7.163 16-16 16s-16-7.163-16-16c0-8.837 7.163-16 16-16s16 7.163 16 16z"></path>
<path fill="#231f20" style="fill: var(--color2, #231f20)" opacity="0.2" d="M18.5 10.5v9h-11v-9h11zM18.5 9h-11c-0.85 0-1.5 0.65-1.5 1.5v9c0 0.85 0.65 1.5 1.5 1.5h11c0.85 0 1.5-0.65 1.5-1.5v-9c0-0.85-0.65-1.5-1.5-1.5v0z"></path>
<path fill="#231f20" style="fill: var(--color2, #231f20)" opacity="0.2" d="M24.25 26h-12.25c-0.4 0-0.75-0.35-0.75-0.75s0.35-0.75 0.75-0.75h11.5v-9.5c0-0.4 0.35-0.75 0.75-0.75s0.75 0.35 0.75 0.75v10.25c0 0.4-0.35 0.75-0.75 0.75z"></path>
<path fill="#231f20" style="fill: var(--color2, #231f20)" opacity="0.2" d="M21.75 23.5h-12.25c-0.4 0-0.75-0.35-0.75-0.75s0.35-0.75 0.75-0.75h11.5v-9.5c0-0.4 0.35-0.75 0.75-0.75s0.75 0.35 0.75 0.75v10.25c0 0.4-0.35 0.75-0.75 0.75z"></path>
<path fill="#fff" style="fill: var(--color4, #fff)" d="M18.5 9.5v9h-11v-9h11zM18.5 8h-11c-0.85 0-1.5 0.65-1.5 1.5v9c0 0.85 0.65 1.5 1.5 1.5h11c0.85 0 1.5-0.65 1.5-1.5v-9c0-0.85-0.65-1.5-1.5-1.5v0z"></path>
<path fill="#e0e0d1" style="fill: var(--color8, #e0e0d1)" d="M24.25 25h-12.25c-0.4 0-0.75-0.35-0.75-0.75s0.35-0.75 0.75-0.75h11.5v-9.5c0-0.4 0.35-0.75 0.75-0.75s0.75 0.35 0.75 0.75v10.25c0 0.4-0.35 0.75-0.75 0.75z"></path>
<path fill="#e0e0d1" style="fill: var(--color8, #e0e0d1)" d="M21.75 22.5h-12.25c-0.4 0-0.75-0.35-0.75-0.75s0.35-0.75 0.75-0.75h11.5v-9.5c0-0.4 0.35-0.75 0.75-0.75s0.75 0.35 0.75 0.75v10.25c0 0.4-0.35 0.75-0.75 0.75z"></path>
</symbol>
<symbol id="icon-mail-svgrepo-com" viewBox="0 0 32 32">
<path fill="#77b3d4" style="fill: var(--color3, #77b3d4)" d="M32 16c0 8.837-7.163 16-16 16s-16-7.163-16-16c0-8.837 7.163-16 16-16s16 7.163 16 16z"></path>
<path fill="#231f20" style="fill: var(--color2, #231f20)" opacity="0.2" d="M26 22c0 1.1-0.9 2-2 2h-16c-1.1 0-2-0.9-2-2v-10c0-1.1 0.9-2 2-2h16c1.1 0 2 0.9 2 2v10z"></path>
<path fill="#e0e0d1" style="fill: var(--color8, #e0e0d1)" d="M26 21c0 1.1-0.9 2-2 2h-16c-1.1 0-2-0.9-2-2v-10c0-1.1 0.9-2 2-2h16c1.1 0 2 0.9 2 2v10z"></path>
<path fill="#231f20" style="fill: var(--color2, #231f20)" opacity="0.2" d="M17.75 15.1c-0.95-1.050-2.55-1.050-3.5 0l-7.75 6.5c-0.1 0.1-0.15 0.2-0.25 0.3 0.35 0.65 1 1.1 1.7 1.1h16c0.75 0 1.35-0.45 1.7-1.1-0.050-0.1-0.15-0.2-0.25-0.3l-7.65-6.5z"></path>
<path fill="#e0e0d1" style="fill: var(--color8, #e0e0d1)" d="M17.75 16c-0.95-0.95-2.55-0.95-3.5 0l-7.75 5.75c-0.1 0.1-0.15 0.15-0.25 0.25 0.35 0.6 1 0.95 1.7 0.95h16c0.75 0 1.35-0.4 1.7-0.95-0.050-0.1-0.15-0.15-0.25-0.25l-7.65-5.75z"></path>
<path fill="#231f20" style="fill: var(--color2, #231f20)" opacity="0.2" d="M6.3 10.1c0.35-0.65 1-1.1 1.7-1.1h16c0.75 0 1.35 0.45 1.7 1.1-0.050 0.1-0.15 0.2-0.25 0.3l-7.7 6.5c-0.95 1.050-2.55 1.050-3.5 0l-7.95-6.8z"></path>
<path fill="#fff" style="fill: var(--color4, #fff)" d="M14.25 16c0.95 0.95 2.55 0.95 3.5 0l7.75-5.75c0.1-0.1 0.15-0.15 0.25-0.25-0.35-0.6-1-0.95-1.7-0.95h-16.050c-0.75 0-1.35 0.4-1.7 0.95 0.050 0.1 0.15 0.15 0.25 0.25l7.7 5.75z"></path>
</symbol>
<symbol id="icon-stack-svgrepo-com" viewBox="0 0 32 32">
<path fill="#e0e0d1" style="fill: var(--color8, #e0e0d1)" d="M32 16c0 8.837-7.163 16-16 16s-16-7.163-16-16c0-8.837 7.163-16 16-16s16 7.163 16 16z"></path>
<path fill="#231f20" style="fill: var(--color2, #231f20)" opacity="0.2" d="M16.9 26.8c-0.5 0.3-1.25 0.3-1.75 0l-8.8-5.25c-0.5-0.3-0.5-0.75 0-1.050l8.75-5.25c0.5-0.3 1.25-0.3 1.75 0l8.75 5.25c0.5 0.3 0.5 0.75 0 1.050l-8.7 5.25z"></path>
<path fill="#c75c5c" style="fill: var(--color1, #c75c5c)" d="M16.9 25.8c-0.5 0.3-1.25 0.3-1.75 0l-8.8-5.25c-0.5-0.3-0.5-0.75 0-1.050l8.75-5.25c0.5-0.3 1.25-0.3 1.75 0l8.75 5.25c0.5 0.3 0.5 0.75 0 1.050l-8.7 5.25z"></path>
<path fill="#231f20" style="fill: var(--color2, #231f20)" opacity="0.2" d="M16.9 22.8c-0.5 0.3-1.25 0.3-1.75 0l-8.8-5.25c-0.5-0.3-0.5-0.75 0-1.050l8.75-5.25c0.5-0.3 1.25-0.3 1.75 0l8.75 5.25c0.5 0.3 0.5 0.75 0 1.050l-8.7 5.25z"></path>
<path fill="#76c2af" style="fill: var(--color5, #76c2af)" d="M16.9 21.8c-0.5 0.3-1.25 0.3-1.75 0l-8.8-5.25c-0.5-0.3-0.5-0.75 0-1.050l8.75-5.25c0.5-0.3 1.25-0.3 1.75 0l8.75 5.25c0.5 0.3 0.5 0.75 0 1.050l-8.7 5.25z"></path>
<path fill="#231f20" style="fill: var(--color2, #231f20)" opacity="0.2" d="M16.9 18.8c-0.5 0.3-1.25 0.3-1.75 0l-8.8-5.25c-0.5-0.3-0.5-0.75 0-1.050l8.75-5.25c0.5-0.3 1.25-0.3 1.75 0l8.75 5.25c0.5 0.3 0.5 0.75 0 1.050l-8.7 5.25z"></path>
<path fill="#4f5d73" style="fill: var(--color7, #4f5d73)" d="M16.9 17.8c-0.5 0.3-1.25 0.3-1.75 0l-8.8-5.25c-0.5-0.3-0.5-0.75 0-1.050l8.75-5.25c0.5-0.3 1.25-0.3 1.75 0l8.75 5.25c0.5 0.3 0.5 0.75 0 1.050l-8.7 5.25z"></path>
</symbol>
<symbol id="icon-tv-svgrepo-com" viewBox="0 0 32 32">
<path fill="#f5cf87" style="fill: var(--color9, #f5cf87)" d="M32 16c0 8.837-7.163 16-16 16s-16-7.163-16-16c0-8.837 7.163-16 16-16s16 7.163 16 16z"></path>
<path fill="#231f20" style="fill: var(--color2, #231f20)" opacity="0.2" d="M26 24.5c0 0.55-0.45 1-1 1h-18c-0.55 0-1-0.45-1-1v-15c0-0.55 0.45-1 1-1h18c0.55 0 1 0.45 1 1v15z"></path>
<path fill="#4f5d73" style="fill: var(--color7, #4f5d73)" d="M26 23.5c0 0.55-0.45 1-1 1h-18c-0.55 0-1-0.45-1-1v-15c0-0.55 0.45-1 1-1h18c0.55 0 1 0.45 1 1v15z"></path>
<path fill="#e0e0d1" style="fill: var(--color8, #e0e0d1)" d="M24 18.5c0 0.55-0.45 1-1 1h-14c-0.55 0-1-0.45-1-1v-8.050c0-0.55 0.45-1 1-1h14c0.55 0 1 0.45 1 1v8.050z"></path>
<path fill="#231f20" style="fill: var(--color2, #231f20)" opacity="0.2" d="M23 9.45h-14c-0.55 0-1 0.45-1 1v0.55c0-0.55 0.45-1 1-1h14c0.55 0 1 0.45 1 1v-0.55c0-0.55-0.45-1-1-1z"></path>
<path fill="#231f20" style="fill: var(--color2, #231f20)" opacity="0.2" d="M10 22.5c0 0.55-0.45 1-1 1v0c-0.55 0-1-0.45-1-1v0c0-0.55 0.45-1 1-1v0c0.55 0 1 0.45 1 1v0z"></path>
<path fill="#231f20" style="fill: var(--color2, #231f20)" opacity="0.2" d="M24 22.5c0 0.55-0.45 1-1 1v0c-0.55 0-1-0.45-1-1v0c0-0.55 0.45-1 1-1v0c0.55 0 1 0.45 1 1v0z"></path>
<path fill="#76c2af" style="fill: var(--color5, #76c2af)" d="M10 22c0 0.55-0.45 1-1 1v0c-0.55 0-1-0.45-1-1v0c0-0.55 0.45-1 1-1v0c0.55 0 1 0.45 1 1v0z"></path>
<path fill="#76c2af" style="fill: var(--color5, #76c2af)" d="M24 22c0 0.55-0.45 1-1 1v0c-0.55 0-1-0.45-1-1v0c0-0.55 0.45-1 1-1v0c0.55 0 1 0.45 1 1v0z"></path>
<path fill="#f5cf87" style="fill: var(--color9, #f5cf87)" d="M12.5 22.5c0 0.3-0.2 0.5-0.5 0.5v0c-0.3 0-0.5-0.2-0.5-0.5v-1c0-0.3 0.2-0.5 0.5-0.5v0c0.3 0 0.5 0.2 0.5 0.5v1z"></path>
<path fill="#f5cf87" style="fill: var(--color9, #f5cf87)" d="M14.5 22.5c0 0.3-0.2 0.5-0.5 0.5v0c-0.3 0-0.5-0.2-0.5-0.5v-1c0-0.3 0.2-0.5 0.5-0.5v0c0.3 0 0.5 0.2 0.5 0.5v1z"></path>
<path fill="#f5cf87" style="fill: var(--color9, #f5cf87)" d="M18.5 22.5c0 0.3-0.2 0.5-0.5 0.5v0c-0.3 0-0.5-0.2-0.5-0.5v-1c0-0.3 0.2-0.5 0.5-0.5v0c0.3 0 0.5 0.2 0.5 0.5v1z"></path>
<path fill="#f5cf87" style="fill: var(--color9, #f5cf87)" d="M20.5 22.5c0 0.3-0.2 0.5-0.5 0.5v0c-0.3 0-0.5-0.2-0.5-0.5v-1c0-0.3 0.2-0.5 0.5-0.5v0c0.3 0 0.5 0.2 0.5 0.5v1z"></path>
<path fill="#f5cf87" style="fill: var(--color9, #f5cf87)" d="M16.5 22.5c0 0.3-0.2 0.5-0.5 0.5v0c-0.3 0-0.5-0.2-0.5-0.5v-1c0-0.3 0.2-0.5 0.5-0.5v0c0.3 0 0.5 0.2 0.5 0.5v1z"></path>
<path fill="#231f20" style="fill: var(--color2, #231f20)" opacity="0.2" d="M12 21c-0.3 0-0.5 0.2-0.5 0.5v0.5c0-0.3 0.2-0.5 0.5-0.5s0.5 0.2 0.5 0.5v-0.5c0-0.3-0.2-0.5-0.5-0.5z"></path>
<path fill="#231f20" style="fill: var(--color2, #231f20)" opacity="0.2" d="M14 21c-0.3 0-0.5 0.2-0.5 0.5v0.5c0-0.3 0.2-0.5 0.5-0.5s0.5 0.2 0.5 0.5v-0.5c0-0.3-0.2-0.5-0.5-0.5z"></path>
<path fill="#231f20" style="fill: var(--color2, #231f20)" opacity="0.2" d="M18 21c-0.3 0-0.5 0.2-0.5 0.5v0.5c0-0.3 0.2-0.5 0.5-0.5s0.5 0.2 0.5 0.5v-0.5c0-0.3-0.2-0.5-0.5-0.5z"></path>
<path fill="#231f20" style="fill: var(--color2, #231f20)" opacity="0.2" d="M20 21c-0.3 0-0.5 0.2-0.5 0.5v0.5c0-0.3 0.2-0.5 0.5-0.5s0.5 0.2 0.5 0.5v-0.5c0-0.3-0.2-0.5-0.5-0.5z"></path>
<path fill="#231f20" style="fill: var(--color2, #231f20)" opacity="0.2" d="M16 21c-0.3 0-0.5 0.2-0.5 0.5v0.5c0-0.3 0.2-0.5 0.5-0.5s0.5 0.2 0.5 0.5v-0.5c0-0.3-0.2-0.5-0.5-0.5z"></path>
<path fill="#fff" style="fill: var(--color4, #fff)" opacity="0.2" d="M24 18.5v-8.050c0-0.55-0.45-1-1-1h-10.25l5.8 10.050h4.45c0.55 0 1-0.45 1-1z"></path>
</symbol>
</defs>
</svg>
