<svg aria-hidden="true" style="position: absolute; width: 0; height: 0; overflow: hidden;" version="1.1" xmlns="http://www.w3.org/2000/svg" xmlns:xlink="http://www.w3.org/1999/xlink">
<defs>
<symbol id="icon-app-device-mobile-application-apps-svgrepo-com" viewBox="0 0 32 32">
<path fill="#47a6e3" style="fill: var(--color1, #47a6e3)" d="M4 1.333h6.667c1.473 0 2.667 1.194 2.667 2.667v6.667c0 1.473-1.194 2.667-2.667 2.667h-6.667c-1.473 0-2.667-1.194-2.667-2.667v-6.667c0-1.473 1.194-2.667 2.667-2.667z"></path>
<path fill="#f55fa6" style="fill: var(--color2, #f55fa6)" d="M21.333 1.333h6.667c1.473 0 2.667 1.194 2.667 2.667v6.667c0 1.473-1.194 2.667-2.667 2.667h-6.667c-1.473 0-2.667-1.194-2.667-2.667v-6.667c0-1.473 1.194-2.667 2.667-2.667z"></path>
<path fill="#da3380" style="fill: var(--color3, #da3380)" d="M4 18.667h6.667c1.473 0 2.667 1.194 2.667 2.667v6.667c0 1.473-1.194 2.667-2.667 2.667h-6.667c-1.473 0-2.667-1.194-2.667-2.667v-6.667c0-1.473 1.194-2.667 2.667-2.667z"></path>
<path fill="#0e7cc9" style="fill: var(--color4, #0e7cc9)" d="M21.333 18.667h6.667c1.473 0 2.667 1.194 2.667 2.667v6.667c0 1.473-1.194 2.667-2.667 2.667h-6.667c-1.473 0-2.667-1.194-2.667-2.667v-6.667c0-1.473 1.194-2.667 2.667-2.667z"></path>
<path fill="#f55fa6" style="fill: var(--color2, #f55fa6)" d="M13.333 21.333c-0.005 1.471-1.196 2.662-2.666 2.667h-6.667c-1.473 0-2.667-1.194-2.667-2.667s1.194-2.667 2.667-2.667v0h6.667c1.471 0.005 2.662 1.196 2.667 2.666v0z"></path>
<path fill="#47a6e3" style="fill: var(--color1, #47a6e3)" d="M30.667 21.333c-0.005 1.471-1.196 2.662-2.666 2.667h-6.667c-1.473 0-2.667-1.194-2.667-2.667s1.194-2.667 2.667-2.667v0h6.667c1.471 0.005 2.662 1.196 2.667 2.666v0z"></path>
<path fill="#6c2e7c" style="fill: var(--color5, #6c2e7c)" d="M10.667 0h-6.667c-2.209 0-4 1.791-4 4v0 6.667c0 2.209 1.791 4 4 4v0h6.667c2.209 0 4-1.791 4-4v0-6.667c0-2.209-1.791-4-4-4v0zM12 10.667c0 0.736-0.597 1.333-1.333 1.333v0h-6.667c-0.736 0-1.333-0.597-1.333-1.333v0-6.667c0-0.736 0.597-1.333 1.333-1.333v0h6.667c0.736 0 1.333 0.597 1.333 1.333v0z"></path>
<path fill="#6c2e7c" style="fill: var(--color5, #6c2e7c)" d="M28 0h-6.667c-2.209 0-4 1.791-4 4v0 6.667c0 2.209 1.791 4 4 4v0h6.667c2.209 0 4-1.791 4-4v0-6.667c0-2.209-1.791-4-4-4v0zM29.333 10.667c0 0.736-0.597 1.333-1.333 1.333v0h-6.667c-0.736 0-1.333-0.597-1.333-1.333v0-6.667c0-0.736 0.597-1.333 1.333-1.333v0h6.667c0.736 0 1.333 0.597 1.333 1.333v0z"></path>
<path fill="#6c2e7c" style="fill: var(--color5, #6c2e7c)" d="M10.667 17.333h-6.667c-2.209 0-4 1.791-4 4v0 6.667c0 2.209 1.791 4 4 4v0h6.667c2.209 0 4-1.791 4-4v0-6.667c0-2.209-1.791-4-4-4v0zM12 28c0 0.736-0.597 1.333-1.333 1.333v0h-6.667c-0.736 0-1.333-0.597-1.333-1.333v0-6.667c0-0.736 0.597-1.333 1.333-1.333v0h6.667c0.736 0 1.333 0.597 1.333 1.333v0z"></path>
<path fill="#6c2e7c" style="fill: var(--color5, #6c2e7c)" d="M28 17.333h-6.667c-2.209 0-4 1.791-4 4v0 6.667c0 2.209 1.791 4 4 4v0h6.667c2.209 0 4-1.791 4-4v0-6.667c0-2.209-1.791-4-4-4v0zM29.333 28c0 0.736-0.597 1.333-1.333 1.333v0h-6.667c-0.736 0-1.333-0.597-1.333-1.333v0-6.667c0-0.736 0.597-1.333 1.333-1.333v0h6.667c0.736 0 1.333 0.597 1.333 1.333v0z"></path>
</symbol>
<symbol id="icon-bar-statistics-graph-chart-svgrepo-com" viewBox="0 0 32 32">
<path fill="#8d6de8" style="fill: var(--color6, #8d6de8)" d="M14.667 4v26.667h-8v-26.667c0.005-1.471 1.196-2.662 2.666-2.667h2.667c1.471 0.005 2.662 1.196 2.667 2.666v0z"></path>
<path fill="#8d6de8" style="fill: var(--color6, #8d6de8)" d="M28 14.667v16h-8v-16c0.005-1.471 1.196-2.662 2.666-2.667h2.667c1.471 0.005 2.662 1.196 2.667 2.666v0z"></path>
<path fill="#a78eef" style="fill: var(--color7, #a78eef)" d="M14.667 4v20h-8v-20c0.005-1.471 1.196-2.662 2.666-2.667h2.667c1.471 0.005 2.662 1.196 2.667 2.666v0z"></path>
<path fill="#a78eef" style="fill: var(--color7, #a78eef)" d="M28 14.667v9.333h-8v-9.333c0.005-1.471 1.196-2.662 2.666-2.667h2.667c1.471 0.005 2.662 1.196 2.667 2.666v0z"></path>
<path fill="#000" style="fill: var(--color8, #000)" d="M30.667 32h-25.333c-2.946 0-5.333-2.388-5.333-5.333v0-25.333c0-0.736 0.597-1.333 1.333-1.333s1.333 0.597 1.333 1.333v0 25.333c0 1.473 1.194 2.667 2.667 2.667v0h25.333c0.736 0 1.333 0.597 1.333 1.333s-0.597 1.333-1.333 1.333v0z"></path>
<path fill="#6c2e7c" style="fill: var(--color5, #6c2e7c)" d="M30.667 29.333h-1.333v-14.667c0-2.209-1.791-4-4-4v0h-2.667c-2.209 0-4 1.791-4 4v0 14.667h-2.667v-25.333c0-2.209-1.791-4-4-4v0h-2.667c-2.209 0-4 1.791-4 4v0 25.333c-1.473 0-2.667-1.194-2.667-2.667v0-25.333c0-0.736-0.597-1.333-1.333-1.333s-1.333 0.597-1.333 1.333v0 25.333c0 2.946 2.388 5.333 5.333 5.333v0h25.333c0.736 0 1.333-0.597 1.333-1.333s-0.597-1.333-1.333-1.333v0zM8 29.333v-25.333c0-0.736 0.597-1.333 1.333-1.333v0h2.667c0.736 0 1.333 0.597 1.333 1.333v0 25.333zM21.333 29.333v-14.667c0-0.736 0.597-1.333 1.333-1.333v0h2.667c0.736 0 1.333 0.597 1.333 1.333v0 14.667z"></path>
<symbol id="icon-bar-statistics-graph-com" viewBox="0 0 32 32">
<path fill="#da3380" style="fill: var(--color3, #da3380)" d="M30.667 5.333v16c0 2.209-1.791 4-4 4v0h-4.227l-4.56 4.547c-0.478 0.488-1.144 0.79-1.88 0.79s-1.402-0.302-1.88-0.79l-0-0-4.56-4.547h-4.227c-2.209 0-4-1.791-4-4v0-16c0-2.209 1.791-4 4-4v0h21.333c2.209 0 4 1.791 4 4v0z"></path>
<path fill="#f55fa6" style="fill: var(--color2, #f55fa6)" d="M30.667 5.333v9.333c0 2.209-1.791 4-4 4v0h-4.227l-4.56 4.547c-0.478 0.488-1.144 0.79-1.88 0.79s-1.402-0.302-1.88-0.79l-0-0-4.56-4.547h-4.227c-2.209 0-4-1.791-4-4v0-9.333c0-2.209 1.791-4 4-4v0h21.333c2.209 0 4 1.791 4 4v0z"></path>
<path fill="#6c2e7c" style="fill: var(--color5, #6c2e7c)" d="M26.667 0h-21.333c-2.946 0-5.333 2.388-5.333 5.333v0 16c0 2.946 2.388 5.333 5.333 5.333v0h3.677l4.161 4.161c0.724 0.724 1.724 1.171 2.828 1.171s2.104-0.448 2.828-1.171l4.161-4.161h3.677c2.946 0 5.333-2.388 5.333-5.333v0-16c0-2.946-2.388-5.333-5.333-5.333v0zM29.333 21.333c0 1.473-1.194 2.667-2.667 2.667v0h-4.229c-0.368 0-0.701 0.149-0.943 0.391l-4.552 4.552c-0.241 0.241-0.575 0.39-0.943 0.39s-0.701-0.149-0.943-0.39l-4.552-4.552c-0.241-0.241-0.575-0.391-0.943-0.391h-4.229c-1.473 0-2.667-1.194-2.667-2.667v0-16c0-1.473 1.194-2.667 2.667-2.667v0h21.333c1.473 0 2.667 1.194 2.667 2.667v0z"></path>
<path fill="#6c2e7c" style="fill: var(--color5, #6c2e7c)" d="M24 6.667h-16c-0.736 0-1.333 0.597-1.333 1.333s0.597 1.333 1.333 1.333v0h16c0.736 0 1.333-0.597 1.333-1.333s-0.597-1.333-1.333-1.333v0z"></path>
<path fill="#6c2e7c" style="fill: var(--color5, #6c2e7c)" d="M24 12h-16c-0.736 0-1.333 0.597-1.333 1.333s0.597 1.333 1.333 1.333v0h16c0.736 0 1.333-0.597 1.333-1.333s-0.597-1.333-1.333-1.333v0z"></path>
<path fill="#6c2e7c" style="fill: var(--color5, #6c2e7c)" d="M24 17.333h-16c-0.736 0-1.333 0.597-1.333 1.333s0.597 1.333 1.333 1.333v0h16c0.736 0 1.333-0.597 1.333-1.333s-0.597-1.333-1.333-1.333v0z"></path>
</symbol>
<symbol id="icon-chart-svgrepo-com" viewBox="0 0 32 32">
<path fill="#fffaee" style="fill: var(--color9, #fffaee)" d="M0.5 4.5h31v23h-31v-23z"></path>
<path fill="#cc4121" style="fill: var(--color10, #cc4121)" d="M4.5 14.5h3v9h-3v-9z"></path>
<path fill="#d1712a" style="fill: var(--color11, #d1712a)" d="M9.5 10.5h3v13h-3v-13z"></path>
<path fill="#e0a838" style="fill: var(--color12, #e0a838)" d="M14.5 12.5h3v11h-3v-11z"></path>
<path fill="#ead13f" style="fill: var(--color13, #ead13f)" d="M19.5 8.5h3v15h-3v-15z"></path>
<path fill="#c3cc6a" style="fill: var(--color14, #c3cc6a)" d="M24.5 16.5h3v7h-3v-7z"></path>
<path fill="#231f20" style="fill: var(--color15, #231f20)" d="M0 4v24h32v-24h-32zM31 27h-30v-22h30v22zM29 24v-1h-1v-7h-4v7h-1v-15h-4v15h-1v-11h-4v11h-1v-13h-4v13h-1v-9h-4v9h-1v1h26zM25 17h2v6h-2v-6zM20 9h2v14h-2v-14zM15 13h2v10h-2v-10zM10 11h2v12h-2v-12zM5 15h2v8h-2v-8z"></path>
</symbol>
<symbol id="icon-code-svgrepo-com" viewBox="0 0 32 32">
<path fill="#3d3935" style="fill: var(--color16, #3d3935)" d="M0.5 4.5h31v21h-31v-21z"></path>
<path fill="#a3aeb5" style="fill: var(--color17, #a3aeb5)" d="M0.5 4.5v21h13v4h6v-4h12v-21h-31zM30 24h-28v-18h28v18z"></path>
<path fill="#788287" style="fill: var(--color18, #788287)" d="M13.5 25.5h6v1.5h-6v-1.5z"></path>
<path fill="#231f20" style="fill: var(--color15, #231f20)" d="M32 26v-22h-32v22h13v3h-1v1h9v-1h-1v-3h12zM1 25v-20h30v20h-30zM19 29h-5v-3h5v3z"></path>
<path fill="#c3cc6a" style="fill: var(--color14, #c3cc6a)" d="M9 10h-3v-1h3v1zM7 11v1h3v-1h-3zM7 18h3v-1h-3v1zM6 20h3v-1h-3v1z"></path>
<path fill="#e0a838" style="fill: var(--color12, #e0a838)" d="M22 13v1h-14v-1h14zM8 16h14v-1h-14v1z"></path>
<path fill="#ead13f" style="fill: var(--color13, #ead13f)" d="M17 12h-6v-1h6v1zM21 9h-11v1h11v-1z"></path>
</symbol>
<symbol id="icon-contact-svgrepo-com" viewBox="0 0 32 32">
<path fill="#af9480" style="fill: var(--color19, #af9480)" d="M6.5 3.5h19v25h-19v-25z"></path>
<path fill="#c3cc6a" style="fill: var(--color14, #c3cc6a)" d="M25.5 21.5h2v2h-2v-2z"></path>
<path fill="#cc4121" style="fill: var(--color10, #cc4121)" d="M25.5 5.5h2v2h-2v-2z"></path>
<path fill="#d1712a" style="fill: var(--color11, #d1712a)" d="M25.5 9.5h2v2h-2v-2z"></path>
<path fill="#e0a838" style="fill: var(--color12, #e0a838)" d="M25.5 13.5h2v2h-2v-2z"></path>
<path fill="#ead13f" style="fill: var(--color13, #ead13f)" d="M25.5 17.5h2v2h-2v-2z"></path>
<path fill="#716558" style="fill: var(--color20, #716558)" d="M19 13c0 1.657-1.343 3-3 3s-3-1.343-3-3 1.343-3 3-3 3 1.343 3 3zM18.219 16.812l-0.403-0.269c-0.548 0.283-1.159 0.457-1.816 0.457s-1.268-0.174-1.816-0.456l-0.403 0.269c-1.113 0.741-1.781 1.99-1.781 3.328v2.859h8v-2.859c0-1.338-0.668-2.587-1.781-3.329z"></path>
<path fill="#231f20" style="fill: var(--color15, #231f20)" d="M28 8v-3h-2v-2h-20v1h-2v1h2v1h-2v1h2v4h-2v1h2v1h-2v1h2v4h-2v1h2v1h-2v1h2v4h-2v1h2v1h-2v1h2v1h20v-5h2v-3h-2v-1h2v-3h-2v-1h2v-3h-2v-1h2v-3h-2v-1h2zM27 6v1h-1v-1h1zM27 22v1h-1v-1h1zM27 18v1h-1v-1h1zM27 14v1h-1v-1h1zM27 10v1h-1v-1h1zM25 28h-18v-24h18v24z"></path>
</symbol>
<symbol id="icon-data-document-file-folder-svgrepo-com" viewBox="0 0 32 32">
<path fill="#8d6de8" style="fill: var(--color6, #8d6de8)" d="M30.667 9.333v16c0 2.946-2.388 5.333-5.333 5.333v0h-18.667c-2.946 0-5.333-2.388-5.333-5.333v0-21.333c0.005-1.471 1.196-2.662 2.666-2.667h8c1.471 0.005 2.662 1.196 2.667 2.666v2.667h13.333c1.471 0.005 2.662 1.196 2.667 2.666v0z"></path>
<path fill="#a78eef" style="fill: var(--color7, #a78eef)" d="M30.667 9.333v9.333c0 2.946-2.388 5.333-5.333 5.333v0h-18.667c-2.946 0-5.333-2.388-5.333-5.333v0-14.667c0.005-1.471 1.196-2.662 2.666-2.667h8c1.471 0.005 2.662 1.196 2.667 2.666v2.667h13.333c1.471 0.005 2.662 1.196 2.667 2.666v0z"></path>
<path fill="#6c2e7c" style="fill: var(--color5, #6c2e7c)" d="M28 5.333h-12v-1.333c0-2.209-1.791-4-4-4v0h-8c-2.209 0-4 1.791-4 4v0 21.333c0.005 3.68 2.987 6.662 6.666 6.667h18.667c3.68-0.005 6.662-2.987 6.667-6.666v-16c0-2.209-1.791-4-4-4v0zM29.333 25.333c0 2.209-1.791 4-4 4v0h-18.667c-2.209 0-4-1.791-4-4v0-21.333c0-0.736 0.597-1.333 1.333-1.333v0h8c0.736 0 1.333 0.597 1.333 1.333v0 1.333h-6.667c-0.736 0-1.333 0.597-1.333 1.333s0.597 1.333 1.333 1.333v0h21.333c0.736 0 1.333 0.597 1.333 1.333v0z"></path>
<path fill="#6c2e7c" style="fill: var(--color5, #6c2e7c)" d="M18.667 24h-12c-0.736 0-1.333 0.597-1.333 1.333s0.597 1.333 1.333 1.333v0h12c0.736 0 1.333-0.597 1.333-1.333s-0.597-1.333-1.333-1.333v0z"></path>
<path fill="#6c2e7c" style="fill: var(--color5, #6c2e7c)" d="M6.667 21.333h5.333c0.736 0 1.333-0.597 1.333-1.333s-0.597-1.333-1.333-1.333v0h-5.333c-0.736 0-1.333 0.597-1.333 1.333s0.597 1.333 1.333 1.333v0z"></path>
</symbol>
<symbol id="icon-internet-browser-web-website-svgrepo-com" viewBox="0 0 32 32">
<path fill="#ccc" style="fill: var(--color21, #ccc)" d="M6.667 1.333h18.667c2.946 0 5.333 2.388 5.333 5.333v18.667c0 2.946-2.388 5.333-5.333 5.333h-18.667c-2.946 0-5.333-2.388-5.333-5.333v-18.667c0-2.946 2.388-5.333 5.333-5.333z"></path>
<path fill="#eaeaea" style="fill: var(--color22, #eaeaea)" d="M6.667 1.333h18.667c2.946 0 5.333 2.388 5.333 5.333v12c0 2.946-2.388 5.333-5.333 5.333h-18.667c-2.946 0-5.333-2.388-5.333-5.333v-12c0-2.946 2.388-5.333 5.333-5.333z"></path>
<path fill="#47a6e3" style="fill: var(--color1, #47a6e3)" d="M30.667 6.667v4h-29.333v-4c0-2.946 2.388-5.333 5.333-5.333v0h18.667c2.946 0 5.333 2.388 5.333 5.333v0z"></path>
<path fill="#eaeaea" style="fill: var(--color22, #eaeaea)" d="M8 6.667c0 0.736-0.597 1.333-1.333 1.333s-1.333-0.597-1.333-1.333c0-0.736 0.597-1.333 1.333-1.333s1.333 0.597 1.333 1.333z"></path>
<path fill="#ffce69" style="fill: var(--color23, #ffce69)" d="M13.333 6.667c0 0.736-0.597 1.333-1.333 1.333s-1.333-0.597-1.333-1.333c0-0.736 0.597-1.333 1.333-1.333s1.333 0.597 1.333 1.333z"></path>
<path fill="#0e7cc9" style="fill: var(--color4, #0e7cc9)" d="M26.667 6.667c0 0.736-0.597 1.333-1.333 1.333s-1.333-0.597-1.333-1.333c0-0.736 0.597-1.333 1.333-1.333s1.333 0.597 1.333 1.333z"></path>
<path fill="#6c2e7c" style="fill: var(--color5, #6c2e7c)" d="M25.333 0h-18.667c-3.68 0.005-6.662 2.987-6.667 6.666v18.667c0.005 3.68 2.987 6.662 6.666 6.667h18.667c3.68-0.005 6.662-2.987 6.667-6.666v-18.667c-0.005-3.68-2.987-6.662-6.666-6.667h-0zM29.333 25.333c0 2.209-1.791 4-4 4v0h-18.667c-2.209 0-4-1.791-4-4v0-18.667c0-2.209 1.791-4 4-4v0h18.667c2.209 0 4 1.791 4 4v0z"></path>
<path fill="#6c2e7c" style="fill: var(--color5, #6c2e7c)" d="M25.333 9.333h-18.667c-0.736 0-1.333 0.597-1.333 1.333s0.597 1.333 1.333 1.333v0h18.667c0.736 0 1.333-0.597 1.333-1.333s-0.597-1.333-1.333-1.333v0z"></path>
</symbol>
<symbol id="icon-month-date-schedule-calendar-svgrepo-com" viewBox="0 0 32 32">
<path fill="#ccc" style="fill: var(--color21, #ccc)" d="M5.333 4h21.333c2.209 0 4 1.791 4 4v18.667c0 2.209-1.791 4-4 4h-21.333c-2.209 0-4-1.791-4-4v-18.667c0-2.209 1.791-4 4-4z"></path>
<path fill="#eaeaea" style="fill: var(--color22, #eaeaea)" d="M5.333 4h21.333c2.209 0 4 1.791 4 4v12c0 2.209-1.791 4-4 4h-21.333c-2.209 0-4-1.791-4-4v-12c0-2.209 1.791-4 4-4z"></path>
<path fill="#ce5959" style="fill: var(--color24, #ce5959)" d="M30.667 8v2.667h-29.333v-2.667c0-2.209 1.791-4 4-4v0h21.333c2.209 0 4 1.791 4 4v0z"></path>
<path fill="#6c2e7c" style="fill: var(--color5, #6c2e7c)" d="M26.667 2.667h-1.333v-1.333c0-0.736-0.597-1.333-1.333-1.333s-1.333 0.597-1.333 1.333v0 1.333h-13.333v-1.333c0-0.736-0.597-1.333-1.333-1.333s-1.333 0.597-1.333 1.333v0 1.333h-1.333c-2.946 0-5.333 2.388-5.333 5.333v0 18.667c0 2.946 2.388 5.333 5.333 5.333v0h21.333c2.946 0 5.333-2.388 5.333-5.333v0-18.667c0-2.946-2.388-5.333-5.333-5.333v0zM29.333 26.667c0 1.473-1.194 2.667-2.667 2.667v0h-21.333c-1.473 0-2.667-1.194-2.667-2.667v0-18.667c0-1.473 1.194-2.667 2.667-2.667v0h1.333v1.333c0 0.736 0.597 1.333 1.333 1.333s1.333-0.597 1.333-1.333v0-1.333h13.333v1.333c0 0.736 0.597 1.333 1.333 1.333s1.333-0.597 1.333-1.333v0-1.333h1.333c1.473 0 2.667 1.194 2.667 2.667v0z"></path>
<path fill="#6c2e7c" style="fill: var(--color5, #6c2e7c)" d="M25.333 9.333h-18.667c-0.736 0-1.333 0.597-1.333 1.333s0.597 1.333 1.333 1.333v0h18.667c0.736 0 1.333-0.597 1.333-1.333s-0.597-1.333-1.333-1.333v0z"></path>
<path fill="#6c2e7c" style="fill: var(--color5, #6c2e7c)" d="M9.333 16h-2.667c-0.736 0-1.333 0.597-1.333 1.333s0.597 1.333 1.333 1.333v0h2.667c0.736 0 1.333-0.597 1.333-1.333s-0.597-1.333-1.333-1.333v0z"></path>
<path fill="#6c2e7c" style="fill: var(--color5, #6c2e7c)" d="M9.333 22.667h-2.667c-0.736 0-1.333 0.597-1.333 1.333s0.597 1.333 1.333 1.333v0h2.667c0.736 0 1.333-0.597 1.333-1.333s-0.597-1.333-1.333-1.333v0z"></path>
<path fill="#6c2e7c" style="fill: var(--color5, #6c2e7c)" d="M17.333 16h-2.667c-0.736 0-1.333 0.597-1.333 1.333s0.597 1.333 1.333 1.333v0h2.667c0.736 0 1.333-0.597 1.333-1.333s-0.597-1.333-1.333-1.333v0z"></path>
<path fill="#6c2e7c" style="fill: var(--color5, #6c2e7c)" d="M17.333 22.667h-2.667c-0.736 0-1.333 0.597-1.333 1.333s0.597 1.333 1.333 1.333v0h2.667c0.736 0 1.333-0.597 1.333-1.333s-0.597-1.333-1.333-1.333v0z"></path>
<path fill="#6c2e7c" style="fill: var(--color5, #6c2e7c)" d="M25.333 16h-2.667c-0.736 0-1.333 0.597-1.333 1.333s0.597 1.333 1.333 1.333v0h2.667c0.736 0 1.333-0.597 1.333-1.333s-0.597-1.333-1.333-1.333v0z"></path>
<path fill="#6c2e7c" style="fill: var(--color5, #6c2e7c)" d="M25.333 22.667h-2.667c-0.736 0-1.333 0.597-1.333 1.333s0.597 1.333 1.333 1.333v0h2.667c0.736 0 1.333-0.597 1.333-1.333s-0.597-1.333-1.333-1.333v0z"></path>
</symbol>
<symbol id="icon-navigation-list-option-menu-svgrepo-com" viewBox="0 0 32 32">
<path fill="#ce5959" style="fill: var(--color24, #ce5959)" d="M4 2.667h24c1.473 0 2.667 1.194 2.667 2.667s-1.194 2.667-2.667 2.667h-24c-1.473 0-2.667-1.194-2.667-2.667s1.194-2.667 2.667-2.667z"></path>
<path fill="#b24040" style="fill: var(--color25, #b24040)" d="M4 24h24c1.473 0 2.667 1.194 2.667 2.667s-1.194 2.667-2.667 2.667h-24c-1.473 0-2.667-1.194-2.667-2.667s1.194-2.667 2.667-2.667z"></path>
<path fill="#ce5959" style="fill: var(--color24, #ce5959)" d="M4 13.333h24c1.473 0 2.667 1.194 2.667 2.667s-1.194 2.667-2.667 2.667h-24c-1.473 0-2.667-1.194-2.667-2.667s1.194-2.667 2.667-2.667z"></path>
<path fill="#6c2e7c" style="fill: var(--color5, #6c2e7c)" d="M28 1.333h-24c-2.209 0-4 1.791-4 4s1.791 4 4 4v0h24c2.209 0 4-1.791 4-4s-1.791-4-4-4v0zM28 6.667h-24c-0.736 0-1.333-0.597-1.333-1.333s0.597-1.333 1.333-1.333v0h24c0.736 0 1.333 0.597 1.333 1.333s-0.597 1.333-1.333 1.333v0z"></path>
<path fill="#6c2e7c" style="fill: var(--color5, #6c2e7c)" d="M28 22.667h-24c-2.209 0-4 1.791-4 4s1.791 4 4 4v0h24c2.209 0 4-1.791 4-4s-1.791-4-4-4v0zM28 28h-24c-0.736 0-1.333-0.597-1.333-1.333s0.597-1.333 1.333-1.333v0h24c0.736 0 1.333 0.597 1.333 1.333s-0.597 1.333-1.333 1.333v0z"></path>
<path fill="#6c2e7c" style="fill: var(--color5, #6c2e7c)" d="M28 12h-24c-2.209 0-4 1.791-4 4s1.791 4 4 4v0h24c2.209 0 4-1.791 4-4s-1.791-4-4-4v0zM28 17.333h-24c-0.736 0-1.333-0.597-1.333-1.333s0.597-1.333 1.333-1.333v0h24c0.736 0 1.333 0.597 1.333 1.333s-0.597 1.333-1.333 1.333v0z"></path>
</symbol>
<symbol id="icon-photograph-svgrepo-com" viewBox="0 0 32 32">
<path fill="#fffaee" style="fill: var(--color9, #fffaee)" d="M30 30.5h-28c-0.276 0-0.5-0.224-0.5-0.5v-28c0-0.276 0.224-0.5 0.5-0.5h28c0.276 0 0.5 0.224 0.5 0.5v28c0 0.276-0.224 0.5-0.5 0.5z"></path>
<path fill="#3d3935" style="fill: var(--color16, #3d3935)" d="M21.5 11c0 3.038-2.462 5.5-5.5 5.5s-5.5-2.462-5.5-5.5 2.462-5.5 5.5-5.5 5.5 2.462 5.5 5.5zM30.5 30v-5.5h-29v5.5c0 0.276 0.224 0.5 0.5 0.5h28c0.276 0 0.5-0.224 0.5-0.5zM26 13c-1.105 0-2 0.895-2 2s0.895 2 2 2 2-0.895 2-2-0.895-2-2-2zM29 3h-4v4h4v-4z"></path>
<path fill="#cc4121" style="fill: var(--color10, #cc4121)" d="M8 15c0 1.105-0.895 2-2 2s-2-0.895-2-2 0.895-2 2-2 2 0.895 2 2zM14 16.119v8.381h1v-8.095c-0.346-0.064-0.68-0.16-1-0.286z"></path>
<path fill="#e0a838" style="fill: var(--color12, #e0a838)" d="M15 24.5h1v-8c-0.342 0-0.675-0.035-1-0.095v8.095z"></path>
<path fill="#c3cc6a" style="fill: var(--color14, #c3cc6a)" d="M16 16.5v8h1v-8.095c-0.325 0.060-0.658 0.095-1 0.095z"></path>
<path fill="#248ebc" style="fill: var(--color26, #248ebc)" d="M17 16.405v8.095h1v-8.381c-0.32 0.126-0.654 0.222-1 0.286z"></path>
<path fill="#231f20" style="fill: var(--color15, #231f20)" d="M30 1h-28c-0.552 0-1 0.448-1 1v28c0 0.552 0.448 1 1 1h28c0.552 0 1-0.448 1-1v-28c0-0.552-0.448-1-1-1zM30 30h-28v-5h28v5zM2 24v-22h28v22h-28zM28 28h-24v-1h24v1zM16 5c-3.314 0-6 2.686-6 6s2.686 6 6 6 6-2.686 6-6-2.686-6-6-6zM16 16c-2.757 0-5-2.243-5-5s2.243-5 5-5 5 2.243 5 5-2.243 5-5 5z"></path>
</symbol>
<symbol id="icon-plan-svgrepo-com" viewBox="0 0 32 32">
<path fill="#fffaee" style="fill: var(--color9, #fffaee)" d="M2.5 6.5h27v21h-27v-21z"></path>
<path fill="#231f20" style="fill: var(--color15, #231f20)" d="M28 6v-2h-1v2h-1v-2h-1v2h-4v-2h-1v2h-1v-2h-1v2h-4v-2h-1v2h-1v-2h-1v2h-4v-2h-1v2h-1v-2h-1v2h-2v22h28v-22h-2zM29 27h-26v-20h26v20z"></path>
<path fill="#cc4121" style="fill: var(--color10, #cc4121)" d="M13 12h-8v-2h8v2z"></path>
<path fill="#d1712a" style="fill: var(--color11, #d1712a)" d="M17 15h-8v-2h8v2z"></path>
<path fill="#e0a838" style="fill: var(--color12, #e0a838)" d="M17 18h-8v-2h8v2z"></path>
<path fill="#ead13f" style="fill: var(--color13, #ead13f)" d="M23 21h-8v-2h8v2z"></path>
<path fill="#c3cc6a" style="fill: var(--color14, #c3cc6a)" d="M27 24h-4v-2h4v2z"></path>
</symbol>
<symbol id="icon-read-svgrepo-com" viewBox="0 0 32 32">
<path fill="#6f9b45" style="fill: var(--color27, #6f9b45)" d="M13.5 28.5v-1h-13v-22h31v22h-13v1z"></path>
<path fill="#fffaee" style="fill: var(--color9, #fffaee)" d="M14.118 25.5h-11.618v-21h13.5v21.941z"></path>
<path fill="#dbd2c1" style="fill: var(--color28, #dbd2c1)" d="M16 4.5h13.5v21h-11.618l-1.882 0.941z"></path>
<path fill="#231f20" style="fill: var(--color15, #231f20)" d="M6 11h6v1h-6v-1zM6 14h6v-1h-6v1zM6 16h6v-1h-6v1zM6 18h6v-1h-6v1zM20 18h6v-1h-6v1zM26 11h-6v1h6v-1zM26 13h-6v1h6v-1zM26 15h-6v1h6v-1zM32 5v23h-13v1h-6v-1h-13v-23h2v-1h28v1h2zM3 25h11.236l1.764 0.882 1.764-0.882h11.236v-20h-26v20zM31 6h-1v20h-12l-2 1-2-1h-12v-20h-1v21h13v1h4v-1h13v-21z"></path>
</symbol>
<symbol id="icon-report-svgrepo-com" viewBox="0 0 32 32">
<path fill="#dbd2c1" style="fill: var(--color28, #dbd2c1)" d="M27.5 7.5v19h-23v2h25v-21z"></path>
<path fill="#fffaee" style="fill: var(--color9, #fffaee)" d="M2.5 5.5h25v21h-25v-21z"></path>
<path fill="#d1712a" style="fill: var(--color11, #d1712a)" d="M4.5 4.5h9v11h-9v-11z"></path>
<path fill="#e0a838" style="fill: var(--color12, #e0a838)" d="M5.5 23.5v-1.25l3.719-2.789 3.781-0.945 4 1 4.219-1.055 3.281-2.461v7.5z"></path>
<path fill="#231f20" style="fill: var(--color15, #231f20)" d="M7 10h4v1h-4v-1zM7 13h4v-1h-4v1zM21 18l4-3v9h-20v-2l4-3 4-1 4 1 4-1zM17 20.031l-4-1-3.562 0.89-3.438 2.579v0.5h18v-6l-2.562 1.921-4.438 1.11zM30 7v22h-26v-2h-2v-22h2v-1h4.092c0.207-0.581 0.757-1 1.408-1s1.201 0.419 1.408 1h3.092v1h14v2h2zM5 15h8v-10h-2v2.5c0 0.827-0.673 1.5-1.5 1.5s-1.5-0.673-1.5-1.5v-0.5h1v0.5c0 0.275 0.224 0.5 0.5 0.5s0.5-0.225 0.5-0.5v-2.5h-5v10zM3 26h24v-20h-13v10h-10v-10h-1v20zM29 8h-1v19h-23v1h24v-20z"></path>
</symbol>
<symbol id="icon-schedule-svgrepo-com" viewBox="0 0 32 32">
<path fill="#fffaee" style="fill: var(--color9, #fffaee)" d="M2.5 29.5v-21h2v-2h25v21h-2v2z"></path>
<path fill="#cc4121" style="fill: var(--color10, #cc4121)" d="M2.5 15.5v-7h2v-2h25v7h-25v2z"></path>
<path fill="#a3aeb5" style="fill: var(--color17, #a3aeb5)" d="M24 9.5c-0.827 0-1.5-0.673-1.5-1.5v-4c0-0.827 0.673-1.5 1.5-1.5s1.5 0.673 1.5 1.5v4c0 0.827-0.673 1.5-1.5 1.5zM10 9.5c-0.827 0-1.5-0.673-1.5-1.5v-4c0-0.827 0.673-1.5 1.5-1.5s1.5 0.673 1.5 1.5v4c0 0.827-0.673 1.5-1.5 1.5z"></path>
<path fill="#231f20" style="fill: var(--color15, #231f20)" d="M13 19v-2h3v7h-2v-5h-1zM19 24h2v-7h-3v2h1v5zM30 6v22h-2v2h-26v-22h2v-2h4v-2c0-1.105 0.895-2 2-2s2 0.895 2 2v2h10v-2c0-1.105 0.895-2 2-2s2 0.895 2 2v2h4zM23 8c0 0.551 0.449 1 1 1s1-0.449 1-1v-4c0-0.551-0.449-1-1-1s-1 0.449-1 1v4zM9 8c0 0.551 0.449 1 1 1s1-0.449 1-1v-4c0-0.551-0.449-1-1-1s-1 0.449-1 1v4zM3 15h1v-6h-1v6zM27 28h-23v-12h-1v13h24v-1zM29 14h-24v13h24v-13zM29 13v-6h-3v1c0 1.105-0.895 2-2 2s-2-0.895-2-2v-1h-10v1c0 1.105-0.895 2-2 2s-2-0.895-2-2v-1h-3v6h24z"></path>
</symbol>
</defs>
</svg>
